<svg width="24" height="24" viewBox="0 0 24 24" fill="none" xmlns="http://www.w3.org/2000/svg">
<path d="M18.7265 6.76617C18.7976 6.64139 18.7956 6.48777 18.7214 6.36459L17.5252 4.37092C17.4533 4.25059 17.3237 4.17725 17.1834 4.17725H10.0062C9.86591 4.17725 9.73632 4.25059 9.66441 4.37056L8.4682 6.36423C8.39397 6.48741 8.39237 6.64103 8.46304 6.76581C8.48102 6.79768 8.50291 6.82598 8.52801 6.85108L13.3128 11.6359C13.3189 11.6419 13.3267 11.6439 13.3331 11.6494C13.3595 11.6729 13.3885 11.6916 13.4205 11.7073C13.4328 11.7133 13.444 11.7208 13.4568 11.7256C13.5003 11.7425 13.5462 11.7532 13.5948 11.7532C13.6434 11.7532 13.6893 11.7425 13.7327 11.7265C13.7456 11.7217 13.7566 11.7142 13.7691 11.7082C13.8009 11.6927 13.8301 11.6734 13.8565 11.6503C13.8629 11.6448 13.8709 11.6427 13.8767 11.6368L18.6616 6.85197C18.6867 6.82652 18.7085 6.79768 18.7265 6.76617L18.7265 6.76617ZM17.6751 6.17094H15.5167L15.2775 4.97474H16.9577L17.6751 6.17094ZM11.7127 6.96841L12.6829 9.87844L9.77246 6.96841H11.7127ZM14.6367 6.96841L13.5948 10.0937L12.5529 6.96841H14.6367ZM12.486 6.17094L12.7252 4.97474H14.4642L14.7034 6.17094H12.486ZM15.4769 6.96841H17.4171L14.5071 9.87844L15.4769 6.96841ZM10.2318 4.97474H11.912L11.6728 6.17094H9.51408L10.2318 4.97474Z" fill="#FF5B14"/>
<path d="M3.22785 24.114H13.5949C13.6371 24.114 13.6798 24.1072 13.721 24.0937L20.8982 21.7013C21.0612 21.647 21.1709 21.4946 21.1709 21.3228V13.7104L23.3025 12.9253C23.4437 12.8735 23.5433 12.7465 23.5604 12.5979C23.5775 12.4491 23.5106 12.3024 23.3858 12.2195L20.9934 10.6245C20.8909 10.5564 20.7629 10.5387 20.6461 10.5779L13.5304 12.9497H5.68515L9.33518 11.7332L9.08277 10.9768L3.10176 12.9705C3.04319 12.9901 2.98979 13.0232 2.94582 13.067L0.553415 15.4594C0.439313 15.5735 0.405136 15.7449 0.466906 15.8941C0.528675 16.0422 0.674639 16.1395 0.835737 16.1395H2.82941V23.7155C2.82941 23.9355 3.00759 24.1142 3.22814 24.1142L3.22785 24.114ZM20.7134 11.3959L22.2912 12.4478L15.69 14.8793L14.3331 13.5224L20.7134 11.3959ZM13.9937 14.3106L15.3066 15.6236C15.4159 15.7336 15.5809 15.7695 15.7265 15.7156L20.3733 14.0041V21.0354L13.9935 23.1619L13.9937 14.3106ZM3.62658 16.1393H11.2025C11.3086 16.1393 11.4099 16.0975 11.4845 16.0225L13.1962 14.3106V23.3166H3.62656L3.62658 16.1393ZM3.39286 13.7469H12.6321L11.0372 15.3418H1.79792L3.39286 13.7469Z" fill="#FF5B14"/>
<path d="M4.42405 21.7217H5.22152V22.5191H4.42405V21.7217Z" fill="#FF5B14"/>
<path d="M6.01898 21.7217H6.81645V22.5191H6.01898V21.7217Z" fill="#FF5B14"/>
<path d="M7.61392 21.7217H8.41139V22.5191H7.61392V21.7217Z" fill="#FF5B14"/>
<path d="M15.5886 0.987305H16.3861V1.78477H15.5886V0.987305Z" fill="#FF5B14"/>
<path d="M16.3861 0.189941H17.1835V0.98741H16.3861V0.189941Z" fill="#FF5B14"/>
<path d="M17.1835 0.987305H17.981V1.78477H17.1835V0.987305Z" fill="#FF5B14"/>
<path d="M16.3861 1.78491H17.1835V2.58238H16.3861V1.78491Z" fill="#FF5B14"/>
<path d="M23.1646 1.38623H23.962V2.1837H23.1646V1.38623Z" fill="#FF5B14"/>
<path d="M22.3671 6.56958H23.1645V7.36705H22.3671V6.56958Z" fill="#FF5B14"/>
<path d="M3.22784 6.96851H4.02531V7.76597H3.22784V6.96851Z" fill="#FF5B14"/>
<path d="M3.22784 8.56348H4.02531V9.36094H3.22784V8.56348Z" fill="#FF5B14"/>
<path d="M4.02531 7.76587H4.82278V8.56334H4.02531V7.76587Z" fill="#FF5B14"/>
<path d="M2.43037 7.76587H3.22784V8.56334H2.43037V7.76587Z" fill="#FF5B14"/>
<path d="M0.0379715 2.58228H0.83544V3.37974H0.0379715V2.58228Z" fill="#FF5B14"/>
<path d="M6.01898 8.56334C6.67851 8.56334 7.21518 9.10001 7.21518 9.75954H8.01265C8.01265 8.66017 7.11835 7.76587 6.01898 7.76587V8.56334Z" fill="#FF5B14"/>
<path d="M18.3797 10.1582H19.1772C19.1772 9.49869 19.7139 8.96202 20.3734 8.96202V8.16455C19.274 8.16455 18.3797 9.05885 18.3797 10.1582Z" fill="#FF5B14"/>
<path d="M20.3734 3.3799H21.1709C21.1709 2.72037 21.7076 2.1837 22.3671 2.1837V1.38623C21.2677 1.38623 20.3734 2.28053 20.3734 3.3799Z" fill="#FF5B14"/>
<path d="M6.41772 2.58228H7.21519V3.37974H6.41772V2.58228Z" fill="#FF5B14"/>
<path d="M7.21519 1.78491H8.01266V2.58238H7.21519V1.78491Z" fill="#FF5B14"/>
<path d="M8.01266 2.58228H8.81013V3.37974H8.01266V2.58228Z" fill="#FF5B14"/>
<path d="M7.21519 3.37988H8.01266V4.17735H7.21519V3.37988Z" fill="#FF5B14"/>
<path d="M4.02531 0.189941H4.82278V0.98741H4.02531V0.189941Z" fill="#FF5B14"/>
</svg>
