<svg width="24" height="24" viewBox="0 0 24 24" fill="none" xmlns="http://www.w3.org/2000/svg">
<path d="M7.495 11.7449C7.18526 11.7931 6.95367 12.1013 6.95367 12.4859V13.0022C6.95367 13.4183 7.22495 13.745 7.5726 13.7498C7.5888 13.7558 7.61354 13.7784 7.6187 13.7925C7.66267 13.9271 7.69916 14.1346 7.69774 14.2295C7.5119 14.4826 7.56566 14.865 7.83801 15.1375L8.2031 15.5026C8.49752 15.797 8.92064 15.836 9.16986 15.593C9.18428 15.5865 9.21507 15.5845 9.227 15.5895C9.35552 15.6553 9.5305 15.7776 9.59725 15.8456C9.64549 16.1554 9.95362 16.387 10.3383 16.387H10.8545C11.2707 16.387 11.5973 16.1157 11.6021 15.768C11.6082 15.7518 11.6308 15.7271 11.6447 15.7219C11.7792 15.678 11.9864 15.6415 12.0817 15.6429C12.3346 15.8287 12.7173 15.775 12.9895 15.5026L13.3546 15.1375C13.649 14.8431 13.688 14.42 13.445 14.1708C13.4384 14.1565 13.4365 14.1257 13.4415 14.1136C13.5073 13.9851 13.6296 13.8101 13.6976 13.7434C14.0074 13.6951 14.2389 13.387 14.2389 13.0023V12.4861C14.2389 12.0699 13.9677 11.7433 13.62 11.7385C13.6038 11.7324 13.5791 11.7098 13.5739 11.696C13.53 11.5614 13.4935 11.3538 13.4949 11.2589C13.6807 11.0058 13.627 10.6233 13.3544 10.3509L12.9893 9.98584C12.6949 9.69142 12.2718 9.65243 12.0226 9.89541C12.0082 9.902 11.9776 9.90395 11.9654 9.89897C11.8369 9.83311 11.6619 9.71082 11.5952 9.64282C11.547 9.33326 11.2388 9.1015 10.8541 9.1015L10.3383 9.10132C9.92211 9.10132 9.59546 9.3726 9.59068 9.72024C9.58463 9.73644 9.56202 9.76119 9.54796 9.76635C9.41338 9.81032 9.20636 9.84698 9.11095 9.84538C8.85783 9.65955 8.47548 9.71331 8.20293 9.98583L7.83784 10.3509C7.71288 10.4759 7.62833 10.6329 7.59967 10.7931C7.56371 10.9939 7.61765 11.1845 7.74741 11.3177C7.754 11.3319 7.75596 11.3627 7.75097 11.3748C7.68529 11.5032 7.563 11.6781 7.495 11.7449L7.495 11.7449ZM8.37221 11.6929C8.50234 11.4389 8.46834 11.1069 8.29798 10.888C8.30493 10.8755 8.31561 10.8602 8.33163 10.8442L8.69672 10.4791C8.7138 10.462 8.73 10.451 8.743 10.4442C9.02798 10.6377 9.54457 10.5017 9.76494 10.4298C10.0376 10.3408 10.2491 10.0813 10.2837 9.8064C10.2974 9.80248 10.3159 9.7991 10.3385 9.7991H10.8547C10.8789 9.7991 10.8983 9.80284 10.9124 9.80711C10.9781 10.1421 11.4405 10.4136 11.6479 10.5199C11.9019 10.65 12.2339 10.616 12.4527 10.4456C12.4653 10.4526 12.4804 10.4633 12.4965 10.4793L12.8615 10.8444C12.8786 10.8615 12.8897 10.8777 12.8964 10.8906C12.7029 11.1756 12.8389 11.6922 12.9109 11.9126C12.9999 12.1853 13.2594 12.3968 13.5342 12.4313C13.5382 12.445 13.5415 12.4635 13.5415 12.4861V13.0023C13.5415 13.0266 13.5378 13.046 13.5335 13.06C13.1985 13.1257 12.9271 13.5882 12.821 13.7954C12.6908 14.0494 12.7248 14.3814 12.8952 14.6003C12.8883 14.6128 12.8776 14.6281 12.8615 14.6441L12.4965 15.0092C12.4794 15.0263 12.4632 15.0373 12.4502 15.0441C12.1654 14.8508 11.6486 14.9866 11.4282 15.0587C11.1555 15.1477 10.9441 15.4072 10.9095 15.6821C10.8958 15.686 10.8773 15.6894 10.8547 15.6894L10.3383 15.6892C10.3141 15.6892 10.2947 15.6855 10.2806 15.6812C10.2149 15.3462 9.75247 15.0747 9.54508 14.9684C9.29107 14.8383 8.9591 14.8723 8.74014 15.0427C8.72768 15.0357 8.7122 15.025 8.69635 15.009L8.33126 14.6439C8.31417 14.6268 8.30314 14.6106 8.29637 14.5976C8.48987 14.3127 8.35387 13.7961 8.28195 13.5757C8.19295 13.303 7.93342 13.0915 7.65856 13.057C7.65465 13.0433 7.65126 13.0248 7.65126 13.0022V12.4859C7.65126 12.4617 7.655 12.4423 7.65927 12.4283C7.99446 12.3626 8.2659 11.9003 8.37221 11.6929L8.37221 11.6929Z" fill="#FF5B14"/>
<path d="M10.5965 14.2251C11.4133 14.2251 12.0778 13.5605 12.0778 12.7436C12.0778 11.9267 11.4133 11.2622 10.5965 11.2622C9.77958 11.2622 9.1149 11.9269 9.1149 12.7436C9.11508 13.5605 9.77958 14.2251 10.5965 14.2251ZM10.5965 11.96C11.0287 11.96 11.38 12.3116 11.38 12.7436C11.38 13.1758 11.0285 13.5273 10.5965 13.5273C10.1643 13.5273 9.81271 13.1758 9.81271 12.7436C9.81289 12.3116 10.1645 11.96 10.5965 11.96Z" fill="#FF5B14"/>
<path d="M19.9136 10.9003C19.8932 10.8268 19.8754 10.7284 19.8714 10.67C20.011 10.4405 19.9336 10.1087 19.6637 9.83888L19.5517 9.72692C19.263 9.43819 18.9031 9.36966 18.6736 9.55194C18.6053 9.51313 18.5237 9.45688 18.4798 9.41843C18.4157 9.15801 18.1264 8.97876 17.7455 8.97876H17.5871C17.1782 8.97876 16.8751 9.18524 16.8423 9.47684C16.7688 9.49731 16.6703 9.51528 16.6119 9.5192C16.3823 9.37947 16.0505 9.45725 15.7808 9.72693L15.6689 9.8389C15.3802 10.1276 15.3116 10.4874 15.4939 10.717C15.4551 10.7854 15.3988 10.8669 15.3602 10.9109C15.0998 10.975 14.9205 11.2642 14.9205 11.6451V11.8036C14.9205 12.2124 15.127 12.5156 15.4188 12.5484C15.4393 12.6219 15.4571 12.7203 15.461 12.7787C15.3214 13.0083 15.399 13.3399 15.6687 13.6098L15.7807 13.7218C16.0696 14.0107 16.4293 14.079 16.6588 13.8967C16.7272 13.9355 16.8087 13.9918 16.8527 14.0302C16.9167 14.2907 17.206 14.4699 17.5869 14.4699H17.7454C18.1542 14.4699 18.4574 14.2634 18.4901 13.9718C18.5637 13.9514 18.6621 13.9334 18.7205 13.9295C18.9499 14.069 19.2817 13.9916 19.5516 13.7217L19.6635 13.6098C19.7782 13.4951 19.8619 13.364 19.9056 13.2304C19.9674 13.0418 19.9427 12.863 19.8385 12.7317C19.8773 12.6633 19.9336 12.5818 19.9722 12.5378C20.2326 12.4738 20.4119 12.1845 20.4119 11.8036L20.4117 11.6451C20.4117 11.2361 20.2052 10.9331 19.9136 10.9004L19.9136 10.9003ZM19.7139 11.8033C19.7139 11.8361 19.7103 11.8633 19.7059 11.884C19.4715 11.9774 19.2935 12.2628 19.1998 12.4456C19.1003 12.6396 19.1107 12.8785 19.2157 13.062C19.2045 13.078 19.1895 13.0965 19.1699 13.1161L19.058 13.2281C19.035 13.251 19.0135 13.2676 18.9958 13.2792C18.7632 13.1777 18.4364 13.2542 18.2416 13.3178C18.0337 13.3858 17.8716 13.5624 17.816 13.766C17.7968 13.7694 17.7731 13.772 17.7453 13.772H17.5869C17.554 13.772 17.5269 13.7685 17.5063 13.764C17.4128 13.5296 17.1275 13.3518 16.9447 13.258C16.7505 13.1585 16.5116 13.1688 16.3283 13.2738C16.3124 13.2628 16.2937 13.2478 16.2741 13.2283L16.1622 13.1163C16.1392 13.0933 16.1227 13.0718 16.1111 13.0542C16.2127 12.8215 16.1362 12.4947 16.0725 12.2998C16.0045 12.0919 15.8279 11.9297 15.6243 11.8742C15.6209 11.8549 15.6182 11.8313 15.6182 11.8035L15.6184 11.6451C15.6184 11.6123 15.6219 11.5851 15.6264 11.5644C15.861 11.471 16.0388 11.1856 16.1324 11.0026C16.2319 10.8086 16.2216 10.5696 16.1166 10.3862C16.1276 10.3702 16.1426 10.3517 16.1622 10.3321L16.2741 10.2201C16.2971 10.1972 16.3186 10.1806 16.3363 10.1691C16.5687 10.2707 16.8957 10.1942 17.0905 10.1304C17.2984 10.0624 17.4606 9.88585 17.5163 9.68239C17.5355 9.679 17.5592 9.67633 17.5869 9.67633H17.7454C17.7783 9.67633 17.8054 9.67989 17.826 9.68434C17.9195 9.91878 18.2048 10.0966 18.3876 10.1904C18.5816 10.2899 18.8207 10.2796 19.004 10.1746C19.0199 10.1856 19.0386 10.2005 19.0581 10.2201L19.1701 10.3321C19.1931 10.355 19.2098 10.3766 19.2212 10.3942C19.1195 10.6269 19.1961 10.9537 19.2598 11.1486C19.3278 11.3565 19.5044 11.5187 19.708 11.5742C19.7114 11.5935 19.7141 11.6171 19.7141 11.6449L19.7139 11.8033Z" fill="#FF5B14"/>
<path d="M17.6661 10.5513C17.0195 10.5513 16.4931 11.0775 16.4931 11.7241C16.4931 12.3708 17.0193 12.897 17.6661 12.897C18.3128 12.897 18.839 12.3708 18.839 11.7241C18.8392 11.0775 18.313 10.5513 17.6661 10.5513ZM17.6661 12.1994C17.4041 12.1994 17.1909 11.9862 17.1909 11.7243C17.1909 11.4623 17.4041 11.2492 17.6661 11.2492C17.9282 11.2492 18.1412 11.4625 18.1412 11.7243C18.1414 11.9862 17.9282 12.1994 17.6661 12.1994Z" fill="#FF5B14"/>
<path d="M17.282 17.544L13.5494 18.269C13.3091 17.8293 12.8151 17.5269 12.2457 17.5269H10.4286L10.404 17.5264L10.3766 17.5308C10.3709 17.5315 9.79951 17.6061 8.80642 17.2451C8.21296 17.0294 7.84039 16.8873 7.56838 16.7837C7.33342 16.6942 7.17819 16.6351 7.03098 16.586C6.73851 16.4884 5.30968 16.4701 4.51467 16.4674V16.4306C4.51467 15.9633 4.13463 15.5833 3.66735 15.5833H0.402695V16.281H3.66735C3.74834 16.281 3.81687 16.3495 3.81687 16.4305V21.4149C3.81687 21.4959 3.74834 21.5645 3.66735 21.5645H0.402695V22.2622H3.66735C4.04365 22.2622 4.36301 22.0155 4.4732 21.6755C5.21799 21.6981 5.61709 21.9217 5.6185 21.9226L5.6477 21.94L8.72168 23.0487C9.56969 23.3495 10.1982 23.4253 10.6167 23.4253C10.9936 23.4253 11.1997 23.3639 11.2415 23.3498L11.265 23.342L13.7758 22.0865L18.0515 20.0638C18.7304 19.8433 19.1128 19.1167 18.9056 18.4301C18.6977 17.7406 17.9722 17.3466 17.282 17.5441L17.282 17.544ZM17.8233 19.404L17.7984 19.4114L13.4739 21.4571L11.0066 22.6907C10.8868 22.7177 10.2094 22.8359 8.95665 22.3913L5.94336 21.3045C5.80807 21.2315 5.32603 21.0051 4.51452 20.9779V17.1652C5.54107 17.1691 6.63191 17.1997 6.81009 17.2478C6.94342 17.2923 7.09312 17.3492 7.31974 17.4356C7.59387 17.5401 7.96911 17.6832 8.56776 17.9007C9.63062 18.2871 10.2903 18.2439 10.4514 18.2245H12.2454C12.6653 18.2245 13.0069 18.5152 13.0069 18.8724C13.0069 19.2297 12.6653 19.5204 12.2454 19.5204H10.4322L9.31984 19.4957C9.19078 19.48 8.70838 19.4462 8.36073 19.7595C8.19821 19.9058 8.01006 20.1826 8.03569 20.6699C8.04548 20.8561 8.19946 21.0005 8.38387 21.0005C8.3901 21.0005 8.39633 21.0003 8.40257 21C8.59499 20.9898 8.74273 20.8257 8.73259 20.6333C8.72369 20.4634 8.7552 20.3444 8.82658 20.279C8.94139 20.174 9.16995 20.1788 9.23831 20.1886L9.26145 20.1923L10.4206 20.2182L12.2454 20.2183C13.0219 20.2183 13.6582 19.6562 13.702 18.9502L17.4309 18.2259L17.4651 18.2174C17.6224 18.1698 17.7899 18.1869 17.9366 18.2656C18.0831 18.3443 18.1901 18.4742 18.2376 18.6318C18.3364 18.9588 18.1506 19.3053 17.8234 19.4039L17.8233 19.404Z" fill="#FF5B14"/>
<path d="M20.3324 2.73951H23.5971V2.04175H20.3324C19.9561 2.04175 19.6367 2.28847 19.5266 2.62846C18.7818 2.60585 18.3827 2.38228 18.3813 2.38139L18.3521 2.36394L15.2781 1.25532C13.6662 0.683379 12.8465 0.924766 12.7584 0.954135L12.7349 0.961967L10.2241 2.21746L5.9484 4.24015C5.2695 4.4607 4.88712 5.18714 5.09433 5.87392C5.2661 6.44299 5.79032 6.81092 6.35638 6.81092C6.476 6.81092 6.59758 6.79436 6.71809 6.76001L10.4509 6.03481C10.6912 6.47449 11.1851 6.7771 11.7546 6.7771H13.5717L13.5962 6.77763L13.6236 6.77318C13.6292 6.77247 14.2007 6.69771 15.1938 7.05888C15.7873 7.27462 16.1597 7.41667 16.4317 7.52027C16.6667 7.60981 16.8221 7.66908 16.9693 7.71822C17.2617 7.81576 18.6906 7.8341 19.4856 7.83677V7.87362C19.4856 8.34089 19.8656 8.72094 20.3329 8.72094H23.5976V8.02318H20.3329C20.2519 8.02318 20.1834 7.95465 20.1834 7.87366L20.1829 2.88925C20.1829 2.80826 20.2514 2.73973 20.3324 2.73973L20.3324 2.73951ZM17.1895 7.05582C17.0562 7.01132 16.9065 6.95436 16.6797 6.86785C16.4057 6.76336 16.0303 6.62042 15.4319 6.40272C14.369 6.01626 13.7093 6.0597 13.5482 6.07892H11.7543C11.3343 6.07892 10.9927 5.78824 10.9927 5.43097C10.9927 5.0737 11.3343 4.78301 11.7543 4.78301H13.5674L14.6798 4.80776C14.8088 4.8236 15.2912 4.85724 15.6389 4.54395C15.8014 4.39763 15.9896 4.12083 15.9639 3.63347C15.9538 3.44104 15.7893 3.29259 15.5972 3.30344C15.4048 3.31359 15.2571 3.47771 15.2672 3.67014C15.2761 3.83996 15.2446 3.95904 15.1732 4.02437C15.0584 4.12939 14.8297 4.12441 14.7615 4.1148L14.7383 4.11106L13.5793 4.08525L11.7546 4.08507C10.9781 4.08507 10.3417 4.64722 10.2979 5.35318L6.56907 6.07751L6.5349 6.08606C6.37754 6.13358 6.21004 6.11649 6.06352 6.03782C5.91703 5.95914 5.81004 5.82919 5.76251 5.67165C5.71499 5.5143 5.73207 5.34679 5.81075 5.20028C5.88943 5.05378 6.01938 4.9468 6.17692 4.89927L6.20184 4.8918L10.5263 2.84613L12.9937 1.61256C13.1133 1.58533 13.7906 1.46731 15.0436 1.91197L18.057 2.99871C18.1923 3.0717 18.6744 3.29812 19.4857 3.32535V7.13807C18.4757 7.13451 17.3652 7.10318 17.1894 7.05583L17.1895 7.05582Z" fill="#FF5B14"/>
</svg>
