<svg width="24" height="24" viewBox="0 0 24 24" fill="none" xmlns="http://www.w3.org/2000/svg">
<g clip-path="url(#clip0_116_851)">
<path d="M22.7658 9.75948H21.5673C21.3926 9.75948 21.2367 9.64467 21.1892 9.47966C20.9946 8.80983 20.7246 8.15905 20.3872 7.54545C20.3043 7.39468 20.3326 7.20332 20.4563 7.07928L21.3049 6.23072C21.7705 5.76418 21.7705 5.00586 21.3049 4.53932L19.6131 2.84791C19.1613 2.39613 18.3731 2.39613 17.9217 2.84791L17.0731 3.69591C16.9491 3.81999 16.7581 3.84829 16.6069 3.76498C15.9937 3.4273 15.3429 3.15763 14.6724 2.96273C14.5072 2.9152 14.3924 2.7598 14.3924 2.58517V1.38614C14.3924 0.726615 13.8557 0.189941 13.1962 0.189941H10.8038C10.1442 0.189941 9.60757 0.726615 9.60757 1.38614V2.58517C9.60757 2.75979 9.49275 2.91537 9.3281 2.96326C8.65736 3.15746 8.00676 3.42734 7.39353 3.76519C7.24329 3.84814 7.0514 3.82055 6.92735 3.69613L6.07935 2.84812C5.62721 2.39634 4.83935 2.39634 4.38758 2.84812L2.6958 4.53953C2.23013 5.00607 2.23013 5.7644 2.6958 6.23094L3.54381 7.07949C3.66734 7.20356 3.69565 7.39492 3.61234 7.54603C3.50465 7.74184 3.40336 7.95082 3.30563 8.16478L3.22785 8.1646C3.00783 8.1646 2.82911 8.34278 2.82911 8.56333V9.42346L2.81114 9.48006C2.76325 9.64472 2.60785 9.75953 2.43269 9.75953H1.23417C0.574637 9.75953 0.0379639 10.2962 0.0379639 10.9557V13.3481C0.0379639 14.0077 0.574637 14.5443 1.23417 14.5443H2.43269C2.60732 14.5443 2.76325 14.6592 2.81078 14.8242C3.00534 15.494 3.27536 16.1448 3.61271 16.7584C3.69566 16.9091 3.66736 17.1005 3.54365 17.2246L2.69596 18.0731C2.47025 18.2988 2.34582 18.5991 2.34582 18.9188C2.34582 19.2382 2.47025 19.5388 2.69596 19.7646L4.38773 21.456C4.83952 21.9077 5.62773 21.9077 6.07951 21.456L6.92751 20.608C7.05158 20.4839 7.2433 20.4561 7.39369 20.5389C8.00692 20.8766 8.6577 21.1462 9.32826 21.3411C9.49273 21.3887 9.60755 21.5441 9.60755 21.7187V22.9177C9.60755 23.5773 10.1442 24.1139 10.8037 24.1139H13.1962C13.8557 24.1139 14.3924 23.5773 14.3924 22.9177V21.7187C14.3924 21.5441 14.5072 21.3885 14.6718 21.3406C15.3426 21.1464 15.9932 20.8765 16.6064 20.5387C16.7575 20.4554 16.9489 20.4837 17.0726 20.6077L17.9206 21.4557C18.372 21.9075 19.1606 21.9075 19.6123 21.4557L21.3041 19.7643C21.5298 19.5386 21.6543 19.238 21.6543 18.9186C21.6543 18.5989 21.5298 18.2986 21.3041 18.0729L20.4561 17.2243C20.3326 17.1003 20.3043 16.9089 20.3871 16.7582C20.7247 16.1446 20.9944 15.4938 21.189 14.8236C21.2369 14.6589 21.3923 14.5441 21.5671 14.5441L22.7658 14.5443C23.4253 14.5443 23.962 14.0076 23.962 13.3481V10.9557C23.962 10.2962 23.4253 9.75949 22.7658 9.75949L22.7658 9.75948ZM14.9078 8.28129L13.2048 9.98427C13.2954 8.52659 14.5067 7.36703 15.9872 7.36703H16.3859V7.76576C16.3859 9.24586 15.2267 10.4576 13.7687 10.5482L15.4717 8.84522L14.9078 8.28129ZM15.9872 6.56961C14.0087 6.56961 12.3986 8.17931 12.3986 10.1582V8.16454C12.3986 6.84517 11.3256 5.77214 10.0062 5.77214H9.60747C9.38745 5.77214 9.20873 5.95032 9.20873 6.17087C9.20873 7.49025 10.2818 8.56328 11.6011 8.56328V12.3265C10.5233 10.1749 8.44599 8.61436 5.97876 8.25299C7.29691 6.21785 9.55101 4.97467 11.9999 4.97467C13.6733 4.97467 15.2551 5.54926 16.514 6.56961H15.9872ZM11.5506 7.76508C10.8313 7.74229 10.2303 7.24158 10.057 6.57047C10.7761 6.59308 11.3771 7.09398 11.5506 7.76508ZM11.6012 19.3115C8.91574 19.1623 6.57756 17.5272 5.48435 15.147C6.79502 16.2608 8.48857 16.9367 10.3389 16.9367H11.6009L11.6012 19.3115ZM8.01255 14.9227C8.68721 14.825 9.20875 14.2485 9.20875 13.5475C9.20875 12.7779 8.58272 12.1519 7.81318 12.1519H7.41445C7.08478 12.1519 6.81635 11.8835 6.81635 11.5538C6.81635 11.2241 7.08478 10.9557 7.41445 10.9557H7.81318C8.14285 10.9557 8.41128 11.2241 8.41128 11.5538V11.6535H9.20875V11.5538C9.20875 10.8528 8.68721 10.2762 8.01255 10.1785V9.73828C10.1438 10.8644 11.6012 13.1012 11.6012 15.6746V16.1392H10.3391C9.52008 16.1392 8.73866 15.9845 8.01255 15.715V14.9227ZM7.21508 9.38604V10.178C6.54042 10.2757 6.01888 10.8523 6.01888 11.5533C6.01888 12.3228 6.64491 12.9489 7.41445 12.9489H7.81318C8.14285 12.9489 8.41128 13.2173 8.41128 13.547C8.41128 13.8766 8.14285 14.1454 7.81318 14.1454H7.41445C7.08478 14.1454 6.81635 13.877 6.81635 13.5473V13.4476H6.01888V13.5473C6.01888 14.2483 6.54042 14.8249 7.21508 14.9226V15.3628C5.08379 14.2367 3.62647 11.9999 3.62647 9.42647V8.96188H4.88852C5.70755 8.96188 6.48897 9.11657 7.21508 9.38607V9.38604ZM23.1644 13.3479C23.1644 13.5679 22.9854 13.7466 22.7657 13.7466H21.5672C21.0396 13.7466 20.5691 14.0984 20.4232 14.6016C20.245 15.2158 19.9977 15.8117 19.6887 16.3737C19.4356 16.8335 19.5193 17.4152 19.8925 17.7885L20.7405 18.637C20.8158 18.712 20.857 18.812 20.857 18.919C20.857 19.0254 20.8155 19.126 20.7405 19.201L19.0488 20.8924C18.898 21.0426 18.6353 21.0426 18.4845 20.8924L17.6365 20.0444C17.2632 19.6711 16.6815 19.5878 16.2217 19.8405C15.6603 20.1496 15.0638 20.3972 14.4496 20.575C13.9466 20.7206 13.5948 21.1911 13.5948 21.7185V22.9175C13.5948 23.1376 13.4157 23.3163 13.1961 23.3163H10.8037C10.584 23.3163 10.4049 23.1376 10.4049 22.9175V21.7185C10.4049 21.1909 10.0532 20.7204 9.54996 20.575C8.9355 20.3968 8.33936 20.1496 7.7779 19.8402C7.31773 19.5874 6.7364 19.6707 6.3631 20.044L5.51509 20.892C5.36485 21.0422 5.10194 21.0422 4.9508 20.892L3.2594 19.2006C3.1841 19.1257 3.14262 19.0251 3.14262 18.9186C3.14262 18.8118 3.1841 18.7116 3.25904 18.6367L4.10705 17.7881C4.48032 17.4148 4.56397 16.8331 4.31086 16.3733C4.00185 15.8115 3.75423 15.2154 3.57642 14.6018C3.43063 14.0984 2.9605 13.7466 2.43253 13.7466H1.234C1.01434 13.7466 0.83527 13.5679 0.83527 13.3479V10.9555C0.83527 10.7355 1.01434 10.5568 1.234 10.5568H2.43253C2.60004 10.5568 2.75988 10.5181 2.90746 10.4535C3.07336 11.6574 3.52105 12.771 4.18856 13.7235C4.93298 17.4385 8.20119 20.1265 11.9996 20.1265C16.3969 20.1265 19.9743 16.5491 19.9743 12.1518C19.9743 11.5865 19.9149 11.0218 19.7972 10.4732L19.0174 10.6405C19.1235 11.1338 19.1769 11.6427 19.1769 12.1518C19.1769 15.9745 16.17 19.1003 12.3984 19.3085V17.899L13.3609 16.9364H13.9933C15.9719 16.9364 17.5819 15.3267 17.5819 13.3478V12.5503C17.5819 12.3298 17.4032 12.1516 17.1832 12.1516H16.3857C14.4072 12.1516 12.7971 13.7613 12.7971 15.7402V16.3726L12.3984 16.7714V11.9178L12.9621 11.354H13.5946C15.5731 11.354 17.1832 9.74432 17.1832 7.76541V7.186C17.5006 7.51816 17.7897 7.88344 18.0441 8.2793L18.7152 7.8487C17.2391 5.54922 14.7287 4.1768 11.9996 4.1768C9.13866 4.1768 6.518 5.70392 5.09395 8.17448C5.02506 8.17252 4.95759 8.16416 4.88835 8.16416H4.19059C4.23046 8.08512 4.26998 8.00502 4.31145 7.92972C4.56458 7.46993 4.48092 6.88823 4.10763 6.51492L3.25963 5.66637C3.10405 5.51079 3.10405 5.25803 3.25963 5.10263L4.9514 3.41122C5.10217 3.26098 5.36455 3.2601 5.51514 3.41122L6.36369 4.25923C6.73644 4.63251 7.31833 4.71584 7.77849 4.46305C8.33991 4.15403 8.93642 3.90641 9.55056 3.7286C10.0531 3.58264 10.4048 3.11218 10.4048 2.58471V1.38569C10.4048 1.16567 10.5839 0.986951 10.8035 0.986951H13.1959C13.4156 0.986951 13.5947 1.16567 13.5947 1.38569V2.58471C13.5947 3.11232 13.9464 3.58278 14.4497 3.72824C15.0641 3.90642 15.6603 4.15367 16.2217 4.46305C16.6815 4.71582 17.2629 4.63251 17.6365 4.25923L18.4851 3.41122C18.6353 3.2601 18.8982 3.26098 19.0488 3.41122L20.7402 5.10263C20.8958 5.25821 20.8958 5.51098 20.7402 5.66637L19.8922 6.51492C19.5189 6.8882 19.4353 7.46993 19.6884 7.92972C19.9974 8.49151 20.245 9.08765 20.4228 9.70124C20.569 10.2048 21.0391 10.5566 21.5671 10.5566H22.7656C22.9852 10.5566 23.1643 10.7353 23.1643 10.9553L23.1644 13.3479ZM14.509 14.6609L13.6034 15.5664C13.694 14.1087 14.9054 12.9491 16.3859 12.9491H16.7846V13.3479C16.7846 14.828 15.6254 16.0397 14.1674 16.1303L15.0729 15.2248L14.509 14.6609Z" fill="#FF5B14"/>
<path d="M18.4221 8.94341C18.5736 9.24691 18.7048 9.56339 18.8121 9.88524L19.5685 9.63372C19.4496 9.27611 19.3038 8.92366 19.135 8.58667L18.4221 8.94341Z" fill="#FF5B14"/>
</g>
<defs>
<clipPath id="clip0_116_851">
<rect width="24" height="24" fill="white"/>
</clipPath>
</defs>
</svg>
