<svg fill="#f6e3e7" xmlns="http://www.w3.org/2000/svg" viewBox="0 0 98.74 112.52"><path d="M1007.88,574c1,2.77,1.92,5.82,1.71,8.67-.24,3.41-1.08,6.91-4.09,9.49-3.3,2.83-7.12,3.67-11.18,3.7-11.44.09-22.88,0-34.32,0-11.84,0-23.68.14-35.51-.06-5.82-.09-10.68-2.53-13-8.14-.79-1.87-.55-4.25-.44-6.38a28.86,28.86,0,0,1,4.66-15,47.65,47.65,0,0,1,8.56-9.56,27,27,0,0,1,9.79-4.59c14.44-3.8,29.24-1.89,43.84-1.7,10.39.13,19.22,5.34,25.53,13.81C1005.47,567,1006.71,570.58,1007.88,574Z" transform="translate(-910.88 -483.37)"/><path d="M979.73,491.46c6.13,6,9.64,13.63,9,22.08-.92,13.11-11.29,27.43-28.78,27.37-16.37.15-28.6-13.74-28.63-28.95a27.21,27.21,0,0,1,4.79-15.53A28.78,28.78,0,0,1,960,483.38,27.12,27.12,0,0,1,979.73,491.46Z" transform="translate(-910.88 -483.37)"/></svg>