<svg width="128" height="40" viewBox="0 0 128 40" fill="none" xmlns="http://www.w3.org/2000/svg">
<path d="M98.678 36.0579C93.24 36.0579 89.46 33.1639 88.946 28.7539C88.492 28.9359 87.964 29.0299 87.372 29.0299H85.89C83.71 29.0299 82.408 27.7439 82.408 25.5899V20.4239C82.408 19.1559 82.168 18.8359 82.158 18.8219C82.056 18.6979 81.85 18.6079 81.626 18.6079L81.388 18.6099C81.092 18.6099 80.818 18.7359 80.62 18.9499C80.588 18.9879 80.31 19.3899 80.31 20.3799V25.5459C80.31 27.6679 78.976 28.9859 76.828 28.9859H75.346C73.818 28.9859 72.702 28.3199 72.186 27.1699C71.688 28.3559 70.57 29.0279 68.994 29.0279H67.512C65.952 29.0279 64.842 28.3699 64.336 27.2059C63.83 28.3699 62.72 29.0279 61.16 29.0279H59.68C57.532 29.0279 56.198 27.7099 56.198 25.5879V25.1539C54.49 27.8519 51.426 29.5779 47.782 29.5779C44.312 29.5779 41.368 28.0139 39.62 25.5339V26.3079C39.62 28.0299 38.422 29.2819 36.774 29.2819C35.844 29.2819 34.882 28.9019 34.024 28.2299C32.73 29.0739 31.206 29.5379 29.632 29.5379H29.322C27.202 29.5379 25.162 28.7539 23.58 27.3299C22.848 26.6219 22.268 25.7919 21.836 24.8379V26.3079C21.836 28.0299 20.638 29.2819 18.99 29.2819C18.062 29.2819 17.092 28.9019 16.23 28.2299C14.84 29.0779 13.1 29.5799 11.368 29.5799C5.94 29.5799 2 25.5499 2 19.9999C2 14.4499 5.94 10.4199 11.368 10.4199C12.08 10.4199 12.784 10.5019 13.472 10.6619C13.828 6.53989 16.472 4.10989 19.032 4.10989C20.658 4.10989 21.836 5.35989 21.836 7.08389V11.8899C22.438 11.2979 23.302 10.9699 24.368 10.9699H25.85C28.03 10.9699 29.332 12.2719 29.332 14.4519V19.4479C29.332 20.4019 29.442 21.0459 29.644 21.2619C29.694 21.3099 29.888 21.3899 30.034 21.3899C30.362 21.3859 30.628 21.3419 30.822 21.1359C30.896 21.0559 31.134 20.7099 31.134 19.5339V14.4519C31.134 12.3039 32.468 10.9699 34.616 10.9699H36.098C38.272 10.9699 39.622 12.3039 39.622 14.4519V14.4639C41.37 11.9839 44.314 10.4199 47.784 10.4199C51.428 10.4199 54.492 12.1459 56.2 14.8439V11.6159C56.2 6.91789 59.046 4.11189 61.798 4.11189C63.058 4.11189 64.054 4.84189 64.456 5.95389C65.252 4.74389 66.63 3.94189 68.194 3.94189L68.406 3.94589C69.572 4.02189 70.644 4.54589 71.422 5.42589C72.206 6.30989 72.594 7.44189 72.518 8.61189C72.444 9.76989 71.922 10.8039 71.13 11.5459C71.518 11.8059 71.83 12.1499 72.054 12.5699C72.452 11.4519 73.45 10.7179 74.714 10.7179C75.656 10.7179 76.642 11.1199 77.522 11.8239C78.88 10.9459 80.478 10.4639 82.124 10.4639C84.768 10.4639 87.084 11.4219 88.648 13.1579C89.292 13.8719 89.786 14.6779 90.14 15.6139C91.292 12.5579 94.382 10.5919 98.426 10.5919C99.99 10.5919 100.942 10.7499 101.706 10.8759C102.14 10.9479 102.52 11.0159 103 11.0159C103.01 11.0159 103.02 11.0159 103.03 11.0159C103.712 11.0159 104.23 10.8659 104.642 10.6039C105.134 10.3199 105.792 9.99789 106.642 9.99789C108.164 9.99789 109.302 11.1559 109.468 12.8059C111.198 11.3079 113.512 10.4219 116.126 10.4219C121.754 10.4199 126 14.5399 126 19.9999C126 25.4599 121.754 29.5799 116.124 29.5799C112.854 29.5799 110.05 28.1899 108.276 25.9559C108.402 26.5239 108.47 27.1119 108.47 27.7059C108.47 32.6239 104.444 36.0579 98.678 36.0579ZM98.722 26.6999C97.334 26.6999 97.334 27.3619 97.334 27.5779C97.334 28.0719 97.944 28.4579 98.722 28.4579C99.5 28.4579 100.108 28.0719 100.108 27.5779C100.108 26.8519 99.354 26.6999 98.722 26.6999ZM106.566 22.5219C106.544 22.4359 106.522 22.3479 106.502 22.2579C106.478 22.2939 106.454 22.3299 106.428 22.3659C106.476 22.4179 106.522 22.4699 106.566 22.5219ZM90.856 22.4719C90.88 22.4459 90.904 22.4179 90.93 22.3919C90.906 22.3559 90.882 22.3199 90.856 22.2839V22.4719ZM116.166 18.3999C114.958 18.3999 114.778 19.4019 114.778 19.9999C114.778 20.5979 114.958 21.5999 116.166 21.5999C117.086 21.5999 117.552 21.0619 117.552 19.9999C117.554 19.4019 117.374 18.3999 116.166 18.3999ZM47.782 18.3999C46.574 18.3999 46.396 19.4019 46.396 19.9999C46.396 20.5979 46.576 21.5999 47.782 21.5999C48.702 21.5999 49.17 21.0619 49.17 19.9999C49.17 19.4019 48.99 18.3999 47.782 18.3999ZM12.002 18.3999C11.108 18.3999 10.53 19.0279 10.53 19.9999C10.53 20.9859 11.094 21.5999 12.002 21.5999C12.91 21.5999 13.432 21.0159 13.432 19.9999C13.432 19.0279 12.872 18.3999 12.002 18.3999ZM98.722 18.0619C97.97 18.0619 97.97 18.4399 97.97 18.6459C97.98 18.9659 98.32 19.2719 98.728 19.2719C99.19 19.2579 99.414 18.8779 99.436 18.5279C99.432 18.4419 99.432 18.0619 98.722 18.0619ZM64.646 12.2919C64.81 12.0579 65.004 11.8539 65.226 11.6779C65.014 11.4919 64.818 11.2839 64.646 11.0559V12.2919Z" fill="white"/>
<path d="M68.276 5.94189C69.588 6.02589 70.604 7.16989 70.52 8.48189C70.438 9.74389 69.38 10.7319 68.132 10.7319C68.082 10.7319 68.03 10.7299 67.98 10.7279C66.71 10.6859 65.736 9.62789 65.736 8.35589C65.736 7.00189 66.88 5.94189 68.192 5.94189H68.276ZM61.798 6.11189C62.306 6.11189 62.644 6.44989 62.644 7.08589V25.5899C62.644 26.6479 62.22 27.0299 61.162 27.0299H59.68C58.664 27.0299 58.198 26.6479 58.198 25.5899V11.6159C58.2 8.10189 60.146 6.11189 61.798 6.11189ZM19.032 6.11189C19.54 6.11189 19.836 6.44989 19.836 7.08589V26.3099C19.836 26.9879 19.498 27.2839 18.99 27.2839C18.228 27.2839 17.17 26.6479 16.408 25.5059C15.476 26.6059 13.572 27.5799 11.37 27.5799C6.964 27.5799 4 24.3619 4 19.9999C4 15.6379 7.048 12.4199 11.368 12.4199C12.808 12.4199 14.204 12.8439 15.432 13.6479V11.6159C15.432 8.10189 17.422 6.11189 19.032 6.11189ZM12.002 23.5999C13.95 23.5999 15.432 22.2019 15.432 19.9999C15.432 17.8399 13.908 16.3999 12.002 16.3999C10.096 16.3999 8.53 17.8399 8.53 19.9999C8.53 22.1599 10.056 23.5999 12.002 23.5999ZM106.64 11.9979C107.19 11.9979 107.486 12.5479 107.486 13.2259C107.614 14.7079 106.682 16.0199 105.284 16.4859C105.58 17.0779 105.708 17.7139 105.708 18.3919C105.708 20.0019 104.862 21.4839 103.506 22.6259C105.37 23.5159 106.47 25.6739 106.47 27.7079C106.47 31.5179 103.378 34.0599 98.678 34.0599C93.978 34.0599 90.886 31.5619 90.886 27.7079C90.844 25.5899 91.986 23.6439 93.85 22.6259C92.452 21.4819 91.648 19.9999 91.648 18.3919C91.648 15.0459 94.274 12.5899 98.422 12.5899C100.878 12.5899 101.598 13.0139 102.994 13.0139C103.06 13.0179 103.128 13.0179 103.196 13.0179C104.066 13.0179 104.958 12.7659 105.704 12.2939C106.004 12.1239 106.3 11.9979 106.64 11.9979ZM98.726 21.2719C98.752 21.2719 98.778 21.2719 98.806 21.2699C100.246 21.2279 101.346 20.0839 101.432 18.6439C101.432 17.1199 100.332 16.0619 98.722 16.0619C97.112 16.0619 95.97 17.0779 95.97 18.6439C96.01 20.1019 97.238 21.2719 98.726 21.2719ZM98.722 30.4579C100.67 30.4579 102.11 29.1879 102.11 27.5779C102.11 25.8839 100.798 24.6979 98.722 24.6979C96.648 24.6979 95.334 25.8419 95.334 27.5779C95.334 29.1879 96.774 30.4579 98.722 30.4579ZM116.124 12.4199C120.612 12.4199 124 15.5539 124 19.9999C124 24.4459 120.612 27.5799 116.124 27.5799C111.636 27.5799 108.248 24.4039 108.248 19.9999C108.248 15.5539 111.636 12.4199 116.124 12.4199ZM116.166 23.5999C118.24 23.5999 119.554 22.1179 119.554 19.9999C119.554 17.9259 118.242 16.3999 116.166 16.3999C114.092 16.3999 112.778 17.9239 112.778 19.9999C112.778 22.0759 114.092 23.5999 116.166 23.5999ZM47.782 12.4199C52.27 12.4199 55.658 15.5539 55.658 19.9999C55.658 24.4459 52.27 27.5799 47.782 27.5799C43.294 27.5799 39.906 24.4039 39.906 19.9999C39.906 15.5539 43.294 12.4199 47.782 12.4199ZM47.782 23.5999C49.856 23.5999 51.17 22.1179 51.17 19.9999C51.17 17.9259 49.858 16.3999 47.782 16.3999C45.708 16.3999 44.394 17.9239 44.394 19.9999C44.394 22.0759 45.708 23.5999 47.782 23.5999ZM82.122 12.4619C84.282 12.4619 86.018 13.2239 87.16 14.4939C88.304 15.7639 88.854 17.4999 88.854 20.2939V25.5859C88.854 26.6019 88.472 27.0259 87.372 27.0259H85.89C84.79 27.0259 84.408 26.6019 84.408 25.5859V20.4199C84.408 19.1079 84.196 18.1759 83.73 17.5839C83.21 16.9439 82.426 16.6059 81.628 16.6059C81.58 16.6059 81.534 16.6079 81.486 16.6099C81.442 16.6079 81.396 16.6059 81.352 16.6059C80.512 16.6059 79.72 16.9799 79.158 17.5839C78.65 18.1759 78.312 19.1079 78.312 20.3779V25.5439C78.312 26.6019 77.846 26.9839 76.83 26.9839H75.348C74.332 26.9839 73.866 26.6019 73.866 25.5439V13.6879C73.866 13.0099 74.204 12.7139 74.712 12.7139C75.474 12.7139 76.532 13.3499 77.338 14.5779C78.566 13.2259 80.302 12.4619 82.122 12.4619ZM68.996 12.9719C70.096 12.9719 70.478 13.3959 70.478 14.4539V25.5899C70.478 26.6059 70.096 27.0299 68.996 27.0299H67.514C66.414 27.0299 66.032 26.6059 66.032 25.5899V14.4539C66.032 13.4379 66.414 12.9719 67.514 12.9719H68.996ZM36.096 12.9719C37.154 12.9719 37.62 13.3959 37.62 14.4539V26.3099C37.62 26.9879 37.282 27.2839 36.774 27.2839C36.012 27.2839 34.954 26.6479 34.192 25.4639C33.038 26.7839 31.402 27.5399 29.636 27.5399C29.588 27.5399 29.54 27.5399 29.492 27.5379C29.436 27.5399 29.378 27.5399 29.322 27.5399C27.69 27.5399 26.146 26.9499 24.918 25.8439C23.606 24.5739 22.886 22.6259 22.886 19.8319V14.4539C22.886 13.4379 23.268 12.9719 24.368 12.9719H25.85C26.95 12.9719 27.332 13.3959 27.332 14.4539V19.4499C27.332 21.1439 27.628 22.0319 28.178 22.6259C28.654 23.1019 29.352 23.3919 30.032 23.3919C30.078 23.3919 30.124 23.3899 30.168 23.3879C30.972 23.3879 31.734 23.0919 32.286 22.4979C32.836 21.9059 33.132 20.9739 33.132 19.5339V14.4519C33.132 13.3939 33.598 12.9699 34.614 12.9699H36.096V12.9719ZM68.406 1.94189H68.278H68.194C66.882 1.94189 65.66 2.33189 64.642 3.00189C63.854 2.43589 62.88 2.10989 61.8 2.10989C58.372 2.10989 54.838 5.10189 54.278 10.1919C52.436 9.06189 50.218 8.41989 47.784 8.41989C44.942 8.41989 42.394 9.29589 40.394 10.8019C39.422 9.64389 37.926 8.96989 36.098 8.96989H34.616C32.756 8.96989 31.218 9.71989 30.25 10.9719C29.292 9.70989 27.752 8.96989 25.852 8.96989H24.37C24.19 8.96989 24.012 8.97589 23.84 8.98989V7.08389C23.84 4.24789 21.774 2.10989 19.036 2.10989C16.026 2.10989 12.932 4.41989 11.844 8.42789C11.686 8.42189 11.53 8.41789 11.372 8.41789C4.888 8.41989 0 13.3979 0 19.9999C0 26.6019 4.888 31.5799 11.368 31.5799C13.038 31.5799 14.69 31.2079 16.146 30.5419C17.06 31.0219 18.034 31.2839 18.99 31.2839C20.62 31.2839 22.012 30.5399 22.882 29.3499C24.728 30.7679 26.986 31.5399 29.322 31.5399L29.492 31.5379L29.636 31.5399C31.15 31.5399 32.626 31.1979 33.964 30.5559C34.866 31.0259 35.826 31.2839 36.776 31.2839C38.39 31.2839 39.774 30.5539 40.644 29.3799C42.606 30.7739 45.06 31.5799 47.784 31.5799C50.694 31.5799 53.296 30.6599 55.318 29.0879C56.278 30.3119 57.804 31.0299 59.682 31.0299H61.164C62.394 31.0299 63.472 30.7219 64.34 30.1659C65.208 30.7219 66.286 31.0299 67.516 31.0299H68.998C70.244 31.0299 71.334 30.7139 72.206 30.1459C73.068 30.6879 74.134 30.9879 75.348 30.9879H76.83C78.81 30.9879 80.398 30.1899 81.346 28.8419C82.29 30.2159 83.89 31.0299 85.892 31.0299H87.374C87.384 31.0299 87.392 31.0299 87.402 31.0299C88.82 35.2759 93.066 38.0599 98.68 38.0599C104.658 38.0599 109.084 34.9039 110.198 30.1339C111.922 31.0599 113.936 31.5819 116.126 31.5819C122.894 31.5799 128 26.6019 128 19.9999C128 13.3979 122.894 8.41989 116.124 8.41989C114 8.41989 112.04 8.90989 110.35 9.78589C109.474 8.67589 108.16 7.99589 106.64 7.99589C105.164 7.99589 104.08 8.61589 103.724 8.81989L103.648 8.86389L103.574 8.91189C103.474 8.97589 103.324 9.01789 103.202 9.01789L103.11 9.01389H103C102.738 9.01389 102.514 8.97789 102.032 8.89989C101.24 8.76989 100.154 8.58989 98.428 8.58989C95.014 8.58989 92.112 9.82189 90.182 11.8679C90.168 11.8519 90.152 11.8359 90.138 11.8179C88.19 9.65389 85.344 8.46189 82.126 8.46189C80.55 8.46189 79.012 8.81789 77.618 9.48389C76.692 8.98589 75.704 8.71589 74.716 8.71589C74.65 8.71589 74.582 8.71789 74.516 8.71989C74.62 7.02189 74.054 5.38189 72.92 4.09989C71.79 2.82189 70.232 2.05789 68.536 1.94989L68.406 1.94189Z" fill="url(#paint0_linear_11_325)"/>
<defs>
<linearGradient id="paint0_linear_11_325" x1="64" y1="2.29789" x2="64" y2="27.1579" gradientUnits="userSpaceOnUse">
<stop offset="0.265625" stop-color="#005CFF"/>
<stop offset="1" stop-color="#E3B309"/>
</linearGradient>
</defs>
</svg>
