<?xml version="1.0" encoding="utf-8"?>
<!-- Generator: Adobe Illustrator 16.0.0, SVG Export Plug-In . SVG Version: 6.00 Build 0)  -->
<!DOCTYPE svg PUBLIC "-//W3C//DTD SVG 1.1//EN" "http://www.w3.org/Graphics/SVG/1.1/DTD/svg11.dtd">
<svg version="1.1" id="Слой_1" xmlns="http://www.w3.org/2000/svg" xmlns:xlink="http://www.w3.org/1999/xlink" x="0px" y="0px"
	 width="90px" height="71.998px" viewBox="0 0 90 71.998" enable-background="new 0 0 90 71.998" xml:space="preserve">
<g>
	
		<linearGradient id="SVGID_1_" gradientUnits="userSpaceOnUse" x1="47.3467" y1="73.5322" x2="47.3467" y2="34.7798" gradientTransform="matrix(0.3819 -0.9242 1.1927 0.4928 -31.3456 53.9687)">
		<stop  offset="0" style="stop-color:#FFFFFF;stop-opacity:0"/>
		<stop  offset="0.4605" style="stop-color:#0E6C98;stop-opacity:0.4"/>
		<stop  offset="1" style="stop-color:#06202D;stop-opacity:0.7"/>
	</linearGradient>
	<polygon fill="url(#SVGID_1_)" points="84.938,21.031 63.937,71.861 17.716,52.766 38.718,1.934 	"/>
	<g>
		<defs>
			<circle id="SVGID_2_" cx="28.5" cy="27.499" r="27.5"/>
		</defs>
		<use xlink:href="#SVGID_2_"  overflow="visible" fill-rule="evenodd" clip-rule="evenodd" fill="#CEEFFF"/>
		<clipPath id="SVGID_3_">
			<use xlink:href="#SVGID_2_"  overflow="visible"/>
		</clipPath>
	</g>
</g>
<path display="none" fill="#0B519B" d="M38.349,22.421c-2.764,0-5.02,2.271-5.02,5.041c0,2.781,2.256,5.057,5.02,5.057
	c2.762,0,5.035-2.27,5.035-5.057C43.384,24.687,41.111,22.421,38.349,22.421z M38.349,24.297c1.74,0,3.159,1.409,3.159,3.165
	c0,1.775-1.419,3.183-3.159,3.183c-1.742,0-3.144-1.401-3.144-3.183C35.206,25.703,36.605,24.297,38.349,24.297z"/>
<path display="none" fill="#0B519B" d="M18.777,22.421c-2.762,0-5.019,2.271-5.019,5.041c0,2.781,2.255,5.057,5.019,5.057
	s5.037-2.27,5.037-5.057C23.814,24.687,21.541,22.421,18.777,22.421z M18.777,24.297c1.744,0,3.16,1.409,3.16,3.165
	c0,1.775-1.416,3.183-3.16,3.183c-1.742,0-3.143-1.401-3.143-3.183C15.635,25.703,17.036,24.297,18.777,24.297z"/>
<path display="none" fill="#0B519B" d="M18.712,18.799c-2.908,0-5.498,1.453-7.066,3.678l-1.903-0.799
	c-0.373-0.159-0.752-0.242-1.119-0.256c-1.101-0.041-2.088,0.521-2.463,1.423c-0.498,1.202,0.188,2.76,1.694,3.391l2.207,0.911
	c-0.004,0.119-0.016,0.237-0.016,0.353c0,4.801,3.902,8.699,8.666,8.699c4.783,0,8.652-3.899,8.652-8.699
	c0-0.193-0.02-0.385-0.033-0.575c0.553-0.188,1.311-0.263,2.335,0.063c-0.01,0.172-0.032,0.338-0.032,0.512
	c0,4.801,3.887,8.699,8.652,8.699s8.667-3.897,8.667-8.699c0-0.114-0.012-0.234-0.016-0.353l2.207-0.911
	c1.508-0.631,2.191-2.188,1.693-3.391c-0.373-0.9-1.361-1.464-2.463-1.423c-0.367,0.014-0.746,0.097-1.119,0.256l-1.902,0.799
	c-1.571-2.225-4.159-3.678-7.067-3.678c-2.916,0-5.498,1.463-7.069,3.694c-0.978-0.319-1.92-0.477-2.829-0.479
	c-0.898-0.004-1.777,0.138-2.654,0.415C24.164,20.238,21.609,18.799,18.712,18.799z M18.712,20.845c3.676,0,6.605,2.969,6.605,6.652
	c0,3.707-2.928,6.652-6.605,6.652c-3.654,0-6.619-2.949-6.619-6.652c0-0.305,0.021-0.619,0.063-0.848
	c0.007-0.021,0.012-0.044,0.017-0.063c0.084-0.716,0.305-1.419,0.623-2.079C13.878,22.342,16.129,20.845,18.712,20.845
	L18.712,20.845z M38.287,20.845c2.582,0,4.834,1.496,5.916,3.662c0.316,0.656,0.535,1.365,0.639,2.095
	c0.034,0.271,0.065,0.595,0.065,0.896c0,3.705-2.966,6.654-6.62,6.654c-3.656,0-6.605-2.949-6.605-6.654
	C31.681,23.818,34.633,20.845,38.287,20.845z M8.351,23.404c0.127-0.006,0.313,0.041,0.592,0.16l1.711,0.721
	c-0.1,0.254-0.18,0.517-0.256,0.783l-1.742-0.721c-0.768-0.32-0.663-0.584-0.607-0.719C8.082,23.544,8.138,23.414,8.351,23.404z
	 M48.646,23.404c0.215,0.01,0.27,0.141,0.305,0.226c0.057,0.135,0.16,0.397-0.605,0.719l-1.744,0.722
	c-0.078-0.271-0.154-0.527-0.254-0.785l1.709-0.719C48.336,23.445,48.521,23.398,48.646,23.404z M28.324,24.029
	c0.598-0.006,1.218,0.099,1.902,0.303c-0.08,0.205-0.16,0.412-0.225,0.623c-0.596-0.149-1.163-0.215-1.679-0.207
	c-0.496,0.008-0.941,0.089-1.345,0.191c-0.069-0.227-0.151-0.451-0.238-0.672C27.281,24.115,27.798,24.033,28.324,24.029z"/>
<g>
	<circle fill="#0B519B" cx="20.034" cy="31.097" r="1.588"/>
	<circle fill="#0B519B" cx="36.716" cy="31.097" r="1.588"/>
	<path fill="#0B519B" d="M48.375,30.424c0-2.301-1.668-4.217-3.857-4.61V25.12c0-8.901-7.242-16.142-16.143-16.142
		s-16.143,7.24-16.143,16.142v0.694c-2.19,0.392-3.857,2.31-3.857,4.61c0,2.32,1.696,4.25,3.913,4.62
		c0.313,3.556,1.939,6.183,4.853,7.818c2.59,1.455,6.265,2.161,11.234,2.161s8.646-0.706,11.234-2.161
		c2.912-1.635,4.54-4.262,4.853-7.818C46.679,34.674,48.375,32.744,48.375,30.424z M10.028,30.424c0-1.385,0.934-2.554,2.204-2.915
		v5.83C10.962,32.978,10.028,31.807,10.028,30.424z M42.865,33.742c0,3.631-1.33,6.143-4.064,7.678
		c-2.337,1.313-5.747,1.948-10.425,1.948s-8.09-0.637-10.425-1.948c-2.734-1.535-4.064-4.047-4.064-7.678V25.12
		c0-6.543,4.359-12.086,10.327-13.878c4.545,0.057,6.965,3.339,6.965,5.714c0,1.82-1.481,3.3-3.3,3.3
		c-1.365,0-2.474-1.111-2.474-2.476c0-1,0.814-1.815,1.815-1.815c0.457,0,0.827-0.37,0.827-0.827c0-0.457-0.371-0.826-0.827-0.826
		c-1.913,0-3.469,1.556-3.469,3.467c0,2.278,1.852,4.129,4.129,4.129c2.731,0,4.953-2.223,4.953-4.953
		c0-1.717-0.863-3.563-2.306-4.939c-0.578-0.552-1.235-1.014-1.953-1.385c7.898,0.107,14.291,6.563,14.291,14.487L42.865,33.742
		L42.865,33.742z M44.518,33.338v-5.829c1.271,0.359,2.203,1.53,2.203,2.913C46.723,31.807,45.788,32.978,44.518,33.338z"/>
	<path fill="#0B519B" d="M31.573,33.374c-1.762,1.763-4.632,1.763-6.396,0c-0.322-0.322-0.846-0.322-1.168,0
		c-0.323,0.323-0.323,0.847,0,1.169c1.203,1.204,2.785,1.805,4.367,1.805c1.581,0,3.164-0.601,4.367-1.805
		c0.321-0.323,0.321-0.846,0-1.169C32.419,33.052,31.896,33.052,31.573,33.374z"/>
</g>
<g display="none">
	<path display="inline" fill="#0B519B" d="M32.268,16.461h-2.884V13.58c0-0.487-0.395-0.882-0.882-0.882
		c-0.488,0-0.883,0.395-0.883,0.882v2.882h-2.883c-0.487,0-0.883,0.396-0.883,0.883c0,0.486,0.396,0.881,0.883,0.881h2.883v2.883
		c0,0.486,0.395,0.883,0.883,0.883c0.487,0,0.882-0.396,0.882-0.883v-2.883h2.884c0.486,0,0.881-0.395,0.881-0.881
		C33.148,16.857,32.754,16.461,32.268,16.461z"/>
	<path display="inline" fill="#0B519B" d="M37.848,42.116c2.391-2.727,3.881-6.418,4.451-10.129
		c0.145-0.145,0.237-0.333,0.258-0.542L43.02,26.6c0.287-0.146,0.481-0.442,0.481-0.785V12.262c0-0.332-0.187-0.635-0.481-0.787
		c-9.09-4.631-19.944-4.631-29.037,0c-0.295,0.152-0.481,0.455-0.481,0.787v13.553c0,0.343,0.197,0.641,0.483,0.785l0.461,4.846
		c0.021,0.208,0.113,0.396,0.259,0.542c0.569,3.708,2.022,7.414,4.411,10.142c0,0,0.279,0.463,1.686,1.588
		c0.155,0.123,0.323,0.24,0.484,0.375c1.982,1.477,4.391,2.369,7.218,2.369c3.056,0,5.622-1.043,7.69-2.736 M16.159,30.815
		l-0.394-4.117h1.282c-0.222,1.248-0.438,3.053-0.577,4.289L16.159,30.815z M28.501,44.698c-6.47,0-10.44-5.551-11.786-11.559
		l0.064,0.035c0.133,0.073,0.279,0.111,0.427,0.111c0.142,0,0.28-0.033,0.409-0.104c0.263-0.137,0.439-0.396,0.468-0.691
		c0.174-1.725,0.5-4.486,0.754-5.794h19.325c0.255,1.308,0.58,4.069,0.754,5.794c0.029,0.295,0.205,0.557,0.469,0.691
		c0.129,0.068,0.27,0.104,0.409,0.104c0.147,0,0.294-0.038,0.427-0.111l0.064-0.035C38.943,39.147,34.971,44.698,28.501,44.698z
		 M40.846,30.815l-0.313,0.172c-0.138-1.236-0.354-3.041-0.577-4.289h1.281L40.846,30.815z M41.736,24.932H15.266V12.809
		c8.33-4.057,18.144-4.057,26.471,0V24.932z"/>
</g>
<rect x="1" y="-0.001" fill="none" width="55" height="55"/>
</svg>
