<?xml version="1.0" encoding="utf-8"?>
<!-- Generator: Adobe Illustrator 16.0.0, SVG Export Plug-In . SVG Version: 6.00 Build 0)  -->
<!DOCTYPE svg PUBLIC "-//W3C//DTD SVG 1.1//EN" "http://www.w3.org/Graphics/SVG/1.1/DTD/svg11.dtd">
<svg version="1.1" id="Слой_1" xmlns="http://www.w3.org/2000/svg" xmlns:xlink="http://www.w3.org/1999/xlink" x="0px" y="0px"
	 width="90px" height="71.998px" viewBox="0 0 90 71.998" enable-background="new 0 0 90 71.998" xml:space="preserve">
<path display="none" fill="#0B519B" d="M38.349,22.421c-2.764,0-5.02,2.271-5.02,5.041c0,2.781,2.256,5.057,5.02,5.057
	c2.762,0,5.035-2.27,5.035-5.057C43.384,24.687,41.111,22.421,38.349,22.421z M38.349,24.297c1.74,0,3.159,1.409,3.159,3.165
	c0,1.775-1.419,3.183-3.159,3.183c-1.742,0-3.144-1.401-3.144-3.183C35.206,25.703,36.605,24.297,38.349,24.297z"/>
<path display="none" fill="#0B519B" d="M18.777,22.421c-2.762,0-5.019,2.271-5.019,5.041c0,2.781,2.255,5.057,5.019,5.057
	s5.037-2.27,5.037-5.057C23.814,24.687,21.541,22.421,18.777,22.421z M18.777,24.297c1.744,0,3.16,1.409,3.16,3.165
	c0,1.775-1.416,3.183-3.16,3.183c-1.742,0-3.143-1.401-3.143-3.183C15.635,25.703,17.036,24.297,18.777,24.297z"/>
<path display="none" fill="#0B519B" d="M18.712,18.799c-2.908,0-5.498,1.453-7.066,3.678l-1.903-0.799
	c-0.373-0.159-0.752-0.242-1.119-0.256c-1.101-0.041-2.088,0.521-2.463,1.423c-0.498,1.202,0.188,2.76,1.694,3.391l2.207,0.911
	c-0.004,0.119-0.016,0.237-0.016,0.353c0,4.801,3.902,8.699,8.666,8.699c4.783,0,8.652-3.899,8.652-8.699
	c0-0.193-0.02-0.385-0.033-0.575c0.553-0.188,1.311-0.263,2.335,0.063c-0.01,0.172-0.032,0.338-0.032,0.512
	c0,4.801,3.887,8.699,8.652,8.699s8.667-3.897,8.667-8.699c0-0.114-0.012-0.234-0.016-0.353l2.207-0.911
	c1.508-0.631,2.191-2.188,1.693-3.391c-0.373-0.9-1.361-1.464-2.463-1.423c-0.367,0.014-0.746,0.097-1.119,0.256l-1.902,0.799
	c-1.571-2.225-4.159-3.678-7.067-3.678c-2.916,0-5.498,1.463-7.069,3.694c-0.978-0.319-1.92-0.477-2.829-0.479
	c-0.898-0.004-1.777,0.138-2.654,0.415C24.164,20.238,21.609,18.799,18.712,18.799z M18.712,20.845c3.676,0,6.605,2.969,6.605,6.652
	c0,3.707-2.928,6.652-6.605,6.652c-3.654,0-6.619-2.949-6.619-6.652c0-0.305,0.021-0.619,0.063-0.848
	c0.007-0.021,0.012-0.044,0.017-0.063c0.084-0.716,0.305-1.419,0.623-2.079C13.878,22.342,16.129,20.845,18.712,20.845
	L18.712,20.845z M38.287,20.845c2.582,0,4.834,1.496,5.916,3.662c0.316,0.656,0.535,1.365,0.639,2.095
	c0.034,0.271,0.065,0.595,0.065,0.896c0,3.705-2.966,6.654-6.62,6.654c-3.656,0-6.605-2.949-6.605-6.654
	C31.681,23.818,34.633,20.845,38.287,20.845z M8.351,23.404c0.127-0.006,0.313,0.041,0.592,0.16l1.711,0.721
	c-0.1,0.254-0.18,0.517-0.256,0.783l-1.742-0.721c-0.768-0.32-0.663-0.584-0.607-0.719C8.082,23.544,8.138,23.414,8.351,23.404z
	 M48.646,23.404c0.215,0.01,0.27,0.141,0.305,0.226c0.057,0.135,0.16,0.397-0.605,0.719l-1.744,0.722
	c-0.078-0.271-0.154-0.527-0.254-0.785l1.709-0.719C48.336,23.445,48.521,23.398,48.646,23.404z M28.324,24.029
	c0.598-0.006,1.218,0.099,1.902,0.303c-0.08,0.205-0.16,0.412-0.225,0.623c-0.596-0.149-1.163-0.215-1.679-0.207
	c-0.496,0.008-0.941,0.089-1.345,0.191c-0.069-0.227-0.151-0.451-0.238-0.672C27.281,24.115,27.798,24.033,28.324,24.029z"/>
<g display="none">
	<circle display="inline" fill="#0B519B" cx="18.991" cy="31.609" r="1.787"/>
	<circle display="inline" fill="#0B519B" cx="37.759" cy="31.609" r="1.787"/>
	<path display="inline" fill="#0B519B" d="M50.875,30.852c0-2.588-1.877-4.744-4.34-5.187v-0.78c0-10.014-8.146-18.16-18.16-18.16
		s-18.16,8.146-18.16,18.16v0.78c-2.464,0.44-4.34,2.599-4.34,5.187c0,2.61,1.908,4.782,4.402,5.197
		c0.352,4.001,2.182,6.956,5.459,8.795c2.914,1.637,7.048,2.432,12.639,2.432s9.727-0.795,12.639-2.432
		c3.276-1.839,5.107-4.794,5.459-8.795C48.967,35.634,50.875,33.462,50.875,30.852z M7.734,30.852c0-1.558,1.051-2.873,2.479-3.279
		v6.559C8.785,33.725,7.734,32.408,7.734,30.852z M44.676,34.585c0,4.085-1.496,6.91-4.572,8.638
		c-2.629,1.477-6.465,2.191-11.729,2.191s-9.102-0.716-11.729-2.191c-3.076-1.728-4.572-4.553-4.572-8.638v-9.7
		c0-7.361,4.904-13.597,11.617-15.613c5.113,0.063,7.836,3.756,7.836,6.429c0,2.047-1.666,3.713-3.713,3.713
		c-1.535,0-2.783-1.25-2.783-2.785c0-1.125,0.916-2.042,2.042-2.042c0.514,0,0.93-0.416,0.93-0.93s-0.417-0.93-0.93-0.93
		c-2.152,0-3.902,1.75-3.902,3.9c0,2.563,2.083,4.645,4.646,4.645c3.072,0,5.572-2.5,5.572-5.572c0-1.932-0.971-4.008-2.595-5.557
		c-0.649-0.621-1.39-1.141-2.196-1.558c8.885,0.12,16.077,7.384,16.077,16.298L44.676,34.585L44.676,34.585z M46.535,34.13v-6.558
		c1.43,0.404,2.479,1.722,2.479,3.277C49.016,32.408,47.965,33.725,46.535,34.13z"/>
	<path display="inline" fill="#0B519B" d="M31.973,34.171c-1.982,1.983-5.211,1.983-7.195,0c-0.362-0.362-0.951-0.362-1.314,0
		c-0.363,0.363-0.363,0.952,0,1.315c1.354,1.354,3.133,2.031,4.913,2.031c1.778,0,3.56-0.677,4.913-2.031
		c0.361-0.363,0.361-0.952,0-1.315C32.925,33.809,32.336,33.809,31.973,34.171z"/>
</g>
<g>
	
		<linearGradient id="SVGID_1_" gradientUnits="userSpaceOnUse" x1="47.3467" y1="73.5322" x2="47.3467" y2="34.7798" gradientTransform="matrix(0.3819 -0.9242 1.1927 0.4928 -31.3456 53.9687)">
		<stop  offset="0" style="stop-color:#FFFFFF;stop-opacity:0"/>
		<stop  offset="0.4605" style="stop-color:#0E6C98;stop-opacity:0.4"/>
		<stop  offset="1" style="stop-color:#06202D;stop-opacity:0.7"/>
	</linearGradient>
	<polygon fill="url(#SVGID_1_)" points="84.938,21.031 63.937,71.861 17.716,52.766 38.718,1.934 	"/>
	<g>
		<defs>
			<circle id="SVGID_2_" cx="28.5" cy="27.499" r="27.5"/>
		</defs>
		<use xlink:href="#SVGID_2_"  overflow="visible" fill-rule="evenodd" clip-rule="evenodd" fill="#CEEFFF"/>
		<clipPath id="SVGID_3_">
			<use xlink:href="#SVGID_2_"  overflow="visible"/>
		</clipPath>
	</g>
</g>
<path fill="#0B519B" d="M32.268,16.461h-2.884V13.58c0-0.487-0.395-0.882-0.882-0.882c-0.488,0-0.883,0.395-0.883,0.882v2.882
	h-2.883c-0.487,0-0.883,0.396-0.883,0.883c0,0.486,0.396,0.881,0.883,0.881h2.883v2.883c0,0.486,0.395,0.883,0.883,0.883
	c0.487,0,0.882-0.396,0.882-0.883v-2.883h2.884c0.486,0,0.881-0.395,0.881-0.881C33.148,16.857,32.754,16.461,32.268,16.461z"/>
<path fill="#0B519B" d="M37.848,42.116c2.391-2.727,3.881-6.418,4.451-10.129c0.145-0.145,0.237-0.333,0.258-0.542L43.02,26.6
	c0.287-0.146,0.481-0.442,0.481-0.785V12.262c0-0.332-0.187-0.635-0.481-0.787c-9.09-4.631-19.944-4.631-29.037,0
	c-0.295,0.152-0.481,0.455-0.481,0.787v13.553c0,0.343,0.197,0.641,0.483,0.785l0.461,4.846c0.021,0.208,0.113,0.396,0.259,0.542
	c0.569,3.708,2.022,7.414,4.411,10.142c0,0,0.279,0.463,1.686,1.588c0.155,0.123,0.323,0.24,0.484,0.375
	c1.982,1.477,4.391,2.369,7.218,2.369c3.056,0,5.622-1.043,7.69-2.736 M16.159,30.815l-0.394-4.117h1.282
	c-0.222,1.248-0.438,3.053-0.577,4.289L16.159,30.815z M28.501,44.698c-6.47,0-10.44-5.551-11.786-11.559l0.064,0.035
	c0.133,0.073,0.279,0.111,0.427,0.111c0.142,0,0.28-0.033,0.409-0.104c0.263-0.137,0.439-0.396,0.468-0.691
	c0.174-1.725,0.5-4.486,0.754-5.794h19.325c0.255,1.308,0.58,4.069,0.754,5.794c0.029,0.295,0.205,0.557,0.469,0.691
	c0.129,0.068,0.27,0.104,0.409,0.104c0.147,0,0.294-0.038,0.427-0.111l0.064-0.035C38.943,39.147,34.971,44.698,28.501,44.698z
	 M40.846,30.815l-0.313,0.172c-0.138-1.236-0.354-3.041-0.577-4.289h1.281L40.846,30.815z M41.736,24.932H15.266V12.809
	c8.33-4.057,18.144-4.057,26.471,0V24.932z"/>
<rect x="1" y="-0.001" fill="none" width="55" height="55"/>
</svg>
