<?xml version="1.0" encoding="utf-8"?>
<!-- Generator: Adobe Illustrator 16.0.0, SVG Export Plug-In . SVG Version: 6.00 Build 0)  -->
<!DOCTYPE svg PUBLIC "-//W3C//DTD SVG 1.1//EN" "http://www.w3.org/Graphics/SVG/1.1/DTD/svg11.dtd">
<svg version="1.1" id="Слой_1" xmlns="http://www.w3.org/2000/svg" xmlns:xlink="http://www.w3.org/1999/xlink" x="0px" y="0px"
	 width="35px" height="40px" viewBox="342.5 250 35 40" enable-background="new 342.5 250 35 40" xml:space="preserve">
<g>
	<path fill="#005AAB" d="M367.857,251.509c-3.982-1.476-10.25-2.374-14.952-0.257c-0.979,0.449-1.566,1.219-2.089,1.925
		c-0.327,0.449-0.718,0.898-1.11,1.219c-0.327,0.192-0.587,0.385-0.979,0.577c-0.784,0.449-1.633,0.898-2.22,1.861
		c-0.327,0.513-0.588,1.09-0.719,1.86c-0.131,0.449,0.13,0.834,0.588,0.962c0.457,0.128,0.849-0.128,0.979-0.577
		c0.131-0.578,0.327-1.026,0.522-1.347c0.392-0.578,0.979-0.898,1.632-1.283c0.392-0.192,0.719-0.449,1.11-0.706
		c0.654-0.449,1.045-1.026,1.437-1.54c0.457-0.577,0.848-1.154,1.501-1.412c4.244-1.988,10.055-1.155,13.711,0.193
		c2.285,0.833,5.158,2.566,6.139,6.094c0.131,0.385,0.457,0.577,0.782,0.577c0.066,0,0.131,0,0.195,0
		c0.458-0.128,0.718-0.577,0.589-0.962C374.061,255.293,371.58,252.856,367.857,251.509z"/>
	<path fill="#005AAB" d="M371.188,264.275c-0.457,0-0.85,0.385-0.85,0.834s0.393,0.834,0.85,0.834h4.113v-5.453h-4.113
		c-0.457,0-0.85,0.385-0.85,0.834c0,0.449,0.393,0.833,0.85,0.833h2.547v2.246h-2.547V264.275z"/>
	<path fill="#005AAB" d="M373.996,266.905c-0.457-0.128-0.916,0.064-1.047,0.449c-0.129,0.385,0.066,0.897,0.459,1.026
		c1.174,0.385,1.631,1.668,1.369,3.721c-0.262,2.373-0.979,4.041-2.154,5.26c-0.064,0.064-0.131,0.129-0.262,0.193
		c-0.26,0.193-0.587,0.449-0.781,0.832c-0.131,0.258-0.262,0.578-0.393,0.963l-0.064,0.258c-0.066,0.256-0.197,0.576-0.262,0.834
		c-0.131,0.191-0.197,0.449-0.326,0.641c-0.328,0.643-0.59,1.219-0.916,1.668c-1.957,2.76-5.549,5.711-9.857,5.711h-0.065
		c-3.853-0.064-7.835-2.631-9.924-6.352c-0.327-0.576-0.588-1.154-0.849-1.797c-0.131-0.32-0.261-0.641-0.327-0.963
		c0-0.063,0-0.127-0.065-0.191c-0.065-0.385-0.131-0.771-0.392-1.027l-0.195-0.191l-0.13-0.064
		c-1.567-0.834-2.416-2.566-2.612-5.262c-0.196-2.629,0.196-3.848,1.371-4.233l0,0c0.457,0,0.849-0.385,0.849-0.834
		c0-0.449-0.392-0.833-0.849-0.833h-0.327c-3.069,0.77-2.808,4.49-2.677,5.9c0.261,3.209,1.371,5.391,3.33,6.48
		c0,0.064,0.065,0.193,0.065,0.256c0,0.129,0.065,0.258,0.065,0.387c0.131,0.383,0.262,0.705,0.392,1.09
		c0.261,0.707,0.587,1.346,0.914,1.988c2.416,4.363,6.856,7.186,11.361,7.186c0.065,0,0.065,0,0.131,0
		c4.114,0,8.356-2.438,11.165-6.416c0.393-0.576,0.718-1.219,1.043-1.859c0.131-0.191,0.195-0.449,0.326-0.643l0.066-0.127
		c0.131-0.322,0.195-0.578,0.326-0.898l0.066-0.258c0.064-0.256,0.195-0.576,0.26-0.705c0.066-0.064,0.197-0.191,0.328-0.32
		s0.26-0.191,0.391-0.32c1.502-1.477,2.285-3.465,2.613-6.223C376.802,269.536,375.889,267.611,373.996,266.905z"/>
	<path fill="#005AAB" d="M357.28,262.03c0.457,0,0.849-0.385,0.849-0.834s-0.456-0.77-0.849-0.77h-11.818l-0.065,5.453h11.883
		c0.457,0,0.849-0.385,0.849-0.834c0-0.449-0.456-0.77-0.849-0.77h-10.251v-2.245H357.28z"/>
	<path fill="#005AAB" d="M364.201,258.052c-2.155,0-4.112,1.347-4.831,3.335c-0.197,0.578-0.327,1.155-0.327,1.733
		c0,0.577,0.13,1.218,0.327,1.732c0.719,1.988,2.676,3.336,4.831,3.336c2.154,0,4.113-1.348,4.832-3.336
		c0.195-0.578,0.325-1.155,0.325-1.732c0-0.578-0.13-1.219-0.325-1.733C368.314,259.399,366.355,258.052,364.201,258.052z
		 M367.531,264.339L367.531,264.339c-0.523,1.348-1.828,2.246-3.33,2.246s-2.807-0.898-3.33-2.246
		c-0.131-0.385-0.195-0.77-0.195-1.218c0-0.385,0.064-0.834,0.195-1.219c0.523-1.347,1.828-2.246,3.33-2.246s2.807,0.898,3.33,2.246
		c0.131,0.385,0.195,0.77,0.195,1.219C367.727,263.569,367.662,263.954,367.531,264.339z"/>
</g>
</svg>
