<?xml version="1.0" encoding="utf-8"?>
<!-- Generator: Adobe Illustrator 16.0.0, SVG Export Plug-In . SVG Version: 6.00 Build 0)  -->
<!DOCTYPE svg PUBLIC "-//W3C//DTD SVG 1.1//EN" "http://www.w3.org/Graphics/SVG/1.1/DTD/svg11.dtd">
<svg version="1.1" id="Capa_1" xmlns="http://www.w3.org/2000/svg" xmlns:xlink="http://www.w3.org/1999/xlink" x="0px" y="0px"
	 width="47px" height="47px" viewBox="0 0 47 47" enable-background="new 0 0 47 47" xml:space="preserve">
<g>
	<g id="Layer_1_155_">
		<g>
			<path fill="#3D8FBE" d="M26.198,8.368H10.176c-1.18,0-2.137,0.957-2.137,2.136c0,1.179,0.957,2.136,2.137,2.136h16.022
				c1.182,0,2.137-0.957,2.137-2.136C28.334,9.325,27.379,8.368,26.198,8.368z"/>
			<path fill="#3D8FBE" d="M28.334,18.515c0-1.18-0.955-2.136-2.137-2.136H10.176c-1.18,0-2.137,0.957-2.137,2.136
				c0,1.18,0.957,2.137,2.137,2.137h16.022C27.379,20.652,28.334,19.695,28.334,18.515z"/>
			<path fill="#3D8FBE" d="M18.188,28.663c1.18,0,2.136-0.957,2.136-2.136c0-1.18-0.956-2.137-2.136-2.137h-8.012
				c-1.18,0-2.137,0.957-2.137,2.137s0.957,2.136,2.137,2.136H18.188z"/>
			<path fill="#3D8FBE" d="M34.314,35.93l-2.241,1.479v5.317H4.301V4.273h27.772v8.442l4.272-7.401V2.136
				c0-1.18-0.957-2.136-2.137-2.136H2.164c-1.18,0-2.136,0.957-2.136,2.136v42.729c0,1.18,0.956,2.136,2.136,2.136h32.045
				c1.182,0,2.139-0.957,2.139-2.136V33.09l-1.021,1.766C35.077,35.287,34.727,35.658,34.314,35.93z"/>
			<path fill="#3D8FBE" d="M46.947,9.894c-0.045-0.192-0.495-1.918-3.213-3.488c-2.719-1.569-4.438-1.097-4.629-1.038
				c-0.254,0.081-0.469,0.253-0.604,0.485L25.15,28.979c-0.084,0.146-0.133,0.307-0.143,0.473l-0.5,8.345
				c-0.023,0.404,0.182,0.786,0.531,0.989c0.352,0.201,0.785,0.188,1.123-0.033l6.977-4.605c0.139-0.09,0.254-0.213,0.338-0.356
				l13.353-23.13C46.963,10.428,47.004,10.156,46.947,9.894z M28.854,35.055c-0.354-0.287-0.758-0.558-1.19-0.809
				c-0.435-0.251-0.871-0.462-1.297-0.628l0.149-2.502c0.557,0.073,1.383,0.299,2.432,0.903c1.048,0.604,1.654,1.209,1.998,1.653
				L28.854,35.055z"/>
			<path fill="#3D8FBE" d="M14.922,38.534c0.07,0.429,0.565,0.562,0.896,0.7c0.32,0.135,0.702-0.121,0.968-0.25
				c1.63-0.793,3.838,0.139,5.584,0.139c1.033,0,1.033-1.602,0-1.602c-2.036,0-3.73-0.516-5.748-0.183
				c0-0.116-0.043-0.274-0.169-0.489c-0.377-0.646-0.857-0.828-1.338-0.75c-0.032-0.076-0.063-0.152-0.108-0.229
				c-0.126-0.206-0.302-0.31-0.5-0.353c0.563-0.983,0.926-2.024,0.557-2.867c-0.113-0.256-0.434-0.387-0.692-0.396
				c-1.07-0.04-1.988,1.083-2.676,1.757c-1.721,1.688-3.237,3.603-4.704,5.509c-0.63,0.818,0.763,1.614,1.383,0.81
				c1.3-1.688,2.677-3.327,4.159-4.86c-0.357,0.586-0.736,1.161-1.135,1.715c-0.57,0.881,0.791,1.631,1.383,0.81
				c0.141-0.216,0.32-0.37,0.516-0.503c-0.039,0.099-0.079,0.195-0.119,0.296c0.002,0,0.004,0.001,0.006,0.002
				c-0.031,0.063-0.062,0.128-0.087,0.188c-0.358,0.897,0.979,1.309,1.465,0.616c0.123-0.174,0.237-0.36,0.34-0.555
				C14.896,38.172,14.893,38.352,14.922,38.534z"/>
		</g>
	</g>
</g>
</svg>
