<?xml version="1.0" encoding="utf-8"?>
<!-- Generator: Adobe Illustrator 16.0.0, SVG Export Plug-In . SVG Version: 6.00 Build 0)  -->
<!DOCTYPE svg PUBLIC "-//W3C//DTD SVG 1.1//EN" "http://www.w3.org/Graphics/SVG/1.1/DTD/svg11.dtd">
<svg version="1.1" id="Capa_1" xmlns="http://www.w3.org/2000/svg" xmlns:xlink="http://www.w3.org/1999/xlink" x="0px" y="0px"
	 width="60px" height="65px" viewBox="55.04 59.626 60 65" enable-background="new 55.04 59.626 60 65" xml:space="preserve">
<g>
	<g>
		<g>
			<path fill="#0094DA" d="M106.949,111.43l-7.082-15.683c0.029-0.037,0.059-0.074,0.087-0.111c0.784-1.076,0.937-2.365,1.085-3.611
				c0.083-0.696,0.16-1.353,0.344-1.917c0.171-0.528,0.485-1.084,0.818-1.672c0.597-1.056,1.273-2.253,1.273-3.639
				s-0.677-2.582-1.273-3.639c-0.333-0.588-0.647-1.144-0.818-1.672c-0.184-0.563-0.261-1.221-0.344-1.916
				c-0.148-1.246-0.302-2.535-1.085-3.61c-0.79-1.087-2.026-1.654-3.116-2.155c-0.632-0.291-1.229-0.564-1.699-0.907
				c-0.462-0.336-0.9-0.813-1.365-1.32c-0.815-0.889-1.74-1.896-3.036-2.317c-1.243-0.404-2.506-0.153-3.727,0.088
				c-0.698,0.139-1.358,0.27-1.97,0.27c-0.612,0-1.273-0.131-1.972-0.27c-1.221-0.241-2.483-0.492-3.727-0.088
				c-1.296,0.421-2.221,1.429-3.036,2.318c-0.465,0.506-0.903,0.984-1.364,1.319c-0.472,0.343-1.068,0.617-1.7,0.907
				c-1.09,0.501-2.326,1.069-3.116,2.155c-0.783,1.076-0.936,2.364-1.085,3.61c-0.082,0.696-0.16,1.353-0.344,1.917
				c-0.171,0.527-0.485,1.083-0.818,1.672c-0.597,1.056-1.273,2.252-1.273,3.638c0,1.387,0.677,2.583,1.273,3.639
				c0.333,0.588,0.647,1.144,0.818,1.672c0.184,0.564,0.262,1.221,0.344,1.916c0.117,0.979,0.238,1.985,0.664,2.893l-6.599,17.466
				c-0.119,0.314-0.075,0.666,0.115,0.941c0.19,0.273,0.503,0.438,0.837,0.438c0.001,0,0.002,0,0.003,0l7.839-0.02l5.866,5.197
				c0.188,0.168,0.43,0.256,0.676,0.256c0.081,0,0.163-0.01,0.244-0.029c0.325-0.08,0.59-0.316,0.708-0.629l5.312-14.057
				l6.375,14.115c0.138,0.307,0.417,0.523,0.746,0.584c0.061,0.012,0.121,0.016,0.183,0.016c0.269,0,0.528-0.105,0.722-0.299
				l5.528-5.557l7.824-0.475c0.334-0.02,0.638-0.203,0.811-0.49C107.066,112.09,107.087,111.736,106.949,111.43z M71.58,111.707
				l-6.047,0.016l5.679-15.03c0.019,0.012,0.037,0.023,0.055,0.037c0.051,0.035,0.103,0.07,0.154,0.105
				c0.028,0.018,0.056,0.037,0.084,0.055c0.051,0.031,0.102,0.064,0.152,0.094c0.027,0.018,0.054,0.033,0.081,0.051
				c0.059,0.033,0.117,0.066,0.176,0.1c0.02,0.012,0.039,0.023,0.059,0.033c0.078,0.043,0.157,0.086,0.235,0.127
				c0.021,0.01,0.04,0.02,0.06,0.031c0.061,0.029,0.121,0.061,0.181,0.09c0.029,0.016,0.059,0.029,0.088,0.043
				c0.052,0.025,0.104,0.051,0.155,0.076c0.03,0.014,0.061,0.029,0.091,0.043c0.052,0.023,0.104,0.047,0.154,0.072
				c0.029,0.014,0.06,0.027,0.089,0.041c0.039,0.018,0.078,0.037,0.118,0.055c0.032,0.016,0.066,0.029,0.099,0.045
				c0.396,0.182,0.776,0.357,1.122,0.547c0.207,0.113,0.401,0.232,0.578,0.361c0.054,0.039,0.107,0.08,0.16,0.123
				c0.018,0.014,0.034,0.027,0.051,0.041c0.037,0.031,0.073,0.063,0.11,0.094c0.019,0.018,0.037,0.033,0.057,0.051
				c0.034,0.031,0.069,0.063,0.104,0.096c0.019,0.018,0.037,0.035,0.056,0.053c0.037,0.035,0.073,0.07,0.11,0.107
				c0.016,0.016,0.032,0.031,0.048,0.047c0.047,0.047,0.095,0.096,0.142,0.145c0.005,0.004,0.01,0.01,0.015,0.016
				c0.054,0.055,0.108,0.111,0.163,0.17c0.012,0.012,0.022,0.025,0.034,0.037c0.031,0.033,0.063,0.068,0.095,0.102L71.58,111.707z
				 M78.01,116.436l-4.526-4.01l1.016-2.688l3.162-8.369c0.467,0.389,0.983,0.719,1.58,0.93l-1.419,3.756
				c-0.198,0.525,0.067,1.113,0.594,1.313c0.118,0.045,0.24,0.066,0.359,0.066c0.411,0,0.8-0.25,0.953-0.658l1.606-4.252
				c0.017,0,0.034-0.002,0.052-0.004c0.075-0.008,0.149-0.016,0.226-0.023c0.013-0.002,0.025-0.004,0.038-0.004
				c0.188-0.023,0.375-0.051,0.561-0.082c0.004-0.002,0.009-0.002,0.013-0.004c0.283-0.047,0.564-0.104,0.845-0.158
				c0.11-0.021,0.219-0.043,0.327-0.064L78.01,116.436z M84.951,99.942h-0.02c-0.001,0-0.002,0-0.004,0
				c-0.021,0-0.04,0.002-0.061,0.002c-0.068,0.002-0.137,0.004-0.205,0.008c-0.025,0.002-0.052,0.004-0.077,0.006
				c-0.073,0.004-0.146,0.01-0.22,0.016c-0.019,0.002-0.036,0.004-0.055,0.006c-0.08,0.008-0.16,0.018-0.24,0.027
				c-0.007,0-0.013,0.002-0.02,0.002c-0.469,0.06-0.928,0.151-1.379,0.239c-1.009,0.201-1.962,0.391-2.701,0.15
				c-0.047-0.016-0.093-0.033-0.14-0.053c-0.018-0.006-0.035-0.014-0.053-0.021c-0.027-0.012-0.056-0.023-0.083-0.037
				c-0.022-0.012-0.044-0.021-0.065-0.033c-0.022-0.012-0.046-0.023-0.068-0.035c-0.024-0.014-0.048-0.027-0.07-0.041
				c-0.021-0.012-0.041-0.023-0.062-0.037c-0.024-0.014-0.05-0.031-0.073-0.047c-0.019-0.012-0.038-0.023-0.057-0.037
				c-0.025-0.017-0.051-0.034-0.075-0.052c-0.019-0.014-0.035-0.025-0.053-0.039c-0.026-0.02-0.051-0.037-0.076-0.059
				c-0.018-0.012-0.034-0.025-0.051-0.039c-0.025-0.021-0.052-0.041-0.077-0.063c-0.017-0.014-0.032-0.027-0.05-0.043
				c-0.025-0.021-0.051-0.043-0.075-0.064c-0.018-0.016-0.034-0.031-0.051-0.045c-0.024-0.023-0.05-0.045-0.074-0.068
				c-0.02-0.018-0.039-0.037-0.059-0.055c-0.038-0.037-0.076-0.074-0.114-0.111c-0.024-0.023-0.048-0.047-0.073-0.072
				c-0.018-0.018-0.036-0.035-0.054-0.055c-0.024-0.023-0.049-0.049-0.072-0.072c-0.018-0.02-0.036-0.039-0.055-0.059
				c-0.024-0.023-0.048-0.049-0.071-0.074c-0.02-0.02-0.038-0.039-0.057-0.061c-0.023-0.023-0.046-0.049-0.069-0.072
				c-0.02-0.021-0.04-0.043-0.06-0.064c-0.021-0.023-0.042-0.045-0.063-0.068c-0.056-0.061-0.11-0.119-0.166-0.182
				c-0.512-0.557-1.041-1.133-1.667-1.588c-0.635-0.463-1.353-0.793-2.048-1.111c-0.178-0.082-0.354-0.162-0.525-0.244
				c-0.743-0.355-1.407-0.727-1.795-1.258c0-0.002,0-0.002-0.001-0.002c-0.028-0.041-0.057-0.082-0.083-0.125
				c-0.4-0.643-0.509-1.561-0.624-2.527c-0.091-0.763-0.185-1.551-0.43-2.306c-0.234-0.723-0.615-1.395-0.982-2.045
				c-0.52-0.918-1.01-1.786-1.01-2.636s0.49-1.718,1.01-2.636c0.367-0.649,0.748-1.322,0.982-2.045
				c0.245-0.755,0.339-1.543,0.43-2.306c0.122-1.031,0.238-2.007,0.708-2.652c0.478-0.656,1.373-1.067,2.32-1.503
				c0.694-0.319,1.413-0.649,2.048-1.111c0.626-0.456,1.154-1.032,1.666-1.59c0.709-0.772,1.38-1.503,2.165-1.758
				c0.248-0.08,0.518-0.112,0.807-0.112c0.576,0,1.223,0.128,1.895,0.261c0.765,0.152,1.556,0.309,2.367,0.309
				c0.813,0,1.603-0.156,2.368-0.309c1.009-0.199,1.962-0.389,2.701-0.148c0.786,0.255,1.455,0.985,2.164,1.758
				c0.512,0.558,1.041,1.134,1.667,1.59c0.635,0.462,1.354,0.792,2.048,1.11c0.947,0.437,1.843,0.847,2.32,1.503
				c0.47,0.646,0.585,1.621,0.708,2.653c0.092,0.762,0.185,1.551,0.43,2.305c0.235,0.723,0.615,1.395,0.982,2.045
				c0.52,0.919,1.01,1.786,1.01,2.637c0,0.85-0.49,1.717-1.01,2.635c-0.367,0.651-0.747,1.323-0.982,2.046
				c-0.244,0.754-0.338,1.543-0.43,2.305c-0.122,1.032-0.238,2.006-0.708,2.653c-0.101,0.139-0.221,0.264-0.354,0.383
				c-0.048,0.043-0.097,0.084-0.148,0.125c-0.014,0.01-0.027,0.021-0.04,0.031c-0.059,0.045-0.119,0.088-0.183,0.131
				c-0.018,0.012-0.036,0.023-0.054,0.035c-0.059,0.039-0.118,0.076-0.18,0.113c-0.011,0.008-0.022,0.014-0.033,0.02
				c-0.066,0.041-0.135,0.08-0.203,0.117c-0.021,0.012-0.043,0.021-0.063,0.033c-0.07,0.039-0.143,0.076-0.216,0.113
				c-0.017,0.008-0.034,0.018-0.052,0.025c-0.066,0.033-0.134,0.066-0.202,0.1c-0.016,0.008-0.031,0.016-0.048,0.023
				c-0.079,0.037-0.16,0.076-0.242,0.113c-0.021,0.01-0.041,0.02-0.062,0.029c-0.08,0.035-0.159,0.072-0.24,0.109
				c-0.695,0.32-1.413,0.65-2.048,1.111c-0.095,0.068-0.186,0.141-0.276,0.215c-0.508,0.416-0.956,0.902-1.391,1.375
				c-0.241,0.264-0.469,0.512-0.704,0.744c0,0-0.002,0.002-0.003,0.002c-0.34,0.338-0.64,0.584-0.924,0.759
				c-0.017,0.01-0.033,0.02-0.049,0.029c-0.036,0.021-0.073,0.041-0.108,0.061c-0.021,0.01-0.039,0.021-0.059,0.031
				c-0.036,0.018-0.071,0.033-0.107,0.049c-0.017,0.008-0.034,0.016-0.052,0.023c-0.053,0.021-0.105,0.041-0.158,0.059
				c-0.075,0.025-0.153,0.043-0.232,0.061c-0.165,0.031-0.338,0.049-0.519,0.051c-0.536,0.008-1.136-0.1-1.762-0.223
				c-0.063-0.012-0.126-0.025-0.188-0.037c-0.766-0.152-1.556-0.308-2.368-0.308C85.009,99.94,84.98,99.94,84.951,99.942z
				 M92.328,116.412l-6.49-14.373c0.023,0.002,0.046,0.006,0.069,0.01c0.054,0.008,0.108,0.016,0.163,0.023
				c0.037,0.006,0.074,0.012,0.111,0.02c0.055,0.008,0.11,0.018,0.166,0.027c0.037,0.008,0.074,0.014,0.111,0.021
				c0.059,0.01,0.118,0.021,0.177,0.033c0.036,0.008,0.07,0.014,0.105,0.02c0.046,0.01,0.092,0.02,0.139,0.027
				c0.044,0.01,0.087,0.018,0.131,0.025c0.763,0.152,1.542,0.307,2.323,0.303c0.469-0.004,0.937-0.063,1.403-0.213
				c0.073-0.025,0.145-0.051,0.215-0.078c0.016-0.006,0.032-0.012,0.049-0.02c0.146-0.059,0.286-0.123,0.422-0.193
				c0.004-0.004,0.007-0.006,0.011-0.008c0.167-0.088,0.325-0.184,0.475-0.285l1.632,3.613l3.053,6.76L92.328,116.412z
				 M98.449,111.287l-4.953-10.969c0.095-0.102,0.187-0.203,0.277-0.302c0.343-0.373,0.67-0.729,1.004-1.025
				c0.024-0.021,0.05-0.043,0.073-0.064l2.161,4.788c0.17,0.375,0.541,0.598,0.93,0.598c0.14,0,0.282-0.029,0.418-0.09
				c0.514-0.232,0.741-0.836,0.509-1.348l-2.25-4.983c0.002-0.002,0.005-0.002,0.007-0.004c0.07-0.033,0.142-0.064,0.213-0.098
				c0.096-0.043,0.193-0.09,0.29-0.135c0.028-0.012,0.058-0.025,0.086-0.039c0.091-0.043,0.183-0.086,0.274-0.131
				c0.041-0.02,0.082-0.041,0.124-0.061c0.055-0.027,0.109-0.055,0.164-0.082c0.081-0.041,0.161-0.084,0.241-0.127
				c0.037-0.02,0.074-0.039,0.111-0.061s0.075-0.041,0.112-0.061l6.244,13.827L98.449,111.287z"/>
		</g>
	</g>
	<g>
		<g>
			<path fill="#0094DA" d="M85.04,70.602c-7.828,0-14.195,6.368-14.195,14.196c0,7.827,6.368,14.195,14.195,14.195
				s14.194-6.368,14.194-14.195C99.234,76.97,92.867,70.602,85.04,70.602z M85.04,96.956c-6.704,0-12.159-5.455-12.159-12.159
				s5.455-12.158,12.159-12.158c6.703,0,12.157,5.454,12.157,12.158C97.198,91.501,91.744,96.956,85.04,96.956z"/>
		</g>
	</g>
	<g>
		<g>
			<path fill="#0094DA" d="M86.038,75.288c-0.013-0.065-0.033-0.129-0.059-0.19c-0.025-0.061-0.057-0.12-0.094-0.176
				c-0.036-0.056-0.079-0.108-0.126-0.155s-0.099-0.09-0.154-0.126c-0.056-0.037-0.114-0.068-0.177-0.094
				c-0.061-0.026-0.125-0.045-0.19-0.059c-0.13-0.026-0.266-0.026-0.396,0c-0.065,0.014-0.13,0.032-0.191,0.059
				c-0.062,0.025-0.12,0.057-0.176,0.094c-0.057,0.036-0.108,0.079-0.155,0.126c-0.046,0.047-0.089,0.1-0.126,0.155
				c-0.036,0.056-0.068,0.114-0.094,0.176s-0.046,0.125-0.059,0.19s-0.02,0.133-0.02,0.199s0.007,0.134,0.02,0.199
				s0.033,0.13,0.059,0.19c0.025,0.062,0.058,0.12,0.094,0.177c0.037,0.055,0.08,0.106,0.126,0.154
				c0.047,0.047,0.1,0.09,0.155,0.127c0.055,0.037,0.114,0.067,0.176,0.094c0.062,0.025,0.126,0.045,0.191,0.058
				c0.065,0.014,0.132,0.02,0.198,0.02s0.134-0.006,0.198-0.02c0.065-0.013,0.13-0.032,0.19-0.058
				c0.063-0.025,0.121-0.057,0.177-0.094s0.107-0.08,0.154-0.127c0.047-0.048,0.09-0.1,0.126-0.154
				c0.037-0.057,0.068-0.115,0.094-0.177c0.026-0.062,0.046-0.125,0.059-0.19c0.014-0.065,0.021-0.132,0.021-0.199
				C86.058,75.42,86.051,75.353,86.038,75.288z"/>
		</g>
	</g>
	<g>
		<g>
			<path fill="#0094DA" d="M94.35,83.779c-0.563,0-1.019,0.456-1.019,1.019c0,4.572-3.72,8.292-8.292,8.292
				s-8.292-3.719-8.292-8.292c0-3.29,1.951-6.272,4.972-7.598c0.515-0.227,0.749-0.827,0.523-1.343
				c-0.227-0.515-0.827-0.749-1.343-0.522c-3.76,1.65-6.189,5.365-6.189,9.464c0,5.695,4.634,10.33,10.329,10.33
				s10.329-4.635,10.329-10.33C95.369,84.235,94.912,83.779,94.35,83.779z"/>
		</g>
	</g>
	<g>
		<g>
			<path fill="#0094DA" d="M91.068,83.346c-0.104-0.319-0.357-0.566-0.681-0.661l-2.836-0.837l-1.672-2.439
				c-0.19-0.277-0.505-0.442-0.84-0.442c-0.337,0-0.65,0.165-0.841,0.442l-1.672,2.439l-2.836,0.837
				c-0.323,0.095-0.577,0.342-0.682,0.661c-0.103,0.32-0.043,0.67,0.162,0.937l1.804,2.344l-0.082,2.956
				c-0.009,0.336,0.148,0.654,0.42,0.852c0.272,0.198,0.624,0.249,0.94,0.136l2.786-0.99l2.786,0.99
				c0.11,0.04,0.227,0.06,0.341,0.06c0.213,0,0.423-0.066,0.599-0.194c0.271-0.198,0.429-0.517,0.419-0.853l-0.08-2.956l1.803-2.344
				C91.112,84.016,91.172,83.667,91.068,83.346z M87.268,85.671c-0.143,0.186-0.218,0.414-0.211,0.648l0.051,1.833l-1.728-0.614
				c-0.221-0.078-0.462-0.078-0.682,0l-1.728,0.614l0.05-1.833c0.007-0.234-0.067-0.463-0.211-0.648l-1.117-1.453l1.758-0.519
				c0.225-0.066,0.42-0.208,0.552-0.401l1.037-1.513l1.036,1.513c0.132,0.193,0.327,0.335,0.552,0.401l1.759,0.518L87.268,85.671z"
				/>
		</g>
	</g>
	<g>
		<g>
			<path fill="#0094DA" d="M100.461,106.469c-0.013-0.066-0.032-0.131-0.058-0.191s-0.057-0.119-0.094-0.176
				c-0.037-0.055-0.08-0.107-0.127-0.154s-0.099-0.09-0.154-0.127s-0.115-0.068-0.176-0.094c-0.063-0.025-0.126-0.045-0.191-0.059
				c-0.131-0.025-0.266-0.025-0.397,0c-0.065,0.014-0.13,0.033-0.19,0.059c-0.062,0.025-0.121,0.057-0.176,0.094
				c-0.056,0.037-0.108,0.08-0.155,0.127s-0.09,0.1-0.125,0.154c-0.037,0.057-0.069,0.115-0.095,0.176s-0.045,0.125-0.058,0.191
				c-0.014,0.064-0.021,0.131-0.021,0.199c0,0.066,0.007,0.133,0.021,0.197c0.013,0.066,0.032,0.131,0.058,0.191
				s0.058,0.121,0.095,0.176c0.036,0.055,0.079,0.109,0.125,0.154c0.047,0.047,0.1,0.09,0.155,0.127
				c0.055,0.037,0.114,0.068,0.176,0.094c0.061,0.025,0.125,0.045,0.19,0.059s0.133,0.02,0.199,0.02s0.133-0.006,0.198-0.02
				s0.13-0.033,0.191-0.059s0.12-0.057,0.176-0.094s0.107-0.08,0.154-0.127s0.09-0.1,0.127-0.154s0.068-0.115,0.094-0.176
				s0.045-0.125,0.058-0.191c0.015-0.064,0.021-0.131,0.021-0.197C100.481,106.6,100.475,106.535,100.461,106.469z"/>
		</g>
	</g>
	<g>
		<g>
			<path fill="#0094DA" d="M78.466,109.678c-0.013-0.066-0.032-0.129-0.058-0.191c-0.025-0.061-0.057-0.121-0.094-0.176
				s-0.08-0.107-0.127-0.154s-0.099-0.09-0.154-0.127c-0.055-0.035-0.114-0.066-0.177-0.094c-0.061-0.025-0.125-0.045-0.19-0.057
				c-0.132-0.027-0.267-0.027-0.398,0c-0.063,0.012-0.128,0.031-0.19,0.057c-0.061,0.025-0.12,0.059-0.175,0.094
				c-0.057,0.037-0.108,0.08-0.155,0.127s-0.09,0.1-0.127,0.154s-0.068,0.115-0.094,0.176c-0.026,0.063-0.045,0.125-0.059,0.191
				c-0.014,0.064-0.02,0.133-0.02,0.199c0,0.064,0.006,0.133,0.02,0.197c0.014,0.066,0.032,0.131,0.059,0.191
				c0.025,0.063,0.057,0.121,0.094,0.176c0.037,0.057,0.08,0.107,0.127,0.154s0.099,0.09,0.155,0.127
				c0.055,0.037,0.113,0.068,0.175,0.094c0.063,0.025,0.127,0.045,0.19,0.059c0.066,0.012,0.134,0.02,0.2,0.02
				s0.133-0.008,0.198-0.02c0.065-0.014,0.129-0.033,0.19-0.059c0.063-0.025,0.122-0.057,0.177-0.094
				c0.056-0.037,0.107-0.08,0.154-0.127s0.09-0.098,0.127-0.154c0.037-0.055,0.067-0.113,0.094-0.176
				c0.025-0.061,0.045-0.125,0.058-0.191c0.015-0.064,0.021-0.133,0.021-0.197C78.488,109.811,78.48,109.742,78.466,109.678z"/>
		</g>
	</g>
</g>
</svg>
