<?xml version="1.0" encoding="utf-8"?>
<!-- Generator: Adobe Illustrator 16.0.0, SVG Export Plug-In . SVG Version: 6.00 Build 0)  -->
<!DOCTYPE svg PUBLIC "-//W3C//DTD SVG 1.1//EN" "http://www.w3.org/Graphics/SVG/1.1/DTD/svg11.dtd">
<svg version="1.1" id="Capa_1" xmlns="http://www.w3.org/2000/svg" xmlns:xlink="http://www.w3.org/1999/xlink" x="0px" y="0px"
	 width="60px" height="65px" viewBox="55.04 59.626 60 65" enable-background="new 55.04 59.626 60 65" xml:space="preserve">
<g>
	<path fill="#0094DA" d="M108.445,117.346c0.002-0.009,0.004-0.017,0.006-0.025c0.01-0.041,0.019-0.083,0.026-0.125
		c0.003-0.015,0.006-0.03,0.008-0.046c0.007-0.036,0.014-0.072,0.019-0.109c0.004-0.022,0.006-0.045,0.009-0.066
		c0.003-0.031,0.008-0.063,0.011-0.093c0.003-0.031,0.005-0.063,0.007-0.095c0.002-0.023,0.004-0.047,0.005-0.07
		c0.004-0.056,0.005-0.112,0.005-0.169v-5.797c0-1.436-0.383-2.902-1.046-4.26c-0.121-0.247-0.252-0.49-0.39-0.729
		c-0.139-0.239-0.286-0.475-0.441-0.703s-0.319-0.453-0.49-0.671c-0.086-0.108-0.173-0.216-0.262-0.321
		c-1.248-1.481-2.847-2.644-4.587-3.2l-1.724-0.552l-2.551-0.815l-0.039-0.048V99.45c-0.017-0.019-0.033-0.038-0.052-0.056
		l-2.032-2.032c-0.322-0.322-0.744-0.488-1.169-0.494c-0.023-0.241-0.04-0.492-0.05-0.756c-0.002-0.072-0.004-0.147-0.005-0.223
		c2.214-2.527,3.597-5.949,4.126-9.389c0.133-0.133,0.22-0.309,0.238-0.502l0.429-4.49c0.266-0.135,0.447-0.41,0.447-0.729V68.219
		c0-0.308-0.173-0.589-0.446-0.729c-8.427-4.293-18.488-4.293-26.914,0c-0.274,0.14-0.446,0.421-0.446,0.729v12.561
		c0,0.318,0.182,0.594,0.447,0.729l0.429,4.49c0.019,0.193,0.104,0.369,0.238,0.503c0.529,3.437,1.909,6.856,4.122,9.384
		c-0.009,0.351-0.027,0.676-0.059,0.982c-0.423,0.008-0.841,0.174-1.162,0.494l-2.032,2.032c-0.018,0.018-0.035,0.037-0.051,0.056
		c0,0.001-0.001,0.001-0.001,0.001l-0.039,0.048l-4.274,1.368c-3.979,1.272-7.215,5.707-7.215,9.884v5.797
		c0,0.057,0.001,0.112,0.004,0.169c0.001,0.023,0.004,0.047,0.005,0.07c0.002,0.031,0.004,0.063,0.008,0.095
		c0.003,0.03,0.007,0.062,0.011,0.093c0.003,0.021,0.006,0.045,0.009,0.067c0.005,0.036,0.012,0.072,0.019,0.109
		c0.003,0.015,0.005,0.03,0.008,0.046c0.008,0.041,0.017,0.083,0.026,0.124c0.002,0.009,0.004,0.017,0.006,0.025
		c0.011,0.047,0.023,0.095,0.037,0.141l0,0c0.41,1.439,1.734,2.496,3.303,2.496h10.468c0,0,0.001,0,0.002,0s0.001,0,0.001,0h7.849
		c0.001,0,0.001,0,0.001,0h0.001h3.486h0.001h0.001h7.849c0.001,0,0.001,0,0.002,0c0,0,0.001,0,0.002,0h10.467
		c1.568,0,2.894-1.057,3.305-2.496l0,0C108.421,117.439,108.433,117.393,108.445,117.346z M87.561,118.347l-0.485-9.3
		c0.111-0.106,0.208-0.228,0.287-0.36l0.738,0.738c0.318,0.318,0.748,0.495,1.194,0.495c0.045,0,0.089-0.002,0.134-0.006
		c0.493-0.038,0.943-0.29,1.234-0.69l2.947-4.053l-4.794,13.176H87.561L87.561,118.347z M81.262,118.347l-4.794-13.176l2.947,4.053
		c0.291,0.4,0.742,0.652,1.235,0.69c0.044,0.004,0.088,0.006,0.133,0.006c0.446,0,0.876-0.177,1.194-0.495l0.738-0.738
		c0.079,0.133,0.177,0.254,0.287,0.36l-0.485,9.3H81.262L81.262,118.347z M72.768,106.87c-0.024-0.243-0.156-0.463-0.36-0.6
		l-1.792-1.194c-0.006-0.004-0.021-0.014-0.024-0.038c-0.002-0.024,0.009-0.037,0.014-0.043c0.005-0.005,0.009-0.01,0.014-0.016
		l2.8-3.386l6.091,16.722h-3.633l-5.374-8.574c-0.015-0.022-0.03-0.045-0.047-0.067c-0.018-0.021-0.015-0.052,0.005-0.071
		l2.072-2.073C72.706,107.356,72.792,107.114,72.768,106.87z M73.6,85.415l-0.364-3.817h1.188c-0.206,1.158-0.407,2.831-0.536,3.977
		L73.6,85.415z M74.175,87.603c0.123,0.067,0.26,0.102,0.396,0.102c0.13,0,0.26-0.03,0.379-0.093
		c0.243-0.128,0.407-0.369,0.435-0.644c0.16-1.599,0.463-4.157,0.698-5.37h17.912c0.236,1.213,0.538,3.771,0.698,5.37
		c0.027,0.273,0.191,0.516,0.435,0.644c0.119,0.063,0.249,0.093,0.379,0.093c0.137,0,0.272-0.034,0.396-0.102l0.061-0.033
		c-1.246,5.568-4.928,10.713-10.924,10.713c-5.997,0-9.679-5.145-10.924-10.713L74.175,87.603z M96.48,85.415l-0.289,0.159
		c-0.127-1.146-0.329-2.818-0.535-3.977h1.188L96.48,85.415z M77.902,97.372c1.919,1.574,4.301,2.545,7.138,2.545
		c2.832,0,5.211-0.967,7.129-2.537c0.004,0.028,0.007,0.057,0.01,0.084c0.009,0.063,0.024,0.121,0.045,0.177l-7.184,6.466
		l-7.191-6.473c0.019-0.053,0.033-0.107,0.041-0.165C77.894,97.437,77.897,97.404,77.902,97.372z M84.167,107.878
		c-0.028,0-0.055-0.026-0.055-0.054v-0.534l0.927-0.927l0.927,0.927v0.534c0,0.027-0.026,0.054-0.054,0.054H84.167z M84.618,109.514
		h0.844l0.462,8.833h-1.767L84.618,109.514z M97.547,107.529l2.072,2.073c0.02,0.02,0.021,0.05,0.004,0.071
		c-0.017,0.022-0.032,0.045-0.047,0.067l-5.374,8.574H90.57l6.091-16.722l2.801,3.386c0.004,0.006,0.008,0.011,0.013,0.016
		c0.004,0.006,0.016,0.019,0.014,0.043c-0.004,0.024-0.019,0.035-0.024,0.038l-1.792,1.194c-0.203,0.137-0.335,0.356-0.36,0.6
		C97.288,107.114,97.374,107.356,97.547,107.529z M106.903,110.751v5.796c0,0.059-0.002,0.116-0.008,0.174
		c-0.003,0.026-0.008,0.053-0.011,0.08c-0.005,0.028-0.008,0.058-0.014,0.085c-0.007,0.036-0.016,0.071-0.024,0.107
		c-0.004,0.017-0.008,0.033-0.013,0.049c-0.013,0.044-0.026,0.086-0.043,0.128c-0.002,0.006-0.004,0.012-0.007,0.018
		c-0.228,0.59-0.764,1.034-1.425,1.129h-9.226l4.812-7.676c0.491-0.67,0.422-1.605-0.168-2.195l-1.367-1.366l0.962-0.642
		c0.404-0.27,0.673-0.7,0.737-1.182c0.064-0.478-0.079-0.96-0.393-1.325l-1.733-2.097l1.843,0.59
		C104.121,103.479,106.903,107.291,106.903,110.751z M95.308,100.057l-5.968,8.205c-0.004,0.006-0.015,0.021-0.039,0.022
		s-0.038-0.011-0.044-0.016l-3.03-3.031l7.468-6.721c0.022-0.02,0.055-0.019,0.075,0.002L95.308,100.057z M72.772,68.725
		c7.72-3.76,16.816-3.76,24.536,0v11.237H72.772V68.725z M76.309,98.519c0.021-0.021,0.054-0.021,0.074-0.002l7.469,6.722
		l-3.03,3.03c-0.005,0.005-0.019,0.018-0.043,0.016c-0.025-0.002-0.036-0.017-0.04-0.022l-5.968-8.205L76.309,98.519z
		 M63.175,110.751c0-3.46,2.784-7.272,6.078-8.327l1.844-0.59l-1.734,2.097c-0.313,0.365-0.456,0.848-0.393,1.325
		c0.065,0.481,0.334,0.912,0.738,1.182l0.961,0.642l-1.367,1.366c-0.59,0.591-0.658,1.525-0.168,2.195l4.812,7.676H64.72
		c-0.66-0.095-1.196-0.539-1.425-1.129c-0.002-0.006-0.004-0.012-0.007-0.018c-0.016-0.042-0.03-0.084-0.042-0.128
		c-0.005-0.016-0.009-0.032-0.013-0.049c-0.01-0.035-0.019-0.07-0.025-0.107c-0.005-0.027-0.009-0.057-0.014-0.085
		c-0.003-0.026-0.008-0.053-0.011-0.08c-0.006-0.057-0.009-0.115-0.009-0.174V110.751L63.175,110.751z"/>
	<path fill="#0094DA" d="M88.53,72.11h-2.672v-2.672c0-0.451-0.366-0.817-0.817-0.817c-0.452,0-0.818,0.366-0.818,0.817v2.672
		h-2.671c-0.452,0-0.818,0.366-0.818,0.818c0,0.451,0.366,0.817,0.818,0.817h2.671v2.673c0,0.451,0.366,0.817,0.818,0.817
		c0.451,0,0.817-0.366,0.817-0.817v-2.673h2.672c0.451,0,0.817-0.366,0.817-0.817C89.347,72.477,88.981,72.11,88.53,72.11z"/>
</g>
</svg>
