<?xml version="1.0" encoding="utf-8"?>
<!-- Generator: Adobe Illustrator 16.0.0, SVG Export Plug-In . SVG Version: 6.00 Build 0)  -->
<!DOCTYPE svg PUBLIC "-//W3C//DTD SVG 1.1//EN" "http://www.w3.org/Graphics/SVG/1.1/DTD/svg11.dtd">
<svg version="1.1" id="Capa_1" xmlns="http://www.w3.org/2000/svg" xmlns:xlink="http://www.w3.org/1999/xlink" x="0px" y="0px"
	 width="60px" height="65px" viewBox="55.04 59.626 60 65" enable-background="new 55.04 59.626 60 65" xml:space="preserve">
<g>
	<g>
		<g>
			<path fill="#0094DA" d="M106.661,84.743h-6.68v-6.152c0-0.485-0.395-0.879-0.879-0.879h-5.626v-7.208
				c0-0.484-0.394-0.878-0.878-0.878H77.48c-0.484,0-0.879,0.394-0.879,0.878v7.208h-5.625c-0.484,0-0.878,0.394-0.878,0.879v6.152
				h-6.681c-0.484,0-0.878,0.394-0.878,0.879v28.125c0,0.485,0.394,0.879,0.878,0.879h7.559h8.79h10.546h8.79h7.559
				c0.485,0,0.879-0.394,0.879-0.879V85.622C107.54,85.137,107.146,84.743,106.661,84.743z M70.098,88.259H69.48
				c-0.485,0-0.879,0.394-0.879,0.878c0,0.486,0.394,0.879,0.879,0.879h0.618v1.758h-3.165c-0.484,0-0.878,0.394-0.878,0.879
				s0.394,0.879,0.878,0.879h3.165v1.758h-3.165c-0.484,0-0.878,0.394-0.878,0.879s0.394,0.879,0.878,0.879h3.165v1.758h-3.165
				c-0.484,0-0.878,0.393-0.878,0.879c0,0.485,0.394,0.878,0.878,0.878h3.165v1.758h-3.165c-0.484,0-0.878,0.394-0.878,0.879
				c0,0.486,0.394,0.879,0.878,0.879h3.165v1.758h-3.165c-0.484,0-0.878,0.394-0.878,0.879s0.394,0.879,0.878,0.879h3.165v1.758
				h-3.165c-0.484,0-0.878,0.393-0.878,0.879c0,0.485,0.394,0.879,0.878,0.879h3.165v1.758h-5.801V86.499h5.801V88.259z
				 M78.359,71.383h13.359v7.208v6.151H78.359v-6.151c0-0.001,0-0.002,0-0.004V71.383z M84.161,112.868h-3.516v-8.789h3.516V112.868
				z M89.433,112.868h-3.516v-8.789h3.516V112.868z M98.223,85.621v27.246h-7.032v-9.668c0-0.485-0.394-0.878-0.879-0.878H79.766
				c-0.485,0-0.88,0.393-0.88,0.878v9.668h-7.031V85.621v-6.152h4.746v6.152c0,0.243,0.099,0.463,0.258,0.622
				s0.379,0.258,0.621,0.258h15.117c0.485,0,0.879-0.394,0.879-0.88l0,0V79.47h4.746L98.223,85.621L98.223,85.621z M105.782,112.868
				h-5.801v-1.759h0.618c0.485,0,0.879-0.394,0.879-0.879c0-0.484-0.394-0.878-0.879-0.878h-0.618v-1.758h3.164
				c0.485,0,0.879-0.394,0.879-0.879c0-0.484-0.394-0.879-0.879-0.879h-3.164v-1.758h3.164c0.485,0,0.879-0.394,0.879-0.879
				s-0.394-0.878-0.879-0.878h-3.164v-1.758h3.164c0.485,0,0.879-0.395,0.879-0.879c0-0.485-0.394-0.879-0.879-0.879h-3.164v-1.758
				h3.164c0.485,0,0.879-0.394,0.879-0.879s-0.394-0.878-0.879-0.878h-3.164v-1.758h3.164c0.485,0,0.879-0.395,0.879-0.879
				c0-0.486-0.394-0.879-0.879-0.879h-3.164v-1.758h3.164c0.485,0,0.879-0.393,0.879-0.879c0-0.485-0.394-0.879-0.879-0.879h-3.164
				v-1.757h5.801V112.868z"/>
			<path fill="#0094DA" d="M82.402,78.941h1.759V80.7c0,0.485,0.394,0.878,0.878,0.878c0.485,0,0.879-0.393,0.879-0.878v-1.759
				h1.758c0.485,0,0.879-0.393,0.879-0.879c0-0.485-0.394-0.879-0.879-0.879h-1.758v-1.757c0-0.485-0.394-0.88-0.879-0.88
				c-0.484,0-0.878,0.395-0.878,0.88v1.757h-1.759c-0.484,0-0.879,0.394-0.879,0.879C81.523,78.548,81.917,78.941,82.402,78.941z"/>
			<path fill="#0094DA" d="M66.933,90.016h0.021c0.485,0,0.879-0.393,0.879-0.879c0-0.484-0.394-0.878-0.879-0.878h-0.021
				c-0.484,0-0.878,0.394-0.878,0.878C66.055,89.623,66.449,90.016,66.933,90.016z"/>
			<path fill="#0094DA" d="M103.144,109.352h-0.02c-0.485,0-0.88,0.394-0.88,0.879s0.395,0.878,0.88,0.878h0.02
				c0.485,0,0.879-0.393,0.879-0.878S103.629,109.352,103.144,109.352z"/>
			<path fill="#0094DA" d="M73.613,89.137v3.516c0,0.485,0.395,0.879,0.88,0.879h21.094c0.484,0,0.878-0.394,0.878-0.879v-3.516
				c0-0.484-0.394-0.878-0.878-0.878H74.493C74.007,88.259,73.613,88.652,73.613,89.137z M75.371,90.016h19.336v1.758H75.371V90.016
				z"/>
			<path fill="#0094DA" d="M87.788,95.29h-0.021c-0.485,0-0.879,0.394-0.879,0.879s0.394,0.879,0.879,0.879h0.021
				c0.485,0,0.879-0.394,0.879-0.879S88.273,95.29,87.788,95.29z"/>
			<path fill="#0094DA" d="M95.586,95.29h-5.274c-0.485,0-0.879,0.394-0.879,0.879s0.394,0.879,0.879,0.879h5.274
				c0.484,0,0.878-0.394,0.878-0.879S96.071,95.29,95.586,95.29z"/>
		</g>
	</g>
</g>
</svg>
