<?xml version="1.0" encoding="utf-8"?>
<!-- Generator: Adobe Illustrator 16.0.0, SVG Export Plug-In . SVG Version: 6.00 Build 0)  -->
<!DOCTYPE svg PUBLIC "-//W3C//DTD SVG 1.1//EN" "http://www.w3.org/Graphics/SVG/1.1/DTD/svg11.dtd">
<svg version="1.1" id="Capa_1" xmlns="http://www.w3.org/2000/svg" xmlns:xlink="http://www.w3.org/1999/xlink" x="0px" y="0px"
	 width="60px" height="37px" viewBox="330 251.5 60 37" enable-background="new 330 251.5 60 37" xml:space="preserve">
<path fill="#FFFFFF" d="M371.159,266.397c-1.975,1.977-1.973,5.121,0.004,7.095s5.121,1.973,7.096-0.004s1.973-5.121-0.004-7.095
	S373.134,264.42,371.159,266.397z M376.38,271.612c-0.908,0.911-2.43,0.912-3.34,0.002c-0.91-0.909-0.912-2.43-0.002-3.341
	c0.91-0.911,2.43-0.912,3.342-0.002C377.29,269.181,377.292,270.701,376.38,271.612z"/>
<path fill="#FFFFFF" d="M389.054,267.452c-0.053-0.052-0.053-0.052-0.104-0.104l-10.043-10.435l-0.104-0.103
	c-1.775-1.773-3.648-2.331-4.967-2.428h-0.104l-39.986,0.075c-2.027,0.001-3.749,1.724-3.748,3.751l0.014,23.613
	c0,1.014,0.404,1.924,1.118,2.637c0.709,0.709,1.625,1.116,2.638,1.115l19.611,0.04c0.206,0,0.29,0.008,0.728,0l19.089-0.063
	c1.318-0.099,3.898-0.561,5.93-2.688l9.473-9.888C390.271,271.201,390.476,269.173,389.054,267.452z M353.384,282.973l-19.62-0.031
	c-0.61,0.001-1.117-0.506-1.118-1.115l-0.009-23.619c0-0.61,0.506-1.117,1.116-1.118l39.935-0.023
	c0.813,0.098,2.078,0.454,3.244,1.617l10.09,10.482c0.352,0.455,0.508,1.013-0.352,1.976l-9.473,9.889
	c-1.416,1.427-3.189,1.785-4.049,1.837l-19.25,0.105"/>
<g>
	<g>
		<g>
			<path fill="#FFFFFF" d="M358.711,261.81c-0.551-0.551-1.44-0.551-1.99,0l-14.338,14.337c-0.55,0.551-0.55,1.439,0,1.99
				c0.274,0.274,0.635,0.412,0.995,0.412s0.721-0.137,0.995-0.412l14.338-14.337C359.261,263.249,359.261,262.36,358.711,261.81z"/>
		</g>
	</g>
	<g>
		<g>
			<path fill="#FFFFFF" d="M344.962,260.222c-2.287,0-4.148,1.861-4.148,4.148s1.861,4.148,4.148,4.148s4.147-1.861,4.147-4.148
				S347.25,260.222,344.962,260.222z M344.962,265.703c-0.735,0-1.333-0.598-1.333-1.333s0.598-1.333,1.333-1.333
				c0.734,0,1.333,0.598,1.333,1.333S345.697,265.703,344.962,265.703z"/>
		</g>
	</g>
	<g>
		<g>
			<path fill="#FFFFFF" d="M356.17,271.347c-2.324,0-4.214,1.891-4.214,4.214c0,2.324,1.89,4.215,4.214,4.215
				s4.213-1.891,4.213-4.215C360.384,273.237,358.495,271.347,356.17,271.347z M356.17,276.96c-0.771,0-1.399-0.628-1.399-1.399
				s0.628-1.398,1.399-1.398s1.399,0.627,1.399,1.398S356.942,276.96,356.17,276.96z"/>
		</g>
	</g>
</g>
</svg>
