<?xml version="1.0" encoding="utf-8"?>
<!-- Generator: Adobe Illustrator 16.0.0, SVG Export Plug-In . SVG Version: 6.00 Build 0)  -->
<!DOCTYPE svg PUBLIC "-//W3C//DTD SVG 1.1//EN" "http://www.w3.org/Graphics/SVG/1.1/DTD/svg11.dtd">
<svg version="1.1" id="Layer_1" xmlns="http://www.w3.org/2000/svg" xmlns:xlink="http://www.w3.org/1999/xlink" x="0px" y="0px"
	 width="841.891px" height="841.891px" viewBox="174.33 0 841.891 841.891" enable-background="new 174.33 0 841.891 841.891"
	 xml:space="preserve">
<g>
	<g>
		<path fill="#FFFFFF" d="M922.311,707.716l-13.831-5.546c69.559-77.379,107.74-176.768,107.74-281.225
			c0-85.457-25.836-167.683-72.907-236.805c-0.571-1.123-1.278-2.134-2.101-3.018c-20.621-29.721-45.169-56.98-73.34-80.942
			c-5.592-4.758-13.979-4.08-18.736,1.513c-4.757,5.592-4.08,13.983,1.511,18.738c22.6,19.224,42.715,40.712,60.164,63.967
			c-28.138,10.998-61.912,20.311-99.616,27.669c-10.408-31.012-23.201-59.925-38.24-86.012
			c-20.27-35.164-43.584-63.479-68.993-84.305c39.547,11.307,77.22,28.825,111.792,52.18c6.084,4.105,14.345,2.509,18.455-3.575
			c4.109-6.082,2.51-14.345-3.574-18.456C761.015,24.862,679.629,0,595.275,0c-112.44,0-218.146,43.785-297.651,123.294
			C218.115,202.799,174.33,308.509,174.33,420.945c0,104.592,38.233,203.994,107.906,281.4l-13.657,5.349
			c-5.03,1.817-47.801,18.877-47.801,73.26v47.631c0,7.344,5.949,13.306,13.293,13.306h76.468h11.903h14.179h68.012h25.103
			c0.642,0,1.268-0.061,1.885-0.149c0.618,0.089,1.243,0.149,1.884,0.149h54.089c7.343,0,13.292-5.949,13.292-13.293
			c0-7.343-5.95-13.292-13.292-13.292h-40.796V769.01c0-48.843,38.365-62.892,39.914-63.438c0.206-0.069,0.409-0.144,0.613-0.224
			l64.733-25.353c0.14,0.151,0.271,0.31,0.42,0.454l34.402,33.508c2.484,2.417,5.813,3.771,9.275,3.771c0.069,0,0.14,0,0.209-0.002
			c3.536-0.054,6.909-1.52,9.36-4.068l33.033-34.273l64.646,25.924c0.234,0.096,0.39,0.154,0.63,0.233
			c1.633,0.574,40.003,14.628,40.003,63.468v46.296h-97.229H544.02h-14.883c-7.344,0-13.293,5.95-13.293,13.292
			c0,7.344,5.951,13.293,13.293,13.293h14.883h102.788h110.522h0.002h0.001h16.96h11.901h14.183h68.009h88.373
			c7.344,0,13.293-6.045,13.293-13.387v-47.55C970.056,726.78,927.608,709.641,922.311,707.716z M882.09,691.587l-13.104-5.255
			v-7.564c14.482-8.492,25.612-22.096,30.9-38.322c19.339-1.527,34.614-17.719,34.614-37.442c0-11.73-5.406-22.215-13.85-29.118
			V550.26c0-45.551-34.183-83.244-78.237-88.838c0.502-9.013,0.849-18.092,1.017-27.184h145.958
			C986.193,530.459,948.397,621.344,882.09,691.587z M834.099,661.662h-12.124c-23.489,0-42.598-19.108-42.598-42.595v-35.172l0,0
			c17.316-1.879,47.988-7.932,71.618-27.667c5.293,9.078,13.483,18.896,25.701,24.63v38.208
			C876.695,642.553,857.587,661.662,834.099,661.662z M842.403,687.731v7.369l-14.813,15.368l-13.917-13.555v-9.185
			c2.725,0.327,5.492,0.517,8.304,0.517H834.1C836.913,688.247,839.677,688.058,842.403,687.731z M766.128,558.174
			c-0.015,0-0.029,0-0.044,0c-0.457,0-0.911,0.024-1.356,0.069c-0.144,0.015-0.283,0.044-0.427,0.063
			c-0.299,0.04-0.598,0.076-0.891,0.137c-0.201,0.039-0.394,0.101-0.591,0.151c-0.229,0.058-0.458,0.106-0.681,0.176
			c-0.145,0.044-0.281,0.105-0.424,0.154v-8.664c0-34.737,28.261-62.997,62.999-62.997h6.356c34.736,0,62.992,28.26,62.992,62.997
			v8.556c-0.25-0.08-0.503-0.143-0.76-0.207c-0.122-0.034-0.243-0.074-0.366-0.105c-18.532-4.214-24.593-28.946-24.638-29.134
			c-1.152-5.094-5.183-9.04-10.301-10.086c-5.119-1.05-10.373,0.999-13.435,5.232C820.492,557.792,766.832,558.174,766.128,558.174z
			 M903.28,611.961v-17.913c2.799,1.998,4.634,5.265,4.634,8.958S906.079,609.963,903.28,611.961z M926.413,206.769
			c38.505,59.485,60.554,128.734,62.972,200.882H843.424c-1.078-59.835-9.439-117.546-24.349-170.104
			C859.944,229.429,896.385,219.055,926.413,206.769z M816.836,407.654H680.783c-0.015-0.001-0.028,0-0.041,0
			c-18.135-20.047-43.629-33.292-72.174-35.496V257.845c65.231-0.649,128.181-6.074,184.265-15.501
			C807.509,293.174,815.745,349.301,816.836,407.654z M699.574,546.465c0,7.818-5.281,14.41-12.462,16.438v-32.881
			C694.293,532.052,699.574,538.645,699.574,546.465z M608.568,27.324c52.899,5.649,102.669,44.899,141.354,112.007
			c13.575,23.549,25.232,49.565,34.842,77.473c-53.596,8.775-113.743,13.827-176.197,14.453V27.324H608.568z M600.137,398.385
			c45.279,0,82.115,36.839,82.115,82.12v16.244c-0.089-0.07-0.183-0.133-0.272-0.204c-0.192-0.151-0.389-0.299-0.591-0.438
			c-0.156-0.108-0.317-0.209-0.479-0.311c-0.198-0.127-0.396-0.252-0.604-0.367c-0.188-0.106-0.385-0.2-0.578-0.298
			c-0.187-0.092-0.37-0.186-0.562-0.271c-0.233-0.104-0.475-0.189-0.713-0.28c-0.166-0.063-0.331-0.126-0.498-0.183
			c-0.269-0.089-0.545-0.159-0.819-0.229c-0.122-0.035-0.241-0.076-0.366-0.105c-25.252-5.742-33.252-38.666-33.319-38.952
			c-1.152-5.095-5.183-9.041-10.302-10.086c-5.117-1.053-10.372,0.999-13.434,5.231c-31.129,43.035-99.893,43.476-100.8,43.476
			c-0.002,0-0.004,0-0.004,0c-0.018,0-0.031,0-0.048,0c-0.457,0-0.91,0.023-1.356,0.067c-0.14,0.017-0.274,0.045-0.414,0.064
			c-0.301,0.041-0.606,0.077-0.902,0.137c-0.189,0.039-0.374,0.099-0.563,0.145c-0.237,0.06-0.479,0.112-0.709,0.183
			c-0.216,0.067-0.423,0.154-0.633,0.231c-0.192,0.071-0.394,0.134-0.584,0.213c-0.243,0.104-0.476,0.225-0.707,0.338
			c-0.151,0.074-0.304,0.139-0.452,0.219c-0.24,0.129-0.464,0.276-0.693,0.418c-0.132,0.084-0.271,0.158-0.401,0.245
			c-0.214,0.145-0.416,0.306-0.624,0.464c-0.133,0.1-0.271,0.192-0.4,0.299c-0.122,0.101-0.235,0.214-0.355,0.319v-16.57
			c0-45.281,36.836-82.118,82.115-82.118H600.137L600.137,398.385z M373.715,407.653c1.091-58.364,9.33-114.503,24.009-165.337
			c56.163,9.44,119.181,14.876,184.259,15.531v114.447c-27.866,2.609-52.707,15.768-70.474,35.447
			c-0.483-0.053-0.975-0.088-1.473-0.088L373.715,407.653L373.715,407.653z M505.573,529.885v33.159
			c-7.454-1.843-13-8.565-13-16.579C492.571,538.452,498.119,531.729,505.573,529.885z M581.982,27.324v203.933
			c-62.307-0.631-122.501-5.702-176.182-14.494c9.607-27.892,21.26-53.892,34.828-77.432
			C479.313,72.223,529.083,32.973,581.982,27.324z M486.443,41.868c-25.353,20.816-48.618,49.088-68.85,84.186
			c-15.034,26.08-27.822,54.98-38.229,85.984c-37.657-7.349-71.377-16.641-99.462-27.595C330.814,116.721,403,65.861,486.443,41.868
			z M264.258,206.832c29.953,12.24,66.399,22.575,107.229,30.685c-14.919,52.564-23.28,110.288-24.362,170.137h-145.96
			C203.624,333.813,226.471,265.052,264.258,206.832z M349.915,687.732c2.725,0.327,5.492,0.515,8.304,0.515h12.125
			c2.809,0,5.576-0.188,8.299-0.516v7.368l-14.809,15.367l-13.919-13.554V687.732z M370.344,661.662h-12.125
			c-23.489,0-42.598-19.108-42.598-42.596V583.91c17.313-1.872,47.974-7.936,71.618-27.682c5.295,9.08,13.483,18.899,25.699,24.634
			v38.205C412.936,642.553,393.83,661.662,370.344,661.662z M404.548,529.368c-1.153-5.094-5.184-9.04-10.302-10.086
			c-5.119-1.049-10.374,1-13.433,5.232c-24.089,33.296-77.793,33.661-78.44,33.661c-0.017,0-0.029,0-0.044,0
			c-0.458,0-0.911,0.022-1.357,0.067c-0.14,0.016-0.274,0.044-0.414,0.063c-0.301,0.04-0.606,0.077-0.902,0.137
			c-0.189,0.039-0.374,0.099-0.563,0.145c-0.237,0.06-0.477,0.112-0.709,0.183c-0.143,0.044-0.277,0.105-0.419,0.154v-8.664
			c0-34.737,28.259-62.998,62.997-62.998h6.358c34.736,0,62.992,28.261,62.992,62.998v8.558h-0.003
			c-0.255-0.084-0.52-0.146-0.779-0.214c-0.117-0.029-0.23-0.07-0.349-0.099C410.653,554.291,404.592,529.554,404.548,529.368z
			 M201.164,434.238h145.957c0.166,9.155,0.52,18.3,1.024,27.369c-43.346,6.234-76.771,43.606-76.771,88.652v23.521
			c-8.525,6.899-13.993,17.43-13.993,29.222c0,19.869,15.511,36.146,35.058,37.466c5.288,16.216,16.413,29.808,30.89,38.299v7.487
			l-14.521,5.686C242.276,621.644,204.36,530.666,201.164,434.238z M289.032,593.752v18.502c-3.042-1.96-5.065-5.371-5.065-9.248
			C283.967,599.125,285.99,595.715,289.032,593.752z M420.208,769.011v46.294H404.63h-68.011H322.44h-11.901h-63.174v-34.352
			c0-37.062,28.974-47.802,30.1-48.202c0.206-0.068,0.411-0.143,0.613-0.223l50.137-19.636l26.642,25.948
			c2.482,2.418,5.811,3.77,9.273,3.77c0.069,0,0.141,0,0.211-0.001c3.537-0.055,6.907-1.52,9.359-4.068l25.165-26.115l31.105,12.473
			C424.072,736.969,420.208,751.59,420.208,769.011z M548.462,652.853l-70.555,27.629c-8.984,3.092-21.419,10.224-32.449,21.983
			l-40.231-16.134v-7.561c14.485-8.495,25.614-22.099,30.902-38.326c19.34-1.527,34.617-17.719,34.617-37.442
			c0-11.73-5.408-22.215-13.852-29.118V550.26c0-46.895-36.225-85.462-82.155-89.252c-0.506-8.868-0.856-17.813-1.026-26.771
			h120.135c-6.637,14.048-10.366,29.727-10.366,46.267v31.019c-10.617,7.977-17.499,20.669-17.499,34.943
			c0,23.858,19.234,43.301,43.011,43.666c6.238,21.07,20.608,38.675,39.465,49.163v13.56H548.462z M439.524,611.963v-17.92
			c2.8,1.999,4.637,5.267,4.637,8.961C444.161,606.699,442.324,609.965,439.524,611.963z M617.639,662.131c0,0.018,0,0.036,0,0.049
			v0.806l-21.78,22.602l-20.813-20.271V648.59c4.465,0.745,9.042,1.15,13.717,1.15h15.164c4.672,0,9.248-0.405,13.712-1.147V662.131
			z M603.927,623.157h-15.164c-31.212,0-56.605-25.392-56.605-56.604v-46.932c21.215-1.953,63.165-9.328,93.807-36.836
			c6.467,12.238,17.309,26.447,34.563,33.816v49.95C660.527,597.765,635.136,623.157,603.927,623.157z M745.457,702.556
			c-11.028-11.79-23.478-18.946-32.481-22.054l-68.752-27.574v-13.635c18.861-10.49,33.229-28.1,39.465-49.176
			c23.525-0.651,42.468-19.978,42.468-43.652c0-14.191-6.808-26.82-17.321-34.805v-31.157c0-16.538-3.728-32.219-10.365-46.266
			h118.362c-0.172,8.994-0.524,17.976-1.037,26.886c-45.229,4.488-80.67,42.749-80.67,89.136v23.525
			c-8.524,6.897-13.99,17.428-13.99,29.219c0,19.872,15.511,36.149,35.057,37.466c5.288,16.217,16.415,29.809,30.892,38.3v7.486
			L745.457,702.556z M752.793,593.752v18.502c-3.044-1.96-5.066-5.371-5.066-9.248C747.726,599.125,749.751,595.714,752.793,593.752
			z M943.47,815.305h-75.081h-68.009h-14.183h-11.901h-3.67V769.01c0-17.351-3.83-31.921-9.69-43.963l31.038-12.154l26.639,25.947
			c2.482,2.419,5.811,3.771,9.275,3.771c0.069,0,0.14,0,0.209-0.001c3.537-0.055,6.907-1.52,9.361-4.068l25.166-26.115
			l50.029,20.061c0.234,0.096,0.364,0.146,0.605,0.228c1.233,0.438,30.213,11.18,30.213,48.241v34.35H943.47z"/>
	</g>
</g>
</svg>
