<?xml version="1.0" encoding="utf-8"?>
<!-- Generator: Adobe Illustrator 16.0.0, SVG Export Plug-In . SVG Version: 6.00 Build 0)  -->
<!DOCTYPE svg PUBLIC "-//W3C//DTD SVG 1.1//EN" "http://www.w3.org/Graphics/SVG/1.1/DTD/svg11.dtd">
<svg version="1.1" id="Capa_1" xmlns="http://www.w3.org/2000/svg" xmlns:xlink="http://www.w3.org/1999/xlink" x="0px" y="0px"
	 width="846.445px" height="841.891px" viewBox="169.775 0 846.445 841.891" enable-background="new 169.775 0 846.445 841.891"
	 xml:space="preserve">
<g>
	<g>
		<g>
			<path fill="#FFFFFF" d="M772.594,1.367c-134.333,0-243.626,109.293-243.626,243.626c0,100.739,61.475,187.416,148.883,224.447
				v73.318h189.486V469.44c87.407-37.031,148.883-123.708,148.883-224.447C1016.22,110.66,906.927,1.367,772.594,1.367z
				 M840.268,515.689H704.921v-36.828c21.521,6.239,44.177,9.758,67.674,9.758c23.496,0,46.153-3.519,67.674-9.758V515.689z
				 M772.594,461.55c-119.404,0-216.557-97.152-216.557-216.557c0-119.403,97.152-216.557,216.557-216.557
				c119.403,0,216.556,97.153,216.556,216.557C989.15,364.397,891.998,461.55,772.594,461.55z"/>
			<path fill="#FFFFFF" d="M772.594,82.576c38.642,0,76.133,13.9,105.585,39.169l17.622-20.545
				c-34.352-29.466-78.096-45.693-123.207-45.693c-104.488,0-189.487,84.998-189.487,189.486c0,45.098,16.229,88.843,45.68,123.207
				l20.56-17.636c-25.27-29.438-39.17-66.943-39.17-105.571C610.177,155.433,683.035,82.576,772.594,82.576z"/>
			<path fill="#FFFFFF" d="M916.401,121.786l-20.56,17.636c25.27,29.438,39.17,66.943,39.17,105.571
				c0,89.56-72.857,162.418-162.417,162.418c-38.642,0-76.134-13.9-105.585-39.17l-17.622,20.546
				c34.351,29.465,78.096,45.693,123.207,45.693c104.488,0,189.486-84.998,189.486-189.487
				C962.081,199.895,945.853,156.151,916.401,121.786z"/>
			<path fill="#FFFFFF" d="M813.199,353.271v-67.674h67.674v-81.209h-67.674v-67.674H731.99v67.674h-67.674v81.209h67.674v67.674
				H813.199z M691.385,258.528v-27.07h67.674v-67.674h27.069v67.674h67.674v27.07h-67.674v67.674h-27.069v-67.674H691.385z"/>
			<path fill="#FFFFFF" d="M813.199,772.849c0,22.387-18.219,40.604-40.604,40.604c-22.387,0-40.604-18.218-40.604-40.604V569.828
				h-27.069v203.021c0,37.315,30.358,67.674,67.674,67.674s67.674-30.358,67.674-67.674V569.828h-27.069V772.849z"/>
			<path fill="#FFFFFF" d="M663.179,491.381l-24.796-10.842c-23.713,54.234-77.297,89.289-136.484,89.289
				c-82.089,0-148.883-66.794-148.883-148.883c0-82.088,66.794-148.883,148.883-148.883v-27.069
				c-207.868,0-317.974,161.578-322.562,168.44l-5.008,7.512l5.008,7.512c4.588,6.862,114.693,168.44,322.562,168.44
				c53.543,0,105.476-10.99,154.363-32.646l-10.977-24.742c-7.309,3.235-14.726,6.132-22.184,8.853
				C639.804,532.485,653.596,513.306,663.179,491.381z M207.382,420.931c17.568-22.819,76.823-91.644,173.218-127.118
				c-33.593,32.063-54.653,77.135-54.653,127.132c0,49.916,20.993,94.946,54.505,127.011
				C284.313,512.427,224.977,443.711,207.382,420.931z"/>
			<path fill="#FFFFFF" d="M434.224,420.945c0,37.315,30.359,67.674,67.675,67.674s67.674-30.358,67.674-67.674
				s-30.358-67.674-67.674-67.674S434.224,383.63,434.224,420.945z M542.503,420.945c0,22.387-18.218,40.604-40.604,40.604
				c-22.387,0-40.604-18.218-40.604-40.604s18.218-40.604,40.604-40.604C524.285,380.341,542.503,398.558,542.503,420.945z"/>
		</g>
	</g>
</g>
</svg>
