<?xml version="1.0" encoding="utf-8"?>
<!-- Generator: Adobe Illustrator 16.0.0, SVG Export Plug-In . SVG Version: 6.00 Build 0)  -->
<!DOCTYPE svg PUBLIC "-//W3C//DTD SVG 1.1//EN" "http://www.w3.org/Graphics/SVG/1.1/DTD/svg11.dtd">
<svg version="1.1" id="Capa_1" xmlns="http://www.w3.org/2000/svg" xmlns:xlink="http://www.w3.org/1999/xlink" x="0px" y="0px"
	 width="688.273px" height="667.023px" viewBox="116.389 117.995 688.273 667.023"
	 enable-background="new 116.389 117.995 688.273 667.023" xml:space="preserve">
<g>
	<g>
		<path fill="#FFFFFF" d="M620.647,209.684c-51.355,0-93.059,41.794-93.059,93.059s41.703,93.147,93.059,93.147
			s93.059-41.792,93.059-93.057C713.706,251.57,672.003,209.684,620.647,209.684z M620.647,373.583
			c-39.063,0-70.75-31.778-70.75-70.75s31.778-70.75,70.75-70.75s70.75,31.778,70.75,70.75S659.71,373.583,620.647,373.583z"/>
		<path fill="#FFFFFF" d="M620.647,120.996c-2.094,0-4.279,0-6.373,0.091c-89.782,3.096-163.991,72.844-172.551,162.169
			c-1.639,17.301-0.819,34.692,2.368,51.264c0,0,0.273,2.094,1.275,6.01c2.731,12.292,6.829,24.219,12.019,35.328
			c18.484,43.795,59.003,111.267,146.963,184.292c4.645,3.825,10.471,5.919,16.481,5.919c6.009,0,11.837-2.094,16.481-5.919
			c87.867-72.935,128.387-140.498,146.78-183.928c5.28-11.381,9.378-23.4,12.11-35.602c0.546-2.185,0.91-4.006,1.184-5.736
			c2.186-11.2,3.277-22.673,3.277-34.146C800.481,201.671,719.806,120.996,620.647,120.996z M775.259,331.061
			c0,0.182-0.273,1.73-0.91,4.553c-2.459,10.744-6.01,21.215-10.744,31.595c-17.574,41.52-56.182,105.712-140.59,175.733
			c-0.819,0.638-1.639,0.819-2.276,0.819c-0.546,0-1.456-0.182-2.276-0.819C534.053,472.83,495.355,408.636,477.69,366.844
			c-4.644-10.016-8.195-20.487-10.653-31.322c-0.546-2.368-0.819-3.824-0.911-4.28c0-0.182-0.091-0.364-0.091-0.546
			c-2.823-14.842-3.551-30.139-2.095-45.255c7.558-78.216,72.48-139.314,151.152-142.046c89.325-3.096,163.08,68.656,163.08,157.435
			C778.173,310.846,777.171,320.863,775.259,331.061z"/>
	</g>
</g>
<g>
	<g>
		<path fill="#FFFFFF" stroke="#FFFFFF" stroke-width="5" stroke-miterlimit="10" d="M256.129,200.107
			c-38.271,0-69.35,31.147-69.35,69.351s31.079,69.418,69.35,69.418c38.272,0,69.351-31.146,69.351-69.351
			C325.48,231.322,294.401,200.107,256.129,200.107z M256.129,322.25c-29.111,0-52.725-23.682-52.725-52.726
			c0-29.043,23.683-52.725,52.725-52.725c29.043,0,52.726,23.682,52.726,52.725C308.855,298.568,285.24,322.25,256.129,322.25z"/>
		<path fill="#FFFFFF" stroke="#FFFFFF" stroke-width="5" stroke-miterlimit="10" d="M256.129,134.013c-1.56,0-3.189,0-4.75,0.068
			c-66.908,2.307-122.211,54.286-128.59,120.854c-1.222,12.893-0.611,25.854,1.764,38.204c0,0,0.204,1.561,0.95,4.479
			c2.036,9.16,5.089,18.049,8.957,26.328c13.775,32.638,43.972,82.919,109.522,137.338c3.461,2.851,7.803,4.411,12.283,4.411
			c4.478,0,8.821-1.561,12.283-4.411c65.481-54.352,95.678-104.7,109.386-137.067c3.935-8.482,6.989-17.439,9.025-26.532
			c0.407-1.628,0.679-2.985,0.882-4.275c1.629-8.346,2.442-16.896,2.442-25.447C390.148,194.135,330.026,134.013,256.129,134.013z
			 M371.351,290.561c0,0.135-0.204,1.29-0.678,3.393c-1.833,8.007-4.479,15.81-8.007,23.546
			c-13.097,30.943-41.869,78.78-104.773,130.96c-0.61,0.475-1.221,0.61-1.696,0.61c-0.407,0-1.085-0.136-1.696-0.61
			c-62.904-52.249-91.743-100.085-104.908-131.232c-3.461-7.465-6.107-15.268-7.939-23.343c-0.407-1.764-0.61-2.85-0.679-3.189
			c0-0.135-0.067-0.271-0.067-0.407c-2.104-11.062-2.646-22.461-1.561-33.726c5.632-58.29,54.015-103.822,112.643-105.858
			c66.569-2.307,121.533,51.165,121.533,117.326C373.523,275.496,372.776,282.961,371.351,290.561z"/>
	</g>
</g>
<g>
	<g>
		<path fill="#FFFFFF" stroke="#FFFFFF" stroke-width="5" stroke-miterlimit="10" d="M390.64,515.097
			c-38.271,0-69.35,31.147-69.35,69.351s31.079,69.418,69.35,69.418c38.272,0,69.35-31.146,69.35-69.351
			C459.99,546.312,428.912,515.097,390.64,515.097z M390.64,637.241c-29.111,0-52.725-23.682-52.725-52.726
			c0-29.043,23.683-52.726,52.725-52.726c29.043,0,52.726,23.683,52.726,52.726C443.365,613.559,419.751,637.241,390.64,637.241z"/>
		<path fill="#FFFFFF" stroke="#FFFFFF" stroke-width="5" stroke-miterlimit="10" d="M390.64,449.005c-1.56,0-3.189,0-4.75,0.067
			c-66.908,2.308-122.211,54.286-128.59,120.854c-1.222,12.893-0.611,25.854,1.764,38.203c0,0,0.204,1.562,0.95,4.479
			c2.036,9.16,5.089,18.05,8.957,26.328c13.775,32.638,43.972,82.919,109.522,137.338c3.461,2.851,7.803,4.411,12.283,4.411
			c4.478,0,8.821-1.561,12.283-4.411c65.482-54.352,95.678-104.7,109.386-137.066c3.935-8.481,6.988-17.439,9.024-26.532
			c0.407-1.629,0.679-2.985,0.882-4.275c1.629-8.346,2.443-16.896,2.443-25.447C524.659,509.126,464.537,449.005,390.64,449.005z
			 M505.862,605.552c0,0.136-0.204,1.29-0.679,3.393c-1.832,8.008-4.479,15.811-8.006,23.547
			c-13.098,30.943-41.869,78.779-104.773,130.96c-0.61,0.475-1.221,0.61-1.696,0.61c-0.407,0-1.085-0.136-1.696-0.61
			c-62.904-52.249-91.743-100.085-104.908-131.231c-3.461-7.465-6.107-15.268-7.939-23.344c-0.407-1.764-0.61-2.85-0.679-3.188
			c0-0.136-0.067-0.271-0.067-0.407c-2.104-11.061-2.646-22.461-1.561-33.725c5.632-58.291,54.015-103.822,112.643-105.858
			c66.569-2.308,121.533,51.165,121.533,117.325C508.033,590.487,507.287,597.952,505.862,605.552z"/>
	</g>
</g>
</svg>
