<?xml version="1.0" encoding="utf-8"?>
<!-- Generator: Adobe Illustrator 16.0.0, SVG Export Plug-In . SVG Version: 6.00 Build 0)  -->
<!DOCTYPE svg PUBLIC "-//W3C//DTD SVG 1.1//EN" "http://www.w3.org/Graphics/SVG/1.1/DTD/svg11.dtd">
<svg version="1.1" id="Capa_1" xmlns="http://www.w3.org/2000/svg" xmlns:xlink="http://www.w3.org/1999/xlink" x="0px" y="0px"
	 width="841.891px" height="841.891px" viewBox="174.33 0 841.891 841.891" enable-background="new 174.33 0 841.891 841.891"
	 xml:space="preserve">
<g>
	<g>
		<g>
			<path fill="#FFFFFF" d="M553.18,238.536h84.189v-42.095h42.095v-84.189H637.37V70.158H553.18v42.094h-42.095v84.189h42.095
				V238.536z M539.149,168.378v-28.063h42.095V98.22h28.063v42.095h42.095v28.063h-42.095v42.095h-28.063v-42.095H539.149z"/>
			<rect x="511.086" y="280.63" fill="#FFFFFF" width="28.063" height="42.095"/>
			<rect x="651.401" y="280.63" fill="#FFFFFF" width="28.063" height="42.095"/>
			<rect x="581.244" y="280.63" fill="#FFFFFF" width="28.063" height="42.095"/>
			<rect x="721.558" y="280.63" fill="#FFFFFF" width="28.063" height="42.095"/>
			<rect x="440.928" y="280.63" fill="#FFFFFF" width="28.063" height="42.095"/>
			<rect x="286.582" y="533.197" fill="#FFFFFF" width="28.063" height="42.095"/>
			<rect x="286.582" y="449.009" fill="#FFFFFF" width="28.063" height="42.095"/>
			<rect x="286.582" y="364.819" fill="#FFFFFF" width="28.063" height="42.095"/>
			<rect x="286.582" y="280.63" fill="#FFFFFF" width="28.063" height="42.095"/>
			<rect x="286.582" y="617.386" fill="#FFFFFF" width="28.063" height="42.095"/>
			<path fill="#FFFFFF" d="M974.126,757.701v-561.26H833.81V0H356.739v196.441H216.425v561.26H174.33v84.189h841.891v-84.189
				H974.126z M833.81,224.504h112.252v533.197H833.81V224.504z M384.802,28.063h420.945v729.638H693.496V617.386H497.054v140.314
				H384.802V28.063z M665.432,645.449v112.252h-56.126V645.449H665.432z M581.244,645.449v112.252h-56.126V645.449H581.244z
				 M244.487,224.504h112.252v533.197H244.487V224.504z M988.157,813.828H202.393v-28.063h785.764V813.828z"/>
			<rect x="875.905" y="533.197" fill="#FFFFFF" width="28.063" height="42.095"/>
			<rect x="875.905" y="449.009" fill="#FFFFFF" width="28.063" height="42.095"/>
			<rect x="875.905" y="364.819" fill="#FFFFFF" width="28.063" height="42.095"/>
			<rect x="875.905" y="280.63" fill="#FFFFFF" width="28.063" height="42.095"/>
			<rect x="875.905" y="617.386" fill="#FFFFFF" width="28.063" height="42.095"/>
			<rect x="511.086" y="364.819" fill="#FFFFFF" width="28.063" height="42.095"/>
			<rect x="651.401" y="364.819" fill="#FFFFFF" width="28.063" height="42.095"/>
			<rect x="581.244" y="364.819" fill="#FFFFFF" width="28.063" height="42.095"/>
			<rect x="721.558" y="364.819" fill="#FFFFFF" width="28.063" height="42.095"/>
			<rect x="440.928" y="364.819" fill="#FFFFFF" width="28.063" height="42.095"/>
			<rect x="511.086" y="449.009" fill="#FFFFFF" width="28.063" height="42.095"/>
			<rect x="651.401" y="449.009" fill="#FFFFFF" width="28.063" height="42.095"/>
			<rect x="581.244" y="449.009" fill="#FFFFFF" width="28.063" height="42.095"/>
			<rect x="721.558" y="449.009" fill="#FFFFFF" width="28.063" height="42.095"/>
			<rect x="440.928" y="449.009" fill="#FFFFFF" width="28.063" height="42.095"/>
			<rect x="511.086" y="533.197" fill="#FFFFFF" width="28.063" height="42.095"/>
			<rect x="651.401" y="533.197" fill="#FFFFFF" width="28.063" height="42.095"/>
			<rect x="581.244" y="533.197" fill="#FFFFFF" width="28.063" height="42.095"/>
			<rect x="721.558" y="533.197" fill="#FFFFFF" width="28.063" height="42.095"/>
			<rect x="440.928" y="533.197" fill="#FFFFFF" width="28.063" height="42.095"/>
		</g>
	</g>
</g>
</svg>
