<?xml version="1.0" encoding="utf-8"?>
<!-- Generator: Adobe Illustrator 16.0.0, SVG Export Plug-In . SVG Version: 6.00 Build 0)  -->
<!DOCTYPE svg PUBLIC "-//W3C//DTD SVG 1.1//EN" "http://www.w3.org/Graphics/SVG/1.1/DTD/svg11.dtd">
<svg version="1.1" id="Capa_1" xmlns="http://www.w3.org/2000/svg" xmlns:xlink="http://www.w3.org/1999/xlink" x="0px" y="0px"
	 width="710.226px" height="841.891px" viewBox="240.16 0 710.226 841.891" enable-background="new 240.16 0 710.226 841.891"
	 xml:space="preserve">
<g>
	<path fill="#FFFFFF" d="M948.959,802.034c0.029-0.122,0.056-0.244,0.085-0.367c0.146-0.627,0.282-1.254,0.402-1.889
		c0.045-0.229,0.082-0.462,0.124-0.692c0.097-0.549,0.192-1.099,0.273-1.652c0.049-0.338,0.087-0.679,0.13-1.021
		c0.058-0.465,0.118-0.929,0.165-1.398c0.046-0.474,0.075-0.951,0.108-1.428c0.024-0.354,0.058-0.705,0.074-1.061
		c0.041-0.844,0.064-1.692,0.064-2.546v-87.592c0-21.7-5.78-43.86-15.808-64.38c-1.822-3.73-3.787-7.408-5.881-11.018
		c-2.095-3.608-4.322-7.153-6.671-10.615c-2.349-3.464-4.818-6.849-7.402-10.141c-1.292-1.646-2.611-3.27-3.958-4.868
		c-18.856-22.379-43.014-39.938-69.318-48.355l-26.043-8.333l-38.538-12.333l-0.593-0.717c-0.002-0.003-0.005-0.005-0.009-0.008
		c-0.243-0.294-0.502-0.58-0.775-0.854l-30.705-30.705c-4.876-4.876-11.255-7.37-17.676-7.468c-0.348-3.635-0.604-7.443-0.74-11.423
		c-0.036-1.096-0.064-2.222-0.086-3.358c33.47-38.193,54.35-89.906,62.345-141.876c2.023-2.011,3.33-4.675,3.609-7.585l6.476-67.86
		c4.01-2.044,6.761-6.201,6.761-11.01V59.672c0-4.646-2.606-8.901-6.747-11.013c-127.331-64.879-279.37-64.879-406.706,0
		c-4.141,2.109-6.748,6.364-6.748,11.013v189.815c0,4.809,2.752,8.966,6.762,11.01l6.476,67.86c0.278,2.91,1.585,5.574,3.609,7.585
		c7.99,51.938,28.849,103.62,62.283,141.807c-0.127,5.292-0.417,10.214-0.886,14.848c-6.379,0.127-12.709,2.625-17.555,7.47
		l-30.705,30.704c-0.275,0.275-0.532,0.561-0.776,0.854c-0.001,0.002-0.005,0.005-0.008,0.008l-0.593,0.717l-64.583,20.666
		C289.073,572.252,240.16,639.261,240.16,702.39v87.591c0,0.854,0.022,1.702,0.064,2.546c0.018,0.356,0.051,0.707,0.074,1.062
		c0.032,0.478,0.063,0.954,0.108,1.427c0.046,0.47,0.107,0.933,0.165,1.399c0.043,0.341,0.08,0.683,0.13,1.02
		c0.081,0.554,0.175,1.104,0.273,1.653c0.041,0.23,0.079,0.463,0.124,0.692c0.122,0.634,0.259,1.262,0.401,1.888
		c0.028,0.122,0.057,0.244,0.086,0.368c0.172,0.72,0.359,1.432,0.561,2.139c0,0.003,0.002,0.007,0.003,0.01
		c6.194,21.737,26.219,37.706,49.917,37.706h158.181c0.008,0,0.016,0.002,0.026,0.002c0.008,0,0.016-0.002,0.022-0.002h118.605
		c0.005,0,0.01,0,0.015,0c0.004,0,0.005,0,0.009,0h52.694c0.002,0,0.005,0,0.009,0c0.005,0,0.01,0,0.015,0h118.605
		c0.008,0,0.015,0.002,0.023,0.002c0.008,0,0.017-0.002,0.026-0.002h158.18c23.697,0,43.723-15.968,49.917-37.706
		c0.001-0.003,0.001-0.007,0.003-0.01C948.599,803.466,948.787,802.753,948.959,802.034z M633.371,817.171l-7.333-140.536
		c1.686-1.605,3.145-3.436,4.344-5.444l11.159,11.159c4.813,4.813,11.301,7.482,18.051,7.482c0.667,0,1.336-0.026,2.007-0.079
		c7.457-0.585,14.259-4.39,18.659-10.44l44.541-61.246l-72.437,199.104H633.371z M538.186,817.171L465.75,618.066l44.542,61.246
		c4.399,6.051,11.202,9.854,18.658,10.44c0.671,0.053,1.34,0.079,2.007,0.079c6.75,0,13.237-2.668,18.051-7.482l11.159-11.159
		c1.2,2.009,2.658,3.841,4.344,5.444l-7.333,140.536H538.186z M409.832,643.754c-0.364-3.685-2.363-7.012-5.442-9.065
		l-27.076-18.051c-0.084-0.056-0.31-0.206-0.359-0.574c-0.049-0.369,0.129-0.574,0.196-0.651c0.069-0.077,0.135-0.156,0.201-0.237
		l42.32-51.164l92.037,252.692h-54.896l-81.208-129.561c-0.221-0.354-0.459-0.695-0.717-1.024c-0.255-0.328-0.226-0.796,0.067-1.09
		l31.319-31.318C408.891,651.092,410.198,647.438,409.832,643.754z M422.4,319.521l-5.504-57.675h17.952
		c-3.108,17.498-6.153,42.776-8.083,60.089L422.4,319.521z M431.099,352.582c1.858,1.03,3.92,1.546,5.981,1.546
		c1.97,0,3.938-0.47,5.736-1.411c3.68-1.928,6.145-5.577,6.561-9.71c2.43-24.168,6.991-62.836,10.558-81.157h270.677
		c3.567,18.321,8.127,56.991,10.558,81.157c0.415,4.133,2.881,7.782,6.561,9.71c1.798,0.941,3.767,1.411,5.735,1.411
		c2.062,0,4.123-0.516,5.982-1.546l0.896-0.496c-18.82,84.133-74.45,161.882-165.072,161.882
		c-90.621,0-146.251-77.749-165.071-161.882L431.099,352.582z M768.15,319.521l-4.365,2.414
		c-1.928-17.313-4.975-42.591-8.083-60.089h17.952L768.15,319.521z M487.41,500.218c29,23.797,64.996,38.468,107.866,38.468
		c42.801,0,78.749-14.625,107.725-38.354c0.053,0.424,0.097,0.862,0.155,1.281c0.125,0.931,0.362,1.818,0.677,2.666L595.276,601.98
		l-108.681-97.813c0.287-0.795,0.504-1.627,0.626-2.497C487.288,501.19,487.345,500.7,487.41,500.218z M582.094,658.977
		c-0.424,0-0.824-0.4-0.824-0.823v-8.064l14.007-14.007l14.007,14.007v8.064c0,0.423-0.4,0.823-0.824,0.823H582.094z
		 M588.894,683.695h12.761l6.965,133.476H581.93L588.894,683.695z M784.277,653.71l31.319,31.318
		c0.293,0.294,0.323,0.762,0.067,1.09c-0.255,0.329-0.494,0.671-0.717,1.024L733.74,816.703h-54.896l92.037-252.692l42.32,51.164
		c0.065,0.079,0.133,0.16,0.2,0.237c0.068,0.077,0.244,0.282,0.196,0.651c-0.049,0.369-0.275,0.519-0.359,0.574l-27.075,18.051
		c-3.082,2.054-5.079,5.381-5.443,9.065C780.352,647.438,781.659,651.092,784.277,653.71z M925.67,702.39v87.591
		c0,0.884-0.05,1.755-0.134,2.617c-0.04,0.407-0.11,0.806-0.168,1.208c-0.062,0.432-0.117,0.863-0.198,1.288
		c-0.105,0.548-0.24,1.085-0.379,1.62c-0.063,0.246-0.12,0.494-0.189,0.736c-0.191,0.656-0.405,1.302-0.645,1.937
		c-0.031,0.086-0.063,0.172-0.095,0.259c-3.454,8.915-11.554,15.633-21.536,17.057H762.912l72.701-115.99
		c7.415-10.112,6.379-24.243-2.539-33.161l-20.659-20.659l14.53-9.688c6.108-4.073,10.172-10.581,11.147-17.857
		c0.968-7.216-1.192-14.505-5.931-20.026l-26.202-31.679l27.855,8.913C883.606,592.487,925.67,650.111,925.67,702.39z
		 M750.445,540.781l-90.177,123.992c-0.061,0.084-0.224,0.309-0.603,0.338c-0.361,0.034-0.573-0.167-0.647-0.239l-45.794-45.795
		l112.848-101.563c0.326-0.295,0.824-0.28,1.134,0.029L750.445,540.781z M409.893,67.319c116.649-56.819,254.118-56.817,370.766,0
		v169.81H409.893V67.319z M463.343,517.545c0.31-0.31,0.81-0.323,1.134-0.029l112.848,101.563l-45.793,45.796
		c-0.073,0.072-0.277,0.273-0.648,0.239c-0.379-0.032-0.542-0.254-0.603-0.338l-90.177-123.994L463.343,517.545z M264.883,702.39
		c0-52.279,42.063-109.903,91.853-125.835l27.855-8.913l-26.204,31.68c-4.738,5.522-6.898,12.809-5.931,20.026
		c0.976,7.277,5.039,13.784,11.147,17.858l14.53,9.688l-20.66,20.659c-8.917,8.918-9.953,23.048-2.538,33.161l72.702,115.99H288.224
		c-9.983-1.424-18.082-8.143-21.536-17.057c-0.033-0.086-0.063-0.172-0.096-0.259c-0.238-0.637-0.453-1.28-0.644-1.937
		c-0.069-0.242-0.127-0.491-0.19-0.736c-0.138-0.536-0.273-1.073-0.379-1.62c-0.08-0.424-0.137-0.856-0.197-1.289
		c-0.058-0.401-0.129-0.801-0.168-1.207c-0.083-0.862-0.134-1.734-0.134-2.617V702.39H264.883z"/>
	<path fill="#FFFFFF" d="M648.008,118.483h-40.373V78.111c0-6.825-5.533-12.358-12.358-12.358s-12.359,5.533-12.359,12.358v40.372
		h-40.372c-6.825,0-12.358,5.534-12.358,12.359s5.533,12.358,12.358,12.358h40.372v40.373c0,6.825,5.534,12.358,12.359,12.358
		s12.358-5.533,12.358-12.358v-40.373h40.373c6.825,0,12.358-5.533,12.358-12.358S654.833,118.483,648.008,118.483z"/>
</g>
</svg>
