<?xml version="1.0" encoding="utf-8"?>
<!-- Generator: Adobe Illustrator 16.0.0, SVG Export Plug-In . SVG Version: 6.00 Build 0)  -->
<!DOCTYPE svg PUBLIC "-//W3C//DTD SVG 1.1//EN" "http://www.w3.org/Graphics/SVG/1.1/DTD/svg11.dtd">
<svg version="1.1" id="Layer_1" xmlns="http://www.w3.org/2000/svg" xmlns:xlink="http://www.w3.org/1999/xlink" x="0px" y="0px"
	 width="841.893px" height="841.891px" viewBox="174.33 0 841.893 841.891" enable-background="new 174.33 0 841.893 841.891"
	 xml:space="preserve">
<g>
	<g>
		<path fill="#FFFFFF" d="M999.272,549.687l-88.384-206.235c37.702-4.725,67.064-36.611,67.064-75.578v-38.268
			c0-42.21-34.324-76.536-76.536-76.536H695.361c-16.451-7.736-45.724-24.381-68.652-44.768c7.834,4.015,16.575,6.501,25.969,6.501
			c31.653,0,57.402-25.748,57.402-57.401C710.08,25.748,684.331,0,652.677,0s-57.401,25.748-57.401,57.402
			C595.276,25.748,569.528,0,537.875,0s-57.402,25.748-57.402,57.402c0,31.653,25.749,57.401,57.402,57.401
			c7.609,0,14.845-1.561,21.496-4.261c-19.979,17.054-44.541,32.38-64.483,42.527H289.134c-42.21,0-76.536,34.325-76.536,76.536
			v38.268c0,38.967,29.36,70.854,67.064,75.578l-88.384,206.235c-11.249,26.217-16.948,54.003-16.948,82.572
			c0,115.589,94.044,209.633,209.633,209.633H806.59c115.589,0,209.633-94.044,209.633-209.633
			C1016.22,603.69,1010.521,575.904,999.272,549.687z M652.677,38.267c10.557,0,19.135,8.576,19.135,19.135
			c0,10.556-8.576,19.134-19.135,19.134s-19.135-8.578-19.135-19.134C633.543,46.845,642.119,38.267,652.677,38.267z
			 M537.875,76.536c-10.559,0-19.135-8.578-19.135-19.134c0-10.557,8.576-19.135,19.135-19.135c10.558,0,19.133,8.578,19.133,19.135
			C557.008,67.958,548.431,76.536,537.875,76.536z M594.049,130.593c8.412,8.268,17.562,15.735,26.725,22.478h-53.511
			C576.387,146.297,585.521,138.765,594.049,130.593z M250.866,267.874v-38.268c0-21.095,17.172-38.267,38.268-38.267h612.283
			c21.096,0,38.268,17.172,38.268,38.267v38.268c0,21.095-17.172,38.268-38.268,38.268v-57.402c0-10.576-8.558-19.134-19.134-19.134
			H308.265c-10.574,0.001-19.132,8.56-19.132,19.136v57.402C268.038,306.143,250.866,288.97,250.866,267.874z M806.59,803.623
			H383.963c-94.492,0-171.364-76.871-171.364-171.363c0-23.357,4.653-46.06,13.847-67.51l99.407-231.942
			c1.027-2.373,1.552-4.933,1.552-7.53v-57.401H863.15v57.401c0,2.598,0.523,5.157,1.551,7.53l99.407,231.942
			c9.193,21.45,13.847,44.154,13.847,67.51C977.953,726.752,901.082,803.623,806.59,803.623z"/>
	</g>
</g>
</svg>
