<svg xmlns="http://www.w3.org/2000/svg" viewBox="0 0 607.8 741.8"><title>Ресурс 1</title><g id="Слой_2" data-name="Слой 2"><g id="Слой_1-2" data-name="Слой 1"><path d="M0,372.12q0-108.49,0-217c0-3.67.25-7.35.61-11a11.76,11.76,0,0,1,1.48-3.7c.34-.71,1.09-1.26,1.29-2,1-3.49,3.05-6.19,5.37-8.89a45.07,45.07,0,0,1,8.59-7.86c.06,0,.16,0,.21-.11,2.87-3.28,7.28-4.15,10.62-6.73a12.64,12.64,0,0,1,3.5-1.33c1.34-.48,2.93-.65,4-1.49a12.91,12.91,0,0,1,6-2.76,13.14,13.14,0,0,0,5.32-2.5c1.48-1.06,3.57-1.25,5.36-1.9a9.13,9.13,0,0,0,3.22-1.52c1.86-1.78,4.23-2.09,6.49-2.79a31.05,31.05,0,0,0,3.25-1.42c1.79-.79,3.57-1.61,5.37-2.37,1.16-.49,2.39-.85,3.55-1.35q3-1.33,6-2.78c1.7-.83,3.36-1.75,5.06-2.57a36.24,36.24,0,0,1,3.45-1.49c1.49-.53,3.25-.63,4.47-1.51a24,24,0,0,1,7.37-3.14,24.83,24.83,0,0,0,4.19-2.16,7.52,7.52,0,0,1,1.66-.91c3-.67,5.77-1.53,8.16-3.72,1-1,3-.88,4.49-1.45,1.75-.68,3.42-1.58,5.14-2.35,1.22-.54,2.45-1,3.69-1.54,1.54-.6,3.12-1.12,4.64-1.77,1.81-.77,3.53-1.8,5.38-2.41,2-.65,3.91-1.23,5.43-2.84a4.76,4.76,0,0,1,2.75-1.13,10.62,10.62,0,0,0,6.5-2.69,9.31,9.31,0,0,1,2.74-1.26c2.33-1,4.62-2.07,7-2.92a128,128,0,0,0,12.72-5.68,75.38,75.38,0,0,1,7.29-3c4.17-1.52,8-3.7,12.21-5.1a30.56,30.56,0,0,0,5.65-2.43c2.24-1.28,4.87-1.9,7.32-2.82a5.28,5.28,0,0,0,2.12-1c1.61-1.84,3.81-2.14,5.95-2.78a48.6,48.6,0,0,0,4.69-2.2c1.88-.78,3.83-1.43,5.75-2.14a6.68,6.68,0,0,0,2.18-.9,11.73,11.73,0,0,1,5.54-2.63,13.9,13.9,0,0,0,5.93-3A6.4,6.4,0,0,1,243,21.91a11.49,11.49,0,0,0,5.68-2.29,25.15,25.15,0,0,1,4.5-2l5-2.17a25.2,25.2,0,0,1,4.12-1.7A12.81,12.81,0,0,0,268,11a7.59,7.59,0,0,1,3.39-1.49,17.37,17.37,0,0,0,7-3c1.54-1.09,3.7-1.29,5.56-1.93a6.73,6.73,0,0,0,2.59-1.14c2.16-2.19,4.93-2.42,7.69-2.77A37.69,37.69,0,0,1,299.65,0c2.05.05,4.08.69,6.14.83,3.94.26,6.68,3,9,5.37a19.74,19.74,0,0,1,5.71,11.44,93.76,93.76,0,0,1,.73,12.15c.06,12.16,0,24.32,0,36.48,0,1.65-.17,3.2-1.45,4.41-.9.84-1.52,2.2-3.14,1.62-1.84-.66-3.68-1.37-4-3.66a23,23,0,0,1-.11-3.11q0-19.33,0-38.65c0-3.47-.05-6.91-2.83-9.59a4.14,4.14,0,0,1-.62-1.53c-1.21-3.21-7.56-6.91-10.94-6.36a2.15,2.15,0,0,0-.92.27c-2,1.41-4.35,1.83-6.67,2.47-1.77.5-3.31,1.8-5,2.55s-3.45,1.16-5.16,1.79a9.13,9.13,0,0,0-3.2,1.47c-1.56,1.49-3.43,1.92-5.36,2.45a11.37,11.37,0,0,0-4.16,1.69c-1.91,1.54-4.09,2.05-6.32,2.67a19.78,19.78,0,0,0-3,1.35c-1.72.79-3.42,1.59-5.14,2.37S249.71,30,248,30.76l-4.75,2.06c-1.72.76-3.45,1.52-5.15,2.32-.65.31-1.21,1-1.85,1.07-5.23.45-9,4.63-14.14,5.39a4.24,4.24,0,0,0-2.36,1.09c-1.89,2-4.32,2.53-6.86,3.05-1.34.27-2.53,1.24-3.82,1.84-1.49.7-3,1.35-4.53,2s-3.18,1.34-4.78,2a34,34,0,0,1-4.56,1.89,12.35,12.35,0,0,0-5.69,2.86,5.4,5.4,0,0,1-3.12,1.39,11.1,11.1,0,0,0-6.52,2.66,7.65,7.65,0,0,1-3,1.28,20.64,20.64,0,0,0-6.77,2.84A14.88,14.88,0,0,1,165,66.38a8,8,0,0,0-4.3,2.36,5.6,5.6,0,0,1-3.06,1.49,13.38,13.38,0,0,0-6,2.17c-1.56,1.11-3.61,1.52-5.45,2.23-1.33.52-2.91.72-3.95,1.59a13.14,13.14,0,0,1-5.56,2.55c-1.63.41-3.08,1.55-4.65,2.27a25.74,25.74,0,0,1-3.76,1.48,19.65,19.65,0,0,0-6.43,3c-1.57,1.15-3.84,1.35-5.78,2a5.69,5.69,0,0,0-2.32,1.1c-1.57,1.76-3.69,2.07-5.76,2.68a46.44,46.44,0,0,0-4.77,2.07c-1.9.79-3.85,1.45-5.73,2.28a16.57,16.57,0,0,0-3.91,2.12,6.51,6.51,0,0,1-4.29,1.8,8.66,8.66,0,0,0-5.42,2.23,14.82,14.82,0,0,1-3.38,1.61c-2,.87-4.06,1.7-6.1,2.54-1.46.6-2.9,1.27-4.39,1.76-2.11.68-4.33,1-5.81,3a3.75,3.75,0,0,1-2.1.9c-2.81.59-5.58,1.07-7.88,3.17-1,.88-2.69.87-4,1.43-1.8.77-3.5,1.78-5.3,2.55s-3.46,1.14-5.13,1.86a16.69,16.69,0,0,0-4.11,2.24,6.05,6.05,0,0,1-3.82,1.69,4.22,4.22,0,0,0-2.27.58c-3.15,2.28-6.05,4.92-9.34,7-3.52,2.19-5.22,5.73-7.38,8.9-1,1.43-1.18,3.39-1.68,5.13-.45,1.59-.81,3.2-1.22,4.79a17.62,17.62,0,0,0-.77,3.21c-.12,2.47-.07,4.95-.07,7.43q0,211.23,0,422.44c0,4,.18,8,1.67,11.77a6.75,6.75,0,0,1,.27,2.12c.11,3,.72,5.77,3.09,8,1.34,1.28,2.11,3.13,3.21,4.67,2.48,3.5,6.28,5.56,9.28,8.41,2.56,2.43,6.12,3.13,8.3,5.89a3.83,3.83,0,0,0,1.68.86,18.34,18.34,0,0,1,5.63,3c1.25,1,3.22,1.2,4.86,1.77a9.79,9.79,0,0,1,3.07,1.16c2.47,2.08,5.43,2.58,8.43,3.12a11.87,11.87,0,0,1,4.1,1.18c3.26,2,6.82,2.39,10.5,2.81a98,98,0,0,1,9.75,2.1,48.09,48.09,0,0,0,7.7,1.52q12,.52,24,.55c5.43,0,10.88-.16,16.3-.54a40.52,40.52,0,0,0,7.19-1.62c2.38-.61,4.71-1.43,7.11-2,2.16-.51,4.39-.75,6.57-1.18a3,3,0,0,0,1.69-.8c1.64-2.08,4-2.27,6.28-2.38a12.28,12.28,0,0,0,8.69-4,6.11,6.11,0,0,0,2.08-4.86c-.1-1.27,0-2.56,0-3.84q0-188.06,0-376.11a121.1,121.1,0,0,1,1-12.87,10,10,0,0,1,1.26-3.06c.82-1.71,1.7-3.38,2.54-5.08a7,7,0,0,1,.7-1.51c1.87-2.15,3.72-4.31,5.7-6.34s4.08-3.92,6.18-5.8a17.11,17.11,0,0,1,2.35-1.56c1.34-.85,2.65-1.75,4-2.49s3.14-1.47,4.72-2.17a8.23,8.23,0,0,0,2.37-1c1.9-1.78,4.23-2.41,6.65-3.08,1.63-.46,3.08-1.55,4.67-2.25s3.13-1.1,4.63-1.79c1.71-.79,3.33-1.76,5-2.6a8.83,8.83,0,0,1,3-1.25,11.81,11.81,0,0,0,6.32-2.55c1.21-.91,2.92-1.15,4.37-1.76,1.67-.69,3.3-1.47,4.95-2.2l4.12-1.75c1.59-.68,3.47-1,4.7-2.13a9.57,9.57,0,0,1,5.57-2.46,11.36,11.36,0,0,0,5.22-2.18c.47-.3.9-.9,1.37-.93,5.28-.31,9.05-4.6,14.16-5.36a4.71,4.71,0,0,0,2.21-.88c2.3-1.86,5.05-2.62,7.78-3.48a26.34,26.34,0,0,0,3.13-1.68c1.49-.71,3-1.32,4.55-2,1.8-.8,3.56-1.67,5.38-2.4s3.89-1.32,5.78-2.11c1.22-.51,2.3-1.37,3.52-1.9,1.81-.77,3.73-1.3,5.51-2.11s3.15-1.78,4.76-2.61a10.89,10.89,0,0,1,2.63-1c2.51-.54,4.88-1.15,7-2.94,1.17-1,3.08-1.14,4.64-1.71,1.25-.47,2.5-1,3.72-1.52a36.62,36.62,0,0,1,4.9-2.26,16.19,16.19,0,0,0,6.21-2.95,6.63,6.63,0,0,1,3.2-1.36,13,13,0,0,0,6.5-2.71c1.52-1.11,3.67-1.31,5.49-2,1.23-.5,2.33-1.32,3.55-1.83,1.81-.77,3.68-1.38,5.52-2.08,1-.39,2.37-.54,3-1.28,1.74-2,4.13-2.22,6.38-3,1.48-.49,2.84-1.32,4.28-2s3.2-1.34,4.78-2,3.43-1.55,5.16-2.3a19.09,19.09,0,0,1,3.72-1.45,11.55,11.55,0,0,0,5.72-2.8,5.59,5.59,0,0,1,3.1-1.51,10.12,10.12,0,0,0,6-2.09c2.11-1.72,4.6-2.12,7-2.73a6.45,6.45,0,0,0,3.53-2.57c2.27-2.74,2.56-5.81,2.49-9.17-.13-7.12.19-14.25-.13-21.36-.16-3.52-1.31-7-2-10.49a.6.6,0,0,0-.09-.22c-2.92-2.85-5.56-6.22-10.18-6.23a4.86,4.86,0,0,0-2.93.76c-2.38,2-5.38,2.19-8.15,3.06a3.85,3.85,0,0,0-1.71.78c-1.83,2.09-4.38,2.46-6.85,3.09a6.19,6.19,0,0,0-2.83,1.19c-1.69,1.73-3.79,2.26-6,2.65A10.21,10.21,0,0,0,381.27,73a6.58,6.58,0,0,1-3.6,1.49A11.25,11.25,0,0,0,372,76.77a11.32,11.32,0,0,1-3.84,1.74,14.21,14.21,0,0,0-5.85,2.59,12.89,12.89,0,0,1-3.7,1.54c-1.41.53-2.86,1-4.25,1.54q-3.17,1.33-6.26,2.83c-2,1-3.88,2.12-5.88,3-1.29.59-2.73.81-4,1.33-1.6.63-3.12,1.45-4.71,2.1-1.88.77-3.82,1.44-5.71,2.19-1,.41-2,.91-3.05,1.36-1.94.86-3.87,1.73-5.83,2.56-.95.41-2.13.5-2.86,1.14a13.78,13.78,0,0,1-7,3.21c-1.62.28-3.05,1.57-4.61,2.33-1.12.55-2.31,1-3.47,1.46-1.87.78-3.73,1.62-5.62,2.36-2.12.84-4.27,1.58-6.4,2.41a6.47,6.47,0,0,0-2.52,1.24,8.91,8.91,0,0,1-5.53,2.57,12.92,12.92,0,0,0-5.59,2.54c-1.34,1-3.23,1.19-4.84,1.82-1.4.55-2.75,1.2-4.12,1.8a37.88,37.88,0,0,1-4.76,2,11.42,11.42,0,0,0-5.26,2.64,5.88,5.88,0,0,1-3.14,1.44,14.64,14.64,0,0,0-7.19,3,6.57,6.57,0,0,1-2.83,1.11,14.79,14.79,0,0,0-6.28,2.66c-1.56,1.16-3.79,1.44-5.72,2.12a5.46,5.46,0,0,0-2,.79c-1.76,1.68-4,2.25-6.18,3-1.83.67-3.49,1.79-5.29,2.58-1.52.67-3.13,1.11-4.68,1.72-1.31.52-2.57,1.13-3.86,1.69-1.73.74-3.45,1.51-5.19,2.21-1.39.56-2.84,1-4.23,1.57-2.19.9-4.37,1.83-6.52,2.82a14.51,14.51,0,0,0-3.51,1.91,8.13,8.13,0,0,1-4.47,2,10.72,10.72,0,0,0-4.68,1.65,23.27,23.27,0,0,1-6.25,2.82,39.42,39.42,0,0,0-4.86,2.44,14.77,14.77,0,0,1-2.14,1c-1.29.41-2.92.33-3.88,1.12-3.92,3.2-9.21,3.28-13.28,6.12a9.8,9.8,0,0,1-4.49,1.44c-4.18.43-8.19,1.22-11.87,3.41a7.52,7.52,0,0,1-3.64.93q-14.64.1-29.28,0c-3.84,0-7.68-.11-11.5-.46-1.51-.14-2.9-1.27-4.42-1.6-4-.84-8-1.45-12-2.24-1.61-.32-3.41-.53-4.69-1.41-3.12-2.14-6.78-2.2-10.17-3.27a14,14,0,0,1-2.51-1.26c-1.17-.66-2.25-1.79-3.47-2-3.93-.54-6.5-3.57-9.91-5.06-1.62-.71-2.81-2.5-4.06-3.91a2.05,2.05,0,0,1-.22-1.74,7,7,0,0,1,7-4.33,4.37,4.37,0,0,1,2.52,1.13,11.15,11.15,0,0,0,4.88,2.9,6.48,6.48,0,0,1,2.47,1.36c1.74,1.78,3.94,2.25,6.23,2.73A10.56,10.56,0,0,1,64.45,161a13.33,13.33,0,0,0,7.38,2.5,16.13,16.13,0,0,1,7.69,1.91,26.84,26.84,0,0,0,9.94,2.26c5.49.38,11,.14,16.53.25,1.33,0,2.66.4,4,.55a8.28,8.28,0,0,0,3.08.14c4.08-1.21,8.25-.6,12.38-.82,3.9-.2,7.79-.59,11.67-1a11.13,11.13,0,0,0,2.46-.87,49.7,49.7,0,0,1,6.47-2.27,10.81,10.81,0,0,0,5.33-2.43,10.74,10.74,0,0,1,3.37-1.56c2.07-.78,4.19-1.43,6.25-2.25a43.87,43.87,0,0,1,4.49-2,20,20,0,0,0,6-2.85c1.57-1.07,3.75-1.21,5.6-1.93,1.15-.45,2.16-1.25,3.28-1.81a15.67,15.67,0,0,1,4.24-1.94,13.43,13.43,0,0,0,5.46-2.22,12.86,12.86,0,0,1,4.09-1.77,14.21,14.21,0,0,0,5.85-2.53,9.6,9.6,0,0,1,3.9-1.62,11.62,11.62,0,0,0,5.92-2.91,5.68,5.68,0,0,1,2.77-1.13,16.39,16.39,0,0,0,6.37-2.56c1.5-1,3.49-1.39,5.24-2.12,1.59-.66,3.13-1.45,4.72-2.11,1.9-.79,3.84-1.44,5.73-2.25,1.3-.56,2.5-1.35,3.8-1.92,1.66-.73,3.4-1.28,5.06-2s3.12-1.52,4.68-2.26c1.14-.54,2.27-1.07,3.43-1.56,2-.87,4.08-1.7,6.13-2.54,1.45-.6,2.9-1.22,4.36-1.78s3-.65,4-1.49a17.21,17.21,0,0,1,6.21-2.85c1.63-.47,3.05-1.63,4.6-2.39,1.21-.58,2.5-1,3.73-1.51,2.16-1,4.28-2,6.47-2.92,1.75-.71,3.6-1.19,5.4-1.8.75-.25,1.7-.36,2.16-.89,1.66-1.93,4.05-2.07,6.18-2.88a17.94,17.94,0,0,0,4-1.88,14.29,14.29,0,0,1,5.64-2.43c1.58-.32,3-1.33,4.53-2s3.17-1.35,4.78-2c1.19-.46,2.69-.5,3.56-1.28a14.15,14.15,0,0,1,6.87-3.08,8.26,8.26,0,0,0,4.7-2.62,5.57,5.57,0,0,1,2.79-1.18c2.65-.61,5.19-1.23,7.42-3.08,1.19-1,3.11-1.08,4.67-1.66,1.25-.48,2.44-1.1,3.67-1.64,1.65-.74,3.32-1.44,5-2.2a20.78,20.78,0,0,0,4.8-2.42,6.44,6.44,0,0,1,4.25-1.86,9.59,9.59,0,0,0,5.9-2.31,14.09,14.09,0,0,1,3.62-1.6c1.26-.46,2.84-.48,3.79-1.28,2.45-2,5.39-2.65,8.29-3.47a4,4,0,0,0,1.76-.7c2.12-2.26,5.05-2.59,7.76-3.48a5.65,5.65,0,0,0,2.29-1.2c1.91-2,4.43-2.37,6.94-2.81,1.73-.3,3.43-.74,5.16-.94,4.48-.51,8.7.84,12.87,2.17.95.3,1.52,1.69,2.47,2.15,3.87,1.89,4.47,6.23,7,9.12.82.93,1,2.69,1,4.09.13,7.75.05,15.52.2,23.27a40.57,40.57,0,0,0,1,7.09c.39,1.91,2.89,2.87,4.95,1.57a17.1,17.1,0,0,1,7.51-2.8,1.74,1.74,0,0,0,.87-.4c2.82-2.39,6.34-3.17,9.73-4.27a15.25,15.25,0,0,0,3-1.88,5.91,5.91,0,0,1,2.24-1.22c2.61-.22,5.23-.25,7.85-.24a5.64,5.64,0,0,1,4,2,11.16,11.16,0,0,0,3.21,2c2.4,1.07,4.53,2.37,5.75,4.83a3.8,3.8,0,0,0,1,1.31c2.71,2,3,5.08,3.56,8.07,1.94,10.32.61,20.73.94,31.1.17,5,.12,10.08,0,15.12a42.87,42.87,0,0,1-.89,6.83c-.37,1.91-1.45,2.45-4,2.36-2.27-.08-3.34-.83-3.57-2.75a40.53,40.53,0,0,1-.17-4.55c0-13.28.06-26.56-.05-39.84,0-6.11-3.41-10.59-7.85-14.4a1.91,1.91,0,0,0-.41-.26c-2.71-1.45-10.65-.57-13.18,1.28a12,12,0,0,1-4,1.91,13.11,13.11,0,0,0-5.73,2.81,10.45,10.45,0,0,1-3.36,1.55c-1.93.7-4.07,1-5.78,2a16.74,16.74,0,0,1-5.14,2.35,5,5,0,0,0-2.38,1c-1.95,1.91-4.39,2.46-6.92,2.94a12.23,12.23,0,0,0-5.74,2.78,9.68,9.68,0,0,1-4.6,1.72,9.68,9.68,0,0,0-4.32,1.81,22.34,22.34,0,0,1-4.47,2.1c-1.66.71-3.35,1.34-5,2s-3,1.33-4.53,2c-1.86.83-3.7,1.72-5.6,2.49-2.21.89-4.46,1.67-6.69,2.52a4.75,4.75,0,0,0-1.92.9c-1.78,2.06-4.38,2.11-6.65,3-1.45.56-2.82,1.33-4.22,2a13.45,13.45,0,0,1-2.54,1.28c-2.8.67-5.51,1.3-7.82,3.33-1.09,1-3,1.06-4.46,1.53-.38.11-.91,0-1.16.28-3.81,3.6-9.53,3.21-13.53,6.52-1.08.89-2.85.9-4.26,1.44s-2.86,1.29-4.3,1.93-2.87,1.25-4.3,1.9c-1.72.78-3.64,1.31-5.07,2.45-1.9,1.51-4.13,1.61-6.22,2.29-1.05.35-2.36.48-3.07,1.18-1.7,1.7-3.77,2.2-6,2.77-1.49.39-2.79,1.43-4.23,2-1.88.8-3.85,1.41-5.73,2.22-1.36.59-2.62,1.41-3.95,2.07a18.78,18.78,0,0,1-4,1.75,14.5,14.5,0,0,0-6.13,2.47c-1.2.93-2.9,1.19-4.35,1.81-1.73.74-3.42,1.6-5.17,2.31-2.19.89-4.43,1.66-6.64,2.52a5.38,5.38,0,0,0-2.09,1.07c-1.42,1.64-3.31,2-5.26,2.55a54.48,54.48,0,0,0-5.63,2.45c-1.9.77-3.86,1.39-5.79,2.1a6.38,6.38,0,0,0-2.37,1c-1.79,1.87-4.22,2.09-6.44,2.9a37,37,0,0,0-4.34,2.32c-1,.53-2.05,1.36-3.12,1.42a11.17,11.17,0,0,0-6.2,2.29,9.7,9.7,0,0,1-5.45,2.21,5.43,5.43,0,0,0-3.52,1.29c-2.13,2.4-5.11,2.38-7.75,3.34-.6.22-1.36.3-1.74.71-1.75,1.9-4.17,2.28-6.42,3a2.22,2.22,0,0,0-.46.12q-5.27,3.15-10.5,6.32c-.33.2-.53.71-.86.8-2.88.82-4.66,3.29-6.23,5.3-2.32,3-5.39,5.64-5.88,9.89-.31,2.66-1.45,5.21-2.08,7.85a20.24,20.24,0,0,0-.64,4.71q0,106.92,0,213.86.1,106.08.4,212.16c0,2.63.32,5.26.52,7.89a2.65,2.65,0,0,0,.35,1.38c1.73,2.34,1.59,5.13,1.92,7.8a4.61,4.61,0,0,0,.38,1.86,74.92,74.92,0,0,0,5.48,8c1.84,2.14,4.73,3.49,6.23,5.8,2.17,3.33,6.41,3.58,8.56,6.65,3.36.77,5.63,3.58,8.71,4.73a27.25,27.25,0,0,1,6.8,3.25c1.24.9,3.17.81,4.77,1.24,1.35.35,3,.44,4,1.29,2.92,2.6,6.52,2.87,10,3.38a35,35,0,0,1,6.83,1.92,44.33,44.33,0,0,0,10,1.9c3.49.39,7,.26,10.53.56a50.49,50.49,0,0,1,5.35,1.14c1.63.32,3.28.57,4.92.79,2.13.28,4.25.56,6.39.74a34.76,34.76,0,0,0,3.82,0c.31,0,.62-.26.92-.24,6.68.32,12.82-2.84,19.53-2.75,4.8.06,9.65-.38,14.14-2.94,2.25-1.29,5.19-1.33,7.79-2a5.77,5.77,0,0,0,2.52-1.22c1.71-1.67,3.83-2.14,6-2.62a10.53,10.53,0,0,0,4.18-1.6,12.1,12.1,0,0,1,5.36-2.42c1.5-.31,2.87-1.29,4.32-1.91,1.74-.75,3.54-1.38,5.26-2.18s3.17-1.7,4.76-2.53a11.33,11.33,0,0,1,3-1.33c2.55-.45,4.95-1,6.92-2.91a5.55,5.55,0,0,1,2.81-1.11,18.37,18.37,0,0,0,7.17-3.12c1.55-1.07,3.72-1.23,5.55-1.95,1.15-.46,2.17-1.26,3.3-1.79,1.54-.74,3.13-1.39,4.71-2s3.21-1.27,4.79-2c1.43-.63,2.81-1.34,4.23-2,1.87-.84,3.74-1.67,5.63-2.47,1.45-.61,3-1.1,4.41-1.75,1.64-.75,3.21-1.63,4.83-2.41a12.48,12.48,0,0,1,3.37-1.46,13,13,0,0,0,6.78-2.71c.43-.36.89-.89,1.37-.94,5.29-.53,9.17-4.73,14.37-5.48a5.38,5.38,0,0,0,2.57-1.19c1.86-1.54,4.08-2.08,6.31-2.72a8.32,8.32,0,0,0,3.4-1.62c1.68-1.6,3.71-2,5.81-2.59a30.86,30.86,0,0,0,4.49-2c1.35-.62,2.69-1.28,4.08-1.81s2.88-.44,3.81-1.25c2.42-2.12,5.44-2.56,8.28-3.55.45-.16,1-.2,1.32-.52,2.25-2.64,5.5-3,8.54-3.78a3.45,3.45,0,0,0,1.71-.8c1.91-2.15,4.65-2.28,7.1-3.1a6.56,6.56,0,0,0,2.58-1.17c1.58-1.55,3.59-2,5.57-2.57s4.06-1.14,5.63-2.9c.68-.78,2.13-1,3.28-1.2a12.75,12.75,0,0,0,6.92-3,8.26,8.26,0,0,1,2.81-1.17c1.64-.59,3.54-.81,4.88-1.8a16.57,16.57,0,0,1,6.54-2.73c.78-.18,1.8-.27,2.22-.79,1.85-2.34,4.44-2.77,7.11-3.4,1.7-.39,3.17-1.72,4.82-2.44s3.43-1.18,5.14-1.82a8.19,8.19,0,0,0,3-1.37c1.54-1.51,3.43-1.88,5.36-2.43a42.74,42.74,0,0,0,5-2.11c1.68-.73,3.36-1.44,5-2.15.14-.06.33,0,.47-.1a81.9,81.9,0,0,1,12.31-5.31,12.81,12.81,0,0,0,5.51-4.06c1.25-1.5,1.81-3.65,2.43-5.59,1.48-4.65,1.07-9.47,1.07-14.25v-415a54.1,54.1,0,0,1,0-6.24c.49-4.31-.89-8.32-2.4-12.08a8.48,8.48,0,0,0-7.42-5.64c-3.28-.21-6.55-.41-9.66.93-.86.38-1.61,1-2.46,1.43-1.5.71-3,1.32-4.56,2-1.73.76-3.43,1.57-5.18,2.27-2,.82-4.15,1.5-6.18,2.35-1.09.44-2,1.2-3.12,1.66-2,.83-4,1.48-5.92,2.34-1.44.64-2.76,1.52-4.16,2.25a12,12,0,0,1-2.78,1.23c-2.58.58-5,1.16-7.18,3-1.17,1-3.08,1.14-4.65,1.7-1.18.43-2.58.65-3.48,1.43-1.67,1.43-3.63,1.87-5.59,2.53a51.8,51.8,0,0,0-4.73,2.2,28.55,28.55,0,0,1-4.77,2c-2.12.53-4.13,1-5.8,2.61a6,6,0,0,1-2.73,1.27,17.77,17.77,0,0,0-6.76,2.85c-1.41,1-3.37,1.28-5.08,1.88-.82.29-2,.35-2.4.93-1.94,2.66-5,2.5-7.65,3.43-1.18.42-2.26,1.12-3.41,1.64-1.72.78-3.45,1.52-5.19,2.25-1.16.48-2.59.65-3.46,1.43a10.49,10.49,0,0,1-5.63,2.44,9.8,9.8,0,0,0-5.62,2.93,5.3,5.3,0,0,1-3.14,1.3,9.85,9.85,0,0,0-6.06,2.5,7.94,7.94,0,0,1-3.16,1.44c-2.24.57-4.57.83-6.26,2.68a1,1,0,0,1-.39.27,85.25,85.25,0,0,0-12.28,5.06c-2.49,1.16-5.29,1.53-7.51,3.47-.94.83-2.49.93-3.74,1.42-1.68.65-3.34,1.34-5,2.05-1.36.59-2.68,1.3-4.06,1.85-1.18.47-2.59.55-3.59,1.25-2.82,2-6.06,2.79-9.22,3.87-.45.15-1.08.18-1.33.49-2,2.58-5.17,2.57-7.91,3.5-.38.12-.88.15-1.11.41-2.14,2.36-5.08,2.85-7.94,3.54a4.21,4.21,0,0,0-2,.82,10.87,10.87,0,0,1-6.15,2.88,11.14,11.14,0,0,0-5.21,2.73c-1,.88-2.59,1.08-3.93,1.57-1.69.63-3.4,1.2-5.08,1.86-2,.78-3.92,1.63-5.88,2.46-1.08.46-2.16.94-3.22,1.44a49.13,49.13,0,0,1-5.12,2.36c-2.07.67-4.12,1.16-5.66,2.89a3.74,3.74,0,0,1-2.05,1c-3,.51-5.93,1.2-8.27,3.44a4.82,4.82,0,0,1-2.4.88c-2.89.54-5.89.73-8.14,3a3.22,3.22,0,0,1-1.73.73c-2.44.37-4.89.7-7.34,1-3.88.41-7.77.67-11.64,1.15-3.53.45-7.05,1.11-10.57,1.66a5.77,5.77,0,0,1-1.43.09c-3.16-.34-6.33-.64-9.48-1.1-3-.43-5.91-1.23-8.9-1.56-4.52-.49-9.06-.69-13.59-1.08a6.93,6.93,0,0,1-3.19-.78c-3.17-2.21-6.84-2.53-10.46-3.13a7.2,7.2,0,0,1-3.36-1.06c-2.54-2.14-5.6-2.57-8.65-3.18a3.8,3.8,0,0,1-1.91-.81,13.89,13.89,0,0,0-5.84-3.59,15.79,15.79,0,0,1-3.3-2.22,21.1,21.1,0,0,0-3-1.91c-1.7-.74-1.69-2.1-1.7-3.59s1-2.09,2.17-2.51c4.36-1.59,8.37-1.24,11.77,2.27a4.2,4.2,0,0,0,1.34,1c4.32,1.73,8.59,3.67,13,5,2.6.78,5,1.9,7.53,2.75a21.59,21.59,0,0,0,10.06,1.33,7.63,7.63,0,0,1,4.59.77c4.53,2.59,9.5,2.79,14.41,2.86,7.83.1,15.67-.1,23.49-.51,2.19-.11,4.31-1.4,6.48-2.09a21.08,21.08,0,0,1,3.21-.76c1.41-.2,2.86-.2,4.28-.39a12,12,0,0,0,7.28-3.13c.85-.82,2.51-.79,3.79-1.18,1.5-.46,3.26-.6,4.43-1.5a17.29,17.29,0,0,1,6-2.69,38.77,38.77,0,0,0,4.67-2.2c1.44-.65,2.93-1.18,4.4-1.76,1.24-.49,2.52-.92,3.74-1.48a35.38,35.38,0,0,1,3.55-1.86c3-1,5.77-2.69,8.63-3.87,3.7-1.53,7.4-3.08,11.08-4.71,2.73-1.21,5.54-2.25,8.29-3.45,3.83-1.67,7.55-3.61,11.4-5.16,2.79-1.11,5.73-1.71,8.18-3.64.69-.55,1.82-.5,2.69-.86,1.75-.7,3.46-1.5,5.18-2.27a18.89,18.89,0,0,1,3.44-1.5,14.46,14.46,0,0,0,7.05-3.35,3.82,3.82,0,0,1,2.11-1,14.4,14.4,0,0,0,7.41-3c1.37-1,3.39-1.21,5.11-1.8a7.88,7.88,0,0,0,2.83-1.15c1.68-1.55,3.73-2,5.78-2.71a36.59,36.59,0,0,0,4.83-2.46c1.26-.63,2.54-1.67,3.84-1.71,2.59-.09,4.51-1.37,6.58-2.59a25.33,25.33,0,0,1,3.69-1.47c1.54-.6,3.1-1.16,4.62-1.81s3.28-1.53,4.92-2.3,3.39-1.65,5.12-2.41a39.73,39.73,0,0,1,4.21-1.62,18.13,18.13,0,0,0,5.58-2.54c1.61-1.15,3.79-1.51,5.72-2.22a7.25,7.25,0,0,0,2.42-.91c1.95-1.86,4.41-2.41,6.85-3.17,1.63-.51,3.06-1.63,4.64-2.32s3.3-1.1,4.9-1.79,2.93-1.52,4.41-2.26c1.12-.55,2.24-1.1,3.39-1.56,1.9-.77,3.83-1.43,5.73-2.19,1.68-.66,3.34-1.39,5-2.12s3.15-1.43,4.72-2.14a19.5,19.5,0,0,1,3.66-1.63,18.11,18.11,0,0,0,6.88-3.12c1.33-1,3.27-1.11,4.88-1.75,1.44-.58,2.8-1.35,4.21-2a17.88,17.88,0,0,1,3.19-1.46,17.48,17.48,0,0,0,7.19-3.08c1.16-.93,3-1,4.43-1.64,1.71-.76,3.31-1.76,5-2.61a9.88,9.88,0,0,1,2.76-1.21,14.47,14.47,0,0,0,6.42-2.42,7.61,7.61,0,0,1,3.7-1.45c3.33-.22,6.69-.14,10-.1a3.66,3.66,0,0,1,2,.58q4.41,3.31,8.67,6.81a7.44,7.44,0,0,1,1.29,2,8.34,8.34,0,0,0,1.06,1.85c2.1,1.95,2.69,4.52,2.8,7.15.27,6.14.48,12.29.48,18.44q0,207.49,0,415c0,5-.29,10-.54,15a6.74,6.74,0,0,1-.87,2.94c-1.26,2.21-2.67,4.33-4.07,6.46a3.73,3.73,0,0,1-1.11.87c-.47.31-1.18.44-1.42.86-1.72,2.93-4.9,3.29-7.61,4.51a8.21,8.21,0,0,0-2.2,1.42,7.28,7.28,0,0,1-5,2.09,5.25,5.25,0,0,0-2.91.91c-2.65,2.07-5.75,3-8.9,3.79-.46.12-1.05.17-1.34.49-2,2.22-4.8,2.7-7.48,3.47a4.16,4.16,0,0,0-2.14,1c-1.82,2.35-4.59,2.33-7,3.16-1.41.48-2.73,1.23-4.09,1.82-1.67.72-3.34,1.43-5,2.1-1.17.48-2.62.6-3.5,1.38-2,1.8-4.47,2.35-7,3a6.51,6.51,0,0,0-2.81,1.21c-1.66,1.6-3.78,1.94-5.79,2.65a46.58,46.58,0,0,0-4.65,2.29c-1.11.55-2.23,1.06-3.37,1.54-2,.85-4.09,1.65-6.13,2.5-1.38.57-2.74,1.19-4.1,1.79-2,.86-3.87,1.77-5.84,2.58s-3.73,1.35-5.56,2.1c-1.16.48-2.22,1.18-3.37,1.7-1.72.78-3.47,1.48-5.2,2.24s-3.28,1.52-4.94,2.22-3.25,1.21-4.83,1.9-2.8,1.41-4.24,2c-1.66.72-3.38,1.31-5.05,2s-3.47,1.54-5.19,2.33a21.61,21.61,0,0,1-3.81,1.73c-2.28.53-4.46,1-6.2,2.83a5.75,5.75,0,0,1-3,1.2,15.38,15.38,0,0,0-6.32,2.61c-1.55,1.1-3.67,1.37-5.47,2.15a15.21,15.21,0,0,0-3.88,2.18,8.11,8.11,0,0,1-4.29,1.81,24.91,24.91,0,0,0-5.08,1.82c-1.81.75-3.58,1.6-5.37,2.4-1.43.65-2.86,1.28-4.3,1.92s-3,1.35-4.54,2c-1.25.5-2.75.64-3.76,1.42a17.92,17.92,0,0,1-6.24,2.84c-1.86.55-3.51,1.77-5.29,2.62-1.05.51-2.17.9-3.27,1.31-1.85.7-4,1-5.5,2.15-2,1.52-4.16,1.9-6.33,2.61a27.86,27.86,0,0,0-3.28,1.4,36.72,36.72,0,0,1-4.25,2,16.37,16.37,0,0,0-6.14,3.07,8.57,8.57,0,0,1-4.17,1.55,11.53,11.53,0,0,0-5.86,2.47,12.32,12.32,0,0,1-3.41,1.48c-1.56.59-3.16,1.06-4.68,1.71-1.82.77-3.52,1.79-5.36,2.47-2,.74-4.09,1.22-5.69,2.9a5.13,5.13,0,0,1-2.78,1.11,22.53,22.53,0,0,0-7.55,2.71c-2.24,1.27-5.11,1.65-7.75,2a20.21,20.21,0,0,0-7.87,2.63,8.45,8.45,0,0,1-3.78,1.24c-13,.23-26.07.46-39.1.44-5.91,0-11.82-.54-17.72-.93a8.52,8.52,0,0,1-2.92-1,26.5,26.5,0,0,0-8.94-2.42c-3.84-.4-7.7-.75-11.25-2.82-2-1.15-4.52-1.43-6.86-1.79a8.29,8.29,0,0,1-4.28-1.82,20.92,20.92,0,0,0-4.46-2.16L207.57,726c-.43-.2-.84-.45-1.27-.64a33.68,33.68,0,0,1-7.09-3.85c-1.64-1.24-3.67-2.06-5.35-3.43-2.76-2.25-5.72-4.26-8.58-6.39a7.08,7.08,0,0,1-1.15-1.17c-.26-.31-.34-.83-.65-1-3-1.65-4-5-6.26-7.36a13.45,13.45,0,0,1-2-3.44c-.83-1.6-1.7-3.2-2.39-4.86a17.33,17.33,0,0,1-1.39-4.44c-1.67-13.22-.67-26.52-.94-39.78a13.69,13.69,0,0,0-.11-2.4c-.75-3.73-2.1-4.31-5.85-3.46-2.79.63-5.56,1.29-8.29,2.1-2,.58-3.81,1.53-5.77,2.11a32.41,32.41,0,0,1-6.91,1.63,63.57,63.57,0,0,0-14.71,2.89,47.46,47.46,0,0,1-10.54,1.88,69.27,69.27,0,0,1-12.22,0c-4.65-.46-9.36-.62-13.87-2.27a34.85,34.85,0,0,0-7.22-1.43c-4.82-.68-9.64-1.24-14.46-1.85a2.73,2.73,0,0,1-1.16-.3c-3.87-2.65-8.47-2.63-12.81-3.6a16.15,16.15,0,0,1-2.5-.8c-2.36-.9-4.72-1.81-7-2.79-1.81-.76-3.58-1.63-5.36-2.45a2.92,2.92,0,0,0-.43-.22,49.61,49.61,0,0,1-12.67-6.28c-3-1.89-6.5-3-8.67-6.09a1.63,1.63,0,0,0-.55-.46c-5-2.8-8.55-7.06-11.64-11.77a12.7,12.7,0,0,0-1.46-1.57c-.44-.47-1.08-.86-1.27-1.42-1.93-5.55-5.44-10.6-5-16.93.3-4.06,0-8.15,0-12.24V372.12Z"/></g></g></svg>