<svg xmlns="http://www.w3.org/2000/svg" xmlns:xlink="http://www.w3.org/1999/xlink" width="17px" height="17px">
    <path fill-rule="evenodd" fill="rgb(25, 17, 11)" d="M-0.000,0.000 L3.000,0.000 L3.000,3.000 L-0.000,3.000 L-0.000,0.000 Z"></path>
    <path fill-rule="evenodd" fill="rgb(25, 17, 11)" d="M7.000,0.000 L10.000,0.000 L10.000,3.000 L7.000,3.000 L7.000,0.000 Z"></path>
    <path fill-rule="evenodd" fill="rgb(25, 17, 11)" d="M14.000,0.000 L17.000,0.000 L17.000,3.000 L14.000,3.000 L14.000,0.000 Z"></path>
    <path fill-rule="evenodd" fill="rgb(25, 17, 11)" d="M-0.000,7.000 L3.000,7.000 L3.000,10.000 L-0.000,10.000 L-0.000,7.000 Z"></path>
    <path fill-rule="evenodd" fill="rgb(25, 17, 11)" d="M7.000,7.000 L10.000,7.000 L10.000,10.000 L7.000,10.000 L7.000,7.000 Z"></path>
    <path fill-rule="evenodd" fill="rgb(25, 17, 11)" d="M14.000,7.000 L17.000,7.000 L17.000,10.000 L14.000,10.000 L14.000,7.000 Z"></path>
    <path fill-rule="evenodd" fill="rgb(25, 17, 11)" d="M-0.000,14.000 L3.000,14.000 L3.000,17.000 L-0.000,17.000 L-0.000,14.000 Z"></path>
    <path fill-rule="evenodd" fill="rgb(25, 17, 11)" d="M7.000,14.000 L10.000,14.000 L10.000,17.000 L7.000,17.000 L7.000,14.000 Z"></path>
    <path fill-rule="evenodd" fill="rgb(25, 17, 11)" d="M14.000,14.000 L17.000,14.000 L17.000,17.000 L14.000,17.000 L14.000,14.000 Z"></path>
</svg>