<svg xmlns="http://www.w3.org/2000/svg" viewBox="0 0 750.43 564.23" stroke="#ffab00"><path d="M668.75,533.84c-.26,2.43-.66,4.86-.75,7.3-.18,4.47,0,9-.31,13.42-.25,3.53-2.45,5.14-6.27,5.23-3.36.08-6.57-2.12-6.68-5.19-.24-6.79-.29-13.59-.11-20.38.25-9.67.79-19.33,1.17-29,.73-18.53,1.55-37.06,2.11-55.59.26-8.71-.2-17.44,0-26.16.34-17.11.61-34.22,1.48-51.31.71-13.93,2.33-27.82,3.4-41.74a103,103,0,0,1,4.52-24c1-3.16,3.29-6,5.29-8.74,1.63-2.25,3.86-4,5.56-6.24,2.91-3.77,6.19-7.41,8.24-11.63,1.69-3.48,2.15-7.68,2.59-11.62.61-5.47.87-11,1-16.51.76-35.1,1.42-70.2,2.16-105.3.11-5.59.53-11.18.62-16.78a21.85,21.85,0,0,0-.91-5.64c-.46-1.81-1.57-2-3-1-2.52,1.92-5.1,3.76-7.64,5.66-5,3.75-10,7.54-15.07,11.27-3,2.22-6.12,4.31-9.1,6.56-4.39,3.3-8.72,6.67-13,10-2.25,1.75-4.5,3.51-6.65,5.39a41.19,41.19,0,0,0-5.76,5.59A9.56,9.56,0,0,0,630,172.4c-.3,4-.35,8-.37,12-.1,19.44-.07,38.88-.27,58.32-.14,13.35-.4,26.71-1,40-.32,7.33-1.41,14.63-2.15,21.94-.18,1.83-.35,3.66-.48,5.49-.62,9-1.52,18-1.74,27s.13,18.21.37,27.32c.35,13.58,1,27.16,1.14,40.74.05,4.46-2.94,8.11-5.67,11.33-3.53,4.18-8.42,6.78-13,9.75-6.19,4-11.62,9.14-17.27,13.92-4.18,3.54-8.2,7.28-12.3,10.93-2.19,1.95-4.32,4-6.6,5.8a42.52,42.52,0,0,1-5.32,3.61c-4.12,2.37-8.24,4.73-12.48,6.88-4.5,2.3-9.12,4.36-13.71,6.48-1.08.5-2.26.77-3.34,1.26-5,2.32-10.05,4.69-15.07,7-.29.14-.53.36-.83.48Q513,485.54,506,488.3c-5.38,2.14-10.73,4.35-16.15,6.36a67.59,67.59,0,0,1-6.69,1.72c-9,2.34-18,4.81-27,7-3.48.84-7.12,1-10.67,1.62-2,.34-4,.91-6.06,1.36-3.65.81-7.28,1.72-11,2.4-4.54.84-9.11,1.52-13.69,2.19-4.25.62-8.52,1.56-12.79,1.61-15.28.2-30.56.32-45.83,0-6.58-.16-13.12-1.58-19.68-2.43a81,81,0,0,0-8.31-1.06,65.88,65.88,0,0,1-18.3-3.33c-1.81-.57-3.76-.69-5.61-1.17-2.69-.71-5.33-1.59-8-2.35-2.21-.64-4.48-1.1-6.66-1.84-3.37-1.15-6.68-2.47-10-3.71-5.06-1.88-10.2-3.55-15.16-5.66-5.89-2.51-11.68-5.27-17.42-8.14-3.67-1.83-7.13-4.1-10.74-6.07S229,473,225.38,471c-3-1.64-5.95-3.38-8.88-5.12-4.29-2.56-8.59-5.1-12.81-7.75-3.16-2-6.2-4.18-9.31-6.25-2.51-1.66-5-3.27-7.57-4.91-4.18-2.73-8.34-5.48-12.53-8.18-2.79-1.8-5.65-3.5-8.44-5.31s-5.24-3.58-7.87-5.35c-3.62-2.44-7.27-4.82-10.85-7.31-4.55-3.15-7.52-7.49-8.08-13s-.45-10.7-.5-16.06c-.24-28.79-.4-57.59-.65-86.38q-.39-42.84-.89-85.66c0-3.09-.16-6.17-2.53-8.45a14.1,14.1,0,0,0-4.55-3.2c-6.4-2.37-12.89-4.49-19.36-6.65-1.36-.46-2.8-.64-4.16-1.08-4-1.29-7.9-3-12-3.91-5.44-1.15-9.58-4.45-14.18-7.12-5-2.9-10.15-5.59-16.1-6.27-3.55-.41-7-1.33-10.56-1.94s-6.81-1-10.17-1.66c-3.9-.79-7.74-1.84-11.62-2.68-3.35-.72-6.74-1.23-10.08-2-7.25-1.6-14.09-4-19.33-9.67-2.22-2.39-3.12-5-1.65-8.07.27-.56.51-1.29,1-1.59a83.39,83.39,0,0,1,9-5.4c5.81-2.7,11.78-5.06,17.69-7.52,1.17-.49,2.45-.74,3.62-1.22,5.41-2.24,10.81-4.52,16.21-6.79.22-.09.42-.23.65-.32l12.93-4.88c3.18-1.2,6.33-2.47,9.55-3.54,1.88-.63,3.94-.74,5.79-1.41,6-2.17,11.88-4.52,17.83-6.72,1.56-.58,3.25-.82,4.82-1.38,3.36-1.18,6.65-2.57,10-3.7,5.64-1.9,11.38-3.51,17-5.51,5.22-1.87,10.29-4.13,15.46-6.12,1.63-.62,3.42-.81,5.05-1.44,5.84-2.26,11.63-4.65,17.46-6.93,1.41-.55,2.94-.75,4.34-1.3,3-1.2,6-2.53,9-3.78,6.07-2.51,12.14-5,18.23-7.48,5-2,10.09-3.8,15.05-5.91,4.37-1.86,8.61-4,12.91-6.08.64-.3,1.24-.72,1.9-1,4.3-1.85,8.69-3.51,12.88-5.56,3.76-1.84,7.31-4.11,10.95-6.19.35-.2.69-.41,1-.6,5.33-2.82,10.63-5.72,16-8.42,4-2,8.11-3.64,12.11-5.58,4.28-2.07,8.49-4.3,12.73-6.47.28-.14.56-.31.85-.43,4.48-1.81,9-3.5,13.43-5.44s8.89-4.23,13.35-6.3c1.44-.66,3-1.07,4.44-1.72,5-2.24,9.94-4.54,14.91-6.81.14-.07.27-.18.42-.24,4.79-1.88,9.59-3.73,14.37-5.64,1.18-.47,2.3-1.08,3.43-1.66.42-.22.75-.66,1.18-.8,7.91-2.61,15.51-6.12,24.32-5,16.57,2.06,33.21,3.5,49.93,4,6,.19,11.93,2,17.9,3,3.31.55,6.64.91,9.94,1.44,1.41.22,2.8.63,4.18,1Q469.78,11,475,12.4c2.69.73,5.33,1.66,8.06,2.23,4.05.84,8.15,1.43,12.23,2.17,4.54.83,9.06,1.78,13.61,2.53,3.39.56,6.82.82,10.21,1.32,5.67.85,11.32,1.78,17,2.68,1.27.21,2.51.54,3.78.68,6.91.78,13.78,1.64,20.33,4.24,1.88.75,4.13.55,6.07,1.19,6.4,2.13,12.73,4.48,19.11,6.66,1.8.62,3.74.85,5.56,1.44,7,2.25,14,4.59,21.05,6.85,1.06.34,2.19.46,3.28.7,6.79,1.44,13.56,2.93,20.35,4.34s13.57,2.8,20.38,4c3.29.6,6.67.69,10,1.25,8.24,1.41,16.62,2.4,24.66,4.61,6.6,1.82,13.27,2.72,20,3.76.94.15,1.83.59,2.76.81,4.25,1,8.52,1.95,12.78,2.95,1.31.31,2.61.69,3.9,1.1,3.11,1,6.26,1.85,9.3,3A20.31,20.31,0,0,1,750,80.32c1.13,2.08-.26,5.13-1.71,7-2.78,3.49-6.77,5.21-10.28,7.57-3.21,2.16-6.87,3.64-10.34,5.42l-12.89,6.62a6,6,0,0,1-1.25.71c-4.21.94-4.88,3.8-5,7.69-.44,14.86-1.28,29.7-1.84,44.56q-1.05,27.56-1.86,55.12c-.44,15.11-.63,30.22-1.09,45.33-.18,6.07-.84,12.12-1.13,18.19a17.12,17.12,0,0,0,.58,5.67,4.49,4.49,0,0,0,2.48,2.61c2.48.85,4.78,1.57,6.57,3.8,1.51,1.87,3.8,3.08,5.56,4.77,3.65,3.51,6,7.89,8.67,12.17,3.32,5.38,4,11.56,6.56,17.12a8.1,8.1,0,0,1,.59,3c1.28,30.27,4.73,60.42,4.61,90.77a325.17,325.17,0,0,0,1.88,35.43c1.65,15.52,1.92,31.1,2.86,46.64.44,7.31,1.77,14.56,2.43,21.87.49,5.49.67,11,.76,16.53.07,4-.11,8-.42,11.92-.19,2.41-4.14,5.09-6.56,4.76-5.37-.74-6.43-2-6.44-7.49,0-5.2.28-10.42-.14-15.59s-1.58-10.2-2.39-15.3a22.91,22.91,0,0,1-.29-3.09c-.41-19.91-.57-39.83-1.26-59.73-.45-13.17-1.76-26.31-2.49-39.48-.53-9.58-.67-19.18-1.1-28.76s-.85-19.18-1.59-28.74c-.74-9.38-1.81-18.74-2.9-28.09a36.13,36.13,0,0,0-1.8-6.42c-.31-1-.93-1.89-1.14-2.88-1.53-7-5.48-12.57-10.63-17.16-3.29-2.94-6.79-6.18-11.76-6.06a7.23,7.23,0,0,0-2.43,1,13.29,13.29,0,0,0,1.39,2.16c2.42,2.58,5.43,4.51,6.89,8.05,1.86,4.53,4.37,8.78,6.36,13.25a28.78,28.78,0,0,1,1.66,6.2c1.33,6.8,2.79,13.58,3.77,20.43.7,5,.56,10.07,1.09,15.07.48,4.51,1.53,9,2,13.48.7,6.11,1,12.26,1.71,18.37.76,6.65,1.89,13.25,2.65,19.89.56,4.92,1,9.87,1.12,14.82a279.84,279.84,0,0,0,2.72,33.2c1,6.69.88,13.55,1.18,20.34.56,13,1,26,1.62,39.07.09,2.05.72,4.07,1,6.11.34,2.84.64,5.68.81,8.53.35,6.05.78,12.09.83,18.14,0,3.2-.71,6.24-4,8.11-4.49,2.56-8.62.82-8.87-4.31-.45-8.94-.78-17.9-.78-26.85a363.91,363.91,0,0,0-2.23-40.68c-1-9-1.11-18-1.64-27.05-.11-1.91-.3-3.83-.57-5.72a5.86,5.86,0,0,0-.91-1.7,5.43,5.43,0,0,0-.84,1.78c-.26,7-.67,14-.59,21.06.11,9.83.42,19.67,1,29.49.43,7.32,1.35,14.61,2.19,21.9a36.44,36.44,0,0,1-3.29,20.95,6.07,6.07,0,0,1-6.49,3c-2.22-.51-2.61-2.45-2.84-4.27-.46-3.57-.79-7.15-1.1-10.73-.12-1.39-.31-2-2-1.43-4.57,1.54-7.47.38-10-3.65-.22-.34-.72-.78-1-.73a1.38,1.38,0,0,0-.91.91,26.29,26.29,0,0,0-.87,5.15c-.07,6.24.06,12.48,0,18.72,0,3.33-1.06,4.85-3.22,5.08-3.41.35-5.24-1-6.14-4.31a29.8,29.8,0,0,0-1.69-5c-2.76-5.85-1.66-12.29-2.9-18.36-.17-.82-.21-1.67-.31-2.51ZM374.09,500.32l0-.64c7.6,0,15.2.12,22.79-.05a119.89,119.89,0,0,0,12.41-1.1c6.08-.79,12.12-1.81,18.19-2.68,3.16-.45,6.37-.64,9.51-1.21,5.79-1.05,11.58-2.2,17.33-3.5,4-.92,8-2.77,12-3.09,8.18-.63,15.56-4,23.3-6.08,6.86-1.81,13.35-5,20-7.75,2.56-1,5-2.42,7.5-3.57,3.82-1.74,7.7-3.36,11.49-5.15,2.93-1.38,5.8-2.91,8.65-4.45,4.16-2.26,8.32-4.54,12.43-6.92a116.24,116.24,0,0,0,10.89-6.68c4-2.91,7.57-6.27,11.3-9.48,5.24-4.51,10.78-8.74,15.59-13.68,6.62-6.81,13.21-13.68,18.26-21.92a36.29,36.29,0,0,0,5.09-16.69c.69-9.56.61-19.17.88-28.76q.59-20.73,1.21-41.48c0-.8.13-1.59.2-2.39.82-9.46,1.79-18.91,2.4-28.38.43-6.86.44-13.75.52-20.63.25-20.38.36-40.77.7-61.15.11-6.71.49-13.42,2.94-19.84.56-1.49.29-3.32.32-5,0-.41-.3-1.13-.56-1.17a2.13,2.13,0,0,0-1.44.44c-2.81,2-5.58,4.13-8.38,6.19-4.34,3.21-8.75,6.34-13,9.64-6.15,4.77-12.14,9.75-18.33,14.47-6.44,4.92-13.08,9.59-19.55,14.47-4.56,3.43-9,7.09-13.5,10.56-5.48,4.2-11,8.31-16.56,12.43q-8.6,6.41-17.24,12.75Q500.25,266,489.09,274.2c-2.17,1.6-4.33,3.22-6.51,4.8-3.09,2.24-6.22,4.42-9.3,6.69-2.64,1.95-5.6,3.33-8,5.86s-5.67,4-8.52,6c-2.07,1.47-4.05,3.05-6.09,4.57-2.86,2.15-5.66,4.39-8.63,6.37a25,25,0,0,1-6.52,3.42A21.75,21.75,0,0,1,423,311.6c-3.81-1.15-7.64-2.23-11.4-3.53-2.54-.87-4.93-2.14-7.45-3.09-5.42-2-10.92-3.86-16.29-6-4.7-1.88-9.24-4.12-13.89-6.13-1.08-.47-2.38-.48-3.43-1-1.72-.85-3.32-1.94-5-2.92a5.1,5.1,0,0,0-1.81-.95c-3.38-.32-6.6-1-9.43-3.07-.9-.68-2.25-.75-3.37-1.14-1.58-.55-3.15-1.11-4.71-1.71-2.59-1-5.17-2-7.75-3-1-.41-2.06-.85-3.09-1.27-2-.84-4.1-1.69-6.16-2.51-1.33-.53-2.68-1-4-1.51l-7.31-2.87-4-1.59L308,266.91c-1.62-.65-3.25-1.29-4.85-2-1.24-.53-2.42-1.21-3.68-1.66-5.3-1.91-10.63-3.76-15.94-5.64-.3-.11-.55-.35-.84-.46-2.73-1.06-5.47-2.1-8.2-3.14-.67-.25-1.37-.42-2-.69-6-2.38-11.91-4.81-17.9-7.14-1.47-.58-3.12-.71-4.6-1.28-5.17-2-10.25-4.24-15.48-6-5.84-2-11.83-3.64-17.74-5.51-3.93-1.24-7.81-2.63-11.74-3.88-1.9-.61-3.86-1-5.77-1.56-3.43-1-6.85-2-10.27-3.07-1.68-.5-3.34-1.06-5-1.53-2.9-.8-5.82-1.57-8.73-2.35-2.38-.63-4.76-1.23-7.13-1.89-1.3-.37-2.55-.94-3.86-1.21-4.38-.9-8.82-1.53-13.15-2.61-3.21-.8-4.11-.45-4.31,2.9a13.21,13.21,0,0,0,.37,3.3c.77,4,2.06,7.94,2.29,11.95.63,10.62.8,21.26,1.16,31.89.23,6.71.38,13.43.75,20.13.76,13.72,2,27.43,2.38,41.16.41,17.26.11,34.54.06,51.81,0,3.27-.34,6.54-.46,9.81-.17,4.56-.68,9.14-.32,13.65.37,4.67,1.78,9,6.89,11.14,2.52,1,4.71,2.88,7,4.45,3.13,2.16,6.19,4.43,9.32,6.58,2.29,1.57,4.64,3,7,4.54,3.28,2.1,6.58,4.16,9.83,6.3,3,2,6,4.18,9.06,6.11,5.3,3.32,10.69,6.5,16.05,9.74l13.41,8.16c.47.29.91.64,1.39.93,3.67,2.19,7.28,4.49,11,6.52,3.55,1.93,7.29,3.52,10.91,5.32,4.33,2.16,8.53,4.59,12.95,6.52,4.65,2,9.49,3.62,14.25,5.39,3.49,1.31,7,2.64,10.48,3.88,2.09.73,4.26,1.26,6.37,1.94,1.66.53,3.26,1.27,4.94,1.72,3.93,1,7.88,2,11.83,2.93,1.62.4,3.25.79,4.9,1.05,3.77.6,7.57,1.05,11.34,1.69,3.53.6,7,1.74,10.56,2C353,499.45,363.55,499.82,374.09,500.32Zm298.48-396.1c5.12-.43,10.78-.77,16.39-1.45,2.09-.25,4.1-1.28,6.13-2a78.43,78.43,0,0,0,8.72-3.11c3.62-1.76,7-4,10.52-6s7-3.41,10.26-5.54c1.25-.82,1.69-2.88,2.49-4.37a24,24,0,0,0-3.2-1.62,21.82,21.82,0,0,0-3.07-.42Q713.66,78.43,706.5,77c-2-.37-3.88-.9-5.84-1.21-3.54-.57-7.12-.92-10.65-1.55-5.88-1.06-11.73-2.23-17.58-3.42-4.69-1-9.33-2.61-14-2.88-10.35-.62-20.12-4.05-30.27-5.63-6-.92-11.77-2.76-17.64-4.24-1.77-.45-3.48-1.13-5.24-1.67s-3.81-1.14-5.7-1.73c-3.1-1-6.18-2-9.29-3-2-.61-4-1.12-6-1.68-1.3-.36-2.62-.66-3.89-1.1-5.62-2-11.13-4.35-16.85-5.95a184.63,184.63,0,0,0-18.68-4c-9.59-1.63-19.2-3.4-28.87-4.3a202.22,202.22,0,0,1-34.61-5.79,83.78,83.78,0,0,1-8.61-3.36c-2.44-1-4.86-2-7.31-2.94a14.69,14.69,0,0,0-3.18-1c-5.54-.72-11.19-.93-16.62-2.12a127.82,127.82,0,0,0-24.72-2.65c-2.31-.06-4.63-.16-6.94-.35-9.14-.76-18.27-2-27.43-2.21-5.41-.12-10.88,1.27-16.3,2.13a32.42,32.42,0,0,0-7.17,1.77c-5.73,2.32-11.34,4.92-17,7.39-1.09.48-2.25.78-3.33,1.28-4.82,2.21-9.61,4.48-14.43,6.68-1.52.69-3.11,1.22-4.65,1.87-2,.86-4.07,1.76-6.1,2.65-.95.42-1.9.82-2.83,1.27-4.34,2.11-8.63,4.34-13,6.33s-8.77,3.68-13.16,5.52c-.28.12-.51.38-.8.52q-3.08,1.53-6.18,3c-.93.44-1.9.8-2.82,1.27-4.07,2.13-8.11,4.33-12.21,6.42-3.82,1.94-7.71,3.72-11.54,5.65-2.75,1.38-5.44,2.9-8.17,4.34-4.42,2.32-8.83,4.67-13.29,6.91-1.33.67-2.87.94-4.24,1.56-4.68,2.16-9.28,4.53-14,6.57s-9.3,3.65-14,5.46c-.15,0-.29.14-.43.2q-8.88,3.78-17.75,7.53c-1.31.55-2.68,1-4,1.51-2.07.81-4.12,1.65-6.18,2.48-1.69.67-3.39,1.33-5.07,2-1.1.46-2.15,1.07-3.27,1.45-5.71,1.95-11.45,3.79-17.14,5.79-7.11,2.5-14.17,5.13-21.26,7.69-3.8,1.37-7.62,2.7-11.43,4.05-1.35.47-2.7.94-4,1.43l-16.57,6c-.22.08-.48.07-.7.15-3,1.1-6.09,2.21-9.14,3.3-.52.19-1.06.32-1.6.48-2.83.79-5.68,1.52-8.48,2.4-2.42.76-4.78,1.71-7.19,2.53-1.43.49-2.92.81-4.34,1.35-6.22,2.36-12.44,4.74-18.63,7.2-2.81,1.11-5.5,2.48-8.3,3.6-4.05,1.63-8.16,3.1-12.2,4.74-.64.26-1.06,1.06-1.58,1.62.63.52,1.19,1.34,1.9,1.51,2.09.48,4.31.48,6.36,1.07,7.4,2.15,15,3.11,22.6,4,6,.73,11.87,2.35,17.82,3.48,3,.57,6,.82,9,1.42,2.1.43,4.09,1.41,6.2,1.78,6.82,1.19,13.81,1.47,20.32,4.15,2.19.9,4.78,1.29,6.49,2.73,2.1,1.8,3.45,4.47,5.17,6.72.77,1,1.48,2.27,2.52,2.81a59.68,59.68,0,0,0,10.25,4.58c7.39,2.17,14.93,3.78,22.37,5.77,2.53.68,4.88,2,7.4,2.68,6.59,1.84,13.25,3.44,19.83,5.28,4.13,1.15,8.17,2.6,12.26,3.86,1.75.54,3.56.85,5.3,1.39,2.72.85,5.41,1.84,8.13,2.69,1.52.47,3.13.68,4.63,1.2,6,2.06,11.93,4.32,18,6.27,6.57,2.13,13.25,4,19.84,6,3.4,1.06,6.74,2.34,10.09,3.55,3.51,1.28,7,2.62,10.5,3.88,1.49.54,3.05.91,4.55,1.44,2.91,1,5.8,2.12,8.7,3.2,1,.38,2.07.79,3.11,1.19,2.28.89,4.55,1.78,6.84,2.66,1.18.45,2.4.83,3.56,1.32,1.83.78,3.59,1.72,5.44,2.42,5,1.89,10,3.66,14.95,5.53,3,1.15,6,2.42,9.06,3.6,4,1.56,8,3.09,12,4.63l.43.2c5.56,2.33,11.11,4.69,16.69,7,1.54.63,3.25.82,4.79,1.44,5.37,2.16,10.68,4.46,16.05,6.62,1.7.68,3.54,1,5.25,1.61,3.13,1.15,6.21,2.4,9.3,3.62.81.32,1.6.72,2.42,1,2.68,1,5.36,1.89,8.05,2.79,1.05.35,2.7.23,3.12.91,1.33,2.17,3.48,2.23,5.49,2.94,3.28,1.16,6.45,2.65,9.68,4,2.56,1.05,5.13,2.11,7.72,3.08a8.65,8.65,0,0,0,7.4-.18c6.17-3.2,10.7-8.7,16.85-11.93a3.87,3.87,0,0,0,.55-.45c4.42-3.38,8.77-6.84,13.26-10.12,6.86-5,13.8-9.94,20.72-14.9,1.94-1.38,3.93-2.7,5.84-4.12,3.2-2.35,6.34-4.78,9.52-7.14,4.21-3.11,8.45-6.19,12.68-9.28,3.78-2.76,7.61-5.46,11.36-8.26,4.7-3.52,9.31-7.16,14-10.68,2.86-2.15,5.82-4.16,8.73-6.24,2.07-1.48,4.16-2.92,6.18-4.47,3.08-2.36,6.09-4.81,9.17-7.18,2.4-1.84,4.89-3.57,7.27-5.43,4.45-3.47,8.81-7,13.27-10.51,4.19-3.25,8.5-6.35,12.7-9.61,4.64-3.6,9.2-7.31,13.82-10.95,2.24-1.77,4.55-3.46,6.81-5.21q4.23-3.31,8.43-6.68c3.59-2.88,7.11-5.85,10.75-8.67,6.53-5.06,13.15-10,19.71-15,4.61-3.52,9.21-7,13.75-10.66a10.88,10.88,0,0,0,1.76-2.5,10.67,10.67,0,0,0-3-1.47c-1.81-.26-3.67,0-5.51-.12-7.51-.33-15-.49-22.52-1.12-8.89-.73-17.75-1.87-26.63-2.85-3.25-.36-6.51-.68-9.75-1.14-5.6-.79-11.16-2-16.79-2.45-16.26-1.16-32.54-2.18-48.84-2.92-19.24-.86-38.5-1.57-57.77-1.93a168.64,168.64,0,0,0-21.74,1.44c-6.42.71-12.74,2.39-19.17,3-4.29.38-6.17,3.21-8.31,6-1.77,2.3-3.26,4.83-4.92,7.22-2.61,3.79-6.92,5.37-10.83,6.57a30.66,30.66,0,0,1-18,.1c-4.4-1.38-8.4-4-9.36-9.28-1.56-8.49-1.75-16.58,3.61-24.29,3.56-5.12,7.81-8.72,13.63-10.45a10.34,10.34,0,0,1,5.86,0,58.52,58.52,0,0,1,16.6,8.68,12.24,12.24,0,0,0,6.36,2.24c6.18.37,12.12-1.4,18.17-2.47a231.17,231.17,0,0,1,29-3c5.85-.29,11.79.61,17.67,1.15,8.58.79,17.14,2,25.74,2.57,6.68.48,13.4.34,20.1.53,10.47.3,21,.6,31.41,1,7.67.29,15.38.36,23,1.22,12.46,1.42,24.84,3.59,37.43,3.6a9.36,9.36,0,0,1,1.66.24c4.79.8,9.56,1.84,14.38,2.36C658.76,103.41,665.39,103.71,672.57,104.22Zm8.77,381.61a15,15,0,0,0,.45-2.17c.5-11.08,1.23-22.17,1.41-33.27q.57-33.31.61-66.65c0-8.22-.62-16.44-1-24.66a7.85,7.85,0,0,0-.37-2.1,1.26,1.26,0,0,0-.85-.71c-.22,0-.63.46-.71.78a32,32,0,0,0-.95,4.91c-1.05,15.3-2.2,30.6-3,45.91a614.85,614.85,0,0,0,.15,69.49C677.3,480.61,678.94,483.13,681.34,485.83Zm12.19-157.5,1.12-.2c0-3.47,0-6.94,0-10.41,0-.45-.73-.89-1.11-1.33-.45.4-1.2.74-1.29,1.21a10.36,10.36,0,0,0-.17,3.55C692.41,323.56,693,325.94,693.53,328.33Zm-3.15-23-.23-.21v5.32h.23Z"/></svg>