<svg xmlns="http://www.w3.org/2000/svg" viewBox="0 0 764.46 808.03"><path d="M576.14,421.69c-8.27,8.32-16.52,16.68-24.84,25Q535.94,462,520.5,477.24q-11.24,11.16-22.43,22.33-14.26,14.18-28.53,28.35c-7.25,7.23-14.42,14.52-21.64,21.77q-16,16-32,32c-10.46,10.52-20.73,21.24-31.36,31.59-8.46,8.24-17.09,16.34-26.09,24-6.52,5.52-13.38,10.88-20.82,15s-15.84,6.85-24,9.79c-7.46,2.7-15,5.44-22.71,7.07-6,1.26-12.28,1-18.44,1.1-10,.14-20,.94-29.84-.27-7.95-1-15.6-4.42-23.34-6.9-5.56-1.78-11.17-3.48-16.53-5.75a70,70,0,0,1-11-6.31c-6.89-4.55-14.13-8.75-20.34-14.11-8-6.89-15.23-14.63-22.48-22.31a88.59,88.59,0,0,1-10.55-13.41c-3.67-5.82-6.69-12.06-9.77-18.23-2.43-4.86-5-9.74-6.64-14.88a177.43,177.43,0,0,1-5.92-23.1c-1.54-8.67-2.92-17.51-2.87-26.28a135.69,135.69,0,0,1,3.11-27.44c2.23-10.44,5-21,9.09-30.77a138.77,138.77,0,0,1,15.06-26.16c5.87-8.24,12.87-15.72,19.8-23.13,8-8.57,16.47-16.68,24.72-25,14-14.18,28-28.43,42.05-42.56,16.79-16.85,33.72-33.56,50.53-50.4q30.19-30.27,60.3-60.63c13.06-13.12,26.22-26.16,39.27-39.29,10.74-10.8,21.34-21.73,32.09-32.51,5.88-5.89,11.55-12.1,18.14-17.08,2.2-1.66,8-1.3,10.3.49,4.43,3.43,4.79,9.33.93,13.48-9.68,10.43-20,20.25-30,30.39-12.84,13-25.52,26.2-38.42,39.16s-25.84,25.4-38.62,38.23c-17,17.07-33.88,34.31-50.85,51.44-9.26,9.34-18.65,18.57-27.9,27.94-7.59,7.69-15,15.59-22.61,23.25S214.67,383.25,207,391q-15.17,15.23-30.11,30.65c-6.38,6.57-13.33,12.77-18.67,20.11-5.68,7.81-10.18,16.58-14.43,25.31-3.29,6.78-6.52,14-7.79,21.29a235.94,235.94,0,0,0-4,39,83.71,83.71,0,0,0,4.78,28c4.35,12.23,9.72,24.41,16.7,35.3,6.24,9.76,14.95,18,23.16,26.4a115.77,115.77,0,0,0,18,14.94c6.16,4.13,13,7.3,19.79,10.4,6.08,2.79,12.28,6.28,18.72,7.06,15.84,1.93,31.52,7.49,47.86,2.91,5.64-1.58,11.95-1.13,17.32-3.22,11.3-4.4,22.3-9.63,33.21-15,15.79-7.71,27.05-20.9,39.16-33.07,10.4-10.45,21.24-20.46,31.69-30.86s20.46-21,30.82-31.34c9.07-9.07,18.4-17.86,27.5-26.89s17.84-18.09,26.83-27c7.69-7.66,15.57-15.14,23.25-22.81,9.14-9.14,18.08-18.48,27.23-27.6,7.59-7.57,15.43-14.89,23-22.46s15.12-15.58,22.83-23.22,15.46-14.78,23-22.31c6.28-6.24,12.23-12.79,18.47-19.06,7.29-7.32,14.76-14.46,22.11-21.73q11.85-11.73,23.63-23.55c7.56-7.58,15.64-14.72,22.49-22.9a220.43,220.43,0,0,0,19-26.78,129.5,129.5,0,0,0,10.39-22.25,126.42,126.42,0,0,0,5.64-21.07,218.53,218.53,0,0,0,2.69-23.14,60.68,60.68,0,0,0-.66-10.91c-.89-8.44-.87-17.15-3.11-25.22-3.17-11.4-7-22.86-12.48-33.31s-12.64-20.17-20.19-29.28c-6.77-8.18-15.07-15.11-22.71-22.57-5-4.83-9.72-9.9-15-14.34a92.34,92.34,0,0,0-14-9.6A169.61,169.61,0,0,0,623,30.73a150.22,150.22,0,0,0-22.91-7.28c-8.53-1.93-17.29-3.63-26-3.84a210.33,210.33,0,0,0-33.84,1.86,99.46,99.46,0,0,0-24.58,6.88c-9.49,4-19.08,8.43-27.4,14.39-31.91,22.89-56.72,53.42-84.77,80.47-27.7,26.7-54.55,54.29-81.77,81.49q-31.46,31.43-62.92,62.83-36.36,36.36-72.68,72.76c-13.32,13.28-26.88,26.33-40.21,39.6-9.07,9-17.84,18.34-26.89,27.36-11.73,11.7-23.88,23-35.35,34.91-9.13,9.49-18.28,19.14-26,29.75a189.26,189.26,0,0,0-18.21,31.5c-5.13,11-8.94,22.68-12.69,34.27-7.9,24.42-9.71,49.6-6.69,74.92a206.42,206.42,0,0,0,8.44,38.69,185.74,185.74,0,0,0,15,33.19c6.5,11.63,13.43,23.33,22.07,33.36A208.54,208.54,0,0,0,97,746.92,260.35,260.35,0,0,0,133.63,770c8.88,4.69,18.84,7.65,28.62,10.24,12.28,3.24,24.81,5.68,37.35,7.72,5.14.84,10.6-.31,15.92-.46,11.76-.34,23.72.58,35.23-1.26,12-1.92,23.59-6.39,35.31-9.93,4.83-1.46,9.84-2.78,14.2-5.2,11.23-6.21,22.43-12.56,33.07-19.71a202,202,0,0,0,23.24-18.69c9-8.27,17.42-17.24,26.11-25.89,9.29-9.25,18.64-18.45,27.91-27.72,8.88-8.88,17.65-17.86,26.55-26.72,9.21-9.16,18.57-18.17,27.78-27.33,6.26-6.22,12.32-12.64,18.55-18.89s12.59-12.4,18.83-18.65,12.52-12.8,18.88-19.1c6.18-6.14,12.51-12.12,18.72-18.24,6-5.91,11.85-11.91,17.81-17.84,5.23-5.2,10.54-10.32,15.76-15.53,6.12-6.12,12.14-12.34,18.26-18.46,6.34-6.34,12.77-12.57,19.09-18.92,6.12-6.13,12.12-12.38,18.25-18.5,6.39-6.38,12.93-12.61,19.3-19s12.52-12.9,18.82-19.3c3.09-3.14,6.34-6.11,9.46-9.22,6.5-6.5,12.92-13.07,19.44-19.56,4.75-4.73,9.62-9.34,14.39-14.06,6.37-6.32,12.61-12.77,19-19,7.91-7.67,15.82-15.33,24-22.69,3-2.67,11.28,2.84,10.91,7.82a18.88,18.88,0,0,1-4.56,10.93c-11.93,12.6-24.33,24.77-36.69,37-5.09,5-10.63,9.6-15.69,14.66-7.22,7.23-14.11,14.79-21.28,22.08-7.75,7.87-15.7,15.55-23.51,23.36-7.54,7.53-15,15.15-22.52,22.7s-15.31,15.25-22.94,22.91c-6.29,6.31-12.5,12.7-18.8,19-6.07,6.1-12.21,12.13-18.32,18.2l-23,22.89c-9.19,9.14-18.41,18.24-27.55,27.43-7.68,7.71-15.21,15.57-22.89,23.28-7.51,7.55-15.14,15-22.7,22.49s-15.28,15.3-22.95,22.94-15.6,15.4-23.33,23.18c-6.23,6.27-12.27,12.74-18.53,19-7.66,7.64-15.5,15.08-23.19,22.69-6.07,6-11.84,12.29-18.06,18.13-7.89,7.42-15.85,14.81-24.25,21.64a228.21,228.21,0,0,1-22.75,16.2c-6.24,3.89-13.07,6.83-19.72,10-5.65,2.74-11.28,5.62-17.15,7.81a260.61,260.61,0,0,1-25.92,8.48c-5.86,1.51-12.36.7-18.13,2.42-15.21,4.53-30.64,2.08-45.77,1.37s-30.28-4.26-45.08-7.94a155.12,155.12,0,0,1-31.26-11.69,314.2,314.2,0,0,1-38.73-22.29C79.65,758.25,71.12,750,63.1,741.54a302.5,302.5,0,0,1-24.77-29.67c-5.46-7.45-9.67-15.86-13.92-24.11a214,214,0,0,1-11.07-24.47c-2.71-7.46-3.89-15.46-6.13-23.12C2,622.25.28,603.76,0,585.32-.17,572.76,1.67,560,4.3,547.65c2.48-11.62,7-22.85,11-34.09,2.95-8.22,5.92-16.57,10.13-24.16a273.14,273.14,0,0,1,18.24-27.89A284.56,284.56,0,0,1,62,439.27c5.73-6.38,12.06-12.22,18.05-18.37,3.75-3.87,7.25-8,11.06-11.79,4.56-4.53,9.41-8.76,14-13.25,6.46-6.34,12.77-12.83,19.19-19.21,6.26-6.22,12.61-12.35,18.86-18.58s12.34-12.47,18.53-18.69c4.82-4.85,9.69-9.65,14.53-14.48,6.24-6.24,12.44-12.51,18.7-18.73,6.48-6.44,13-12.8,19.51-19.27,6-6,11.94-12.2,18-18.24,6.33-6.37,12.77-12.64,19.11-19s12.34-12.64,18.59-18.88c5-5,10.23-9.84,15.26-14.84,6.15-6.12,12.16-12.37,18.31-18.5,9-9,18.17-17.94,27.21-26.95,7.53-7.53,15-15.14,22.49-22.7s15-15,22.53-22.6c7.83-7.87,15.6-15.79,23.47-23.63,6.31-6.28,12.79-12.39,19.08-18.69s12.31-12.71,18.55-19,12.28-12.49,18.79-18.33c7-6.31,14-12.85,21.87-18a162.28,162.28,0,0,1,28.48-15.06c12.2-4.85,25-8.19,37.65-11.88,2.66-.78,5.71-.27,8.58-.28,12.06,0,24.2-.92,36.16.19,8.59.79,17,4.08,25.36,6.54a138.91,138.91,0,0,1,17.41,6.06A169.91,169.91,0,0,1,649.75,23,161.64,161.64,0,0,1,666,34.12c5.43,4.27,10.57,9,15.56,13.73,6.51,6.25,13,12.59,19.06,19.24a271.38,271.38,0,0,1,19.09,22.45,193.74,193.74,0,0,1,14.47,23.63c2.81,5.31,4.55,11.22,6.46,17,2.67,8,5.64,16,7.35,24.17,1.25,6,.92,12.37.86,18.58-.12,12.15.35,24.4-1.13,36.4-1.07,8.72-4.23,17.37-7.62,25.57-4.54,11-8.74,22.61-15.72,32-11.6,15.63-25,30-38.21,44.33-12.84,13.84-26.43,27-39.78,40.35-11.62,11.61-23.42,23-35,34.64-11.8,11.79-23.47,23.69-35.2,35.55Z"/><path d="M576.1,421.73l0,0Z"/></svg>