<svg xmlns="http://www.w3.org/2000/svg" viewBox="0 0 674.11 528.47"><title>Ресурс 1</title><g id="Слой_2" data-name="Слой 2"><g id="Слой_1-2" data-name="Слой 1"><path d="M594.09,310.39c-8.16,0-16.32,0-24.48,0-7.54,0-9.36-3.25-6.57-10.32,3.07-7.79,5.84-15.72,8.35-23.71,2.31-7.33,4.32-14.77,6-22.26,1-4.4,1.15-9,1.68-13.52q1.49-12.49,3-25c.88-7.32-1-14.32-4-20.66-2.88-6-8.36-9.29-15.22-10.71a39.21,39.21,0,0,0-17.18.49c-4.76,1.08-9.47,1.88-13.74,4.42-3.32,2-7,3.48-10.17,5.63s-2.8,6.33-.16,10.56a48.71,48.71,0,0,1,3.17,7.23c.31.73.44,1.54.75,2.27,5.08,11.94,3.09,24.55,3.34,36.91.25,12.06-.28,24.13-.2,36.2.07,9.1.46,18.21.92,27.3.14,2.68,1,5.31,1.52,8,.57,3.06,1,6.15,1.62,9.19.84,4.12,1.8,8.22,2.7,12.33.38,1.71.69,3.44,1.18,5.12q1.41,4.9,3,9.74,2.6,7.88,5.31,15.71c.73,2.09,1.63,4.13,2.53,6.15,2,4.56,4,9.13,6.13,13.64,1.88,4,3.85,8,5.88,12s4,7.75,6.19,11.51,4.37,7.2,6.81,10.62a74.2,74.2,0,0,0,6.72,8.08,3.92,3.92,0,0,0,3.27.7c8-2.22,16.07-4.45,24-7,9.07-2.92,18-6.17,27-9.29a6.74,6.74,0,0,1,7.28,1.77c7,6.92,13.89,14,20.8,21,4,4,7.91,8.06,11.81,12.15,2.12,2.22-.63,6.35-4.58,7.59-5.91,1.86-11.74,4-17.54,6.19-4.86,1.86-9.53,4.23-14.43,6-6.14,2.17-12.45,3.84-18.63,5.92-5.77,1.94-11.39,4.35-17.2,6.15-7,2.19-14.23,3.9-21.31,5.93s-14.14,4.19-21.21,6.3c-1.14.35-2.26.81-3.41,1.12-4.46,1.16-8.9,2.43-13.41,3.38-4,.86-8.21,1.12-12.24,2-9.06,2.07-18,4.49-27.1,6.55-3,.69-6.19.59-9.26,1.09-8,1.31-16,2.81-24,4.14s-15.87,2.58-23.82,3.72c-2.19.32-4.47-.07-6.67.19-8.65,1-17.26,2.37-25.92,3.15-6.16.56-12.39.31-18.59.56-5.1.21-10.19.7-15.29.93-26.45,1.18-52.91,1.39-79.37.06-12.35-.62-24.74-.83-37.08-1.69-8.75-.6-17.47-1.89-26.19-3-10.87-1.41-21.72-3-32.57-4.48-9.28-1.31-18.62-2.34-27.81-4.11-9.67-1.86-19.19-4.53-28.81-6.69-4-.9-8.23-1.1-12.22-2.12-8.23-2.09-16.35-4.61-24.56-6.77-7.3-1.91-14.72-3.35-22-5.4-5.87-1.67-11.57-3.94-17.34-6-1.13-.39-2.23-.88-3.36-1.26q-12.06-4-24.13-8c-5.25-1.73-10.6-3.21-15.78-5.13s-10.06-4.19-15.1-6.26c-1.9-.78-3.89-1.38-5.82-2.09a14.38,14.38,0,0,1-3.52-1.4c-4.55-3.3-4.11-5.5,1.25-10.68,8.36-8.07,16.49-16.38,24.81-24.51C32,425.25,35,422.74,38,420.31c.51-.41,1.87-.17,2.62.2,1.81.91,3.39,2.4,5.26,3.08,7,2.55,14.07,5,21.2,7.22,6.73,2.07,13.61,3.69,20.39,5.61a38.56,38.56,0,0,1,4.84,2.05c4.89,2.14,8.58.57,11.43-4,3.36-5.37,7.28-10.38,10.88-15.59,1.44-2.09,2.75-4.26,4-6.45q5.4-9.26,10.71-18.56c2.26-4,4.54-8,6.58-12.09s3.87-8.66,5.88-12.95c1-2.08,2.36-4,3.23-6.1,3-7.42,6.35-14.76,8.78-22.38,3.37-10.58,6.12-21.37,9-32.11,2.51-9.43,5-18.87,7.09-28.39,1-4.4.42-9.17,1.57-13.5,3.41-12.78,3.38-25.8,3.37-38.82,0-18.53-.16-37.06-.6-55.59-.12-4.8-1.63-9.57-2.38-14.38-.54-3.45-.86-6.94-1.32-10.4-.29-2.2-1.66-3.14-3.81-3.16a23.11,23.11,0,0,0-15.11,5.06,5,5,0,0,0-1.43,1.87c-1.68,4-3.18,8-4.95,11.87-2.21,4.91-4.63,9.72-7,14.57-.24.51-.51,1-.73,1.51-1.85,4.27-3.38,8.72-5.7,12.72-.84,1.44-3.59,2.53-5.43,2.48-7.6-.2-15.35.2-22.53-3.17a5.88,5.88,0,0,0-1.6-.46c-8.33-1.39-16-4.67-23.43-8.43A31.67,31.67,0,0,1,72,177.38c-.73-.66-.77-2.61-.46-3.79,1.26-4.76,2.69-9.47,4.22-14.14,2-6,4.28-12,6.11-18,2.06-6.82,3.64-13.79,5.64-20.63.82-2.8,2.43-5.38,3.25-8.18,2-6.85,3.55-13.83,5.64-20.64,2.38-7.73,5.21-15.33,7.73-23a117.84,117.84,0,0,0,3.53-12.11c1.48-7,.86-13.93-.87-20.81-1.37-5.46-2.66-10.94-4-16.4-1.09-4.38-2.64-8.7-3.21-13.15-.7-5.38,3.6-8,8.42-5.59a40.92,40.92,0,0,0,4.3,1.44c4.73,1.75,10,2.77,14.06,5.48a94,94,0,0,1,17.12,14.32,22.54,22.54,0,0,0,12.21,7.11c3.41.77,6.89,1.27,10.28,2.12q8.08,2,16.07,4.41c5,1.47,9.95,2.89,14.75,4.78a109.55,109.55,0,0,1,11,5.57c4,2.1,8,4.12,11.84,6.5a155,155,0,0,1,13.57,9.24q9.92,7.77,19.34,16.15a134.59,134.59,0,0,1,9.62,10.19c3.47,3.8,7,7.57,10.26,11.56,3.45,4.25,6.64,8.72,9.87,13.15,1.78,2.43,3.44,5,5.07,7.5,3.63,5.67,7.34,11.31,10.74,17.12,2.15,3.66,3.76,7.63,5.68,11.43,2.13,4.21,4.33,8.38,6.5,12.56.36.71.8,1.38,1.1,2.11,1.7,4.1,2.85,8.55,5.24,12.2,1.44,2.21,4.75,4.49,7.24,4.52,30.15.3,60.31.24,90.46.09,2.51,0,5-1.36,7.51-2.13,9.18-2.86,18.21-6.4,27.56-8.39,6.46-1.37,13.39-1.12,20-.66,4.82.33,9.54,2.23,14.31,3.38,2.4.58,4.82,1.05,7.23,1.59,4.95,1.1,6.55-3.46,9.46-5.7,5.13-4,9.91-8.39,15.15-12.18a52.06,52.06,0,0,1,11-6.06A120,120,0,0,1,544,144.5a211.74,211.74,0,0,1,23.57-4.16c10-1.18,19.63,1.57,29.18,4.32,9.32,2.68,17.73,7.09,24.57,14,5.18,5.2,9.89,10.88,14.59,16.54a19.57,19.57,0,0,1,3.1,6.13c2,5.91,6.38,10.88,6.77,17.48.13,2.23,1.44,4.37,2.06,6.6s1.5,4.64,1.51,7c0,9.74-.82,19.53-.09,29.2.5,6.6-2.09,12.16-3.22,18.2-.36,1.88-.21,3.9-.83,5.67-2.09,5.9-4.35,11.74-6.69,17.54-1.84,4.56-3.72,9.11-5.88,13.52a64.29,64.29,0,0,1-6.42,11.06,8.6,8.6,0,0,1-6,2.73c-8.71.3-17.43.13-26.15.13Zm-3.45-98.52c-.57,6.39-.51,10.78-1.44,14.95-2.47,11.11-2,22.6-5.33,33.66C581,270,579.76,280,575.65,289.24a31.43,31.43,0,0,0-1.09,4.4,16.33,16.33,0,0,1-1.49,4.47c-1.36,2.13-.73,3.11,1.45,3.49a37.28,37.28,0,0,0,5.67.64c12.54.23,25.09.45,37.63.44a5,5,0,0,0,3.65-2.38c2.9-5.6,5.51-11.36,8.15-17.1,2.3-5,5-9.89,6.63-15.12A226.75,226.75,0,0,0,641.46,246c.59-2.95.19-6.07.46-9.09,1.34-14.62.31-29-4.38-43A71.45,71.45,0,0,0,632,182.32a48.52,48.52,0,0,0-5.79-8.39c-3.21-3.68-6.88-7-10.22-10.52-5.07-5.44-11.94-7.93-18.46-10.56-5.66-2.28-12-3.1-18.11-4a63.1,63.1,0,0,0-26.55,1.88c-2.22.64-4.58.75-6.78,1.41-5.75,1.71-11.59,3.26-17.14,5.51-3.84,1.56-7.31,4.09-10.86,6.32a64.25,64.25,0,0,0-18.64,17.11c-2.87,4-5.65,4.78-9.25,3.08-5.06-2.4-10.25-4.93-15.66-6.15-12.63-2.83-25.11-.6-37.27,3.08-5.13,1.55-9.9,4.26-14.92,6.2a20.79,20.79,0,0,1-7.15,1.6q-47,.15-94.06,0c-2.4,0-5.77,0-7-1.48-2.69-3.2-4.34-7.29-6.33-11.05-.59-1.11-.85-2.38-1.38-3.51-2.21-4.75-4.43-9.5-6.72-14.21-1.2-2.49-2.58-4.9-3.85-7.36-2.1-4.08-4.08-8.23-6.3-12.24-1.82-3.3-3.91-6.46-5.91-9.67s-3.91-6.56-6.13-9.66c-3.61-5-7.29-10-11.21-14.81-4.42-5.41-9-10.7-13.76-15.8-3.58-3.82-7.51-7.34-11.41-10.85a128.87,128.87,0,0,0-10.59-8.82c-5-3.55-10.11-6.85-15.33-10q-7.11-4.29-14.55-8a119.51,119.51,0,0,0-11.82-5c-5.94-2.19-11.91-4.39-18-6.11-3.88-1.1-8-1.29-12-2-3.52-.63-7-1.29-10.5-2.18a12.45,12.45,0,0,1-5.17-2.28,51.36,51.36,0,0,1-6-7c-5.69-7.45-13.71-11.64-21.85-15.62a7.79,7.79,0,0,0-4.2-.21c-2.08.28-2.69,1.45-2,3.61,1.17,3.79,2,7.68,3,11.51.68,2.53,1.59,5,2.13,7.57,1.14,5.52,3.46,11.23,2.84,16.58-1,8.21-3.83,16.23-6.21,24.24C109,80.73,106.52,86.75,104.61,93c-2.38,7.73-4.37,15.58-6.69,23.32-2.14,7.14-4.53,14.2-6.76,21.3-.59,1.9-1,3.86-1.53,5.77-1,3.42-2,6.83-3.06,10.25-.3,1-.52,2-.87,3-1.23,3.35-2.73,6.63-3.71,10-1.42,5,.69,9.32,5,11,3.19,1.23,6.35,2.58,9.64,3.49,6.33,1.76,12.74,3.27,19.13,4.85,5.85,1.45,11.44-1.22,12.92-5.61,1.54-4.57,3.61-9,5.52-13.4q2.06-4.8,4.31-9.5c2.21-4.64,4.83-9.13,6.65-13.92,1-2.78,2.63-3.79,5.27-4.36,4.9-1.07,9.78-2.26,14.56-3.74,1.88-.59,3.37-2.41,5.25-3.11,5-1.84,8.07-5.93,11.63-9.43a18.08,18.08,0,0,0,2.72-4.14c.81-1.44,2.06-3,2.1-4.46.24-7.75.32-15.52.06-23.27a16.82,16.82,0,0,0-2.24-7.23c-2-3.67-.06-8.55,4.06-9.16,1.76-.26,6.64,4.38,6.86,6.35.51,4.47.56,9.12,1.86,13.36,1.77,5.72,2.11,11-.52,16.5-1.38,2.86-2.93,5.75-1.57,9.15.2.5.08,1.55-.27,1.77-2.89,1.86-3.48,5.15-5.19,7.73S185.2,134,183,136.3c-1.69,1.82-4.12,3.7-4.47,5.83-.56,3.44.1,7.16.65,10.69.87,5.51,2.59,10.91,3,16.43.75,9.31,1.08,18.68,1.05,28,0,16-.17,32-.9,47.95-.36,7.75-2.17,15.43-3.31,23.14-.81,5.41-1.52,10.84-2.42,16.23-.54,3.3-1.38,6.54-2,9.82-.6,3-1.05,6.11-1.75,9.12-.76,3.24-1.77,6.42-2.6,9.64-.46,1.78-.58,3.65-1.16,5.38-3.7,10.91-7.49,21.78-11.23,32.68-.48,1.41-.71,2.92-1.3,4.29q-3.45,8.09-7.07,16.09-2.85,6.27-5.92,12.42t-6.47,12.43c-2.09,3.82-4.29,7.57-6.51,11.32-1.93,3.27-3.92,6.5-5.93,9.72-2.14,3.42-4.36,6.79-6.51,10.2-2.67,4.22-5.38,8.42-7.86,12.75-.32.56.39,2.19,1.08,2.71a5.42,5.42,0,0,0,3.38,1c8-.53,14.56,5.79,22.66,4.5a.84.84,0,0,1,.44.17c5.77,3.55,12.21,3.71,18.69,3.8,2.81,0,5.17-.56,6.94-2.94,1.33-1.77,2.85-3.39,4.3-5.07,3.78-4.38,7.86-8.54,11.28-13.17,6.79-9.19,13.24-18.62,19.78-28,1.62-2.34,3.12-4.77,4.57-7.23,2.06-3.49,4-7.05,6-10.56,3.53-6.11,7.12-12.19,10.61-18.32,1.57-2.75,3-5.56,4.41-8.42,2-4.14,3.83-8.35,5.72-12.54,1.33-3,2.62-5.93,3.92-8.91,2.5-5.73,4.82-11.54,7.57-17.14a10.74,10.74,0,0,1,4.52-4.76c2.21-1.07,4.69-.33,6.33,2a6.53,6.53,0,0,0,1.93,1.77c7.75,4.65,15.49,9.33,23.32,13.83,2.45,1.41,5.42,2,7.76,3.53a58,58,0,0,0,19.5,7.89c.92.2,1.74.8,2.65,1.09,2.94.92,5.89,1.81,8.86,2.64,1.91.54,3.85.93,5.78,1.41,3.15.8,6.27,2.14,9.46,2.34,9.64.61,19.3.86,29,1.09a77.36,77.36,0,0,0,13.28-.34c4.77-.71,9.4-2.32,14.08-3.58,3.91-1.06,7.88-1.93,11.67-3.32a135.23,135.23,0,0,0,13.08-5.68,131.14,131.14,0,0,0,13.07-7.14c2.9-1.85,8.45-2.82,10.33-.93s3.52,3.88,5.23,5.87c3.19,3.74,6.43,7.45,9.51,11.28,3.53,4.39,7,8.81,10.29,13.4q5.7,8,10.93,16.41t10,17c2.61,4.73,4.88,9.64,7.25,14.49,1.91,3.93,4,7.8,5.54,11.86,2,5.16,3.61,10.49,5.41,15.73.23.67.68,1.27.93,1.93.73,1.93,1.49,3.84,2.07,5.8.52,1.76.69,3.62,1.24,5.36,1.32,4.11,4.54,5.08,8.56,3.43a56.55,56.55,0,0,1,9.9-2.52c7.7-1.6,15.42-3.1,23.13-4.65a2.13,2.13,0,0,0,.68-.24,26.28,26.28,0,0,1,13.71-3.54,8.63,8.63,0,0,0,3.85-1.21c3-1.55,3.77-4.15,2.21-7.07-1.2-2.24-2.56-4.38-3.86-6.56-2.43-4.09-4.94-8.12-7.29-12.25-2-3.59-4-7.22-5.78-10.93-2-4.06-3.7-8.24-5.55-12.36s-4-8.1-5.55-12.31c-2.41-6.47-4.51-13.06-6.61-19.64-2.26-7-4.77-14-6.43-21.2a182.07,182.07,0,0,1-3.88-23.3c-.88-9-1.11-18.14-1.3-27.22-.16-7.91.22-15.83.22-23.75,0-11.26-.21-22.53-.22-33.79A49.62,49.62,0,0,0,510,201.46c-1.76-2.31-2.07-5.73-.3-7.18a81.94,81.94,0,0,1,6.64-5,70.76,70.76,0,0,1,8.8-5.16c5-2.34,10-5.28,15.34-6.23,9.33-1.67,18.89-2.3,28.3.29,8,2.22,14.22,7.33,17.38,14.54C589,199.23,589.51,206.73,590.64,211.87ZM418.93,469.15l0,.44c2.62-.17,5.27-.18,7.86-.55,8.85-1.24,17.67-2.68,26.52-3.9,12.77-1.75,25.57-3.33,38.34-5.08,3.78-.51,6.15-3.05,5.52-5.93a90.87,90.87,0,0,0-3.1-11.51c-1.81-5-4-9.84-6.12-14.72-2.64-6.09-5.18-12.24-8.06-18.22a217.23,217.23,0,0,0-10.06-19.41c-5.24-8.6-10.94-16.93-16.73-25.17-3.92-5.59-8.23-10.92-12.57-16.19a53.41,53.41,0,0,0-7.57-7.54,5,5,0,0,0-4.42-.28c-6.8,3.32-13.28,7.34-20.21,10.32-5.5,2.37-11.48,3.62-17.27,5.29-4.36,1.27-8.69,3.14-13.14,3.48-9.86.77-19.79,1.06-29.69.94a122.51,122.51,0,0,1-21.21-1.95,162.39,162.39,0,0,1-21.28-6c-7.34-2.48-14.54-5.4-21.73-8.3-3.82-1.55-7.52-3.41-11.21-5.26-3.46-1.74-6.88-3.59-10.25-5.52A51,51,0,0,1,255,329.2c-3.9-3.26-7.89-2.09-9.53,2.73-1.58,4.64-3.67,9.11-5.62,13.62-1.33,3.06-2.71,6.1-4.24,9.05-2.14,4.14-4.5,8.15-6.66,12.28-1.86,3.57-3.35,7.36-5.38,10.82-4.91,8.35-10,16.57-15.1,24.82-1.45,2.36-3,4.7-4.51,7-3.49,5.2-6.91,10.45-10.55,15.54-3.37,4.7-6.93,9.28-10.52,13.82s-7.13,8.95-10.91,13.23c-1.87,2.11-1.94,4,.74,5a75.31,75.31,0,0,0,11.48,3.14c4.93.9,10,1.21,14.9,2,2.82.43,5.55,1.51,8.38,1.87,6.41.82,12.86,1.33,19.29,2.05,8.79,1,17.57,2.09,26.36,3.07,9.27,1,18.52,2.38,27.81,2.87,13.41.7,26.84.92,40.26,1,18.61.14,37.22.15,55.83-.09,7.09-.09,14.17-.93,21.23-1.59C405.16,470.78,412,469.92,418.93,469.15Zm71.86,37.66.09.48a24.81,24.81,0,0,0,4.06-.29c11.24-2.59,22.45-5.31,33.69-7.88,7.72-1.76,15.51-3.21,23.22-5,7-1.66,14-3.57,21-5.48,2.22-.61,4.3-1.69,6.5-2.35,7.36-2.23,14.79-4.25,22.12-6.59,5.95-1.91,11.75-4.28,17.69-6.25,5.25-1.75,10.68-3,15.88-4.89,6.85-2.49,13.56-5.33,20.29-8.13,1.73-.71,4.75-1.93,4.68-2.71a11.49,11.49,0,0,0-2.71-6.43c-4.78-5.21-10.14-9.89-14.88-15.13-5.06-5.58-8.56-6.84-15.66-4.45-4.06,1.36-8.1,2.78-12.14,4.2-9,3.2-17.8,7.28-27.42,8.65a10.69,10.69,0,0,0-2.21.9c-5.42,2.13-10.84,4.27-16.27,6.36-.49.19-1.13-.08-1.66,0-3.22.67-6.45,1.29-9.64,2.11-2.59.67-5.07,2-7.69,2.29-3.9.41-7.78.29-11.15,2.87a7.63,7.63,0,0,1-3.86,1.1c-5.18.4-10.4.47-15,3.39a6.25,6.25,0,0,1-2.55.6c-6.11.66-12.25,1.11-18.33,2-3.85.55-7.57,1.88-11.41,2.56-5.56,1-11.16,1.78-16.76,2.52-4.09.55-8.23.72-12.31,1.34-7,1.05-14,2.56-21,3.42-6.17.76-12.43.81-18.63,1.32-15.69,1.29-31.35,3.28-47.06,3.83-19.56.68-39.17,0-58.76.28-15.32.22-30.46-1.61-45.65-3.14-9.93-1-19.92-1.38-29.86-2.26-3.39-.3-6.7-1.45-10.09-1.86-5.86-.72-11.78-.94-17.63-1.77-6.53-.92-13-2.34-19.5-3.44-3.85-.64-7.74-1-11.6-1.62q-8.72-1.32-17.39-2.76c-2.73-.46-5.46-1-8.15-1.63-2.92-.67-5.79-1.51-8.69-2.26-3.8-1-7.6-2-11.42-2.91-2.82-.68-5.67-1.28-8.52-1.83-2-.39-4.31-.14-6-1.07-4-2.2-7.84-3.92-12.49-3a3.73,3.73,0,0,1-1.83-.46c-5.22-2.08-10.35-4.44-15.67-6.22-10.24-3.43-20.6-6.53-30.9-9.79-2.71-.87-5.38-1.87-8.09-2.76-5.35-1.76-10.74-3.86-15.42,1.52-1.19,1.37-2.53,2.6-3.83,3.87-5,4.9-10.1,9.66-14.91,14.71-2.82,3-1.88,6.3,1.52,7.4,5.57,1.79,11.1,3.73,16.64,5.61.3.1.57.29.87.41,5,2.05,10,4.22,15.16,6.1,3,1.12,6.24,1.72,9.34,2.68,1.95.6,3.81,1.53,5.76,2.13,1.59.49,3.32.56,4.89,1.09,7.35,2.47,14.64,5.09,22,7.52,2,.66,4.26.66,6.3,1.27,7.06,2.1,14,4.41,21.12,6.47,4.64,1.34,9.34,2.52,14.06,3.52,3.74.78,7.6,1,11.32,1.79,9.39,2.12,18.68,4.63,28.08,6.68,7,1.52,14.05,2.65,21.11,3.78,8.65,1.38,17.32,2.71,26,3.81,7.68,1,15.41,1.5,23.1,2.43,6.33.76,12.6,2.16,18.94,2.67,8.43.68,16.91.71,25.37,1.11,11.87.57,23.72,1.51,35.59,1.76,9.72.2,19.46-.35,29.19-.64,12.29-.36,24.58-.83,36.87-1.19,12-.35,24.05-.49,36-2.67,8.53-1.55,17.33-1.54,26-2.56,4.81-.56,9.53-1.92,14.32-2.72,6.18-1,12.39-1.86,18.58-2.86C485.85,508,488.31,507.33,490.79,506.81Z"/></g></g></svg>