<svg width="390" height="279" viewBox="0 0 390 279" fill="none" xmlns="http://www.w3.org/2000/svg">
<path opacity="0.1" d="M195 279C302.696 279 390 273.51 390 266.738C390 259.966 302.696 254.477 195 254.477C87.3045 254.477 0 259.966 0 266.738C0 273.51 87.3045 279 195 279Z" fill="#FFE55F"/>
<path d="M359.413 257.657C359.416 258.626 359.316 259.593 359.116 260.541C359.079 260.719 359.038 260.912 358.997 261.064C357.942 265.297 354.967 268.392 351.416 268.589C351.297 268.589 351.178 268.589 351.045 268.589C347.29 268.589 344.114 265.349 343.066 260.886C343.037 260.767 343.011 260.648 342.985 260.515C342.784 259.567 342.685 258.6 342.688 257.631C342.688 251.586 346.428 246.688 351.045 246.688C355.662 246.688 359.413 251.619 359.413 257.657Z" fill="#3F3D56"/>
<path opacity="0.1" d="M359.413 257.657C359.416 258.626 359.316 259.593 359.116 260.541C359.078 260.719 359.038 260.912 358.997 261.064C358.871 261.064 358.748 261.064 358.625 261.064C357.706 261.015 356.791 260.891 355.892 260.693C355.095 260.939 354.28 261.126 353.455 261.25C352.823 261.345 352.185 261.405 351.546 261.429H350.9C350.134 261.429 349.37 261.378 348.612 261.276C347.385 261.112 346.181 260.813 345.02 260.384C344.385 260.596 343.737 260.77 343.081 260.905C343.051 260.786 343.025 260.667 342.999 260.533C342.799 259.585 342.699 258.619 342.702 257.65C342.702 251.604 346.442 246.707 351.059 246.707C355.676 246.707 359.413 251.619 359.413 257.657Z" fill="#303030"/>
<path d="M377.242 237.276C377.245 234.617 376.621 231.995 375.422 229.622L365.594 232.68L374.222 227.605C372.775 225.513 370.877 223.773 368.668 222.513C366.46 221.253 363.996 220.505 361.46 220.326C361.055 219.713 360.612 219.128 360.134 218.572L346.019 222.967L357.597 216.16C355.382 214.461 352.783 213.333 350.029 212.878C347.275 212.422 344.452 212.652 341.808 213.548C339.164 214.443 336.782 215.977 334.871 218.012C332.961 220.048 331.581 222.523 330.854 225.219L342.944 239.145L329.829 229.652C326.503 232.008 324.135 235.481 323.156 239.438C322.177 243.395 322.652 247.573 324.495 251.209C326.338 254.844 329.426 257.696 333.196 259.244C336.966 260.792 341.166 260.933 345.031 259.641C348.527 260.923 352.346 261.027 355.907 259.938C358.389 260.488 360.963 260.473 363.439 259.895C365.915 259.316 368.229 258.19 370.212 256.598C372.194 255.005 373.794 252.988 374.894 250.695C375.994 248.402 376.565 245.891 376.566 243.348C376.566 242.976 376.566 242.605 376.528 242.233C377.01 240.625 377.25 238.955 377.242 237.276Z" fill="#FFE55F"/>
<path opacity="0.1" d="M376.948 240.431C371.758 239.445 366.435 239.377 361.222 240.231C355.32 241.208 349.288 243.355 343.516 241.784C340.128 240.862 337.201 238.729 333.892 237.548C330.7 236.43 327.26 236.223 323.956 236.95C322.697 239.962 322.331 243.274 322.902 246.489C323.474 249.704 324.959 252.686 327.179 255.079C329.4 257.472 332.263 259.175 335.425 259.984C338.588 260.793 341.916 260.674 345.013 259.641C348.509 260.923 352.327 261.028 355.888 259.939C358.37 260.488 360.944 260.473 363.42 259.895C365.896 259.317 368.211 258.19 370.193 256.598C372.176 255.005 373.776 252.988 374.876 250.695C375.975 248.402 376.546 245.891 376.547 243.348C376.547 242.976 376.547 242.605 376.51 242.233C376.689 241.641 376.835 241.04 376.948 240.431Z" fill="#303030"/>
<path d="M259.48 63.8989H257.352C256.882 63.8989 256.501 64.2799 256.501 64.7498V94.6388C256.501 95.1088 256.882 95.4897 257.352 95.4897H259.48C259.95 95.4897 260.33 95.1088 260.33 94.6388V64.7498C260.33 64.2799 259.95 63.8989 259.48 63.8989Z" fill="#3F3D56"/>
<path d="M130.761 39.1484H129.725C129.417 39.1484 129.168 39.398 129.168 39.7058V48.9913C129.168 49.2991 129.417 49.5487 129.725 49.5487H130.761C131.069 49.5487 131.319 49.2991 131.319 48.9913V39.7058C131.319 39.398 131.069 39.1484 130.761 39.1484Z" fill="#3F3D56"/>
<path d="M130.884 58.1914H129.718C129.371 58.1914 129.09 58.4726 129.09 58.8194V75.6663C129.09 76.0131 129.371 76.2942 129.718 76.2942H130.884C131.231 76.2942 131.512 76.0131 131.512 75.6663V58.8194C131.512 58.4726 131.231 58.1914 130.884 58.1914Z" fill="#3F3D56"/>
<path d="M130.836 82.626H129.725C129.395 82.626 129.127 82.8938 129.127 83.2242V100.287C129.127 100.617 129.395 100.885 129.725 100.885H130.836C131.166 100.885 131.434 100.617 131.434 100.287V83.2242C131.434 82.8938 131.166 82.626 130.836 82.626Z" fill="#3F3D56"/>
<path d="M245.31 4.78223H143.643C136.321 4.78223 130.386 10.7195 130.386 18.0435V252.128C130.386 259.452 136.321 265.39 143.643 265.39H245.31C252.631 265.39 258.566 259.452 258.566 252.128V18.0435C258.566 10.7195 252.631 4.78223 245.31 4.78223Z" fill="#3F3D56"/>
<path d="M199.067 12.563H183.055C182.534 12.563 182.111 12.9855 182.111 13.5068V15.2569C182.111 15.7781 182.534 16.2006 183.055 16.2006H199.067C199.588 16.2006 200.01 15.7781 200.01 15.2569V13.5068C200.01 12.9855 199.588 12.563 199.067 12.563Z" fill="#E6E8EC"/>
<path d="M204.78 16.4418C205.918 16.4418 206.841 15.5185 206.841 14.3796C206.841 13.2407 205.918 12.3174 204.78 12.3174C203.641 12.3174 202.718 13.2407 202.718 14.3796C202.718 15.5185 203.641 16.4418 204.78 16.4418Z" fill="#E6E8EC"/>
<path d="M250.651 21.7516V248.409C250.65 251.109 249.577 253.699 247.668 255.608C245.759 257.517 243.17 258.59 240.47 258.59H148.482C145.783 258.59 143.194 257.517 141.284 255.608C139.375 253.699 138.302 251.109 138.301 248.409V21.7516C138.301 20.4141 138.565 19.0897 139.076 17.8541C139.588 16.6184 140.338 15.4957 141.283 14.5499C142.229 13.6042 143.351 12.854 144.586 12.3422C145.821 11.8303 147.145 11.5669 148.482 11.5669H162.247V13.3356C162.251 15.5575 163.136 17.6872 164.708 19.2573C166.279 20.8274 168.409 21.7097 170.63 21.7107H217.43C218.531 21.7107 219.621 21.4938 220.638 21.0724C221.656 20.6509 222.58 20.0332 223.358 19.2544C224.137 18.4757 224.754 17.5512 225.175 16.5337C225.597 15.5162 225.814 14.4257 225.814 13.3244V11.5669H240.489C243.186 11.5718 245.77 12.647 247.676 14.5565C249.581 16.466 250.651 19.0537 250.651 21.7516Z" fill="white"/>
<path opacity="0.2" d="M251.457 115.346V192.421H250.651V192.499H138.301V98.3358C139.022 97.5134 139.752 96.66 140.493 95.7757C156.271 76.926 177.717 71.9656 194.316 71.4454C205.69 71.0738 217.011 73.4258 227.819 78.0965C233.528 80.5637 241.722 83.2687 250.651 83.5362V112.675C251.197 114.232 251.457 115.346 251.457 115.346Z" fill="#FFE55F"/>
<path opacity="0.2" d="M251.457 115.346V192.421H138.301V141.932C142.331 140.917 147.958 137.016 155.179 126.237C163.815 113.34 175.548 109.947 184.63 109.59C190.851 109.345 197.046 110.943 202.96 114.142C209.612 117.735 222.434 122.068 232.176 109.49C242.948 95.5823 248.675 107.053 250.651 112.674C251.197 114.231 251.457 115.346 251.457 115.346Z" fill="#FFE55F"/>
<path d="M235.114 178.305H154.143C151.681 178.305 149.686 180.301 149.686 182.764V202.085C149.686 204.548 151.681 206.544 154.143 206.544H235.114C237.576 206.544 239.571 204.548 239.571 202.085V182.764C239.571 180.301 237.576 178.305 235.114 178.305Z" fill="#736E9E"/>
<path d="M49.7938 254.049L56.903 249.854C55.9415 248.211 54.7125 246.741 53.2667 245.503L39.8544 249.69L50.3658 243.508C47.7638 242.082 44.8354 241.358 41.869 241.408C38.9025 241.458 36.0003 242.28 33.4478 243.793C30.8953 245.306 28.7807 247.458 27.312 250.037C25.8433 252.615 25.0711 255.532 25.0715 258.5C25.0715 267.942 32.7192 268.269 42.1572 268.269C51.5952 268.269 59.243 267.942 59.243 258.5C59.2463 256.112 58.7464 253.749 57.7758 251.567L49.7938 254.049Z" fill="#FFE55F"/>
<path opacity="0.1" d="M51.6026 263.231C50.846 262.471 50.0004 261.806 49.0843 261.25C47.7917 260.392 46.4583 259.519 44.9355 259.225C43.5983 258.969 42.2203 259.184 40.8497 259.11C38.485 258.964 36.2592 257.943 34.606 256.245C33.6366 255.242 32.8715 254.016 31.7052 253.239C30.446 252.414 28.8489 252.236 27.3557 252.44C26.923 252.506 26.4941 252.594 26.0706 252.704C25.4003 254.564 25.0584 256.527 25.0603 258.504C25.0603 267.946 32.708 268.273 42.146 268.273C46.7257 268.273 50.882 268.195 53.95 267.035L53.4375 266.077C52.9486 265.054 52.332 264.098 51.6026 263.231Z" fill="#303030"/>
<path d="M84.7748 216.365C84.2319 216.841 83.8137 217.443 83.5565 218.118C82.9214 220.103 84.6968 222.05 84.8677 224.127C85.0014 225.776 84.1248 227.315 83.6271 228.898C83.0654 230.864 83.1018 232.953 83.7315 234.899C84.3613 236.844 85.5559 238.558 87.1631 239.822C87.5053 240.112 87.9093 240.321 88.3443 240.431C88.7032 240.474 89.0671 240.444 89.4139 240.342C89.7607 240.24 90.083 240.068 90.3611 239.837C91.2236 239.209 91.8814 238.34 92.2517 237.34C92.5598 236.356 92.7262 235.334 92.7457 234.304L93.0094 230.328C93.2843 226.178 93.5331 221.897 92.5228 217.821C92.1923 216.484 91.5794 213.411 90.0343 213.225C88.4891 213.039 85.8 215.361 84.7748 216.365Z" fill="#3F3D56"/>
<path d="M110.686 199.287C108.83 205.805 107.485 212.458 106.663 219.185C106.544 220.132 106.422 221.128 105.85 221.893C104.709 223.428 102.425 223.331 100.531 223.082C100.076 223.059 99.6328 222.932 99.2345 222.711C98.5214 222.228 98.3654 221.262 98.2799 220.403C96.9824 207.75 96.1158 195.064 95.6799 182.344C95.6614 181.857 111.536 181.812 112.896 183.087C114.255 184.361 113.2 189.128 112.896 190.752C112.398 193.643 111.499 196.46 110.686 199.287Z" fill="#FBBEBE"/>
<path opacity="0.05" d="M110.686 199.287C108.83 205.805 107.485 212.458 106.663 219.185C106.544 220.132 106.422 221.128 105.85 221.893C104.709 223.428 102.425 223.331 100.531 223.082C100.076 223.059 99.6328 222.932 99.2345 222.711C98.5214 222.228 98.3654 221.262 98.2799 220.403C96.9824 207.75 96.1158 195.064 95.6799 182.344C95.6614 181.857 111.536 181.812 112.896 183.087C114.255 184.361 113.2 189.128 112.896 190.752C112.398 193.643 111.499 196.46 110.686 199.287Z" fill="#303030"/>
<path d="M77.6287 180.534L84.0581 194.68C86.1975 199.384 88.3518 204.14 89.3732 209.204C89.783 211.32 90.0449 213.462 90.157 215.614C90.3121 217.459 90.2548 219.315 89.9861 221.147C89.7521 222.507 89.3212 223.829 89.1318 225.197C88.3889 230.648 91.4755 235.775 93.5889 240.847C95.415 245.203 96.5769 249.809 97.0358 254.51C97.2289 256.513 97.3367 258.638 98.4807 260.291C100.572 259.663 102.615 259.121 104.795 259.366C105.185 256.167 103.164 253.22 102.422 250.077C101.058 244.318 104.071 238.265 103.046 232.435C102.488 229.276 100.761 226.304 100.902 223.101C101.166 217.26 102.262 211.359 101.148 205.637C99.8921 199.168 96.2818 193.286 95.4832 186.747C94.8704 181.723 95.8547 176.168 93.0578 171.947C86.9478 171.587 80.6298 175.195 77.6287 180.534Z" fill="#FBBEBE"/>
<path d="M98.7591 269.369C98.1166 269.391 97.3663 269.369 96.9688 268.86C96.7749 268.564 96.6634 268.222 96.6457 267.868C96.3414 265.628 96.1925 263.37 96.2 261.109C96.2 260.284 96.2371 259.407 96.6977 258.727C97.0356 258.312 97.4208 257.938 97.8454 257.613C98.8297 256.702 99.5465 255.383 100.817 254.963C101.373 254.801 101.963 254.794 102.524 254.941C103.085 255.088 103.595 255.385 104 255.799C104.801 256.654 105.298 257.75 105.411 258.917C105.597 260.299 105.441 261.804 106.173 263.004C106.463 263.469 106.867 263.848 107.194 264.286C108.309 265.772 109.308 268.682 107.009 269.284C104.572 269.919 101.289 269.287 98.7591 269.369Z" fill="#3F3D56"/>
<path d="M104.334 96.8195C105.634 94.3077 104.858 91.0751 103.001 88.9423C101.144 86.8095 98.4285 85.6204 95.6576 84.9776C91.9434 84.1082 87.9616 84.1156 84.4071 85.483C81.5731 86.5717 79.1328 88.4555 76.5179 89.9938C71.8969 92.7152 66.7249 94.3658 61.3822 94.8242C55.4394 95.3258 48.8019 94.5455 44.2074 98.3318C35.7908 105.265 41.6519 120.89 33.8074 128.455C31.6902 130.495 28.8636 131.598 26.4382 133.259C24.0128 134.92 21.8436 137.577 22.2336 140.49C22.4194 141.891 23.1845 143.154 24.0685 144.258C27.8645 149.003 34.2382 151.488 40.2665 150.749C46.2948 150.01 51.8142 146.138 54.7522 140.81C55.4951 139.476 56.0968 138.015 57.2668 137.046C59.6105 135.11 63.0499 135.894 66.0882 135.801C72.8445 135.593 78.9805 129.8 79.5711 123.06C79.8236 120.18 79.3334 116.829 81.4022 114.807C83.0699 113.172 85.6774 113.187 87.9579 112.686C92.1476 111.768 95.1971 108.736 97.1099 105.035C97.9865 103.333 97.8974 101.431 99.1974 100.019C100.583 98.4656 103.097 99.205 104.334 96.8195Z" fill="#3F3D56"/>
<g opacity="0.1">
<path opacity="0.1" d="M55.8443 96.0022C58.3085 95.792 60.7444 95.3275 63.1131 94.6162C62.4445 94.7091 61.776 94.7871 61.1037 94.8429C56.446 95.233 51.35 94.8429 47.1528 96.4815C50.0128 96.188 53.0103 96.24 55.8443 96.0022Z" fill="#303030"/>
<path opacity="0.1" d="M51.6991 138.224C50.5291 139.19 49.9126 140.654 49.1846 141.988C46.9336 146.047 43.329 149.186 39 150.857C39.3306 150.835 39.6611 150.805 39.9917 150.764C46.02 150.021 51.5394 146.157 54.4774 140.828C55.2203 139.494 55.8183 138.031 56.992 137.064L57.1926 136.908C55.1534 136.86 53.1997 136.983 51.6991 138.224Z" fill="#303030"/>
<path opacity="0.1" d="M102.722 88.9647C100.865 86.8319 98.1315 85.6466 95.3792 85C91.6649 84.1306 87.6832 84.1417 84.1249 85.5091L83.8872 85.6057C85.9806 85.4865 88.0801 85.673 90.1198 86.1593C92.8721 86.8059 95.6095 87.9912 97.4629 90.1277C99.3163 92.2642 100.096 95.4931 98.7963 98.0049C97.5595 100.39 95.0449 99.6473 93.6298 101.189C92.3298 102.598 92.4189 104.504 91.5423 106.205C89.8969 109.39 87.4046 112.073 84.0766 113.347C85.2392 113.072 86.4872 112.949 87.6461 112.697C91.8358 111.775 94.8852 108.747 96.7981 105.046C97.6783 103.344 97.5892 101.438 98.8855 100.03C100.304 98.488 102.819 99.2274 104.052 96.8456C105.352 94.3413 104.576 91.1086 102.722 88.9647Z" fill="#303030"/>
<path opacity="0.1" d="M82.3902 113.86C80.1096 114.357 77.5022 114.346 75.8345 115.978C73.7656 118.003 74.2559 121.354 74.0033 124.234C73.5613 129.269 70.0216 133.776 65.4419 135.823H65.7799C72.5362 135.615 78.6685 129.818 79.259 123.082C79.5153 120.199 79.025 116.847 81.0939 114.826C81.568 114.373 82.1256 114.017 82.7356 113.778L82.3902 113.86Z" fill="#303030"/>
</g>
<path d="M104.446 130.636C104.137 131.182 103.502 131.435 102.912 131.654C96.798 133.906 90.3648 136.199 83.9168 135.251C83.6754 134.237 83.4377 133.219 83.2 132.204C82.8558 130.733 82.5091 129.261 82.16 127.79C81.9966 127.088 81.8294 126.378 81.6957 125.665C81.4653 124.538 81.3916 123.385 81.4766 122.239C81.5159 121.823 81.5904 121.412 81.6994 121.009C81.8902 120.276 82.2096 119.583 82.6428 118.961C82.7171 118.861 82.7951 118.761 82.8768 118.664C83.2441 118.221 83.6898 117.85 84.1917 117.568C85.2874 116.966 86.7917 116.71 87.2337 115.543C87.4047 114.933 87.3879 114.285 87.1854 113.685C86.814 112.199 86.1417 110.802 85.7257 109.33C85.1983 107.473 85.9931 107.588 87.7871 107.138C91.0186 106.324 94.3986 105.741 97.7154 106.395C97.5594 108.034 97.4071 109.713 97.8194 111.311C98.2317 112.909 99.3348 114.425 100.921 114.867C101.155 114.934 101.404 114.974 101.664 115.03C102.008 115.086 102.335 115.22 102.618 115.424C102.814 115.586 102.969 115.79 103.071 116.022C103.233 116.414 103.339 116.827 103.387 117.248C103.969 121.147 104.389 125.065 104.646 129.001V129.15C104.723 129.654 104.653 130.17 104.446 130.636Z" fill="#FBBEBE"/>
<path d="M72.9709 124.234C71.5817 126.348 71.1137 128.92 70.6903 131.417L67.9937 147.06C67.6223 149.2 67.2917 151.552 68.3874 153.428C68.7589 154.064 69.2789 154.614 69.55 155.286C69.7549 155.963 69.8893 156.659 69.9511 157.363C70.5826 160.949 74.1074 163.368 77.6434 164.237C78.9211 164.553 80.4143 164.676 81.4209 163.825C82.5351 162.9 82.5351 161.138 81.8777 159.868C81.2203 158.597 80.0206 157.698 78.858 156.847L75.0063 154.008L77.2349 136.916C77.3983 135.675 77.9777 134.066 79.2331 134.203C80.3771 134.326 81.2574 135.994 82.2751 135.456C82.5941 135.24 82.8186 134.91 82.9029 134.534C83.3486 133.133 83.226 131.625 83.0997 130.157L82.6391 124.858C82.4869 123.138 82.9289 121.849 83.1369 120.232C83.3783 118.349 82.1229 118.921 80.574 119.326C77.5989 120.113 74.6906 121.611 72.9709 124.234Z" fill="#FBBEBE"/>
<path d="M120.867 149.925C120.584 150.401 120.164 150.781 119.663 151.017C116.656 152.713 113.119 153.211 109.761 152.41C108.987 152.183 108.201 151.999 107.406 151.86C106.136 151.704 104.843 151.957 103.562 151.86C100.962 151.663 98.6775 150.04 96.8761 148.145C95.7915 147.03 94.8072 145.206 95.8175 144.009C96.0997 143.72 96.4503 143.508 96.8366 143.391C97.223 143.274 97.6326 143.257 98.0275 143.34C98.814 143.516 99.5726 143.798 100.282 144.18C102.768 145.333 105.427 146.066 108.153 146.35C110.01 146.543 112.372 146.227 113.015 144.462C113.327 143.604 113.108 142.653 112.888 141.765C112.289 139.332 111.69 136.899 111.091 134.464C111.049 134.251 110.974 134.046 110.868 133.858C110.837 133.807 110.801 133.76 110.76 133.717C110.523 133.519 110.237 133.391 109.932 133.345C108.546 133.003 107.161 132.45 106.169 131.428C105.519 130.702 105.001 129.869 104.639 128.964C104.535 128.738 104.438 128.507 104.338 128.277C103.577 126.501 102.774 124.68 102.154 122.815C101.721 121.554 101.402 120.257 101.2 118.939C101.036 117.799 100.947 117.275 101.571 116.769C101.738 116.643 101.916 116.531 102.102 116.435C102.388 116.283 102.711 116.13 103.053 115.985L103.384 115.848C104.4 115.441 105.443 115.109 106.507 114.852C109.085 114.254 111.837 115.502 113.605 117.475C115.373 119.448 116.291 122.031 116.878 124.613C117.464 127.196 117.765 129.841 118.501 132.383C118.787 133.379 119.143 134.36 119.388 135.355C119.651 136.54 119.839 137.74 119.949 138.948C120.298 142.027 120.646 145.107 120.993 148.186C121.121 148.765 121.077 149.37 120.867 149.925Z" fill="#FBBEBE"/>
<path d="M82.7283 148.587C83.4711 153.328 81.3354 157.991 79.2703 162.335C80.4403 163.19 81.8703 163.613 83.2668 163.981C92.6141 166.439 102.331 167.171 111.941 166.14C112.171 164.535 112.387 162.833 111.729 161.354C111.321 160.436 110.615 159.689 110.166 158.79C109.423 157.304 109.497 155.576 109.579 153.926L110.244 139.87C105.634 137.744 100.289 139.736 95.2194 140.022C92.5934 140.171 89.934 139.851 87.3451 140.316C86.0005 140.557 81.7737 141.222 81.1385 142.608C80.5034 143.994 82.5017 147.078 82.7283 148.587Z" fill="#FBBEBE"/>
<path opacity="0.05" d="M82.7283 148.587C83.4711 153.328 81.3354 157.991 79.2703 162.335C80.4403 163.19 81.8703 163.613 83.2668 163.981C92.6141 166.439 102.331 167.171 111.941 166.14C112.171 164.535 112.387 162.833 111.729 161.354C111.321 160.436 110.615 159.689 110.166 158.79C109.423 157.304 109.497 155.576 109.579 153.926L110.244 139.87C105.634 137.744 100.289 139.736 95.2194 140.022C92.5934 140.171 89.934 139.851 87.3451 140.316C86.0005 140.557 81.7737 141.222 81.1385 142.608C80.5034 143.994 82.5017 147.078 82.7283 148.587Z" fill="#303030"/>
<path d="M94.9408 162.194C89.9451 161.153 85.0349 159.433 79.9351 159.314C79.6791 159.288 79.421 159.337 79.1923 159.455C78.9434 159.661 78.7772 159.95 78.7243 160.269C78.1969 162.09 77.7251 163.924 77.3091 165.772C75.9274 171.914 75.2477 178.699 78.286 184.213C78.2563 182.422 79.3817 180.746 80.886 179.754C82.3903 178.762 84.1917 178.361 85.9746 178.197C87.7574 178.034 89.6629 178.1 91.3231 178.832C92.4834 179.36 93.4845 180.183 94.2258 181.221C94.9671 182.258 95.4225 183.472 95.5463 184.74L113.096 185.309C113.199 185.339 113.308 185.343 113.412 185.32C113.517 185.298 113.614 185.249 113.695 185.179C113.776 185.11 113.839 185.021 113.877 184.921C113.915 184.821 113.928 184.713 113.913 184.607C114.56 178.975 114.537 173.286 113.843 167.659C113.65 166.088 113.624 163.907 111.856 163.316C109.746 162.61 106.411 163.435 104.156 163.338C101.058 163.208 97.9764 162.825 94.9408 162.194Z" fill="#3F3D56"/>
<path d="M110.871 134.668L110.816 142.471L93.0614 143.062C89.8039 143.173 86.5205 143.285 83.3448 144.009C82.4311 144.217 81.5285 144.477 80.6296 144.734C79.6936 141.304 78.7725 137.711 79.0176 134.215C79.0854 133.271 79.2497 132.338 79.5079 131.428C80.0725 129.466 81.1311 127.616 81.6956 125.676C81.9232 124.921 82.0481 124.138 82.0671 123.35C82.0249 122.563 81.9004 121.782 81.6956 121.02C81.5328 120.396 81.4553 119.752 81.4654 119.107L82.8731 118.672C82.9139 118.839 82.9474 119.003 82.9771 119.174C83.0365 119.527 83.0848 119.887 83.1182 120.247C83.1977 121.141 83.2225 122.038 83.1925 122.934C83.1442 124.725 82.9028 126.72 84.0208 128.136C85.4731 129.953 88.2662 129.67 90.5468 129.217L96.5194 128.024C98.4062 127.653 100.512 127.125 101.497 125.472C101.916 124.669 102.138 123.777 102.143 122.871V122.692C102.232 120.719 102.035 118.743 101.56 116.825C101.415 116.223 101.236 115.629 101.036 115.045H101.634C101.978 115.101 102.305 115.236 102.589 115.439C102.784 115.601 102.939 115.806 103.042 116.037L103.372 115.9C104.69 121.289 106.862 126.432 109.805 131.134C110.184 131.673 110.484 132.262 110.697 132.884C110.785 133.222 110.835 133.569 110.845 133.917C110.875 134.137 110.871 134.4 110.871 134.668Z" fill="#FF6F61"/>
<path d="M92.1142 111.051C98.0631 111.051 102.886 106.227 102.886 100.276C102.886 94.3244 98.0631 89.5 92.1142 89.5C86.1653 89.5 81.3428 94.3244 81.3428 100.276C81.3428 106.227 86.1653 111.051 92.1142 111.051Z" fill="#FBBEBE"/>
<path d="M72.9709 124.234C71.5817 126.349 71.1137 128.92 70.6903 131.417L67.9937 147.06C67.6223 149.2 67.2917 151.552 68.3874 153.428C68.7589 154.064 69.2789 154.614 69.55 155.286C69.7549 155.963 69.8893 156.659 69.9511 157.363C70.5826 160.949 74.1074 163.368 77.6434 164.237C78.9211 164.553 80.4143 164.676 81.4209 163.825C82.5351 162.9 82.5351 161.139 81.8777 159.868C81.2203 158.597 80.0206 157.698 78.858 156.847L75.0063 154.008L77.2349 136.916C77.3834 135.686 74.6906 121.611 72.9709 124.234Z" fill="#FBBEBE"/>
<path d="M116.881 124.635C117.468 127.218 117.769 129.863 118.504 132.405C118.79 133.404 119.147 134.381 119.392 135.377C119.655 136.561 119.842 137.759 119.953 138.967L120.997 148.204C121.117 148.774 121.072 149.367 120.867 149.913C120.583 150.388 120.164 150.769 119.663 151.005C116.654 152.697 113.119 153.195 109.761 152.399C108.988 152.168 108.201 151.984 107.406 151.849C106.136 151.689 104.843 151.945 103.562 151.849C100.962 151.652 98.6775 150.032 96.8761 148.152C95.7915 147.037 94.8072 145.209 95.8175 144.012C96.0997 143.724 96.4503 143.511 96.8366 143.394C97.223 143.277 97.6326 143.26 98.0275 143.344C98.8141 143.52 99.5727 143.804 100.282 144.187C102.769 145.337 105.428 146.069 108.153 146.353C110.01 146.55 112.372 146.234 113.015 144.466C113.327 143.607 113.108 142.656 112.888 141.768L111.091 134.467C111.016 134.214 116.294 122.056 116.881 124.635Z" fill="#FBBEBE"/>
<path d="M85.4471 103.593C84.968 101.873 84.2957 99.7217 85.644 98.555C86.1285 98.1808 86.7123 97.9573 87.3228 97.9122C90.35 97.5406 93.4811 99.3242 96.3783 98.373C97.3023 98.0709 98.1193 97.5077 98.7305 96.7514C99.3417 95.9951 99.7211 95.078 99.8228 94.1108C99.9245 93.1436 99.7442 92.1676 99.3037 91.3006C98.8632 90.4337 98.1813 89.7128 97.3403 89.2249C96.0737 88.4818 94.562 88.3369 93.1023 88.2068C89.258 87.8538 85.2502 87.5269 81.6548 88.95C78.0594 90.3731 75.0285 94.0367 75.7714 97.8305C76.1168 99.64 77.2348 101.197 78.3714 102.639C79.2442 103.735 82.7468 108.955 84.1545 108.881C86.138 108.769 85.7591 104.712 85.4471 103.593Z" fill="#3F3D56"/>
<path opacity="0.1" d="M97.3403 89.2246C97.1257 89.1006 96.9023 88.9925 96.6718 88.9014C97.324 89.4934 97.8094 90.2464 98.0793 91.085C98.3493 91.9236 98.3944 92.8184 98.2101 93.6799C98.0259 94.5414 97.6187 95.3395 97.0293 95.9941C96.4399 96.6488 95.689 97.1371 94.8518 97.4103C91.9546 98.3615 88.8235 96.578 85.7963 96.9496C85.1858 96.9946 84.602 97.2182 84.1175 97.5924C82.7692 98.7591 83.4415 100.91 83.9206 102.631C84.2326 103.746 84.6115 107.807 82.6355 107.918H82.6021C83.2149 108.517 83.7683 108.907 84.162 108.884C86.138 108.773 85.7592 104.715 85.4472 103.597C84.968 101.877 84.2958 99.7252 85.644 98.5585C86.1286 98.1842 86.7124 97.9607 87.3229 97.9156C90.35 97.5441 93.4812 99.3276 96.3783 98.3764C97.3024 98.0743 98.1194 97.5111 98.7306 96.7548C99.3418 95.9986 99.7212 95.0815 99.8229 94.1143C99.9246 93.147 99.7443 92.171 99.3038 91.3041C98.8633 90.4371 98.1814 89.7162 97.3403 89.2283V89.2246Z" fill="#303030"/>
<path d="M255.543 223.265H134.457V260.793H255.543V223.265Z" fill="#3F3D56"/>
<path d="M189.8 235.393V248.658L200.2 242.025L189.8 235.393Z" fill="white"/>
<path d="M96.9429 12.6818L91.1784 16.3381L94.6772 9.9731C93.6856 9.18129 92.4582 8.74322 91.1895 8.72834H91.0966C90.6961 8.7342 90.2959 8.70436 89.9007 8.63917L87.9469 9.87649L88.7864 8.35306C87.4003 7.87071 86.2036 6.9598 85.3692 5.75208L81.8704 7.98149L84.0804 3.96483C82.0338 1.50876 79.2778 0.00390625 76.2469 0.00390625C72.6106 0.00390625 69.3718 2.16644 67.2807 5.53657C66.6623 6.5485 65.786 7.37772 64.7417 7.93925C63.6974 8.50077 62.5226 8.77439 61.3378 8.73206H61.1409C57.1258 8.73206 53.8721 13.2838 53.8721 18.9019C53.8721 24.52 57.1258 29.0717 61.1409 29.0717C62.0242 29.0676 62.8933 28.8496 63.6741 28.4364C65.04 27.7713 66.5342 27.4115 68.053 27.382C69.5718 27.3525 71.0788 27.654 72.4695 28.2654C73.6462 28.792 74.9207 29.0642 76.2098 29.0642C77.4988 29.0642 78.7734 28.792 79.9501 28.2654C81.331 27.6666 82.8245 27.3719 84.3292 27.4014C85.834 27.4308 87.3148 27.7838 88.6712 28.4364C89.4439 28.8409 90.3025 29.0537 91.1746 29.0569C95.1898 29.0569 98.4435 24.5014 98.4435 18.887C98.4711 16.7255 97.955 14.5918 96.9429 12.6818Z" fill="#F2F2F2"/>
<path opacity="0.03" d="M86.0748 27.563C83.9811 27.1658 81.8166 27.4012 79.8571 28.2393C78.6801 28.7647 77.4057 29.0363 76.1168 29.0363C74.8279 29.0363 73.5535 28.7647 72.3765 28.2393C70.9854 27.6291 69.4783 27.3287 67.9596 27.3589C66.4409 27.389 64.9469 27.749 63.5811 28.4139C62.7999 28.8256 61.9309 29.0423 61.0479 29.0456C57.4822 29.0456 54.5145 25.4525 53.8979 20.7113C54.6088 20.1901 55.2139 19.5381 55.6808 18.7903C57.772 15.4164 61.0108 13.2539 64.6471 13.2539C68.2834 13.2539 71.4814 15.3904 73.5614 18.7271C74.1873 19.7307 75.0614 20.5558 76.0992 21.1227C77.1369 21.6896 78.3033 21.9792 79.4857 21.9635H79.5785C82.42 21.9635 84.8788 24.2412 86.0748 27.563Z" fill="#303030"/>
<path d="M294.171 95.5563L291.296 97.3807L293.042 94.2038C292.548 93.8097 291.936 93.5914 291.304 93.5833H291.256C291.057 93.5866 290.858 93.5729 290.661 93.5424L289.67 94.1666L290.089 93.4049C289.399 93.1653 288.802 92.7125 288.384 92.1119L286.639 93.2266L287.753 91.2238C287.289 90.6249 286.698 90.1368 286.022 89.7949C285.346 89.453 284.603 89.2659 283.846 89.2471C282.033 89.2471 280.417 90.3246 279.388 92.0078C279.079 92.5131 278.64 92.927 278.118 93.2071C277.596 93.4872 277.009 93.6234 276.417 93.6019H276.32C274.318 93.6019 272.695 95.8759 272.695 98.6738C272.695 101.472 274.318 103.749 276.32 103.749C276.761 103.748 277.194 103.639 277.583 103.434C278.264 103.102 279.009 102.922 279.767 102.907C280.524 102.891 281.276 103.041 281.97 103.344C282.554 103.609 283.186 103.747 283.827 103.749C284.467 103.747 285.099 103.613 285.684 103.356C286.373 103.057 287.117 102.91 287.868 102.924C288.618 102.938 289.357 103.113 290.034 103.437C290.418 103.64 290.847 103.747 291.282 103.749C293.284 103.749 294.907 101.475 294.907 98.6738C294.928 97.5892 294.675 96.5167 294.171 95.5563Z" fill="#F2F2F2"/>
<path opacity="0.03" d="M288.738 102.98C287.692 102.78 286.61 102.897 285.633 103.318C285.048 103.579 284.415 103.714 283.775 103.714C283.135 103.714 282.503 103.579 281.918 103.318C281.224 103.015 280.473 102.865 279.716 102.88C278.958 102.895 278.213 103.074 277.532 103.404C277.143 103.611 276.709 103.721 276.269 103.723C274.49 103.723 273.011 101.929 272.703 99.5656C273.058 99.3061 273.359 98.9806 273.591 98.607C274.635 96.9238 276.25 95.8462 278.048 95.8462C279.846 95.8462 281.458 96.9126 282.505 98.5735C282.817 99.0786 283.255 99.4938 283.776 99.7785C284.297 100.063 284.883 100.207 285.477 100.197H285.521C286.914 100.186 288.143 101.323 288.738 102.98Z" fill="#303030"/>
<path d="M300.534 48.1777L305.151 51.1094L302.343 46.0078C303.137 45.3749 304.12 45.0246 305.136 45.012H305.21C305.531 45.0168 305.852 44.9931 306.168 44.9414L307.736 45.9335L307.064 44.7147C308.172 44.3258 309.13 43.5978 309.801 42.6339L312.605 44.41L310.834 41.1922C312.472 39.2229 314.682 38.019 317.111 38.019C320.026 38.019 322.619 39.7506 324.294 42.4519C324.79 43.2602 325.49 43.9229 326.324 44.3726C327.159 44.8222 328.097 45.0429 329.045 45.012H329.201C332.417 45.012 335.025 48.6608 335.025 53.1605C335.025 57.6602 332.425 61.309 329.201 61.309C328.494 61.3053 327.798 61.1307 327.173 60.7999C326.077 60.2656 324.878 59.9765 323.659 59.9527C322.441 59.929 321.231 60.1712 320.116 60.6625C319.173 61.0837 318.152 61.3015 317.12 61.3015C316.088 61.3015 315.067 61.0837 314.124 60.6625C313.018 60.1819 311.822 59.9452 310.617 59.9682C309.411 59.9913 308.225 60.2737 307.138 60.7962C306.517 61.1195 305.828 61.2902 305.128 61.2941C301.912 61.2941 299.304 57.6453 299.304 53.1456C299.293 51.4129 299.715 49.7048 300.534 48.1777Z" fill="#F2F2F2"/>
<path opacity="0.03" d="M309.236 60.1015C310.917 59.7812 312.655 59.9701 314.228 60.644C315.171 61.0653 316.192 61.283 317.224 61.283C318.256 61.283 319.277 61.0653 320.219 60.644C321.336 60.1543 322.545 59.9132 323.764 59.9376C324.982 59.962 326.181 60.2512 327.277 60.7852C327.902 61.1148 328.598 61.2881 329.305 61.2905C332.161 61.2905 334.538 58.4109 335.036 54.6023C334.463 54.1868 333.977 53.6629 333.606 53.0603C331.931 50.3627 329.334 48.6274 326.422 48.6274C323.51 48.6274 320.944 50.3404 319.269 53.012C318.768 53.8175 318.068 54.4802 317.237 54.9359C316.405 55.3916 315.47 55.6248 314.522 55.6129H314.447C312.167 55.6167 310.195 57.4411 309.236 60.1015Z" fill="#303030"/>
</svg>
