<svg width="40" height="35" viewBox="0 0 40 35" fill="none" xmlns="http://www.w3.org/2000/svg">
<g clip-path="url(#clip0_132_1118)">
<path d="M37.0009 3.62877C34.9891 1.44095 32.2504 0.177206 29.2907 0.0726626C26.3202 -0.0369249 23.4976 1.02287 21.3277 3.07014L20.464 3.87939C20.1955 4.12999 19.7793 4.12999 19.5107 3.87939L18.647 3.07014C16.5981 1.1329 13.9227 0.0677278 11.1052 0.0677278C10.9684 0.0677278 10.8313 0.0677278 10.6999 0.0730823C7.73469 0.177671 4.99598 1.44137 2.9946 3.62919C-1.17665 8.17736 -0.908076 15.3318 3.58971 19.572L19.9897 35.0287L36.3952 19.572C40.9034 15.3313 41.1667 8.17736 37.0008 3.62919L37.0009 3.62877ZM36.1214 15.4877C35.9475 15.8061 35.5317 15.9421 35.1893 15.7697C34.8574 15.5922 34.731 15.1796 34.9103 14.8504C36.4061 12.1089 36.0004 8.6206 33.9307 6.36498C33.7146 6.13509 33.5145 5.94197 33.3197 5.77491C33.1829 5.65497 33.0986 5.49291 33.0828 5.31014C33.067 5.12738 33.1303 4.95496 33.2459 4.81931C33.3669 4.68366 33.5357 4.60014 33.72 4.58943H33.7726C33.9357 4.58943 34.0937 4.6469 34.2201 4.75649C34.4783 4.97566 34.7256 5.2159 34.9574 5.46149C37.4013 8.12487 37.8858 12.2503 36.1214 15.4872L36.1214 15.4877ZM31.471 3.8947C31.3813 4.20812 31.0919 4.42729 30.7495 4.39588L30.9021 3.74299L31.076 3.0901C31.2128 3.14757 31.3288 3.24681 31.4026 3.37746C31.4922 3.53952 31.5185 3.72229 31.471 3.89471V3.8947Z" fill="#FF3225"/>
</g>
<defs>
<clipPath id="clip0_132_1118">
<rect width="40" height="35" fill="white"/>
</clipPath>
</defs>
</svg>
