<svg xmlns="http://www.w3.org/2000/svg" viewBox="0 0 383.95 352.46"><path d="M384,84C382.53,89.26,381,94.5,379.7,99.8q-11.18,45-22.26,90c-2.65,10.77-5.31,21.54-7.91,32.31-1.18,4.89-3,9.38-7.81,11.73a27.51,27.51,0,0,1-6.39,1.79,16.44,16.44,0,0,1-3.37.07q-109.06,0-218.13,0a25.32,25.32,0,0,1-7-.61,13.57,13.57,0,0,1-9.73-10c-1.42-5.29-2.7-10.63-4-16q-6.31-26.36-12.57-52.72L51.82,36.44c-.29-1.21-.54-2.43-.84-3.64-.82-3.38-.82-3.39-4.44-3.39-10.24,0-20.49-.12-30.73,0C8.28,29.56,3.2,26.3.46,19.32A2.74,2.74,0,0,0,0,18.75v-7.5L1.09,8.91A14.08,14.08,0,0,1,11.79.58,13.24,13.24,0,0,0,13.5,0H62.24a44.82,44.82,0,0,1,4.61,1.27C72.52,3.46,75.2,8,76.54,13.66,80.2,29.31,84,44.93,87.77,60.55c1.37,5.67.25,4.69,6,4.69q136.05,0,272.1,0c1.25,0,2.51-.07,3.75,0,6.39.49,11.08,3.46,13.61,9.51.23.57.5,1.13.75,1.69ZM96.14,94.83a21.27,21.27,0,0,0,.29,2.41c1.49,6.31,3,12.61,4.52,18.91q10.33,43.28,20.71,86.53c1.16,4.79.13,4,5,4q54,0,108,0h85.09c3.44,0,3.45,0,4.24-3.21q10.1-40.64,20.16-81.28c2.25-9.06,4.46-18.13,6.75-27.43Z"/><path d="M302.21,352.46c-2.55-.43-5.13-.73-7.64-1.31-19.58-4.5-32.34-16.53-37.26-35.85-6.85-26.86,10.84-53.93,38.76-58.71A48.09,48.09,0,0,1,314,351.07c-2.89.6-5.85.93-8.78,1.39ZM285.1,304.19a18.73,18.73,0,0,0,18.95,18.75,18.38,18.38,0,0,0,18.82-18.83c0-11.25-8.57-18.89-19.09-19C293.56,285.08,285.05,293.88,285.1,304.19Z"/><path d="M129,352.46c-2.8-.44-5.63-.78-8.41-1.33a47.84,47.84,0,0,1-38-40.44c-3-22,8.47-40.18,25.17-49.12a47.43,47.43,0,0,1,53.54,5.83c10.69,9.18,16.63,21,17,35,.47,16.07-5.86,29.44-18.5,39.5a44.7,44.7,0,0,1-26.11,10.07,7.6,7.6,0,0,0-1.73.52ZM149.1,304c0-10.28-8.66-19-18.88-18.82S111.4,292.69,111.34,304a18.42,18.42,0,0,0,19,19A18.7,18.7,0,0,0,149.1,304Z"/></svg>