<svg xmlns="http://www.w3.org/2000/svg" viewBox="0 0 218.22 383.2"><path d="M0,211.47V143.23a2.4,2.4,0,0,0,.45-.57c4-9.78,9.81-13.75,20.35-13.76q14.23,0,28.46,0c1,0,2,0,3,0,1.26,0,1.79-.68,1.83-1.85,0-1,0-2,0-3,0-7.62-.08-15.24,0-22.85.13-10.49.8-21,3.49-31.15,9.46-35.81,31.79-58.8,67.93-68,2.87-.73,5.77-1.38,8.65-2.06h72c.92.59,1.82,1.2,2.75,1.77a18.68,18.68,0,0,1,8,9.77c.42,1.15.82,2.31,1.22,3.46V75.74c-.19.58-.44,1.16-.58,1.76A18.74,18.74,0,0,1,200.9,91.86q-3.54.19-7.1.23c-10.62.11-21.24-.06-31.85.37-6.47.26-7.95,1.89-8.13,8.21-.19,7-.16,14-.22,21,0,1.63.06,3.25,0,4.87-.06,1.78.79,2.48,2.5,2.38,1-.06,2,0,3,0,12.49,0,25-.08,37.47,0,11,.09,19.33,8.13,19.42,19.11.16,19.73.07,39.47,0,59.2A19,19,0,0,1,196.75,226q-18.92-.06-37.84,0c-5.57,0-5.31-.61-5.31,5.21q0,64.63,0,129.28a52,52,0,0,1-.4,6.72c-.87,6.58-4.56,11.2-10.31,14.27a40.71,40.71,0,0,1-4.14,1.68H69c-.45-.2-.9-.42-1.36-.59-7.94-2.84-12.47-8.39-13.28-16.83-.17-1.86-.2-3.74-.2-5.61q0-64,0-128c0-1,0-2,0-3-.1-2.89-.19-3-2.93-3.09-.87,0-1.75,0-2.62,0-10.11,0-20.22.08-30.33,0-8.06-.1-13.57-4.27-17-11.41C.79,213.57.42,212.51,0,211.47ZM130.39,286.9V219.06c0-1.25,0-2.51.05-3.75a12.89,12.89,0,0,1,10.56-12,22.52,22.52,0,0,1,4.11-.21h42c.87,0,1.74,0,2.62,0,3-.07,3-.08,3.1-3.23,0-.75,0-1.5,0-2.25q0-13.31,0-26.62c0-4.24,0-8.49,0-12.74,0-6.71.6-6.11-6-6.15h-6.37c-11.37,0-22.74,0-34.11,0a31.61,31.61,0,0,1-5.59-.42,11.8,11.8,0,0,1-9.62-8.42,18,18,0,0,1-.77-5.52c-.07-9.75-.1-19.5,0-29.24.05-4.24.25-8.49.7-12.7,1.4-13.32,9.78-22.68,22.84-25.34A75.41,75.41,0,0,1,167,69c8.36-.23,16.74-.06,25.11-.1,2.86,0,2.86-.09,3-3,0-.12,0-.25,0-.37q0-20.06,0-40.11c0-3.31-.07-3.31-3.31-3.41-.38,0-.75,0-1.13,0-12.87,0-25.74-.1-38.61,0a92.64,92.64,0,0,0-19.69,2.16c-22.74,5.09-39.2,17.92-48.41,39.56a82.49,82.49,0,0,0-6.44,31c-.24,13-.09,26-.11,39,0,1.63,0,3.25,0,4.88C77.16,146.17,72.6,151.16,65,152a40.41,40.41,0,0,1-4.12.12H27.52c-1,0-2,0-3,0-1.17,0-1.86.56-1.82,1.84,0,1,0,2,0,3q0,20.24,0,40.48c0,5.63,0,5.63,5.47,5.63,12,0,24-.06,36,0,7.61.06,12.91,5.37,13.19,13,0,1.24,0,2.49,0,3.74q0,67.67,0,135.32c0,1.25,0,2.5,0,3.75,0,1.06.47,1.62,1.58,1.61.87,0,1.74,0,2.62,0q22.31,0,44.61,0c4.43,0,4.21.55,4.21-4.26Q130.41,321.57,130.39,286.9Z"/></svg>