<svg xmlns="http://www.w3.org/2000/svg" viewBox="0 0 383.95 335.96"><path d="M266.22,0H288c3.07.51,6.14,1,9.19,1.53,42.12,7.77,76,41,84.73,83.09.77,3.77,1.38,7.58,2.07,11.37v21.75a17.81,17.81,0,0,0-.56,1.75c-1.17,5.73-2,11.57-3.55,17.18-5.19,18.45-15.21,34-28.74,47.51q-72,71.85-143.89,143.89c-3.2,3.21-6.54,6.1-10.73,7.89h-8.25c-4.19-1.26-7.44-3.86-10.49-6.92Q105.34,256.56,32.87,184.13c-1.5-1.51-3-3-4.43-4.57A105.24,105.24,0,0,1,2.08,128.71c-.76-3.64-1.39-7.32-2.08-11V96a9.51,9.51,0,0,0,.52-1.78,101.72,101.72,0,0,1,16-45.08C32.18,25.21,53.82,9.52,81.71,2.77,86.42,1.63,91.23.91,96,0h21.75c2.18.42,4.35.9,6.54,1.26a102.9,102.9,0,0,1,51.84,24.26c4.9,4.24,9.37,9,14.06,13.47,1.77,1.69,1.83,1.7,3.58,0,2.6-2.52,5.12-5.12,7.7-7.67C216.75,16.18,234.84,6.2,256,1.92,259.39,1.24,262.81.64,266.22,0ZM32.89,106.5c.47,4.21.74,8.46,1.44,12.63,2.67,16.06,10.28,29.48,21.78,41q66.36,66.16,132.57,132.51c3.61,3.62,3,3.65,6.55.06Q250,237.93,304.71,183.18c8.84-8.84,17.92-17.45,26.39-26.63,16-17.31,22.17-38,18.73-61.19C347,76.27,337.69,60.58,322.42,48.72,305.79,35.8,286.81,31,266,34.09a70.84,70.84,0,0,0-40.15,20.18c-6.93,6.85-13.77,13.79-20.7,20.64a25.26,25.26,0,0,1-4.62,3.79c-6.85,4.06-15,2.9-21-2.94-7.21-7.11-14.2-14.44-21.52-21.43C139.75,36.85,118,30.2,93,34.56,60.92,40.16,33.51,68.63,32.89,106.5Z"/></svg>