<svg xmlns="http://www.w3.org/2000/svg" viewBox="0 0 383.45 383.95"><path d="M383.45,109.49v162c-.18,1-.42,1.93-.53,2.9-.8,6.93-1.22,13.92-2.4,20.77-2.61,15.15-7.78,29.38-16.5,42.15-18.66,27.33-45.43,40.67-77.53,44.48-8.53,1-17.16,1.12-25.74,1.67-1.1.07-2.19.34-3.28.51H127a26.55,26.55,0,0,0-2.92-.49c-5.61-.29-11.22-.53-16.83-.81a138.38,138.38,0,0,1-31.29-5.26c-23.6-6.78-42.45-20.21-56.15-40.6C8.5,320,3.31,301,1.78,281.14.68,266.71.32,252.2.16,237.73-.11,213.62,0,189.51,0,165.4c0-19.48.06-39,1.46-58.41A155,155,0,0,1,6.18,77.85c6-22.46,18.07-41,36.68-55C59.15,10.5,77.9,4.48,97.92,2.18c8.41-1,16.92-1.11,25.39-1.66C124.54.44,125.76.18,127,0H256.72a13.67,13.67,0,0,0,2.16.47c5.73.3,11.46.56,17.2.83A134.65,134.65,0,0,1,311,7.39c27.59,8.8,48,26.09,60.56,52.22,6,12.34,9.2,25.52,10.63,39.15C382.54,102.34,383,105.91,383.45,109.49Zm-191-74.11v-.05c-13.25,0-26.5,0-39.74,0-17.62,0-35.24.15-52.76,2.31C89.31,39,79.11,41.84,69.85,47.35,52,57.94,42.44,74.08,38.62,94.09c-2.3,12.09-2.7,24.34-2.85,36.56-.38,30.36-.38,60.73-.35,91.1,0,19.11,0,38.23,1.67,57.3A92.37,92.37,0,0,0,43.23,306q10.27,25.23,35.62,35.4a94.24,94.24,0,0,0,29.91,6.32c14.21.81,28.46,1.38,42.7,1.4,35.11,0,70.23-.24,105.34-.54a202.55,202.55,0,0,0,30.61-2.24,77,77,0,0,0,25.15-8.16c18.83-10.35,29.11-26.7,33.28-47.39,2.09-10.34,2.43-20.83,2.83-31.29.5-12.86.67-25.74.71-38.61.12-36.36.4-72.73-1.34-109.07a108.29,108.29,0,0,0-4.59-27.61c-6-19.07-17.95-32.88-36.51-40.71A84.68,84.68,0,0,0,279.72,37c-12.45-.85-25-1.38-37.43-1.57C225.67,35.18,209.05,35.38,192.43,35.38Z"/><path d="M192,291c-55-.61-98.85-44.29-98.71-99.25a98.88,98.88,0,0,1,197.75.35C291,247.26,246.83,290.63,192,291Zm-.14-35.36c34.65.5,63.77-27.87,64-63.21a63.7,63.7,0,1,0-127.4-.64C128.38,227,157.35,255.83,191.87,255.63Z"/><path d="M294.64,112.67c-12.41.32-23.38-10.58-23.15-23.36S282.23,65.93,295,66.15s23.2,10.65,23,23.31C317.75,105.21,304.7,113.15,294.64,112.67Z"/></svg>