<svg xmlns="http://www.w3.org/2000/svg" width="259.406" height="47.75" viewBox="0 0 259.406 47.75">
  <path d="M393.65,87.5a2.339,2.339,0,0,0-1.675.475A2.254,2.254,0,0,0,391.5,89.6v31.3a2.251,2.251,0,0,0,.475,1.625,2.337,2.337,0,0,0,1.675.475h19.8a1.762,1.762,0,0,0,2.1-2.1v-4.55a2.246,2.246,0,0,0-.475-1.65,2.341,2.341,0,0,0-1.625-.45H401.4V89.6a2.34,2.34,0,0,0-.45-1.625,2.244,2.244,0,0,0-1.65-.475h-5.65Zm28.5,22.25q0,6.551,4.025,10.275t11.375,3.725q7.3,0,11.325-3.725T452.9,109.75v-9q0-6.55-4.025-10.275T437.55,86.75q-7.35,0-11.375,3.725T422.15,100.75v9ZM443,110.2a4.454,4.454,0,0,1-1.425,3.575A5.988,5.988,0,0,1,437.55,115a6.07,6.07,0,0,1-4.075-1.225,4.454,4.454,0,0,1-1.425-3.575v-9.9a4.457,4.457,0,0,1,1.425-3.575A6.073,6.073,0,0,1,437.55,95.5a5.991,5.991,0,0,1,4.025,1.225A4.457,4.457,0,0,1,443,100.3v9.9Zm33.65-7.6a2.255,2.255,0,0,0-1.625.475,2.338,2.338,0,0,0-.475,1.675v3.75a2.241,2.241,0,0,0,.475,1.65,2.337,2.337,0,0,0,1.625.45h4.8v1a2.8,2.8,0,0,1-1.45,2.5,7.456,7.456,0,0,1-3.95.9,5.833,5.833,0,0,1-4.2-1.275,5.28,5.28,0,0,1-1.3-3.925v-9.1a5.281,5.281,0,0,1,1.3-3.925,5.833,5.833,0,0,1,4.2-1.275q3.9,0,5.2,3.25a2.464,2.464,0,0,0,.975,1.45,2.259,2.259,0,0,0,1.725-.1l5.35-1.9a2.283,2.283,0,0,0,1.425-.975,2.17,2.17,0,0,0-.075-1.725q-3.3-8.749-14.6-8.75-7.35,0-11.375,3.725T460.65,100.75v9q0,6.551,4.025,10.275t11.375,3.725q7.2,0,11.275-3.475a11.2,11.2,0,0,0,4.075-8.925v-6.6a2.43,2.43,0,0,0-.45-1.675,2.246,2.246,0,0,0-1.65-.475H476.65Zm22.5,7.15q0,6.551,4.025,10.275t11.375,3.725q7.3,0,11.325-3.725T529.9,109.75v-9q0-6.55-4.025-10.275T514.55,86.75q-7.35,0-11.375,3.725T499.15,100.75v9ZM520,110.2a4.454,4.454,0,0,1-1.425,3.575A5.988,5.988,0,0,1,514.55,115a6.07,6.07,0,0,1-4.075-1.225,4.454,4.454,0,0,1-1.425-3.575v-9.9a4.457,4.457,0,0,1,1.425-3.575A6.073,6.073,0,0,1,514.55,95.5a5.991,5.991,0,0,1,4.025,1.225A4.457,4.457,0,0,1,520,100.3v9.9ZM542.35,91a2.14,2.14,0,0,0-1.525.425A2.05,2.05,0,0,0,540.4,92.9V97h-2.15a2.042,2.042,0,0,0-1.5.425,2.139,2.139,0,0,0-.4,1.475v3.75a2.229,2.229,0,0,0,.4,1.525,2.036,2.036,0,0,0,1.5.425h2.15v8q0,6.15,3.05,8.65t9.7,2.4a2.132,2.132,0,0,0,1.55-.425,2.234,2.234,0,0,0,.4-1.525v-4.3a2.238,2.238,0,0,0-.4-1.525,2.132,2.132,0,0,0-1.55-.425,3.7,3.7,0,0,1-2.65-.75,3.878,3.878,0,0,1-.75-2.75V104.6h3.45a2.039,2.039,0,0,0,1.5-.425,2.234,2.234,0,0,0,.4-1.525V98.9a2.144,2.144,0,0,0-.4-1.475A2.045,2.045,0,0,0,553.2,97h-3.45V92.9a2.054,2.054,0,0,0-.425-1.475A2.143,2.143,0,0,0,547.8,91h-5.45Zm36.55,6a1.587,1.587,0,0,0-1.9,1.9v14.75a11.6,11.6,0,0,1-2.35.2q-3,0-3-2.75V98.9a2.144,2.144,0,0,0-.4-1.475,2.045,2.045,0,0,0-1.5-.425h-5.5a2.042,2.042,0,0,0-1.5.425,2.139,2.139,0,0,0-.4,1.475v12.55q0,5.2,2.8,8t8.45,2.8a23.784,23.784,0,0,0,3.4-.2V124q0,2.9-2.8,2.9a3.719,3.719,0,0,1-3.15-1.65,2.513,2.513,0,0,0-1.075-.95,3.012,3.012,0,0,0-1.675.3l-4.2,2.05q-2.151,1.1-.95,2.9,3.15,4.95,11.15,4.95,6.2,0,9.1-3.125a11.9,11.9,0,0,0,2.9-8.425V98.9a2.144,2.144,0,0,0-.4-1.475A2.045,2.045,0,0,0,584.4,97h-5.5Zm16.5,2.05a3.123,3.123,0,0,0-.4,1.8v31.2a2.039,2.039,0,0,0,.425,1.5,2.234,2.234,0,0,0,1.525.4h5.45a2.238,2.238,0,0,0,1.525-.4,2.044,2.044,0,0,0,.425-1.5V123.5q2.349,0.249,3,.25,5.75,0,8.7-2.875T619,112.45v-5.4q0-5.2-2.85-8t-8.6-2.8a28.484,28.484,0,0,0-10.45,1.7A4.113,4.113,0,0,0,595.4,99.05Zm14.3,13.9q0,2.751-3.1,2.75a10.544,10.544,0,0,1-2.25-.25V104.9a0.268,0.268,0,0,1,.2-0.3,8.473,8.473,0,0,1,2.3-.25q2.85,0,2.85,2.45v6.15Zm16.15-.75a11.617,11.617,0,0,0,3.025,8.4q3.024,3.15,9.425,3.15,8.45,0,11.3-4.95a1.852,1.852,0,0,0-.95-2.9l-3.45-1.5a3.447,3.447,0,0,0-1.775-.375,1.875,1.875,0,0,0-1.025.875,4.8,4.8,0,0,1-4,1.85q-3.25,0-3.25-3.25v-0.95h13q2.75,0,2.75-2.6V107.2a10.488,10.488,0,0,0-3.175-7.875q-3.176-3.075-9.375-3.075-6.1,0-9.3,2.975t-3.2,8.575v4.4Zm15.7-5.7h-6.4v-0.65q0-3,3.2-3t3.2,3v0.65Z" transform="translate(-391.5 -86.75)"/>
</svg>
