<svg xmlns="http://www.w3.org/2000/svg" viewBox="0 0 371.14 383.95"><title>111</title><g id="Layer_2" data-name="Layer 2"><g id="Layer_1-2" data-name="Layer 1"><path d="M355,384h-9c-5.07-1.74-9.09-4.88-12.8-8.74q-42.88-44.82-85.95-89.48c-3.72-3.86-2.84-3.62-7.24-.73a152.73,152.73,0,0,1-84.89,25.33,148.71,148.71,0,0,1-50-8.4c-36.33-12.74-64.43-35.65-84-68.78-17.1-29-23.58-60.41-20.38-93.88a147.58,147.58,0,0,1,9.5-39.91Q29.45,50.43,74.12,22.72A149.38,149.38,0,0,1,134.3,1.24C137.13.87,140,.42,142.78,0h25.5c.71.19,1.41.43,2.13.55,7,1.17,14.12,1.86,21,3.56,41.35,10.25,73.32,33.67,96,69.65A149.39,149.39,0,0,1,310,142.44a154.06,154.06,0,0,1-1.16,35.11,151.49,151.49,0,0,1-20.42,57c-4.21,6.92-9.07,13.44-13.78,20.36.61.66,1.43,1.58,2.29,2.47L322.56,305c14.11,14.68,28.3,29.28,42.34,44,11.16,11.74,6.76,29.17-8.53,34.33C355.9,383.53,355.46,383.76,355,384ZM155.37,269.21c62.25.36,114.08-51,114.12-114.19,0-61.17-49.41-114.4-114.46-114.28A114.22,114.22,0,0,0,40.91,155.36C41.14,219.34,93.77,269.74,155.37,269.21Z"/></g></g></svg>