<svg xmlns="http://www.w3.org/2000/svg" viewBox="0 0 383.95 368.95"><path d="M192,26.26l.23,0a3.14,3.14,0,0,1,.82.28,4.71,4.71,0,0,1,.92,1.43q10,20.25,20,40.49l4.38,8.88,5.22,10.55c3.66,7.41,7.46,15.08,11.15,22.61,6.08,12.41,16.8,20.16,30.19,21.81,2.36.29,4.8.66,7.39,1l2.74.41,13.4,2c8.23,1.22,16.74,2.49,25.13,3.71,5,.72,10,1.43,14.89,2.11,9.12,1.28,18.56,2.6,27.67,4.06a6.84,6.84,0,0,1,1.49.38,6.2,6.2,0,0,1,.38.71V148a29.14,29.14,0,0,1-3.91,4.41C342.46,163.61,330.79,175,319.5,186c-9.11,8.88-18.53,18.07-27.8,27.05-9.8,9.48-14.11,21.8-12.17,34.75.07.67.18,1.74.41,3.06.45,2.56.91,5.12,1.36,7.68.69,3.86,1.4,7.85,2.07,11.74q2.28,13.23,4.53,26.47c2.4,14,4.88,28.56,7.35,42.84.42,2.4-.72,2.84-1.46,3a42.8,42.8,0,0,1-5.9-2.71c-10.93-5.8-22.05-11.64-32.8-17.3-14.1-7.42-28.69-15.08-43-22.69a41.33,41.33,0,0,0-40.48.11c-12.13,6.56-24.63,13.1-36.72,19.42l-14,7.34-8.43,4.44c-6.84,3.61-13.92,7.35-20.85,10.9a4.3,4.3,0,0,1-1.22.48,4.28,4.28,0,0,1-1.26-.5c-.69-.37-.63-1.62-.45-2.6,1-5.82,2-11.67,3-17.33.42-2.54.85-5.07,1.29-7.61l2-11.89q2.48-14.51,5-29c1.38-8,2.76-15.9,4.1-23.43A40.74,40.74,0,0,0,92,212.75C81.92,203,71.68,193,61.78,183.38c-10.41-10.15-21.18-20.65-31.86-30.93A30.25,30.25,0,0,1,26,148.08v-1.26a4.79,4.79,0,0,1,.37-.66,9,9,0,0,1,2.6-.61c5.66-.67,11.18-1.51,16.51-2.33l6.05-.91,13.41-2,19.87-2.93,5.92-.86c8.89-1.3,18.09-2.65,27.06-3.82,14.42-1.9,25.89-10.28,32.29-23.62C155.88,97,162,84.74,167.85,72.87q3.38-6.8,6.73-13.59,7.78-15.76,15.59-31.53c.59-1.2.67-1.22,1.71-1.47l.09,0M192.73,0h-1.5c-1.83.33-3.68.58-5.48,1a27.44,27.44,0,0,0-18.89,15.21Q159.06,32,151.27,47.77C143,64.45,134.7,81.07,126.65,97.84c-2.58,5.37-6.37,8.32-12.24,9.09-11.13,1.46-22.24,3.12-33.35,4.73S58.85,115,47.75,116.59c-7.29,1.07-14.55,2.28-21.86,3.15C13,121.27,4.56,128.06.65,140.45A8.11,8.11,0,0,1,0,141.73V153c1.92,7.4,6.46,13,11.88,18.2,20.79,20,41.32,40.27,62.09,60.29a14.7,14.7,0,0,1,4.55,14.22q-2.1,11.79-4.12,23.58-3.53,20.44-7,40.91c-1.41,8.24-2.75,16.48-4.24,24.7-2.28,12.58,3,24.4,13.81,30.18a27.34,27.34,0,0,0,26.57.21c9.88-5.07,19.68-10.3,29.51-15.47,17-8.94,34.07-17.76,51-26.89a15.39,15.39,0,0,1,15.89,0c25.21,13.43,50.56,26.63,75.81,40,5.55,2.94,11.17,5.47,17.49,6.07H294c1.83-.31,3.68-.54,5.48-.95,15-3.45,24.1-17.45,21.43-32.84-4-23.08-7.91-46.18-11.88-69.27-1.11-6.51-2.3-13-3.44-19.51-.13-.74-.15-1.49-.27-2.23-.81-5,.86-8.89,4.5-12.41,20.81-20.14,41.44-40.47,62.3-60.57C377.49,166,382,160.34,384,153v-10.5c-.26-.82-.52-1.65-.79-2.47-3.63-11.28-11.3-18.13-23-20-14.27-2.29-28.62-4.15-42.93-6.23-12.84-1.87-25.66-3.79-38.49-5.68-3.57-.53-7.15-1.1-10.73-1.55-4.78-.59-8-3.19-10-7.44C252.58,88,247.08,77,241.62,65.88q-12.18-24.67-24.35-49.35C213.28,8.44,207.05,3.11,198.2,1c-1.8-.42-3.65-.68-5.47-1Z"/></svg>