<svg xmlns="http://www.w3.org/2000/svg" viewBox="0 0 383.95 368.95"><path d="M0,153V141.73a8.11,8.11,0,0,0,.65-1.28C4.56,128.06,13,121.27,25.89,119.74c7.31-.87,14.57-2.08,21.86-3.15,11.1-1.64,22.2-3.31,33.31-4.93s22.22-3.27,33.35-4.73c5.87-.77,9.66-3.72,12.24-9.09,8-16.77,16.39-33.39,24.62-50.07Q159.06,32,166.86,16.22A27.44,27.44,0,0,1,185.75,1c1.8-.43,3.65-.68,5.48-1h1.5c1.82.33,3.67.59,5.47,1,8.85,2.1,15.08,7.43,19.07,15.52q12.15,24.67,24.35,49.35C247.08,77,252.58,88,258,99.11c2.07,4.25,5.25,6.85,10,7.44,3.58.45,7.16,1,10.73,1.55,12.83,1.89,25.65,3.81,38.49,5.68,14.31,2.08,28.66,3.94,42.93,6.23,11.66,1.87,19.33,8.72,23,20,.27.82.53,1.65.79,2.47V153c-2,7.36-6.46,13-11.87,18.19-20.86,20.1-41.49,40.43-62.3,60.57-3.64,3.52-5.31,7.43-4.5,12.41.12.74.14,1.49.27,2.23,1.14,6.5,2.33,13,3.44,19.51,4,23.09,7.88,46.19,11.88,69.27,2.67,15.39-6.39,29.39-21.43,32.84-1.8.41-3.65.64-5.48.95h-.75c-6.32-.6-11.94-3.13-17.49-6.07-25.25-13.38-50.6-26.58-75.81-40-5.5-2.93-10.39-2.93-15.89,0-16.91,9.13-34,17.95-51,26.89-9.83,5.17-19.63,10.4-29.51,15.47A27.36,27.36,0,0,1,77,365.06c-10.84-5.78-16.09-17.6-13.81-30.18,1.49-8.22,2.83-16.46,4.24-24.7q3.49-20.44,7-40.91,2-11.79,4.12-23.58A14.7,14.7,0,0,0,74,231.47c-20.77-20-41.3-40.28-62.09-60.29C6.46,166,1.92,160.38,0,153Z"/></svg>