<svg xmlns="http://www.w3.org/2000/svg" viewBox="0 0 383.95 383.95"><path d="M202.47,0C206,.67,209.54,1.27,213,2,238.55,7.51,259,20.91,274.5,41.81a95.18,95.18,0,0,1,18.59,45.24c4.65,37.17-7.21,68.34-35.44,93.13-1.21,1.07-2.45,2.11-3.79,3.26,5.21,2.06,10.39,3.89,15.37,6.15,6.13,2.78,12.25,5.66,18.09,9a13.91,13.91,0,0,1,7.24,14.55c-.84,6.6-4.66,11.25-11.3,13a15.41,15.41,0,0,1-11.91-1.71A156.87,156.87,0,0,0,231.73,209a138.43,138.43,0,0,0-27.3-4.26c-4.74-.2-9.48-.61-14.21-.56a156.74,156.74,0,0,0-60.81,12.46Q58.15,247.24,34.19,321.11a132.12,132.12,0,0,0-3.44,13.78c-2.05,9.9,4.45,18.26,14.53,18.88,1.12.06,2.25,0,3.38,0h112.1a30.68,30.68,0,0,1,4.5.14,15.18,15.18,0,0,1,4.9,28.25c-1.19.66-2.45,1.18-3.68,1.76H38.25a7.18,7.18,0,0,0-1.31-.58c-18.18-4-29.9-15.07-35.51-32.72-.52-1.64-1-3.3-1.43-4.94V331.46a7.33,7.33,0,0,0,.56-1.34,179.7,179.7,0,0,1,13.08-40.89A195.5,195.5,0,0,1,59.5,225.5,192.82,192.82,0,0,1,118.65,188c3.78-1.53,7.61-2.94,11.79-4.55l-1.23-.95A102.29,102.29,0,0,1,90.86,86.68a96.26,96.26,0,0,1,12.28-35.13q23-39.24,67.4-49.45c3.62-.82,7.29-1.41,10.94-2.1ZM192.2,173.75c39.09-.36,71.38-31.14,71.49-71.61a71.72,71.72,0,0,0-143.44-.31C120.18,142.15,152.36,173.56,192.2,173.75Z"/><path d="M249,384c-3.35-.87-6.78-1.51-10-2.66-22.93-8.08-37-24-41.07-48-5.6-32.87,16.56-62.82,48.1-69.15a57.81,57.81,0,0,1,11.15-1c26.23-.09,52.47-.05,78.7-.05h4.59c-1.14-1.24-1.94-2.16-2.8-3-4.6-4.59-9.27-9.1-13.8-13.75s-5.82-10.41-3.4-16.57a15.16,15.16,0,0,1,23.7-6c1.15.95,2.19,2.05,3.25,3.11,8.86,8.8,17.76,17.56,26.55,26.43A34.64,34.64,0,0,1,383.46,272a4.15,4.15,0,0,0,.49,1v12c-.14.21-.36.4-.4.62-1.49,8.43-5.7,15.3-11.77,21.23-8.48,8.29-16.83,16.73-25.24,25.1a33.44,33.44,0,0,1-2.45,2.31,15.19,15.19,0,0,1-23.84-6.39,14.64,14.64,0,0,1,3.57-16.22c5.25-5.35,10.61-10.59,15.9-15.89.63-.63,1.17-1.37,2-2.34h-2.35q-40.28,0-80.56,0a41.77,41.77,0,0,0-6.31.63A30,30,0,0,0,231,337.73c5.66,10.64,14.92,15.67,26.86,16.09A15.11,15.11,0,0,1,272.18,366,15.31,15.31,0,0,1,264,382.55c-1,.49-2,.94-3,1.4Z"/></svg>