<svg xmlns="http://www.w3.org/2000/svg" viewBox="0 0 383.95 239.97"><path d="M384,211.47V222a5.54,5.54,0,0,0-.51,1c-2.33,8.47-8,13.52-16.26,16-.93.27-1.82.69-2.73,1H312c-9.13-2.06-16.2-7.4-22.42-14.09-2.81-3-5.54-6.09-8.38-9.07-7.65-8.05-15.09-16.3-23.08-24-5.18-5-11.12-9.22-16.84-13.63-1.71-1.32-3.58-2.71-6.31-2.72a39.27,39.27,0,0,0-.24,4.11c.44,10.33-1.41,20.65,0,31a28.06,28.06,0,0,1-.43,6.69c-.91,8-5.21,13.6-12.35,17.05a41.29,41.29,0,0,1-7,2.56c-3.1.85-6.27,1.41-9.42,2.1H183c-3.43-.56-6.88-1.07-10.3-1.7A138.55,138.55,0,0,1,124,218.8c-20.42-12.83-37.57-29.3-52.8-47.86-18.72-22.8-34-47.78-46.85-74.29A327.33,327.33,0,0,1,3.91,44.81C2.42,39.68,1.29,34.44,0,29.25v-12a14,14,0,0,0,.73-1.63C3.08,8.07,8.13,3.3,15.68,1.1c1-.3,2.05-.73,3.07-1.1H71.24a4.19,4.19,0,0,0,1,.5c8.63,1.7,14.56,6.89,18.36,14.58a109.45,109.45,0,0,1,4.79,11.77,370.36,370.36,0,0,0,23.75,53.69c6.17,11.31,12.81,22.31,20.94,32.35.58.72,1.29,1.34,2.33,2.39,0-1.82,0-3,0-4.29.16-14.86.4-29.72.45-44.58A86.67,86.67,0,0,0,142,53.74c-.86-5.82-3.8-10.77-7.38-15.35A35.52,35.52,0,0,1,128.67,28c-3.85-11.28,1.16-22.21,12.23-26.6,1.27-.51,2.55-1,3.83-1.43h72.74a9.26,9.26,0,0,0,1.34.59c6.88,1.78,11.22,6.2,13.48,12.82a49.15,49.15,0,0,1,2.48,15.47c.08,8.49-.14,17-.2,25.48q-.16,19.86-.26,39.72c0,1.46.25,2.93.41,4.76,3.25-2.15,5.3-4.83,7.41-7.4C253.11,78.05,262.05,63.32,270,48c4.95-9.52,9.51-19.25,13.88-29C288.13,9.47,294.68,2.91,305,.53A4.08,4.08,0,0,0,306,0h52.5c1.52.5,3.08.94,4.58,1.51,6.73,2.55,11.36,7.12,13.15,14.23a26,26,0,0,1,0,11.51c-1.44,7.15-4.33,13.79-7.56,20.28-12.83,25.77-28.48,49.81-44.89,73.4-5.24,7.52-5.23,5.36.75,11.68,13.57,14.33,27.4,28.43,39.54,44C372.35,187.28,380.43,198.09,384,211.47ZM351.65,24.36c-1.43-.07-2.41-.17-3.39-.17-11.5,0-23,.1-34.49-.07-3.95-.05-6.11,1.48-7.66,5.1Q301.19,40.75,295.57,52c-9.35,18.69-20,36.58-33,53.06-5.27,6.72-11,13-18.27,17.58A48,48,0,0,1,233.29,128c-9.48,2.93-17.45-1.23-21.07-10.46a12.77,12.77,0,0,1-.88-2.86,101.75,101.75,0,0,1-1.3-11.88c-.15-24.37-.12-48.73-.16-73.1,0-1.12,0-2.25,0-3.37,0-1.32-.38-2.2-1.92-2.08-.62.05-1.25,0-1.88,0l-48,0h-2.9c0,.43,0,.58.06.67.4.63.79,1.27,1.23,1.87A55.2,55.2,0,0,1,167.2,59.31c.36,20.86.16,41.73.05,62.6a33.4,33.4,0,0,1-2.81,13.85c-2.39,5.25-6.36,8.65-12,9.72-4.51.85-9.09.67-13.1-1.8A73.81,73.81,0,0,1,128.75,136c-7.49-6.73-13.37-14.83-18.82-23.24C94.71,89.32,83,64.12,73.35,37.93c-1.3-3.51-2.55-7-3.86-10.54A4.39,4.39,0,0,0,65,24.17c-12.62,0-25.24,0-37.86.07-2.3,0-2.6.28-2.22,2.73a79.41,79.41,0,0,0,2,9.13c4.84,17.5,11.86,34.17,19.8,50.45,12.65,25.92,27.67,50.33,46.37,72.37,11.85,14,24.93,26.63,40.26,36.8,21.66,14.37,45.11,22.21,71.46,19.42,5.19-.55,5.21-.44,5.2-5.47,0-10.12-.12-20.24,0-30.36.07-5.87.59-11.72,2.85-17.26a16.1,16.1,0,0,1,9.92-9.58A29.52,29.52,0,0,1,234.56,151c6.79.46,12.8,3.13,18.52,6.58,7.84,4.75,14.73,10.73,21.46,16.9,10.61,9.73,20,20.59,29.7,31.22,2.18,2.39,4.5,4.68,6.89,6.87a12.45,12.45,0,0,0,8.91,3.23c11.75-.1,23.49,0,35.24,0a8.3,8.3,0,0,0,2.6-.14,2,2,0,0,0,1.07-1.52,5.57,5.57,0,0,0-.87-2.44c-2.27-3.87-4.39-7.85-7-11.52-8-11.49-17.4-21.91-26.91-32.18-7.13-7.71-14.48-15.2-21.55-23a38.8,38.8,0,0,1-5.5-8,19.61,19.61,0,0,1-.49-18.38,72.22,72.22,0,0,1,4.91-8.81c6.25-9.49,12.77-18.81,18.94-28.35,9-13.94,17.82-28,25.32-42.89A69.93,69.93,0,0,0,351.65,24.36Z"/></svg>