<svg xmlns="http://www.w3.org/2000/svg" viewBox="0 0 401.21 124.74"><title>lege-logo-hor</title><g id="d9642b48-1086-49f7-8612-4f80f9025ed3" data-name="Слой 2"><g id="550b13c9-486f-4cf7-8554-30b85ba7465a" data-name="Layer 1"><path d="M62.38,0a62.37,62.37,0,1,0,62.37,62.37A62.37,62.37,0,0,0,62.38,0Zm0,121.31a58.95,58.95,0,1,1,58.94-58.94A58.95,58.95,0,0,1,62.38,121.31Zm0-111.7a52.76,52.76,0,1,0,52.75,52.76A52.75,52.75,0,0,0,62.38,9.61Zm-26.9,10a27.32,27.32,0,0,0,25.85,21.9V11.84c.35,0,.69,0,1.05,0s1,0,1.52,0V41.42A27.53,27.53,0,0,0,89.34,19.6q1.18.75,2.31,1.56A30.12,30.12,0,0,1,63.93,44V41.52h-2.6V44A29.87,29.87,0,0,1,33.19,21.1C33.94,20.56,34.7,20.05,35.48,19.56Zm26.16,92.62A20.43,20.43,0,1,1,81.92,91.75,20.38,20.38,0,0,1,61.64,112.18Zm.74-43.05c-19.87-.37-32.07,10-41.67,21.88A50.57,50.57,0,0,1,22.3,31.55a42.67,42.67,0,0,0,39,28.31V44.1H63.9V59.86h.28A42.67,42.67,0,0,0,102.49,31.6a50.52,50.52,0,0,1,1.36,59.68C94.82,78.56,81.39,69.48,62.38,69.13ZM51.29,98.51a23.9,23.9,0,0,1,.55-4.84,8.31,8.31,0,0,1-.15-1.51,10.16,10.16,0,0,1,18.36-6.08c.31-6.87-2.89-8.72-3-8.81l-.12-.06-.09-.09c-2.63-2.22-6.73-1.33-9.18-.46a2.06,2.06,0,1,1-4-1A18.08,18.08,0,0,0,58.3,109.5a8,8,0,0,1-3.07-1.65C55,107.71,51.29,105.5,51.29,98.51Zm16.24-23.8c.2.16.42.25.63.4.38.21,4.33,2.48,4.33,10.07a28.29,28.29,0,0,1-.59,5.39,9.12,9.12,0,0,1,.15,1.59,10.16,10.16,0,0,1-18.35,6.1c-.1,5.67,2.56,7.39,2.73,7.48l.13.08.08.08c2.54,2.34,6.65,1.62,9.17.88a2,2,0,0,1,4,.53,2.34,2.34,0,0,1-.09.54,18.08,18.08,0,0,0-2.24-33.14Z" style="fill:#005ca6"/><path d="M143.23,36.32c2.51,0,4.37,1.86,4.37,5s-1.86,5-4.37,5-4.37-1.86-4.37-5S140.72,36.32,143.23,36.32Zm2.7,5c0-3.17-1.54-3.78-2.7-3.78s-2.7.61-2.7,3.78,1.54,3.79,2.7,3.79S145.93,44.53,145.93,41.35Z" style="fill:#005baa"/><path d="M155.6,33.17v3.34h.19a5.72,5.72,0,0,1,3.15,1,4.65,4.65,0,0,1,1.69,3.89,4.73,4.73,0,0,1-1.4,3.59,5.35,5.35,0,0,1-3.63,1.18v3.15h-1.45V46.2A5.35,5.35,0,0,1,150.52,45a4.73,4.73,0,0,1-1.4-3.59,4.65,4.65,0,0,1,1.69-3.89,5.72,5.72,0,0,1,3.15-1h.19V33.17Zm-1.39,4.52h-.15a3.44,3.44,0,0,0-2.05.53,3.52,3.52,0,0,0-1.3,3.13,3.52,3.52,0,0,0,1.35,3.14A3.09,3.09,0,0,0,154,45h.23ZM155.54,45h.23a3.09,3.09,0,0,0,1.92-.53A3.52,3.52,0,0,0,159,41.35a3.52,3.52,0,0,0-1.3-3.13,3.44,3.44,0,0,0-2.05-.53h-.15Z" style="fill:#005baa"/><path d="M168.65,36.51v1.18h-3V46.2h-1.45V37.69h-3V36.51Z" style="fill:#005baa"/><path d="M169.72,39c.41-2.07,2-2.64,4.1-2.64a4.48,4.48,0,0,1,2.75.7c1.05.84,1.07,2.17,1.07,3.42v3.73a9.17,9.17,0,0,0,.24,2h-1.52a15.83,15.83,0,0,1-.17-1.81,3.47,3.47,0,0,1-3.38,2,3.59,3.59,0,0,1-2.49-.85,2.73,2.73,0,0,1-.87-2.06A2.86,2.86,0,0,1,170.76,41a7.33,7.33,0,0,1,4.18-.81h1.25v-.4a2.67,2.67,0,0,0-.38-1.62,2.33,2.33,0,0,0-2-.7c-.8,0-2.47.11-2.7,1.69ZM175,41.39a6.31,6.31,0,0,0-2.93.48,1.76,1.76,0,0,0-1,1.61,1.53,1.53,0,0,0,.7,1.29,2.37,2.37,0,0,0,1.39.37,3,3,0,0,0,2.29-1.09,3.68,3.68,0,0,0,.76-2.18v-.48Z" style="fill:#005baa"/><path d="M187.31,36.51V46.2h-1.44V37.69h-3.12c-.15,4.33-.32,5.62-.6,6.48a2.79,2.79,0,0,1-2.82,2h-.07V45h.15a1.92,1.92,0,0,0,1.46-1c.29-.51.5-1.46.59-6.35l0-1.08Z" style="fill:#005baa"/><path d="M191.51,36.51v3.82h2.69a3.3,3.3,0,0,1,2.4.74,2.89,2.89,0,0,1,.78,2.13,2.92,2.92,0,0,1-1,2.34,2.82,2.82,0,0,1-2,.66h-4.39V36.51Zm0,8.51h2.26a2,2,0,0,0,1.42-.4,1.89,1.89,0,0,0,.59-1.44,1.56,1.56,0,0,0-.64-1.37,2.74,2.74,0,0,0-1.32-.3h-2.31Z" style="fill:#005baa"/><path d="M201.29,36.51l3,7.41,2.87-7.41h2V46.2h-1.44V39.55c0-.68,0-.63.07-1.52a18.14,18.14,0,0,0-.74,1.69l-2.51,6.48h-.74l-2.68-6.48c-.28-.66-.32-.83-.68-1.69,0,.55.06,1,.06,1.46V46.2h-1.26V36.51Z" style="fill:#005baa"/><path d="M215.72,36.32c2.5,0,4.37,1.86,4.37,5s-1.87,5-4.37,5-4.37-1.86-4.37-5S213.21,36.32,215.72,36.32Zm2.69,5c0-3.17-1.53-3.78-2.69-3.78s-2.7.61-2.7,3.78,1.54,3.79,2.7,3.79S218.41,44.53,218.41,41.35Z" style="fill:#005baa"/><path d="M228.85,36.51V46.2H227.4V37.69h-3.11c-.16,4.33-.33,5.62-.61,6.48a2.79,2.79,0,0,1-2.81,2h-.08V45h.15a1.93,1.93,0,0,0,1.47-1c.28-.51.49-1.46.59-6.35V36.51Z" style="fill:#005baa"/><path d="M235.36,36.32c2.51,0,4.37,1.86,4.37,5s-1.86,5-4.37,5-4.37-1.86-4.37-5S232.86,36.32,235.36,36.32Zm2.7,5c0-3.17-1.54-3.78-2.7-3.78s-2.69.61-2.69,3.78,1.54,3.79,2.69,3.79S238.06,44.53,238.06,41.35Z" style="fill:#005baa"/><path d="M247.7,36.51v1.18h-4.41V46.2h-1.44V36.51Z" style="fill:#005baa"/><path d="M250.76,36.51v5.81c0,.63,0,.63,0,1.33a7.12,7.12,0,0,1,.91-1.5l3.63-4.8v-.84h1.44V46.2h-1.44V40.48a11.94,11.94,0,0,1,.07-1.39,5.61,5.61,0,0,1-.87,1.35l-3.69,4.83v.93h-1.44V36.51Z" style="fill:#005baa"/><path d="M260.29,36.51v2.68a2.25,2.25,0,0,0,.27,1.48c.34.42,1,.42,1.65.42s1.52-.08,2.09-.13V36.51h1.44V46.2H264.3V42.11a15.52,15.52,0,0,1-2.32.16,3.85,3.85,0,0,1-2.28-.5c-.86-.62-.86-1.71-.86-2.81V36.51Z" style="fill:#005baa"/><path d="M276.38,43.56a4,4,0,0,1-1.58,2.11,4.27,4.27,0,0,1-2.49.72A4.11,4.11,0,0,1,269,45a5.16,5.16,0,0,1-1.18-3.55c0-2.58,1.44-5.11,4.5-5.11,3.61,0,4.2,3.34,4.2,4.9v.34h-7a4.65,4.65,0,0,0,.32,1.88,2.54,2.54,0,0,0,2.53,1.7,2.6,2.6,0,0,0,2-.84,2.82,2.82,0,0,0,.59-1Zm-1.5-3.17a3.88,3.88,0,0,0-.46-1.77,2.29,2.29,0,0,0-2.05-1.12,2.69,2.69,0,0,0-2.11,1,3.23,3.23,0,0,0-.66,1.9Z" style="fill:#005baa"/><path d="M284.48,39.89a3.73,3.73,0,0,0-.54-1.46,2.18,2.18,0,0,0-3.62.23,5.21,5.21,0,0,0-.63,2.73,4.71,4.71,0,0,0,.63,2.78,2.14,2.14,0,0,0,1.84,1,2,2,0,0,0,1.69-.8,3.47,3.47,0,0,0,.63-1.58l1.36.25a4.3,4.3,0,0,1-1.1,2.35,3.48,3.48,0,0,1-2.62,1,3.89,3.89,0,0,1-2.66-1A5.58,5.58,0,0,1,278,41.37a5.77,5.77,0,0,1,1-3.47,3.69,3.69,0,0,1,3.2-1.58,3.29,3.29,0,0,1,2.63,1.1,4.56,4.56,0,0,1,1,2.22Z" style="fill:#005baa"/><path d="M290.57,40.56c1.27,0,1.92-.27,2.34-2.05a3.49,3.49,0,0,1,.57-1.54,1.64,1.64,0,0,1,1.33-.52,3.42,3.42,0,0,1,.45,0v1.14a1.5,1.5,0,0,0-.3,0,.77.77,0,0,0-.61.29,2.58,2.58,0,0,0-.3.87l-.13.68a1.81,1.81,0,0,1-1.47,1.64v0A1.71,1.71,0,0,1,294,42.46c.36,1,.53,1.8.74,2.22s.34.4.72.4a2.06,2.06,0,0,0,.35,0v1.16a3.33,3.33,0,0,1-.63,0c-1.56,0-1.73-.69-2.09-1.85a10.54,10.54,0,0,0-.65-1.86,1.72,1.72,0,0,0-1.72-.81h-1.41V46.2h-1.44V36.51h1.44v4.05Z" style="fill:#005baa"/><path d="M298.88,36.51v5.81c0,.63,0,.63-.05,1.33a7.57,7.57,0,0,1,.91-1.5l3.63-4.8v-.84h1.44V46.2h-1.44V40.48c0-.34,0-.93.07-1.39a5.25,5.25,0,0,1-.87,1.35l-3.69,4.83v.93h-1.44V36.51Z" style="fill:#005baa"/><path d="M309,36.51v5.81c0,.63,0,.63-.05,1.33a7.12,7.12,0,0,1,.91-1.5l3.63-4.8v-.84h1.44V46.2h-1.44V40.48c0-.34,0-.93.07-1.39a5.61,5.61,0,0,1-.87,1.35L309,45.27v.93h-1.44V36.51Zm4.85-3.38a2,2,0,0,1-.5,1.33,3.17,3.17,0,0,1-4.21,0,2,2,0,0,1-.5-1.33H310a1.38,1.38,0,0,0,.32.8,1.47,1.47,0,0,0,1.83,0,1.38,1.38,0,0,0,.32-.8Z" style="fill:#005baa"/><path d="M325.17,40.56c1.27,0,1.92-.27,2.34-2.05a3.38,3.38,0,0,1,.57-1.54,1.63,1.63,0,0,1,1.33-.52,3.42,3.42,0,0,1,.45,0v1.14a1.5,1.5,0,0,0-.3,0,.77.77,0,0,0-.61.29,2.38,2.38,0,0,0-.3.87l-.14.68a1.8,1.8,0,0,1-1.46,1.64v0a1.71,1.71,0,0,1,1.52,1.31c.36,1,.53,1.8.74,2.22s.34.4.72.4a2.06,2.06,0,0,0,.35,0v1.16a3.39,3.39,0,0,1-.63,0c-1.56,0-1.73-.69-2.09-1.85a11.53,11.53,0,0,0-.65-1.86,1.73,1.73,0,0,0-1.73-.81h-1.4V46.2h-1.45V36.51h1.45v4.05Z" style="fill:#005baa"/><path d="M335.54,36.32c2.51,0,4.37,1.86,4.37,5s-1.86,5-4.37,5-4.37-1.86-4.37-5S333,36.32,335.54,36.32Zm2.7,5c0-3.17-1.54-3.78-2.7-3.78s-2.7.61-2.7,3.78,1.54,3.79,2.7,3.79S338.24,44.53,338.24,41.35Z" style="fill:#005baa"/><path d="M344,36.51l3,7.41,2.87-7.41h2V46.2H350.5V39.55c0-.68,0-.63.08-1.52a13.49,13.49,0,0,0-.74,1.69l-2.51,6.48h-.74l-2.68-6.48c-.29-.66-.33-.83-.69-1.69,0,.55.06,1,.06,1.46V46.2H342V36.51Z" style="fill:#005baa"/><path d="M362.07,36.51V46.2h-1.44V37.69h-4.48V46.2H354.7V36.51Z" style="fill:#005baa"/><path d="M371.7,36.51V46.2h-1.44V37.69h-3.12c-.15,4.33-.32,5.62-.61,6.48a2.78,2.78,0,0,1-2.81,2h-.08V45h.16a1.93,1.93,0,0,0,1.46-1c.28-.51.49-1.46.59-6.35l0-1.08Z" style="fill:#005baa"/><path d="M382.35,43.56a4,4,0,0,1-1.58,2.11,4.27,4.27,0,0,1-2.49.72A4.15,4.15,0,0,1,375,45a5.2,5.2,0,0,1-1.17-3.55c0-2.58,1.44-5.11,4.5-5.11,3.61,0,4.2,3.34,4.2,4.9v.34h-7a4.65,4.65,0,0,0,.32,1.88,2.54,2.54,0,0,0,2.53,1.7,2.6,2.6,0,0,0,2-.84,2.82,2.82,0,0,0,.59-1Zm-1.5-3.17a4,4,0,0,0-.46-1.77,2.3,2.3,0,0,0-2.05-1.12,2.67,2.67,0,0,0-2.11,1,3.31,3.31,0,0,0-.67,1.9Z" style="fill:#005baa"/><path d="M387.32,40.56c1.28,0,1.92-.27,2.34-2.05a3.49,3.49,0,0,1,.57-1.54,1.64,1.64,0,0,1,1.33-.52,3.42,3.42,0,0,1,.45,0v1.14a1.5,1.5,0,0,0-.3,0,.77.77,0,0,0-.61.29,2.58,2.58,0,0,0-.3.87l-.13.68a1.81,1.81,0,0,1-1.47,1.64v0a1.7,1.7,0,0,1,1.52,1.31c.36,1,.53,1.8.74,2.22s.35.4.73.4a2,2,0,0,0,.34,0v1.16a3.33,3.33,0,0,1-.63,0c-1.56,0-1.73-.69-2.09-1.85a12,12,0,0,0-.64-1.86,1.74,1.74,0,0,0-1.73-.81H386V46.2h-1.44V36.51H386v4.05Z" style="fill:#005baa"/><path d="M399.84,39.89a3.57,3.57,0,0,0-.53-1.46,2.19,2.19,0,0,0-3.63.23,5.31,5.31,0,0,0-.63,2.73,4.8,4.8,0,0,0,.63,2.78,2.16,2.16,0,0,0,1.85,1,2,2,0,0,0,1.69-.8,3.35,3.35,0,0,0,.62-1.58l1.37.25a4.3,4.3,0,0,1-1.1,2.35,3.5,3.5,0,0,1-2.62,1,3.89,3.89,0,0,1-2.66-1,5.59,5.59,0,0,1-1.45-4.07,5.78,5.78,0,0,1,1-3.47,3.66,3.66,0,0,1,3.19-1.58,3.3,3.3,0,0,1,2.64,1.1,4.65,4.65,0,0,1,1,2.22Z" style="fill:#005baa"/><path d="M141.59,93.3c-.53,0-1.11.1-1.73.15,1.54-2.93,12.55-27.54,14.28-32.88a16.89,16.89,0,0,0,2.25,0s11.83,28.79,13.94,32.88c-.72,0-1.53-.15-2.3-.15s-1.49.1-2.36.15c-.58-1.54-10.91-27.64-10.91-27.64h-.43c-4.52,10.24-8.51,20.19-11,27.64C142.79,93.4,142.21,93.3,141.59,93.3Z" style="fill:#005baa"/><path d="M185.86,74.89c1.44,0,2.84-.19,4.28-.24A9.72,9.72,0,0,0,190,75.9c0,.39.1.82.15,1.35-1.44,0-2.84-.24-4.28-.24h-7.45V91c2.93.1,5.81-.09,8.7-.19a34.8,34.8,0,0,0,4.42-.43c-.05.53-.14,1-.14,1.44a14,14,0,0,0,.14,1.44H174.18V60.57h17.06c0,.53-.14,1-.14,1.44s.1,1,.14,1.45a31.85,31.85,0,0,0-4.32-.53l-4.81-.1h-3.7V74.89Z" style="fill:#005baa"/><path d="M213.39,60.57c0,.53-.14,1-.14,1.44s.1,1,.14,1.45a31.85,31.85,0,0,0-4.32-.53l-4.81-.1h-3.7V93.4c-.77-.05-1.44-.1-2.11-.1s-1.45,0-2.12.1V60.57Z" style="fill:#005baa"/><path d="M229.53,74.89c1.44,0,2.84-.19,4.28-.24a9.72,9.72,0,0,0-.15,1.25c0,.39.1.82.15,1.35-1.44,0-2.84-.24-4.28-.24h-7.45V91c2.93.1,5.82-.09,8.7-.19a34.8,34.8,0,0,0,4.42-.43c0,.53-.14,1-.14,1.44a14,14,0,0,0,.14,1.44H217.85V60.57h17.06c0,.53-.14,1-.14,1.44s.1,1,.14,1.45a31.85,31.85,0,0,0-4.32-.53l-4.81-.1h-3.7V74.89Z" style="fill:#005baa"/><path d="M279.27,93.3c-.91,0-1.73.1-2.54.15-1.4-4-3.13-8.61-5.05-13H259.47c-1.68,4.23-3.41,8.46-4.76,13-.67,0-1.2-.15-1.78-.15a16.39,16.39,0,0,0-1.68.15l15-33.6h1.1l14.42,33.6C280.86,93.4,280.09,93.3,279.27,93.3ZM260.38,78.45H271l-5.34-12.3Z" style="fill:#005baa"/><path d="M287.73,93.3c-.72,0-1.44.1-2.11.15V60.57h8.6c9.33,0,12.41,2.07,12.41,7.88s-3.51,8.46-10.29,9.81a33.49,33.49,0,0,1-6.49.1V93.45C289.08,93.4,288.41,93.3,287.73,93.3Zm6.88-16.82c4.8-.48,7.59-3.51,7.59-7.79,0-3.26-1.63-5.86-5.43-6.2a55.54,55.54,0,0,0-6.92,0v14A26.9,26.9,0,0,0,294.61,76.48Z" style="fill:#005baa"/><path d="M321.92,93.3a14.7,14.7,0,0,0-2.12.15V62.88a89.26,89.26,0,0,0-10.52.58,8,8,0,0,0,.14-1.45,14,14,0,0,0-.14-1.44h24.8c-.05.53-.14,1-.14,1.44a14.5,14.5,0,0,0,.14,1.45A83.36,83.36,0,0,0,324,62.88V93.45A16.09,16.09,0,0,0,321.92,93.3Z" style="fill:#005baa"/><path d="M340.31,60.72c.48,0,1.49-.1,2.12-.15V85.66h.48s6.15-6.58,9.9-10.91c4.81-5.48,12-14.18,12-14.18h2.11V93.45c-.43,0-1.63-.15-2.11-.15s-1.64.1-2.12.15V67.2h-.48s-5.1,5.44-10.29,11.49c-5.91,6.83-11.63,13.85-12.16,14.76H338.2V60.57A10.23,10.23,0,0,0,340.31,60.72Z" style="fill:#005baa"/><path d="M389.05,94c-10.58,0-16.92-6.69-16.92-17.21,0-10.82,8-17,18.12-17a26.46,26.46,0,0,1,10.33,2.21,20.91,20.91,0,0,0-1,3.7l-.33,0a12.91,12.91,0,0,0-9.18-4.13c-8.85,0-13.22,7.16-13.22,15.33,0,9.23,5.29,15.14,12.88,15.14a16.81,16.81,0,0,0,10.19-3.89l-.24,3A19.48,19.48,0,0,1,389.05,94Z" style="fill:#005baa"/></g></g></svg>