<svg width="46" height="46" viewBox="0 0 46 46" fill="none" xmlns="http://www.w3.org/2000/svg">
<path d="M20.3592 25.4441H28.0107C28.3476 25.4441 28.6206 25.1652 28.6206 24.8212C28.6206 24.4771 28.3476 24.1982 28.0107 24.1982H20.3592C20.0223 24.1982 19.7493 24.4771 19.7493 24.8212C19.7493 25.1652 20.0223 25.4441 20.3592 25.4441Z" fill="#FF5B14"/>
<path d="M18.807 24.8212C18.807 24.4771 18.5339 24.1982 18.197 24.1982H14.3787C14.0418 24.1982 13.7688 24.4771 13.7688 24.8212C13.7688 25.1652 14.0418 25.4441 14.3787 25.4441H18.1974C18.5343 25.4437 18.807 25.1649 18.807 24.8212H18.807Z" fill="#FF5B14"/>
<path d="M9.71321 25.4441H12.2695C12.6064 25.4441 12.8795 25.1652 12.8795 24.8212C12.8795 24.4771 12.6064 24.1982 12.2695 24.1982H9.71321C9.37629 24.1982 9.10327 24.4771 9.10327 24.8212C9.10327 25.1652 9.37629 25.4441 9.71321 25.4441Z" fill="#FF5B14"/>
<path d="M26.4757 21.7058H28.0107C28.3476 21.7058 28.6207 21.427 28.6207 21.0829C28.6207 20.7388 28.3476 20.46 28.0107 20.46H26.4757C26.1387 20.46 25.8657 20.7388 25.8657 21.0829C25.8657 21.427 26.1387 21.7058 26.4757 21.7058Z" fill="#FF5B14"/>
<path d="M20.9168 21.7058H24.3841C24.721 21.7058 24.994 21.427 24.994 21.0829C24.994 20.7388 24.721 20.46 24.3841 20.46H20.9168C20.5799 20.46 20.3069 20.7388 20.3069 21.0829C20.3069 21.427 20.5799 21.7058 20.9168 21.7058Z" fill="#FF5B14"/>
<path d="M9.71321 21.7058H18.8024C19.1393 21.7058 19.4123 21.427 19.4123 21.0829C19.4123 20.7388 19.1393 20.46 18.8024 20.46H9.71321C9.37629 20.46 9.10327 20.7388 9.10327 21.0829C9.10327 21.427 9.37629 21.7058 9.71321 21.7058Z" fill="#FF5B14"/>
<path d="M28.0103 27.9355H23.513C23.1761 27.9355 22.9031 28.2144 22.9031 28.5585C22.9031 28.9026 23.1761 29.1814 23.513 29.1814H28.0103C28.3472 29.1814 28.6202 28.9026 28.6202 28.5585C28.6202 28.2144 28.3472 27.9355 28.0103 27.9355Z" fill="#FF5B14"/>
<path d="M21.4168 27.9355H18.0345C17.6976 27.9355 17.4246 28.2144 17.4246 28.5585C17.4246 28.9026 17.6976 29.1814 18.0345 29.1814H21.4168C21.7537 29.1814 22.0267 28.9026 22.0267 28.5585C22.0267 28.2144 21.7537 27.9355 21.4168 27.9355Z" fill="#FF5B14"/>
<path d="M16.4649 28.5585C16.4649 28.2144 16.1919 27.9355 15.8549 27.9355H9.71419C9.37727 27.9355 9.10425 28.2144 9.10425 28.5585C9.10425 28.9026 9.37727 29.1814 9.71419 29.1814H15.8553H15.8549C16.1919 29.1814 16.4649 28.9026 16.4649 28.5585H16.4649Z" fill="#FF5B14"/>
<path d="M0.641209 44.3386H37.4913C37.6521 44.3409 37.8075 44.2771 37.9226 44.1622L44.82 37.1087C44.9311 36.9915 44.9914 36.8336 44.987 36.6708V1.76089C44.9921 1.5996 44.9322 1.44313 44.8218 1.32745C44.7111 1.21214 44.5593 1.14799 44.4011 1.14947H7.55096C7.39013 1.14725 7.23474 1.21102 7.11965 1.32597L0.221878 8.37971C0.110783 8.49688 0.0508809 8.65445 0.0552307 8.81723V43.7271C0.0501478 43.8884 0.110052 44.0449 0.220418 44.1606C0.331151 44.2759 0.482917 44.3401 0.641209 44.3386ZM23.3342 43.0928H14.8967V35.8047L15.4068 36.3798C15.5161 36.5022 15.67 36.5726 15.832 36.5741C15.9957 36.5748 16.1526 36.5074 16.2662 36.3872L17.4657 35.1358L18.6511 36.3849C18.7658 36.5058 18.9234 36.5737 19.0882 36.5737C19.2531 36.5737 19.411 36.5054 19.5254 36.3846L20.7115 35.1354L21.9136 36.376C22.0294 36.4925 22.1866 36.5562 22.3493 36.5521H22.3544C22.5199 36.5555 22.6793 36.4891 22.7955 36.369L23.3343 35.8046L23.3342 43.0928ZM43.7668 36.4128L38.0741 42.2233V9.08276L43.7668 3.27219V36.4128ZM42.9365 2.39512L37.2386 8.20901H20.5237L26.2281 2.39512H42.9365ZM23.6387 9.45484V14.7496H14.4896V9.45484H23.6387ZM1.27475 9.45484H6.76415C7.10107 9.45484 7.37409 9.17601 7.37409 8.83193C7.37409 8.48784 7.10107 8.20901 6.76415 8.20901H2.09887L7.80289 2.39512H24.5029L18.7989 8.20901H10.8301C10.4932 8.20901 10.2202 8.48784 10.2202 8.83193C10.2202 9.17601 10.4932 9.45484 10.8301 9.45484H13.2699V15.33C13.2743 15.6859 13.5484 15.977 13.8962 15.9955H24.277C24.6139 15.9955 24.8586 15.674 24.8586 15.33V9.45484H36.8539V43.0928H24.5538V34.2436C24.5519 33.9882 24.3987 33.7594 24.166 33.6649C23.9337 33.5707 23.6683 33.63 23.4954 33.8146L22.3428 35.0538L21.1446 33.8195C21.0288 33.7034 20.8712 33.6408 20.709 33.6452H20.7071C20.5445 33.6408 20.3869 33.7046 20.2711 33.8217L19.0868 35.0623L17.9022 33.8128C17.7878 33.6919 17.6306 33.6233 17.4661 33.6222C17.302 33.6226 17.1448 33.6897 17.029 33.808L15.8316 35.0538L14.6796 33.8142C14.5177 33.63 14.2599 33.5703 14.0359 33.6644C13.8094 33.762 13.6663 33.993 13.6765 34.2436V43.0928H1.27414L1.27475 9.45484Z" fill="#FF5B14"/>
<path d="M3.71492 12.165C3.378 12.165 3.10498 12.4439 3.10498 12.788V13.442C3.10498 13.7861 3.378 14.0649 3.71492 14.0649C4.05184 14.0649 4.32486 13.7861 4.32486 13.442V12.788C4.32486 12.4439 4.05184 12.165 3.71492 12.165Z" fill="#FF5B14"/>
<path d="M3.71492 14.791C3.378 14.791 3.10498 15.0702 3.10498 15.4139V23.3042C3.10498 23.6483 3.378 23.9271 3.71492 23.9271C4.05184 23.9271 4.32486 23.6483 4.32486 23.3042V15.4139C4.32486 15.0702 4.05184 14.791 3.71492 14.791Z" fill="#FF5B14"/>
</svg>
