<svg width="46" height="46" viewBox="0 0 46 46" fill="none" xmlns="http://www.w3.org/2000/svg">
<g clip-path="url(#clip0_145_1108)">
<path d="M33.1646 16.237H43.0128C43.3976 16.237 43.7103 16.3888 43.9529 16.6294C44.1772 16.8502 44.3217 17.15 44.3915 17.4585L46.2041 25.45L46.2095 25.4694C46.232 25.5533 46.2411 25.6425 46.2354 25.7341L46.2343 25.7451L46.1302 32.8823C46.1248 33.3296 45.7595 33.6897 45.3132 33.6897L43.0937 33.6927C42.6791 33.6927 42.3362 33.3846 42.2813 32.9849C42.1166 32.0989 41.6425 31.3194 40.9781 30.7633C40.3183 30.2111 39.4652 29.8785 38.5339 29.8785C37.6022 29.8785 36.7499 30.2111 36.0897 30.7633C35.4169 31.3251 34.9409 32.1157 34.7812 33.0131C34.7122 33.4116 34.3655 33.6919 33.9738 33.6919L19.5193 33.6927C19.1047 33.6927 18.7619 33.3845 18.707 32.9849C18.5422 32.0989 18.0689 31.3193 17.4046 30.7633C16.7448 30.2111 15.8916 29.8785 14.9603 29.8785C14.0286 29.8785 13.1755 30.2111 12.5161 30.7633C11.8445 31.3251 11.3677 32.1157 11.2083 33.0131C11.1393 33.4116 10.7926 33.6919 10.4009 33.6919L6.0631 33.6927C5.61041 33.6927 5.24315 33.3254 5.24315 32.8727V25.2764H1.59911C1.14641 25.2764 0.779149 24.9092 0.779149 24.4565C0.779149 24.0038 1.14641 23.6365 1.59911 23.6365H5.24315V20.9661H3.52657C3.07388 20.9661 2.70661 20.5988 2.70661 20.1461C2.70661 19.6934 3.07388 19.3261 3.52657 19.3261H5.24315V16.6565H0.584606C0.131913 16.6565 -0.235352 16.2892 -0.235352 15.8365C-0.235352 15.3838 0.131913 15.0166 0.584606 15.0166H5.24315V10.6403C5.24315 10.1876 5.61041 9.82031 6.0631 9.82031H31.3256C31.7782 9.82031 32.1455 10.1876 32.1455 10.6403V27.9281H32.3438V17.0577C32.3438 16.605 32.7111 16.2377 33.1638 16.2377L33.1646 16.237ZM6.88288 23.6361H19.25C19.7027 23.6361 20.07 24.0033 20.07 24.456C20.07 24.9087 19.7027 25.276 19.25 25.276H6.88288V32.0519H9.75962C10.0762 31.0466 10.6761 30.1667 11.4636 29.5077C12.4098 28.7152 13.6302 28.2381 14.9593 28.2381C16.2876 28.2381 17.5077 28.7152 18.4551 29.5077C19.243 30.1671 19.8429 31.0466 20.1591 32.0519H33.3326C33.6492 31.0466 34.2491 30.1664 35.0374 29.5077C35.9847 28.7152 37.204 28.2381 38.5331 28.2381C39.8614 28.2381 41.0815 28.7152 42.0289 29.5077C42.8168 30.1663 43.4167 31.0466 43.7336 32.0519H44.5075L44.5902 26.4422L36.897 25.9022C36.4497 25.8965 36.0874 25.5315 36.0874 25.0822V17.8768H33.9849V28.7473C33.9849 29.1999 33.6176 29.5672 33.1649 29.5672H31.3263C30.8736 29.5672 30.5063 29.1999 30.5063 28.7473V11.4594H6.88412V15.0158H18.2368C18.6895 15.0158 19.0568 15.3831 19.0568 15.8358C19.0568 16.2885 18.6895 16.6557 18.2368 16.6557H6.88412V19.3254H21.1785C21.6312 19.3254 21.9985 19.6927 21.9985 20.1453C21.9985 20.598 21.6312 20.9653 21.1785 20.9653H6.88412V23.6358L6.88288 23.6361ZM38.5334 30.4101C39.435 30.4101 40.255 30.7774 40.85 31.3712L40.8553 31.3765C41.4476 31.9707 41.8141 32.7902 41.8141 33.6911C41.8141 34.5965 41.4461 35.4172 40.853 36.0099C40.2596 36.6033 39.4389 36.971 38.5334 36.971C37.6281 36.971 36.8073 36.6037 36.2139 36.0099C35.6212 35.4172 35.2528 34.5962 35.2528 33.6911C35.2528 32.7895 35.6201 31.9695 36.2139 31.3746L36.2192 31.3692C36.8134 30.777 37.6329 30.4105 38.5338 30.4105L38.5334 30.4101ZM39.6944 32.529C39.3992 32.2331 38.9881 32.0504 38.5334 32.0504C38.0781 32.0504 37.6673 32.2331 37.3736 32.5275C37.0758 32.8246 36.8931 33.2353 36.8931 33.6907C36.8931 34.1434 37.0777 34.5541 37.3736 34.8497C37.67 35.146 38.0807 35.3302 38.5334 35.3302C38.9861 35.3302 39.3969 35.146 39.6932 34.8497C39.9891 34.5538 40.1737 34.1434 40.1737 33.6907C40.1737 33.2353 39.9911 32.8246 39.6947 32.5291L39.6944 32.529ZM14.9601 30.4101C15.8617 30.4101 16.6817 30.7774 17.2767 31.3712L17.282 31.3765C17.8743 31.9707 18.2408 32.7902 18.2408 33.6911C18.2408 34.5965 17.8727 35.4172 17.2797 36.0099C16.6863 36.6033 15.8656 36.971 14.9601 36.971C14.0586 36.971 13.2386 36.6037 12.6436 36.0099L12.6383 36.0045C12.046 35.4104 11.6795 34.5923 11.6795 33.6907C11.6795 32.7892 12.0468 31.9692 12.6406 31.3742L12.6459 31.3689C13.2401 30.7766 14.0582 30.4101 14.9605 30.4101L14.9601 30.4101ZM16.1211 32.529C15.8259 32.2331 15.4151 32.0504 14.9601 32.0504C14.5048 32.0504 14.094 32.2331 13.8003 32.5275C13.5025 32.8246 13.3198 33.2353 13.3198 33.6907C13.3198 34.1453 13.5025 34.5561 13.7969 34.8497C14.094 35.1476 14.5051 35.3302 14.9601 35.3302C15.4128 35.3302 15.8235 35.146 16.1199 34.8497C16.4158 34.5538 16.6004 34.1434 16.6004 33.6907C16.6004 33.2353 16.4177 32.8246 16.1214 32.5291L16.1211 32.529ZM37.7272 17.8773V24.3195L44.3764 24.7863L42.8093 17.8772L37.7272 17.8773Z" fill="#FF5B14"/>
</g>
<defs>
<clipPath id="clip0_145_1108">
<rect width="46" height="46" fill="white"/>
</clipPath>
</defs>
</svg>
