<svg width="46" height="46" viewBox="0 0 46 46" fill="none" xmlns="http://www.w3.org/2000/svg">
<g clip-path="url(#clip0_145_1114)">
<path d="M19.7482 7.10023C19.7482 9.2502 21.4938 10.9993 23.6398 10.9993C25.7891 10.9993 27.5375 9.2502 27.5375 7.10023C27.5375 6.97351 27.5218 6.85391 27.5104 6.73181H29.9401V5.71132H27.902C27.5563 3.66705 25.7538 2.11621 23.6395 2.11621C21.3802 2.11621 19.4004 3.94015 19.2253 6.18152L19.1826 6.73182H19.7756C19.7639 6.85356 19.7482 6.97351 19.7482 7.10024L19.7482 7.10023ZM26.5166 7.10023C26.5166 8.68706 25.2259 9.97883 23.6395 9.97883C22.0562 9.97883 20.7687 8.68779 20.7687 7.10023C20.7687 6.97316 20.7801 6.85106 20.7954 6.73181H26.4903C26.5052 6.8507 26.5166 6.97244 26.5166 7.10023H26.5166ZM23.6395 3.13671C25.1953 3.13671 26.5308 4.23557 26.8615 5.71132H20.3372C20.7209 4.26901 22.1198 3.13671 23.6394 3.13671H23.6395Z" fill="#FF5B14"/>
<path d="M32.4919 7.75195V11.839H21.2955C20.1202 11.839 18.8967 12.5381 18.3311 13.5198L12.7808 22.2154C12.3312 22.9917 11.9593 23.8183 11.6784 24.6612L9.68076 30.2048H2.38447C0.977705 30.2048 -0.166992 31.3495 -0.166992 32.7562C-0.166992 34.163 0.977705 35.3077 2.38447 35.3077H12.08C13.0348 35.3077 13.7698 34.8467 14.2571 33.9504L16.6476 29.8231L19.7348 32.4803V39.9005C19.7348 41.3073 20.8795 42.452 22.2863 42.452C23.6931 42.452 24.8377 41.3073 24.8377 39.9005V30.205C24.8377 29.4172 24.7345 28.4234 23.9294 27.7233L19.8964 24.2139L24.1109 16.9375H32.4922V19.9994H46.2701V7.75241L32.4919 7.75195ZM23.2592 28.4936C23.65 28.8335 23.817 29.3446 23.817 30.205V39.9005C23.817 40.7445 23.13 41.4315 22.286 41.4315C21.442 41.4315 20.755 40.7445 20.755 39.9005V32.0123L17.1678 28.9251L19.3747 25.1147L23.2592 28.4936ZM23.523 15.9166L13.3663 33.4507C13.0477 34.0369 12.6629 34.2868 12.0799 34.2868H2.38434C1.54038 34.2868 0.853366 33.5998 0.853366 32.7559C0.853366 31.9119 1.54036 31.2249 2.38434 31.2249H10.3969L12.6415 24.9947C12.9049 24.2052 13.2484 23.442 13.6513 22.7447L19.2032 14.0488C19.6008 13.3593 20.4803 12.8592 21.2954 12.8592H34.9795C35.7989 12.8592 36.546 13.5885 36.546 14.389C36.5464 15.2027 35.8441 15.9164 35.0436 15.9164L23.523 15.9166ZM45.2496 18.9782H33.5129V16.9372H35.0438C36.4118 16.9372 37.5672 15.7708 37.5672 14.3893C37.5672 13.031 36.3583 11.8389 34.9801 11.8389H33.5128V8.77245H45.2495L45.2496 18.9782Z" fill="#FF5B14"/>
<path d="M11.0596 39.3906H17.6935V40.4111H11.0596V39.3906Z" fill="#FF5B14"/>
<path d="M6.46704 41.4316H17.6935V42.4521H6.46704V41.4316Z" fill="#FF5B14"/>
</g>
<defs>
<clipPath id="clip0_145_1114">
<rect width="46" height="46" fill="white"/>
</clipPath>
</defs>
</svg>
