<svg width="46" height="46" viewBox="0 0 46 46" fill="none" xmlns="http://www.w3.org/2000/svg">
<path d="M12.2582 21.0225C11.3966 21.0225 10.736 21.2994 10.736 21.2994L10.5536 22.3826C10.5536 22.3826 11.0985 22.1611 11.9235 22.1611C12.3918 22.1611 12.7339 22.2132 12.7339 22.5935C12.7339 22.8248 12.6923 22.9103 12.6923 22.9103C12.6923 22.9103 12.3234 22.8802 12.1524 22.8802C11.0651 22.8802 9.92322 23.3428 9.92322 24.7429C9.92322 25.8456 10.6717 26.0973 11.1367 26.0973C12.0237 26.0973 12.4065 25.5223 12.426 25.5207L12.3845 26.0012H13.4913L13.9849 22.5398C13.9841 21.0697 12.7029 21.0225 12.2582 21.0225ZM11.6376 25.0442C11.2475 25.0442 11.1457 24.7469 11.1457 24.5694C11.1457 24.2257 11.3322 23.8119 12.2534 23.8119C12.4684 23.8128 12.4912 23.8347 12.527 23.8413C12.5514 24.053 12.3951 25.0442 11.6376 25.0442Z" fill="#FF5B14"/>
<path d="M16.2556 22.1829C16.4323 22.1829 17.114 22.2391 17.114 22.2391L17.2729 21.1298C17.2729 21.1298 16.8314 21.0312 16.1131 21.0312C15.183 21.0312 14.2398 21.4026 14.2398 22.6724C14.2398 24.1123 15.8134 23.9657 15.8134 24.5733C15.8134 24.9772 15.3736 25.0106 15.0347 25.0106C14.4475 25.0106 13.9198 24.8103 13.9181 24.8184L13.7504 25.9187C13.7805 25.9269 14.1063 26.0719 15.161 26.0719C15.4436 26.0719 17.0619 26.1452 17.0619 24.4747C17.0619 22.9126 15.5641 23.2213 15.5641 22.5934C15.5641 22.2806 15.8077 22.1829 16.2556 22.1829Z" fill="#FF5B14"/>
<path d="M18.9001 22.3248H19.5655L19.7259 21.1422H19.0988L19.2267 20.4092H17.97C17.9423 20.4361 17.228 24.5433 17.228 25.0418C17.228 25.7837 17.6442 26.1128 18.2298 26.1071C18.6883 26.1038 19.0459 25.9767 19.1721 25.9417L19.3293 24.8732C19.243 24.8732 19.1167 24.9106 19.0052 24.9106C18.5678 24.9106 18.5197 24.6769 18.5474 24.505L18.9001 22.3248Z" fill="#FF5B14"/>
<path d="M24.1671 15.4639H21.9241C21.6227 15.8711 21.3393 16.3044 21.0828 16.7279H25.0841C24.8064 16.2865 24.4994 15.8646 24.1671 15.4639Z" fill="#FF5B14"/>
<path d="M41.668 29.6822C41.6436 29.6456 41.6232 29.6179 41.6069 29.6008C41.598 29.5926 41.5866 29.5837 41.5719 29.5796C41.6069 29.5772 41.6362 29.5641 41.6574 29.5421C41.6778 29.5202 41.6892 29.4941 41.6892 29.464C41.6892 29.4428 41.6827 29.4224 41.6704 29.4037C41.6582 29.385 41.6403 29.3711 41.6183 29.3638C41.598 29.3556 41.5629 29.3516 41.5149 29.3516H41.3732V29.7629H41.44V29.5886H41.4782C41.501 29.5886 41.5198 29.5935 41.5304 29.6032C41.5475 29.6171 41.5719 29.6488 41.6004 29.6985L41.6362 29.7637H41.7185L41.668 29.6822ZM41.5198 29.534H41.4383V29.4102H41.5149C41.5466 29.4102 41.5678 29.4126 41.58 29.4175C41.5931 29.4224 41.6012 29.4297 41.6085 29.4387C41.6151 29.4485 41.6183 29.4591 41.6183 29.4705C41.6183 29.4892 41.6118 29.5055 41.598 29.5169C41.5841 29.5275 41.5572 29.534 41.5198 29.534Z" fill="#FF5B14"/>
<path d="M25.7642 17.9688H20.3832C20.0395 18.6195 19.8114 19.1114 19.7471 19.2336H26.2741C26.1266 18.7987 25.9572 18.3776 25.7642 17.9688Z" fill="#FF5B14"/>
<path d="M8.38313 20.0215L7.14435 23.6946L7.08001 20.0215H5.24587L4.24084 26.0069H5.45356L6.21832 21.4948L6.33072 26.0069H7.19648L8.81152 21.4948L8.09562 26.0069H9.38245L10.3736 20.0215H8.38313Z" fill="#FF5B14"/>
<path d="M32.6341 21.0225C31.7708 21.0225 31.1111 21.2994 31.1111 21.2994L30.9279 22.3826C30.9279 22.3826 31.4735 22.1611 32.2978 22.1611C32.7661 22.1611 33.109 22.2132 33.109 22.5935C33.109 22.8248 33.0658 22.9103 33.0658 22.9103C33.0658 22.9103 32.6977 22.8802 32.525 22.8802C31.4385 22.8802 30.2975 23.3428 30.2975 24.7429C30.2975 25.8456 31.0468 26.0973 31.511 26.0973C32.3971 26.0973 32.7799 25.5223 32.8003 25.5207L32.7587 26.0012H33.8648L34.3583 22.5398C34.3608 21.0697 33.0788 21.0225 32.6341 21.0225ZM32.0152 25.0442C31.6242 25.0442 31.5232 24.7469 31.5232 24.5694C31.5232 24.2257 31.7097 23.8119 32.6309 23.8119C32.8451 23.8128 32.8679 23.8347 32.9045 23.8413C32.9282 24.053 32.771 25.0442 32.0152 25.0442Z" fill="#FF5B14"/>
<path d="M41.7079 25.456C41.6745 25.3941 41.6257 25.3469 41.5646 25.3143C41.5043 25.2809 41.4424 25.2646 41.3773 25.2646C41.3145 25.2655 41.2518 25.2818 41.1899 25.3143C41.1289 25.3469 41.0816 25.3941 41.0474 25.456C41.0132 25.5171 40.9961 25.5807 40.9961 25.6466C40.9961 25.7126 41.0132 25.7753 41.0474 25.8356C41.0808 25.8958 41.128 25.9439 41.1883 25.9781C41.2494 26.0115 41.3121 26.0286 41.3773 26.0286C41.444 26.0286 41.5076 26.0115 41.567 25.9781C41.6273 25.9439 41.6745 25.8958 41.7079 25.8356C41.7429 25.7753 41.7584 25.7126 41.7584 25.6466C41.7584 25.579 41.7421 25.5155 41.7079 25.456ZM41.655 25.8038C41.6273 25.8543 41.5882 25.8926 41.5369 25.9227C41.4864 25.9504 41.4343 25.9651 41.3797 25.9651C41.3243 25.9651 41.2714 25.9504 41.2217 25.9227C41.1704 25.8942 41.1321 25.8551 41.1028 25.8038C41.0735 25.7525 41.0604 25.7004 41.0604 25.6458C41.0604 25.5912 41.0743 25.5383 41.1044 25.487C41.1329 25.4365 41.1712 25.3974 41.2233 25.3689C41.2755 25.3404 41.3268 25.3282 41.3797 25.3282C41.4326 25.3282 41.4848 25.3412 41.5344 25.3689C41.5866 25.3974 41.6248 25.4357 41.6534 25.487C41.6819 25.5383 41.6973 25.5912 41.6973 25.6458C41.6973 25.7004 41.6835 25.7533 41.655 25.8038Z" fill="#FF5B14"/>
<path d="M41.5067 25.776C41.4831 25.7377 41.4619 25.7108 41.4464 25.6945C41.4367 25.6856 41.4261 25.6782 41.4114 25.6734C41.4464 25.6709 41.4749 25.6579 41.4961 25.6359C41.5165 25.6147 41.5287 25.587 41.5287 25.5577C41.5287 25.5373 41.5222 25.5162 41.5091 25.4974C41.4961 25.4795 41.479 25.4657 41.4587 25.4575C41.4383 25.4494 41.4025 25.4453 41.3544 25.4453H41.2111V25.8558H41.2778V25.6815H41.3161C41.3397 25.6815 41.3585 25.6864 41.3699 25.6953C41.387 25.71 41.4098 25.741 41.4399 25.7923L41.4749 25.8566H41.5572L41.5067 25.776ZM41.3601 25.6253H41.2795V25.5007H41.3544C41.387 25.5007 41.4082 25.5031 41.4212 25.5072C41.4318 25.5129 41.4415 25.5186 41.4481 25.5292C41.4554 25.5398 41.4587 25.5487 41.4587 25.5626C41.4587 25.5805 41.4513 25.596 41.4391 25.6074C41.4236 25.6212 41.3984 25.6253 41.3601 25.6253Z" fill="#FF5B14"/>
<path d="M36.9051 21.082C36.3423 21.082 35.9245 21.8501 35.9245 21.8501L36.0369 21.1439H34.8657L34.0814 26.016H35.3715C35.7388 23.9342 35.8056 22.2459 36.6779 22.5546C36.8318 21.7499 36.98 21.4379 37.147 21.0983C37.147 21.0991 37.0688 21.082 36.9051 21.082Z" fill="#FF5B14"/>
<path d="M40.1465 20.0278L39.8753 21.7097C39.8753 21.7097 39.4029 21.0557 38.6618 21.0557C37.5093 21.0565 36.5499 22.4451 36.5499 24.0398C36.5499 25.0701 37.0622 26.0792 38.108 26.0792C38.8613 26.0792 39.2783 25.5539 39.2783 25.5539L39.2238 26.0026H40.4462L41.4073 20.0254L40.1465 20.0278ZM38.5527 24.8575C38.0998 24.8575 37.8881 24.478 37.8881 23.8818C37.8881 22.9069 38.3254 22.2643 38.8784 22.2643C39.3296 22.2651 39.5618 22.5754 39.5618 23.3068C39.5618 23.9706 39.2335 24.8575 38.5527 24.8575Z" fill="#FF5B14"/>
<path d="M44.8158 8.09473H1.18421C0.529391 8.09473 0 8.62493 0 9.27893V36.7217C0 37.3757 0.529391 37.906 1.18421 37.906H44.8158C45.4706 37.906 46 37.3757 46 36.7217V9.27893C46 8.62493 45.4706 8.09473 44.8158 8.09473ZM41.8699 29.7419C41.8357 29.8038 41.7893 29.8511 41.729 29.8845C41.6688 29.9179 41.6052 29.935 41.5401 29.935C41.4733 29.935 41.4098 29.9179 41.3495 29.8845C41.2901 29.8511 41.2428 29.8038 41.2078 29.7419C41.1744 29.6825 41.1573 29.6189 41.1573 29.553C41.1573 29.487 41.1744 29.4243 41.2086 29.3624C41.242 29.3005 41.2909 29.2541 41.3511 29.2207C41.4122 29.1889 41.4741 29.1718 41.5393 29.1718C41.6036 29.1718 41.6655 29.1889 41.7258 29.2207C41.7869 29.2541 41.8349 29.3005 41.8683 29.3624C41.9025 29.4243 41.9188 29.4878 41.9188 29.553C41.9188 29.6181 41.9041 29.6841 41.8699 29.7419ZM42.7235 23.0007C42.7251 29.5204 37.4426 34.8078 30.9221 34.8094C27.8728 34.8102 25.0923 33.6545 22.9976 31.7561C20.9028 33.6513 18.128 34.8062 15.0836 34.8062C8.56717 34.8062 3.27815 29.518 3.27815 23.0007C3.27815 16.5096 8.52564 11.2369 15.0078 11.1945C15.0331 11.1945 15.0583 11.1945 15.0836 11.1945C18.128 11.1945 20.9036 12.3494 22.9984 14.2446C25.0923 12.3486 27.8696 11.1929 30.9164 11.1921C37.4369 11.1896 42.7235 16.4746 42.7251 22.995C42.7235 22.9967 42.7235 22.9975 42.7235 23.0007Z" fill="#FF5B14"/>
<path d="M21.7889 30.4648C22.1628 30.9226 22.5586 31.3591 22.996 31.7549C23.0057 31.746 23.0163 31.7378 23.0261 31.7297C23.0261 31.7297 23.0253 31.7297 23.0253 31.7289H23.0277C23.4577 31.3371 23.8593 30.9152 24.2266 30.4648H21.7889Z" fill="#FF5B14"/>
<path d="M23.3966 23.9851C23.3966 23.9851 23.5619 23.1707 23.5619 22.8392C23.5619 22.0109 23.1498 21.001 21.7701 21.001C20.5061 21.0018 19.5703 22.3635 19.5703 23.9029C19.5703 25.6792 20.7423 26.101 21.7416 26.101C22.6636 26.101 23.0692 25.8942 23.0692 25.8942L23.2907 24.6823C23.2907 24.6823 22.5895 24.9918 21.9558 24.9918C20.6063 24.9918 20.8425 23.9851 20.8425 23.9851H23.3966ZM21.7742 22.129C22.4836 22.129 22.3525 22.9263 22.3525 22.9899H20.9573C20.9573 22.9076 21.0893 22.129 21.7742 22.129Z" fill="#FF5B14"/>
<path d="M29.2917 21.168C29.931 21.168 30.4449 21.5272 30.4449 21.5272L30.6502 20.1956C30.6502 20.1956 29.8895 19.8877 29.2346 19.8877C27.7841 19.8877 26.3727 21.1468 26.3727 23.5112C26.3727 25.079 27.1342 26.1141 28.6344 26.1141C29.0579 26.1141 29.7339 25.9423 29.7339 25.9423L29.9587 24.5708C29.9587 24.5708 29.343 24.8794 28.9195 24.8794C28.0268 24.8786 27.6693 24.1978 27.6693 23.468C27.6693 21.9833 28.4365 21.168 29.2917 21.168Z" fill="#FF5B14"/>
<path d="M20.213 27.9854C20.4174 28.4243 20.6553 28.8421 20.9102 29.2494H25.0989C25.353 28.8438 25.5819 28.4219 25.7863 27.9854H20.213Z" fill="#FF5B14"/>
<path d="M26.3498 21.0831C25.787 21.0831 25.37 21.8511 25.37 21.8511L25.4832 21.145H24.3129L23.5286 26.017H24.8186C25.1843 23.9361 25.2527 22.247 26.125 22.5556C26.2781 21.7502 26.4256 21.4382 26.5925 21.0978C26.5925 21.0978 26.5143 21.0815 26.3498 21.0831Z" fill="#FF5B14"/>
</svg>
