<svg width="60" height="59" viewBox="0 0 60 59" fill="none" xmlns="http://www.w3.org/2000/svg">
<g clip-path="url(#clip0_145_1187)">
<path d="M46.381 25.8945H43.1429C42.9524 25.8945 42.7619 26.0818 42.6667 26.2691L41.3334 34.5104C41.3334 34.6977 41.4286 34.7914 41.6191 34.7914H43.3334C43.5238 34.7914 43.6191 34.6977 43.6191 34.5104L44 32.1691C44 31.9818 44.1905 31.7945 44.4762 31.7945H45.5238C47.7143 31.7945 48.9524 30.7644 49.2381 28.7041C49.4286 27.8612 49.2381 27.112 48.8572 26.6437C48.2858 26.1755 47.4286 25.8945 46.381 25.8945ZM46.7619 28.985C46.5715 30.1088 45.7143 30.1088 44.8572 30.1088H44.2858L44.6667 27.9548C44.6667 27.8612 44.7619 27.7675 44.9524 27.7675H45.1429C45.7143 27.7675 46.2858 27.7675 46.5715 28.1422C46.7619 28.2358 46.7619 28.5168 46.7619 28.985Z" fill="#FF5B14"/>
<path d="M23.0476 25.8945H19.8095C19.619 25.8945 19.4286 26.0818 19.3333 26.2691L18 34.5104C18 34.6977 18.0952 34.7914 18.2857 34.7914H19.8095C20 34.7914 20.1905 34.6041 20.2857 34.4168L20.6667 32.1691C20.6667 31.9818 20.8571 31.7945 21.1429 31.7945H22.1905C24.381 31.7945 25.619 30.7644 25.9048 28.7041C26.0952 27.8612 25.9048 27.112 25.5238 26.6437C24.9524 26.1755 24.1905 25.8945 23.0476 25.8945ZM23.4286 28.985C23.2381 30.1088 22.381 30.1088 21.5238 30.1088H21.0476L21.4286 27.9548C21.4286 27.8612 21.5238 27.7675 21.7143 27.7675H21.9048C22.4762 27.7675 23.0476 27.7675 23.3333 28.1422C23.4286 28.2358 23.5238 28.5168 23.4286 28.985Z" fill="#FF3225"/>
<path d="M32.8571 28.8914H31.3333C31.2381 28.8914 31.0476 28.9851 31.0476 29.0787L30.9523 29.547L30.8571 29.3597C30.4762 28.8914 29.8095 28.7041 29.0476 28.7041C27.3333 28.7041 25.8095 30.0152 25.5238 31.7946C25.3333 32.7311 25.619 33.5739 26.0952 34.1358C26.5714 34.6978 27.2381 34.8851 28.0952 34.8851C29.5238 34.8851 30.2857 34.0422 30.2857 34.0422L30.1904 34.5104C30.1904 34.6978 30.2857 34.7914 30.4762 34.7914H31.9047C32.0952 34.7914 32.2857 34.6041 32.3809 34.4168L33.2381 29.1724C33.1428 29.0787 32.9523 28.8914 32.8571 28.8914ZM30.6666 31.8882C30.4762 32.7311 29.8095 33.3866 28.8571 33.3866C28.3809 33.3866 28 33.1993 27.8095 33.012C27.619 32.7311 27.5238 32.3565 27.5238 31.8882C27.619 31.0454 28.3809 30.3898 29.2381 30.3898C29.7143 30.3898 30 30.5771 30.2857 30.7644C30.5714 31.0454 30.6666 31.5136 30.6666 31.8882Z" fill="#FF3225"/>
<path d="M56.0953 28.8914H54.5715C54.4762 28.8914 54.2857 28.9851 54.2857 29.0787L54.1905 29.547L54.0953 29.3597C53.7143 28.8914 53.0476 28.7041 52.2857 28.7041C50.5715 28.7041 49.0476 30.0152 48.7619 31.7946C48.5715 32.7311 48.8572 33.5739 49.3334 34.1358C49.8096 34.6978 50.4762 34.8851 51.3334 34.8851C52.7619 34.8851 53.5238 34.0422 53.5238 34.0422L53.4286 34.5104C53.4286 34.6978 53.5238 34.7914 53.7143 34.7914H55.1429C55.3334 34.7914 55.5238 34.6041 55.6191 34.4168L56.4762 29.1724C56.381 29.0787 56.2857 28.8914 56.0953 28.8914ZM53.9048 31.8882C53.7143 32.7311 53.0476 33.3866 52.0953 33.3866C51.6191 33.3866 51.2381 33.1993 51.0476 33.012C50.8572 32.7311 50.7619 32.3565 50.7619 31.8882C50.8572 31.0454 51.6191 30.3898 52.4762 30.3898C52.9524 30.3898 53.2381 30.5771 53.5238 30.7644C53.9048 31.0454 54 31.5136 53.9048 31.8882Z" fill="#FF5B14"/>
<path d="M41.1429 28.8916H39.5239C39.3334 28.8916 39.2381 28.9853 39.1429 29.0789L37.0477 32.263L36.0953 29.2662C36 29.0789 35.9048 28.9853 35.6191 28.9853H34.0953C33.9048 28.9853 33.8096 29.1726 33.8096 29.3599L35.5239 34.3233L33.9048 36.571C33.8096 36.7583 33.9048 37.0392 34.0953 37.0392H35.6191C35.8096 37.0392 35.9048 36.9456 36 36.8519L41.2381 29.4535C41.5239 29.1726 41.3334 28.8916 41.1429 28.8916Z" fill="#FF3225"/>
<path d="M57.9047 26.1752L56.5714 34.6038C56.5714 34.7911 56.6666 34.8847 56.8571 34.8847H58.1905C58.3809 34.8847 58.5714 34.6974 58.6666 34.5101L60 26.2689C60 26.0816 59.9047 25.9879 59.7143 25.9879H58.1905C58.0952 25.8943 58 25.9879 57.9047 26.1752Z" fill="#FF5B14"/>
<path d="M10.9524 23.0847C10.2857 22.3355 9.04762 21.9609 7.33333 21.9609H2.57143C2.28571 21.9609 2 22.2419 1.90476 22.5228L0 34.7911C0 35.072 0.190476 35.2593 0.380952 35.2593H3.33333L4.09524 30.6705V30.8578C4.19048 30.5768 4.47619 30.2959 4.76191 30.2959H6.19048C8.95238 30.2959 11.0476 29.172 11.7143 26.0816C11.7143 25.9879 11.7143 25.8943 11.7143 25.8006C11.619 25.8006 11.619 25.8006 11.7143 25.8006C11.8095 24.5832 11.619 23.834 10.9524 23.0847Z" fill="#FF3225"/>
<path d="M11.619 25.8008C11.619 25.8944 11.619 25.9881 11.619 26.0817C10.9524 29.2659 8.85713 30.296 6.09523 30.296H4.66666C4.38094 30.296 4.09523 30.577 3.99999 30.8579L3.04761 36.5706C3.04761 36.7579 3.14285 36.9452 3.42856 36.9452H5.90475C6.19046 36.9452 6.47618 36.7579 6.47618 36.477V36.3833L6.95237 33.4801V33.2928C6.95237 33.0119 7.23808 32.8246 7.5238 32.8246H7.90475C10.2857 32.8246 12.1905 31.8881 12.6667 29.0786C12.8571 27.9547 12.7619 26.9246 12.1905 26.269C12.0952 26.0817 11.9047 25.8944 11.619 25.8008Z" fill="#FF5B14"/>
<path d="M10.9524 25.5202C10.8571 25.5202 10.7619 25.4266 10.6666 25.4266C10.5714 25.4266 10.4762 25.4266 10.3809 25.3329C9.99998 25.2393 9.61902 25.2393 9.14283 25.2393H5.42855C5.33331 25.2393 5.23807 25.2393 5.14283 25.3329C4.95236 25.4266 4.85712 25.6139 4.85712 25.8012L4.09521 30.671V30.8583C4.19045 30.5774 4.47617 30.2964 4.76188 30.2964H6.19045C8.95236 30.2964 11.0476 29.1726 11.7143 26.0821C11.7143 25.9885 11.7143 25.8948 11.8095 25.8012C11.619 25.7075 11.5238 25.6139 11.3333 25.6139C11.0476 25.5202 11.0476 25.5202 10.9524 25.5202Z" fill="#FFE55F"/>
</g>
<defs>
<clipPath id="clip0_145_1187">
<rect width="60" height="59" fill="white"/>
</clipPath>
</defs>
</svg>
