<svg width="46" height="46" viewBox="0 0 46 46" fill="none" xmlns="http://www.w3.org/2000/svg">
<path d="M25.887 11.5479H18.6695C17.9253 11.5479 17.3219 12.1512 17.3219 12.8955V23.0957H15.7826C15.0383 23.0957 14.4349 23.6991 14.4349 24.4434C14.4349 25.1877 15.0383 25.7911 15.7826 25.7911H17.3219V28.8697H15.7826C15.0383 28.8697 14.4349 29.4731 14.4349 30.2174C14.4349 30.9616 15.0383 31.565 15.7826 31.565H17.3219V34.5478C17.3219 35.2921 17.9253 35.8955 18.6695 35.8955C19.4138 35.8955 20.0172 35.2921 20.0172 34.5478V31.565H25.887C26.6313 31.565 27.2347 30.9616 27.2347 30.2174C27.2347 29.4731 26.6313 28.8697 25.887 28.8697H20.0172V25.7911H25.887C29.8139 25.7911 33.0087 22.5963 33.0087 18.6694C33.0086 14.6455 29.7308 11.5479 25.887 11.5479ZM25.887 23.0957H20.0172V14.2432H25.887C28.313 14.2432 30.3134 16.2 30.3134 18.6695C30.3133 21.1102 28.3277 23.0957 25.887 23.0957Z" fill="#FF5B14"/>
<path d="M23 0C10.3177 0 0 10.3177 0 23C0 35.6823 10.3177 46 23 46C35.6823 46 46 35.6823 46 23C46 10.3177 35.6823 0 23 0ZM23 43.3047C11.8039 43.3047 2.69531 34.1961 2.69531 23C2.69531 11.8039 11.8039 2.69531 23 2.69531C34.1961 2.69531 43.3047 11.8039 43.3047 23C43.3047 34.1961 34.1961 43.3047 23 43.3047Z" fill="#FF5B14"/>
</svg>
