<svg xmlns="http://www.w3.org/2000/svg" viewBox="0 0 97.96 73.95"><defs><style>.cls-1{fill:#f06;}</style></defs><title>Ресурс 1</title><g id="Слой_2" data-name="Слой 2"><g id="Слой_1-2" data-name="Слой 1"><path class="cls-1" d="M39.92,0c7.76,1,14.42,1,20.6,2.79,7.92,2.23,15.95,5,23,9.06,8.12,4.69,16,11.15,14.15,22C96.86,39,93.56,44,90.38,48.29A62.42,62.42,0,0,1,78.93,59.63a52.79,52.79,0,0,1-12.14,7.44c-6.44,2.72-13.1,5.46-19.93,6.57-5.31.87-11.13-.22-16.51-1.41A32.57,32.57,0,0,1,19.07,67a37.64,37.64,0,0,1-9.53-9.26C6,52.54,2.25,46.93.89,41A34.75,34.75,0,0,1,1.68,22.4c2-5.47,6.76-10.15,11-14.51,2.16-2.21,5.72-3.45,8.88-4.24C28,2,34.53,1,39.92,0Z"/></g></g></svg>