<svg xmlns="http://www.w3.org/2000/svg" viewBox="0 0 1599.81 136.55"><defs><style>.cls-1{fill:#89278e;}</style></defs><title>Ресурс 2</title><g id="Слой_2" data-name="Слой 2"><g id="Слой_1-2" data-name="Слой 1"><path class="cls-1" d="M799.83.06q398.76,0,797.52.1a3.18,3.18,0,0,1,2.2,2.21c.12,24.29-.11,48.57.26,72.85.08,5.7-1.12,9.11-6.54,11.65-10.47,4.92-20.51,10.76-30.89,15.88-8.62,4.24-17.38,8.24-26.25,11.9-8.16,3.37-16.46,6.42-24.87,9.09s-17,5.06-25.61,7c-8.2,1.8-16.54,3.07-24.89,4.07a201.78,201.78,0,0,1-24.53,1.79,207.36,207.36,0,0,1-26.58-1.92c-8.44-1.14-17-2.51-25.07-5.13a198.65,198.65,0,0,1-27.89-11.75c-14.89-7.54-26.52-19.25-37.73-31.38-10.57-11.43-20.84-23.23-32.29-33.73-8.63-7.92-18.55-14.61-28.55-20.8A195.05,195.05,0,0,0,1230.34,18c-7.59-3.15-15.69-5.17-23.69-7.22a104.69,104.69,0,0,0-16.85-2.89c-11-1-22-2.07-33-1.94-9.13.1-18.3,1.58-27.36,3a186.9,186.9,0,0,0-22,5c-8.84,2.55-17.57,5.53-26.21,8.68s-17.41,6.5-25.86,10.32c-6.87,3.1-13.36,7-20,10.61q-9.42,5.09-18.82,10.2c-4.75,2.59-9.38,5.42-14.26,7.74-4.22,2-8.68,3.5-13.09,5.1-6.65,2.42-13.27,5-20,7-5.49,1.68-11.15,2.85-16.79,4-9.67,2.05-19.37,4-29.07,5.88a68.05,68.05,0,0,1-7.25,1c-9.13.8-18.25,1.93-27.39,2.18-20.77.56-41.55.78-62.34.9-7.82,0-15.64-.55-23.46-.91-5.7-.27-11.4-.54-17.09-1q-20-1.48-39.9-3.13-10.25-.84-20.48-1.91-18.87-2-37.72-4.11c-7.55-.86-15.1-1.78-22.62-2.86-11.18-1.6-22.35-3.27-33.49-5.1-7-1.15-13.91-2.42-20.77-4-8.56-2-17-4.54-25.53-6.71-3.45-.88-7-1.32-10.5-2.12-6.8-1.54-13.57-3.22-20.37-4.8-4.85-1.13-9.71-2.19-14.56-3.31-6.86-1.6-13.71-3.27-20.58-4.84-4.75-1.09-9.52-2.06-14.27-3.1-8.87-1.93-17.72-3.91-26.6-5.81-3.72-.79-7.48-1.37-11.21-2.12-7.95-1.6-15.89-3.28-23.85-4.86-4.17-.83-8.35-1.63-12.55-2.29C422,23.28,413.22,22,404.47,20.7c-6.48-1-12.92-2.19-19.41-3-10.8-1.41-21.62-2.65-32.43-3.89-6.74-.78-13.49-1.58-20.25-2.11-9.85-.78-19.72-1.68-29.6-1.9-22.61-.51-45.22-.86-67.84-.83-9.29,0-18.61,1-27.88,1.88-8.89.82-17.76,1.95-26.61,3.08-6.49.83-13,1.73-19.42,2.88q-15.9,2.85-31.73,6.09c-7.1,1.45-14.18,3.06-21.18,4.93-9,2.4-17.88,5.13-26.81,7.72-4.9,1.41-9.84,2.68-14.68,4.26-5.47,1.79-10.84,3.86-16.27,5.78-5.9,2.08-11.86,4-17.71,6.21-6.41,2.42-12.74,5.06-19.09,7.64C9.37,61.11,5.23,62.9,1,64.56c-.17.07-1-.73-1-1.13q-.08-31,0-62C.05,1,.83.38,1.37.11a3.74,3.74,0,0,1,1.54,0Z"/></g></g></svg>