<svg id="Слой_1" data-name="Слой 1" xmlns="http://www.w3.org/2000/svg" viewBox="0 0 472.61 63.82"><defs><style>.cls-1{fill:#6b1687;}.cls-2{fill:#f21d8c;}.cls-3{fill:#4dac27;}</style></defs><title>Векторный смарт-объект</title><path class="cls-1" d="M228.61,210.55c2-1.88,3.78-3.91,5.8-5.72,6.84-.17,13.68,0,20.52-.08.72.07,1.63-.2,2.13.48,2.91,3,6,5.89,8.8,9,.13,3.19,0,6.4,0,9.59-3.46,0-6.92,0-10.39,0,0-1.63.06-3.26,0-4.89a26.2,26.2,0,0,0-3.79-3.73c-3.29-.12-6.59,0-9.88,0a13.51,13.51,0,0,0-2.7.12,42.52,42.52,0,0,0-3.61,3.62c-.18,2.91,0,5.85-.08,8.78-.28,1.5,1.28,2.22,2.15,3.15s2.1.55,3.17.63c6,0,12-.1,18,.06,2.3,2,4.35,4.23,6.6,6.28.51.55,1.32,1.05,1.19,1.91,0,6.22,0,12.44,0,18.66-3.34,3.19-6.55,6.52-9.89,9.72H234.9c-3-3-6-6-9-8.91-.36-.41-.9-.78-.85-1.38,0-3.68,0-7.37,0-11.05,3.46,0,6.92,0,10.38,0,.07,2.35-.09,4.71.06,7.06a33.92,33.92,0,0,0,3.93,3.93c4.29.06,8.61.14,12.88,0a39.75,39.75,0,0,0,3.7-3.87c.13-3.73.09-7.48,0-11.22a12.7,12.7,0,0,0-2.64-2.79c-6.68-.14-13.38,0-20.06-.07-.58,0-.93-.53-1.33-.86-2.18-2.21-4.43-4.34-6.59-6.57-.52-.46-.31-1.21-.37-1.82.07-5.42-.07-10.85.07-16.27C226.11,212.87,227.45,211.79,228.61,210.55Z" transform="translate(-225 -204.25)"/><path class="cls-1" d="M274,204.78c11.5,0,23,0,34.49,0a12.62,12.62,0,0,1,2.75.12c3.24,3.19,6.42,6.45,9.62,9.68.54.4.39,1.11.44,1.7,0,5.69,0,11.38,0,17.07.11.8-.56,1.31-1,1.81-3,3-6.06,6.07-9.05,9.15-6.82,0-13.65,0-20.47,0q0,6.74,0,13.46c2.4,0,4.81,0,7.21,0,0,3.43,0,6.86,0,10.29H274c0-3.43,0-6.86,0-10.29,2.11,0,4.23,0,6.35,0-.05-14.19,0-28.39,0-42.59-2.11,0-4.22,0-6.33,0C274,211.7,273.94,208.24,274,204.78Zm16.73,10.38q0,9.85,0,19.71c5.32,0,10.65,0,16,0a56,56,0,0,0,4.2-4.1q0-5.76,0-11.51c-1.26-1.26-2.5-2.53-3.76-3.77-.35-.45-1-.27-1.48-.32C300.67,215.17,295.7,215.14,290.72,215.16Z" transform="translate(-225 -204.25)"/><path class="cls-1" d="M337.23,205.28a1.49,1.49,0,0,1,1.38-.52c6.87,0,13.74,0,20.62,0l.61.13c3,2.93,5.91,6,8.91,8.93.44.53,1.2,1,1.1,1.75,0,13.72,0,27.44,0,41.17a1.68,1.68,0,0,1-.67,1.45c-3.32,3.27-6.59,6.6-9.91,9.88H338.13c-3.08-3-6.09-6.11-9.17-9.13-.57-.66-1.56-1.21-1.43-2.22q0-20.42,0-40.83a1.55,1.55,0,0,1,.46-1.38C331.06,211.44,334.16,208.37,337.23,205.28Zm.71,13.93c0,11.4,0,22.8,0,34.19q2.21,2.15,4.33,4.37c4.3,0,8.6,0,12.9,0,1.42-1.48,2.87-2.94,4.36-4.36,0-11.39,0-22.79,0-34.19-1.5-1.27-2.73-2.91-4.31-4q-6.51-.08-13,0C340.61,216.24,339.42,217.94,337.94,219.21Z" transform="translate(-225 -204.25)"/><path class="cls-1" d="M377.58,204.78c8.06,0,16.13,0,24.2,0,4.34.06,8.7-.1,13.05.08,2.83,2.65,5.46,5.52,8.25,8.23.45.52,1.17,1,1.05,1.77,0,5.65.09,11.3-.07,16.95-2.6,2.84-5.42,5.48-8.08,8.27-.68.92-2,.51-2.92.65,2.74,5.71,5.59,11.36,8.35,17,1.72,0,3.45,0,5.18,0,0,3.43,0,6.86,0,10.29H406c0-3.43,0-6.86,0-10.29,1.54,0,3.09,0,4.63,0q-4-8.1-7.94-16.2c-.22-.39-.4-1-1-.91-2.49-.05-5,0-7.47,0,0,5.69,0,11.4,0,17.09,1.51,0,3,0,4.52,0,0,3.43,0,6.85,0,10.28H377.55c0-3.43,0-6.86,0-10.29,2.12,0,4.23,0,6.35,0q-.06-21.25,0-42.53c-2.12,0-4.23,0-6.35,0C377.55,211.74,377.53,208.26,377.58,204.78Zm16.72,10.46c0,5.94,0,11.87,0,17.82,5.21,0,10.42,0,15.62,0a17.78,17.78,0,0,0,2.64-2.43c.41-.5,1.17-.88,1.17-1.61,0-3.38,0-6.75,0-10.13-1.18-1.23-2.42-2.4-3.59-3.64C404.88,215.22,399.59,215.23,394.3,215.24Z" transform="translate(-225 -204.25)"/><path class="cls-1" d="M430.12,204.77c16,0,32,0,48.07,0,.06,7,0,14,0,21.05h-8.67c0-3.74,0-7.49,0-11.24-3.38,0-6.77,0-10.14,0q.09,21.58,0,43.18c2.39,0,4.78,0,7.17,0,0,3.42,0,6.84,0,10.27h-24.7c0-3.43,0-6.86,0-10.29,2.38,0,4.76,0,7.14,0q0-21.58,0-43.16c-3.41,0-6.83,0-10.23,0,.06,3.74,0,7.49,0,11.24h-8.67C430.1,218.81,430.09,211.79,430.12,204.77Z" transform="translate(-225 -204.25)"/><path class="cls-2" d="M534.48,204.74h45c0,6,0,12,0,18h-8.6c0-2.47,0-4.94,0-7.41q-9.92,0-19.85,0c0,5.77,0,11.55,0,17.32H566c0-1.2,0-2.4,0-3.59q3.51,0,7,0c0,4.92,0,9.84,0,14.77q-3.51,0-7,0c0-1.23,0-2.45,0-3.68-5,0-9.93,0-14.9,0,0,5.86,0,11.73,0,17.59h7.21c0,3.43,0,6.85,0,10.27H534.48c0-3.42,0-6.84,0-10.26,2.11,0,4.21,0,6.32,0q0-21.23,0-42.44c-2.11,0-4.22,0-6.33,0C534.47,211.77,534.49,208.26,534.48,204.74Z" transform="translate(-225 -204.25)"/><path class="cls-2" d="M583.38,204.74H605c.08,3.49,0,7,0,10.47-1.65,0-3.3,0-5,0q0,18.7,0,37.43c-.1.78.68,1.23,1.12,1.75a42.64,42.64,0,0,0,3.35,3.24c3.36.09,6.73,0,10.09,0,.63,0,1.41.16,1.85-.44,1.27-1.35,2.66-2.6,3.84-4,.11-12.66,0-25.34.05-38-1.69,0-3.38,0-5.07,0,0-3.49,0-7,0-10.47h21.44c.06,3.49,0,7,0,10.47h-6.29q0,21.28,0,42.57c.09.59-.44.93-.78,1.32-3,2.94-5.92,5.95-8.92,8.87h-21.3c-3-2.92-6-5.92-9-8.85-.35-.38-.87-.74-.78-1.33q0-21.29,0-42.58c-2.11,0-4.21,0-6.32,0Z" transform="translate(-225 -204.25)"/><path class="cls-2" d="M642.37,204.74h18.68c7.13,14.47,14.13,29,21.2,43.52,0-11,0-22,0-33-1.66,0-3.33,0-5,0,0-3.51,0-7,0-10.55h20.32v10.55c-2.16,0-4.32,0-6.48,0,.08,17.56,0,35.13,0,52.69H681.09c-7.89-15.47-15.61-31-23.48-46.5,0,12.07,0,24.15,0,36.23,1.65,0,3.31,0,5,0,0,3.42,0,6.85,0,10.27H642.37c0-3.42,0-6.84,0-10.26,2.11,0,4.21,0,6.32,0q0-21.23,0-42.44c-2.12,0-4.23,0-6.34,0C642.36,211.77,642.37,208.26,642.37,204.74Z" transform="translate(-225 -204.25)"/><path class="cls-3" d="M530.7,226.21h-8.84l-8.58,8.58-8.85-8.86,6.71-6.71v-8.84l-.06.06-6.19-6.19h-9.64L489,210.51v8.84l6.59,6.58-7.75,7.76h0v11.13l6.25,6.25h11.8l7.42-7.43,7.43,7.43h8.84l-11.86-11.85Zm-35.45-9.46v-3.66l2.59-2.59h4.46l2.59,2.59v3.54L500,221.51Zm8,28.07h-6.36L494.08,242v-5.73l5.93-5.93,8.85,8.86Z" transform="translate(-225 -204.25)"/></svg>