<svg viewBox="0 0 60 60" fill="none" xmlns="http://www.w3.org/2000/svg">
<path d="M29.8955 0.234765C27.7915 0.242241 25.6627 0.4698 23.5416 0.933819C9.9668 3.9043 0.282692 15.7396 0.231659 29.4293C0.193688 30.8559 2.38464 30.8643 2.35803 29.4372C2.40502 16.7141 11.388 5.73387 24.0033 2.97297C36.6194 0.2123 49.4785 6.41919 54.9961 17.9259C60.5137 29.4325 57.2051 43.1436 47.0222 50.979C37.0928 58.6194 23.236 58.6479 13.2724 51.1813L13.345 51.1958C14.7068 51.4308 15.1159 49.4477 13.7684 49.1411L10.1346 48.4234C10.0212 48.3855 9.90156 48.3668 9.78149 48.3683C9.66093 48.3697 9.54179 48.3911 9.42836 48.4318C8.84314 48.629 8.55171 49.2743 8.7952 49.8341L9.50764 53.3359C9.75966 54.7503 11.9226 54.3181 11.5946 52.9191L11.5097 52.506C22.2611 60.8983 37.4928 60.974 48.3324 52.6326C59.2889 44.2024 62.8549 29.409 56.9186 17.028C52.4664 7.74317 43.5552 1.66236 33.6488 0.454166C32.4108 0.303238 31.1569 0.22894 29.8944 0.233605L29.8955 0.234765ZM33.7994 3.66927C32.8981 3.70385 32.4472 4.75803 33.0519 5.41732L33.3115 5.70984C31.7043 5.49069 30.0973 5.41311 28.5087 5.50891C20.9686 5.96497 13.8902 9.85781 9.57912 16.303C3.83123 24.8972 4.26939 36.1473 10.6694 44.2817C17.0694 52.4165 28.0218 55.6449 37.9113 52.3156C47.8008 48.9862 54.4544 39.8281 54.4544 29.5381C54.4867 28.1115 52.2957 28.1115 52.3281 29.5381C52.3281 38.9407 46.256 47.2974 37.2199 50.3394C28.1838 53.3814 18.1979 50.4319 12.3498 42.998C6.5018 35.5645 6.1007 25.3069 11.3531 17.4536C16.0391 10.4473 24.2948 6.76555 32.5877 7.72074L32.4111 7.78008C30.9269 8.14923 31.6764 10.3464 33.086 9.75901L36.4479 8.64269C37.0488 8.62213 37.513 8.11512 37.4717 7.52448C37.4627 7.19599 37.297 6.89085 37.025 6.70067L34.6471 4.03296C34.4359 3.79044 34.1241 3.6568 33.7999 3.66894L33.7994 3.66927ZM40.1016 16.7202C37.8149 16.7202 35.7498 16.9608 34.1754 17.3846C33.388 17.5963 32.7248 17.8444 32.1738 18.1963C31.6227 18.5482 31.0589 19.1005 31.0589 19.9117V20.2042C28.8001 18.2084 25.8261 16.9837 22.5591 16.9837C15.5259 16.9837 9.79842 22.6134 9.79842 29.5382C9.79842 36.4629 15.5254 42.1034 22.5591 42.1034C25.8256 42.1034 28.7996 40.8758 31.0584 38.8797V39.174C31.0584 39.9852 31.6223 40.5375 32.1733 40.8895C32.7244 41.2413 33.3879 41.489 34.1749 41.7011C35.7493 42.1249 37.8144 42.3656 40.1012 42.3656C42.3879 42.3656 44.4512 42.1249 46.0256 41.7011C46.813 41.4894 47.4762 41.2413 48.0272 40.8895C48.5783 40.5376 49.134 39.9853 49.134 39.174L49.135 19.9123C49.135 19.1011 48.5797 18.5489 48.0281 18.1969C47.4771 17.8451 46.8135 17.5974 46.0266 17.3853C44.4522 16.9614 42.3889 16.7208 40.1021 16.7208L40.1016 16.7202ZM40.1016 18.8136C42.2323 18.8136 44.1532 19.0505 45.4612 19.4023C46.0678 19.5654 46.5239 19.7551 46.7921 19.9112C46.5234 20.0673 46.0678 20.257 45.4612 20.4201C44.1531 20.7719 42.2323 21.0088 40.1016 21.0088C37.971 21.0088 36.0483 20.7719 34.7401 20.4201C34.1336 20.257 33.6774 20.0673 33.4093 19.9112C33.6779 19.7551 34.1336 19.5654 34.7401 19.4023C36.0483 19.0505 37.971 18.8136 40.1016 18.8136ZM22.5585 19.0771C28.4426 19.0771 33.1861 23.7448 33.1861 29.538C33.1861 35.3309 28.4426 40.0093 22.5585 40.0093C16.6744 40.0093 11.9246 35.3309 11.9246 29.538C11.9246 23.7452 16.6744 19.0771 22.5585 19.0771ZM22.5585 20.3672C17.4248 20.3672 13.2347 24.484 13.2347 29.538C13.2347 34.5921 17.4243 38.7172 22.5585 38.7172C27.6921 38.7172 31.8761 34.5926 31.8761 29.538C31.8761 24.484 27.6926 20.3672 22.5585 20.3672ZM33.1861 22.1172C33.4932 22.2345 33.8178 22.342 34.1743 22.4382C35.7486 22.8621 37.8138 23.1027 40.1005 23.1027C42.3873 23.1027 44.4506 22.8621 46.025 22.4382C46.3791 22.3429 46.7004 22.2354 47.0051 22.1191V24.3779C46.9928 24.3891 46.9761 24.412 46.8722 24.4779C46.6187 24.6396 46.1142 24.8499 45.4602 25.0256C44.1525 25.3784 42.2322 25.6129 40.1011 25.6129C37.7531 25.6129 35.6884 25.3083 34.403 24.9097C34.075 24.0994 33.6702 23.3271 33.186 22.6097L33.1861 22.1172ZM22.5585 22.4607C26.543 22.4607 29.7473 25.6152 29.7473 29.5381C29.7473 33.4609 26.543 36.6238 22.5585 36.6238C18.5739 36.6238 15.3611 33.4609 15.3611 29.5381C15.3611 25.6152 18.5739 22.4607 22.5585 22.4607ZM21.491 23.256V24.7976C20.9798 24.9261 20.5038 25.134 20.1017 25.4354C19.431 25.9382 18.9327 26.7213 18.9327 27.6227C18.9327 28.5512 19.5573 29.3058 20.2033 29.7161C20.8497 30.1264 21.5683 30.3544 22.2674 30.5502C22.9034 30.7282 23.4739 30.9338 23.7748 31.1226C24.0762 31.3114 24.0525 31.2988 24.0492 31.4315C24.0402 31.7815 23.5342 32.3291 22.5583 32.3291C22.0704 32.3291 21.6451 32.1735 21.3892 31.9815C21.1334 31.7899 21.0589 31.6207 21.0589 31.4623H18.9325C18.9325 32.3637 19.4309 33.1469 20.1016 33.6496C20.5036 33.951 20.9792 34.1571 21.4909 34.2833V35.8207H23.6172V34.2791C25.0155 33.9282 26.1405 32.9081 26.1774 31.4866C26.2021 30.5432 25.5661 29.7633 24.913 29.3544C24.2599 28.9456 23.5423 28.7288 22.8488 28.5348C22.2185 28.3587 21.6589 28.1535 21.3579 27.9624C21.057 27.7713 21.0589 27.7545 21.0589 27.6232C21.0589 27.4648 21.1334 27.2895 21.3893 27.098C21.6451 26.9064 22.0704 26.7503 22.5583 26.7503C23.0462 26.7503 23.4653 26.9059 23.7212 27.098C23.977 27.2895 24.0491 27.4648 24.0491 27.6232H26.1774C26.1774 26.7218 25.6767 25.9386 25.0065 25.4359C24.6031 25.1331 24.1289 24.9242 23.6172 24.7962V23.257L21.491 23.256ZM47.0051 26.725V29.3992C46.9927 29.4104 46.9761 29.4333 46.8721 29.4992C46.6187 29.6609 46.1141 29.873 45.4601 30.0492C44.152 30.4011 42.2312 30.6361 40.1006 30.6361C38.2362 30.6361 36.5512 30.4483 35.2787 30.1679C35.2891 29.9576 35.3119 29.7506 35.3119 29.5385C35.3119 28.7544 35.2279 27.9913 35.0874 27.247C36.5198 27.5418 38.2177 27.7091 40.1 27.7091C42.3868 27.7091 44.4501 27.4666 46.0245 27.0428C46.3786 26.9474 46.6999 26.8418 47.0046 26.726L47.0051 26.725ZM47.0051 31.746V34.2137C46.9927 34.2249 46.9761 34.2478 46.8721 34.3137C46.6187 34.4754 46.1141 34.6856 45.4601 34.8618C44.152 35.2137 42.2312 35.4567 40.1006 35.4567C37.6538 35.4567 35.4349 35.073 34.1846 34.6758C34.5368 33.9062 34.813 33.0992 35.0029 32.2572C36.4473 32.56 38.1915 32.7296 40.101 32.7296C42.3877 32.7296 44.451 32.4889 46.0254 32.0651C46.3795 31.9698 46.7008 31.8623 47.0055 31.7464L47.0051 31.746ZM47.0051 36.5664V39.03C46.9927 39.0398 46.9766 39.0613 46.8721 39.1281C46.6187 39.2898 46.1141 39.5 45.4601 39.6762C44.152 40.0281 42.2312 40.2711 40.1006 40.2711C37.9699 40.2711 36.0472 40.0281 34.7391 39.6762C34.085 39.5 33.5805 39.2902 33.327 39.1281C33.2193 39.0594 33.1984 39.036 33.1861 39.0281V36.5707C34.8786 37.2576 37.2869 37.552 40.101 37.552C42.3878 37.552 44.4511 37.3113 46.0255 36.8875C46.3791 36.7922 46.7009 36.6842 47.0056 36.5665L47.0051 36.5664Z" fill="#FF5B14"/>
</svg>
