<svg viewBox="0 0 60 60" fill="none" xmlns="http://www.w3.org/2000/svg">
<path d="M44.7796 33.8674C44.7796 34.0662 44.7002 34.257 44.5588 34.3968C44.4177 34.5369 44.2264 34.6149 44.0277 34.6132H38.2589C38.0487 34.6326 37.8398 34.5625 37.6833 34.4197C37.5273 34.2773 37.4382 34.0759 37.4382 33.8644C37.4382 33.6528 37.5273 33.4514 37.6833 33.309C37.8398 33.1662 38.0487 33.0962 38.2589 33.1156H43.996C44.2009 33.1072 44.4006 33.1825 44.5482 33.3245C44.6963 33.4664 44.7796 33.6625 44.7796 33.8675L44.7796 33.8674ZM44.0277 39.497L38.2589 39.4974C37.8437 39.4974 37.507 39.8337 37.507 40.2493C37.507 40.6645 37.8437 41.0008 38.2589 41.0008H43.996C44.4116 41.0008 44.7479 40.6645 44.7479 40.2493C44.7479 39.8337 44.4116 39.4974 43.996 39.4974L44.0277 39.497ZM31.9528 39.497L26.184 39.4974C25.7689 39.4974 25.4321 39.8337 25.4321 40.2493C25.4321 40.6645 25.7689 41.0008 26.184 41.0008H31.9211C32.3363 41.0008 32.673 40.6645 32.673 40.2493C32.673 39.8337 32.3363 39.4974 31.9211 39.4974L31.9528 39.497ZM19.8847 39.497L14.1097 39.4974C13.6946 39.4974 13.3578 39.8337 13.3578 40.2493C13.3578 40.6645 13.6946 41.0008 14.1097 41.0008H19.8529C20.2685 41.0008 20.6048 40.6645 20.6048 40.2493C20.6048 39.8337 20.2685 39.4974 19.8529 39.4974L19.8847 39.497ZM19.8847 26.7339L14.1097 26.7343C13.8991 26.7149 13.6902 26.785 13.5341 26.9274C13.3781 27.0702 13.2891 27.2716 13.2891 27.4831C13.2891 27.6943 13.3781 27.8961 13.5341 28.0385C13.6902 28.1808 13.8991 28.2509 14.1097 28.2315H19.8529C20.2399 28.1962 20.5361 27.8714 20.5361 27.4831C20.5361 27.0944 20.2399 26.77 19.8529 26.7343L19.8847 26.7339ZM19.8847 33.1153L14.1097 33.1158C13.8991 33.0964 13.6902 33.1665 13.5341 33.3092C13.3781 33.4516 13.2891 33.653 13.2891 33.8646C13.2891 34.0761 13.3781 34.2775 13.5341 34.4199C13.6902 34.5627 13.8991 34.6328 14.1097 34.6134H19.8529C20.2399 34.5777 20.5361 34.2533 20.5361 33.8646C20.5361 33.4758 20.2399 33.1515 19.8529 33.1158L19.8847 33.1153ZM31.9528 26.7339L26.184 26.7343C25.9738 26.7149 25.7649 26.785 25.6084 26.9274C25.4524 27.0702 25.3634 27.2716 25.3634 27.4831C25.3634 27.6943 25.4524 27.8961 25.6084 28.0385C25.7649 28.1808 25.9738 28.2509 26.184 28.2315H31.9211C32.1318 28.2509 32.3407 28.1808 32.4967 28.0385C32.6532 27.8961 32.7418 27.6943 32.7418 27.4831C32.7418 27.2716 32.6532 27.0702 32.4967 26.9274C32.3407 26.785 32.1318 26.7149 31.9211 26.7343L31.9528 26.7339ZM31.9528 33.1153L26.184 33.1158C25.9738 33.0964 25.7649 33.1665 25.6084 33.3092C25.4524 33.4516 25.3634 33.653 25.3634 33.8646C25.3634 34.0761 25.4524 34.2775 25.6084 34.4199C25.7649 34.5627 25.9738 34.6328 26.184 34.6134H31.9211C32.1318 34.6328 32.3407 34.5627 32.4967 34.4199C32.6532 34.2775 32.7418 34.0761 32.7418 33.8646C32.7418 33.653 32.6532 33.4516 32.4967 33.3092C32.3407 33.1665 32.1318 33.0964 31.9211 33.1158L31.9528 33.1153ZM44.0277 26.7339L38.2589 26.7343C38.0487 26.7149 37.8398 26.785 37.6833 26.9274C37.5273 27.0702 37.4382 27.2716 37.4382 27.4831C37.4382 27.6943 37.5273 27.8961 37.6833 28.0385C37.8397 28.1808 38.0487 28.2509 38.2589 28.2315H43.996C44.2066 28.2509 44.4155 28.1808 44.5716 28.0385C44.728 27.8961 44.8171 27.6943 44.8171 27.4831C44.8171 27.2716 44.728 27.0702 44.5716 26.9274C44.4155 26.785 44.2066 26.7149 43.996 26.7343L44.0277 26.7339ZM53.3598 45.0572V45.0576C53.0235 44.8156 52.6405 44.646 52.235 44.5587C52.0164 44.5142 51.804 44.4419 51.6034 44.3436C51.4937 44.2837 51.4223 44.1717 51.4139 44.0466C51.4183 43.9672 51.4399 43.8897 51.477 43.8191C51.6056 43.66 51.8035 43.5728 52.0076 43.5856C52.1574 43.5939 52.306 43.6195 52.4501 43.6614C52.6022 43.7354 52.7674 43.7786 52.9367 43.7879C53.1601 43.7936 53.3642 43.66 53.4484 43.4529C53.4907 43.3802 53.5127 43.2969 53.5114 43.2127C53.4916 42.9919 53.3571 42.7975 53.1579 42.701C52.9146 42.5586 52.6423 42.4723 52.3615 42.448V42.05C52.3672 41.9914 52.3672 41.9319 52.3615 41.8733C52.3086 41.7085 52.1557 41.5965 51.9825 41.5965C51.8093 41.5965 51.6563 41.7085 51.6034 41.8733C51.5783 41.9443 51.5655 42.0192 51.5655 42.0945V42.4925C51.1543 42.5749 50.7775 42.7799 50.4849 43.08C50.2253 43.37 50.0812 43.746 50.0807 44.1351C50.0759 44.6094 50.3143 45.0527 50.7127 45.3106C50.8798 45.4031 51.0552 45.4789 51.2368 45.538L51.9887 45.7592V45.7588C52.194 45.7905 52.3791 45.899 52.507 46.0625C52.5497 46.1374 52.5735 46.222 52.5766 46.3088C52.5748 46.419 52.5369 46.5252 52.4691 46.6121C52.3289 46.7848 52.1081 46.8712 51.8877 46.8395C51.7207 46.8404 51.5541 46.8148 51.395 46.7637C51.1552 46.6605 50.9023 46.5922 50.6431 46.5614C50.495 46.5561 50.3518 46.6121 50.2464 46.7161C50.1411 46.8201 50.0834 46.9633 50.0869 47.111C50.0869 47.5596 50.5356 47.743 50.8895 47.869V47.8695C51.1143 47.9232 51.3421 47.9634 51.5717 47.9894V48.3939C51.5612 48.4565 51.5612 48.5204 51.5717 48.5835C51.6295 48.7461 51.7732 48.8633 51.9446 48.8867C52.1174 48.8739 52.2663 48.7598 52.3236 48.5958C52.3413 48.5213 52.3413 48.4433 52.3236 48.3684V47.9576C52.5422 47.9096 52.7547 47.8355 52.9557 47.7368C53.384 47.501 53.6886 47.0903 53.7895 46.6121C53.8138 46.4913 53.8265 46.3688 53.8274 46.2454C53.8534 45.7883 53.6696 45.3441 53.3285 45.0387L53.3598 45.0572ZM59.6151 45.2656V45.2661C59.6199 47.5204 58.6292 49.6615 56.9077 51.1164C55.1861 52.5717 52.9102 53.1922 50.6885 52.8119C48.4663 52.432 46.5261 51.0904 45.386 49.1459H8.81507C7.72469 49.1441 6.67968 48.71 5.90839 47.9392C5.13755 47.1684 4.70384 46.1229 4.70215 45.0325V16.4667C4.70391 15.3763 5.1376 14.3309 5.90839 13.5601C6.67967 12.7888 7.7247 12.355 8.81507 12.3534H14.862V10.0787C14.862 9.27748 15.2895 8.53706 15.9836 8.13641C16.6774 7.73578 17.5324 7.73578 18.2265 8.13641C18.9207 8.53704 19.3482 9.27744 19.3482 10.0787V12.3283H38.758V10.0787C38.758 9.27748 39.1855 8.53706 39.8792 8.13641C40.5734 7.73578 41.4284 7.73578 42.1226 8.13641C42.8163 8.53704 43.2438 9.27744 43.2438 10.0787V12.3283H49.2968C50.3916 12.3301 51.441 12.7673 52.2127 13.5438C52.9845 14.3199 53.4151 15.372 53.4102 16.4667V32.8945L56.6704 28.2755V28.276C56.8982 28.0027 57.2971 27.9503 57.588 28.1548C57.8784 28.3597 57.963 28.7533 57.7823 29.0592L53.2146 35.5296C53.0846 35.7068 52.8783 35.8121 52.6584 35.8139C52.438 35.8143 52.2309 35.7085 52.1022 35.5296L47.534 29.0592C47.3181 28.7542 47.3899 28.3311 47.6953 28.1147C48.0007 27.8983 48.4234 27.9705 48.6398 28.276L51.9065 32.8945V22.1534H6.19878V45.0134C6.20054 45.7058 6.47688 46.3696 6.96742 46.8587C7.45752 47.3479 8.1221 47.623 8.81453 47.623H44.6656C44.4135 46.8561 44.2857 46.054 44.2866 45.2469C44.2271 43.1804 45.0063 41.1777 46.447 39.695C47.8877 38.2123 49.8675 37.3758 51.9351 37.3758C54.0021 37.3758 55.9819 38.2123 57.4227 39.695C58.8635 41.1777 59.6427 43.1804 59.5831 45.2469L59.6151 45.2656ZM40.2617 16.0759C40.297 16.4593 40.6187 16.7529 41.0039 16.7529C41.3891 16.7529 41.7108 16.4593 41.7465 16.0759V10.0797C41.7395 9.66713 41.401 9.33702 40.988 9.34054C40.5799 9.34054 40.2489 9.67154 40.2489 10.0797L40.2617 16.0759ZM16.3467 16.0759C16.3819 16.4593 16.7037 16.7529 17.0889 16.7529C17.4741 16.7529 17.7962 16.4593 17.8315 16.0759V10.0797C17.7962 9.69622 17.4741 9.40269 17.0889 9.40269C16.7037 9.40269 16.3819 9.69622 16.3467 10.0797V16.0759ZM6.19915 20.6441H51.9069V16.4676C51.9069 15.7757 51.6319 15.1119 51.1427 14.6223C50.653 14.1331 49.9897 13.8581 49.2974 13.8581H43.2444V16.101C43.2444 16.9027 42.8169 17.6432 42.1231 18.0438C41.429 18.4444 40.574 18.4444 39.8798 18.0438C39.1861 17.6432 38.7586 16.9028 38.7586 16.101V13.8329H19.3488V16.0759C19.3488 16.8771 18.9212 17.6175 18.2271 18.0182C17.5329 18.4193 16.678 18.4193 15.9842 18.0182C15.29 17.6176 14.8625 16.8772 14.8625 16.0759V13.8329H8.81561C8.11881 13.8329 7.45062 14.111 6.95925 14.6056C6.46827 15.1005 6.19502 15.7704 6.19986 16.4677L6.19915 20.6441ZM58.0865 45.2474C58.0878 43.6148 57.4408 42.0485 56.2874 40.8933C55.134 39.7377 53.569 39.0881 51.9366 39.0872C50.3041 39.0858 48.7377 39.7333 47.583 40.8871C46.4279 42.041 45.7786 43.6065 45.7782 45.2389C45.7777 46.8713 46.4256 48.4373 47.5799 49.592C48.7342 50.7463 50.2997 51.395 51.9322 51.395C53.5629 51.3932 55.1262 50.7454 56.28 49.5928C57.4334 48.4407 58.083 46.8779 58.0866 45.2471L58.0865 45.2474Z" fill="#FF5B14"/>
</svg>
