<svg viewBox="0 0 60 60" fill="none" xmlns="http://www.w3.org/2000/svg">
<path d="M35.9099 20.8236C35.9099 21.3714 36.35 21.8162 36.8947 21.8162H46.7449C47.2896 21.8162 47.7298 21.3714 47.7298 20.8236C47.7298 20.2759 47.2896 19.8311 46.7449 19.8311H36.8947C36.35 19.8311 35.9099 20.2759 35.9099 20.8236Z" fill="#FF5B14"/>
<path d="M41.8207 26.7807C41.8207 27.3285 42.2608 27.7732 42.8056 27.7732H48.7157C49.2605 27.7732 49.7006 27.3285 49.7006 26.7807C49.7006 26.2329 49.2605 25.7881 48.7157 25.7881H42.8056C42.2608 25.7877 41.8207 26.2325 41.8207 26.7807Z" fill="#FF5B14"/>
<path d="M40.8354 15.8606C41.3802 15.8606 41.8203 15.4159 41.8203 14.8681C41.8203 14.3203 41.3802 13.8755 40.8354 13.8755H38.8652C38.3204 13.8755 37.8803 14.3203 37.8803 14.8681C37.8803 15.4159 38.3204 15.8606 38.8652 15.8606H40.8354Z" fill="#FF5B14"/>
<path d="M29.0147 25.7876C28.4699 25.7876 28.0298 26.2324 28.0298 26.7802C28.0298 27.328 28.47 27.7728 29.0147 27.7728H38.8649C39.4096 27.7728 39.8497 27.328 39.8497 26.7802C39.8497 26.2324 39.4096 25.7876 38.8649 25.7876H29.0147Z" fill="#FF5B14"/>
<path d="M33.9403 53.5835H15.2256C13.5962 53.5835 12.2704 52.2475 12.2704 50.6053V4.94033C12.2704 4.39255 11.8303 3.94775 11.2856 3.94775C8.56992 3.94775 6.36023 6.17417 6.36023 8.91156C6.36023 9.45935 6.80034 9.90414 7.34512 9.90414C7.8899 9.90414 8.33 9.45935 8.33 8.91156C8.33 7.61702 9.15335 6.51312 10.3002 6.10326V50.6051C10.3002 53.3419 12.5094 55.5689 15.2255 55.5689H33.9403C34.4851 55.5689 34.9252 55.1241 34.9252 54.5763C34.9252 54.0281 34.485 53.5833 33.9403 53.5833L33.9403 53.5835Z" fill="#FF5B14"/>
<path d="M19.1647 21.8167H32.955C33.4998 21.8167 33.9399 21.3719 33.9399 20.8241C33.9399 20.2763 33.4997 19.8315 32.955 19.8315H19.1647C18.6199 19.8315 18.1798 20.2763 18.1798 20.8241C18.1798 21.3723 18.62 21.8167 19.1647 21.8167Z" fill="#FF5B14"/>
<path d="M19.1647 15.8606H23.1047C23.6495 15.8606 24.0896 15.4159 24.0896 14.8681C24.0896 14.3203 23.6495 13.8755 23.1047 13.8755H19.1647C18.6199 13.8755 18.1798 14.3203 18.1798 14.8681C18.1798 15.4159 18.62 15.8606 19.1647 15.8606Z" fill="#FF5B14"/>
<path d="M34.9245 13.8745H27.0446C26.4999 13.8745 26.0598 14.3193 26.0598 14.8671C26.0598 15.4149 26.4999 15.8597 27.0446 15.8597H34.9245C35.4693 15.8597 35.9094 15.4149 35.9094 14.8671C35.9098 14.3193 35.4693 13.8745 34.9245 13.8745Z" fill="#FF5B14"/>
<path d="M48.7158 0H11.2853C6.40864 0 2.43909 3.9894 2.4201 8.89962V8.92246L2.42052 8.9345V8.94655C2.43329 12.1124 4.12858 15.0616 6.85213 16.6501C7.32314 16.9242 7.9248 16.7622 8.19761 16.2888C8.47124 15.8141 8.30887 15.2069 7.83909 14.9328C5.71517 13.6923 4.39449 11.3914 4.39037 8.92248C4.39738 5.0967 7.48716 1.98561 11.2854 1.98561H48.7159C52.517 1.98561 55.6109 5.10287 55.6109 8.93449V50.6284C55.6109 51.1318 55.4712 51.6372 55.2079 52.0879C54.933 52.5605 55.0888 53.1689 55.5573 53.4467C55.7148 53.5402 55.8862 53.5838 56.056 53.5838C56.3939 53.5838 56.7227 53.4089 56.9061 53.0945C57.3475 52.3391 57.5807 51.4865 57.5807 50.6285L57.5811 8.93454C57.5811 4.00774 53.6049 5.31593e-05 48.7163 5.31593e-05L48.7158 0Z" fill="#FF5B14"/>
<path d="M51.6697 45.6414C51.6697 42.3563 49.0191 39.6851 45.7596 39.6851C42.5 39.6851 39.8495 42.3563 39.8495 45.6414C39.8495 48.9264 42.5 51.5976 45.7596 51.5976C49.0191 51.5976 51.6697 48.9264 51.6697 45.6414ZM45.7599 49.6121C43.5869 49.6121 41.8199 47.8313 41.8199 45.6414C41.8199 43.4514 43.5869 41.6706 45.7599 41.6706C47.9329 41.6706 49.6999 43.4514 49.6999 45.6414C49.6999 47.8313 47.9329 49.6121 45.7599 49.6121Z" fill="#FF5B14"/>
<path d="M43.9823 52.5915C43.5125 52.3174 42.9096 52.4802 42.6368 52.9549L40.5162 56.6586L40.1795 56.1465C40.0093 55.8853 39.7266 55.7208 39.4171 55.703L38.8085 55.666L40.9646 51.9037C41.2365 51.429 41.075 50.8218 40.604 50.5477C40.133 50.2728 39.5305 50.4356 39.2572 50.9111L36.3051 56.0643C36.1349 56.3621 36.1299 56.7284 36.2911 57.0311C36.4526 57.3339 36.758 57.5316 37.0996 57.5511L38.8065 57.6541L39.7489 59.0927C39.9311 59.3718 40.2406 59.5383 40.5707 59.5383H40.6011C40.9411 59.5275 41.2531 59.3398 41.4245 59.042L44.3429 53.9474C44.6157 53.4732 44.4542 52.8651 43.9823 52.5914L43.9823 52.5915Z" fill="#FF5B14"/>
<path d="M52.289 50.9575C52.0162 50.482 51.4124 50.3192 50.9435 50.5941C50.4716 50.8682 50.3101 51.4758 50.5821 51.9501L52.7125 55.6658L52.1039 55.7028C51.7948 55.7215 51.5121 55.8864 51.3407 56.1463L51.0057 56.6584L48.8958 52.9734C48.6221 52.4987 48.0193 52.3363 47.549 52.61C47.078 52.8841 46.9169 53.4917 47.1885 53.966L50.0961 59.0419C50.2675 59.3397 50.5799 59.5274 50.9194 59.5382H50.9499C51.2788 59.5382 51.5891 59.3712 51.7725 59.0925L52.7141 57.6551L54.4201 57.5509C54.7618 57.5309 55.0671 57.3333 55.2287 57.0309C55.3902 56.7281 55.3844 56.3618 55.2151 56.0641L52.289 50.9575Z" fill="#FF5B14"/>
<path d="M19.1647 27.7728H25.0748C25.6196 27.7728 26.0597 27.328 26.0597 26.7802C26.0597 26.2324 25.6196 25.7876 25.0748 25.7876H19.1647C18.6199 25.7876 18.1798 26.2324 18.1798 26.7802C18.1798 27.328 18.62 27.7728 19.1647 27.7728Z" fill="#FF5B14"/>
<path d="M19.1647 33.7298H30.9843C31.5291 33.7298 31.9692 33.285 31.9692 32.7372C31.9692 32.1894 31.5291 31.7446 30.9843 31.7446H19.1647C18.6199 31.7446 18.1798 32.1894 18.1798 32.7372C18.1798 33.285 18.62 33.7298 19.1647 33.7298Z" fill="#FF5B14"/>
<path d="M19.2692 46.0851C19.5115 46.5756 20.1036 46.7741 20.5899 46.5299C21.0766 46.2849 21.2744 45.6881 21.0301 45.1976C20.0551 43.232 19.8363 41.469 20.4428 40.4793C20.7659 39.9523 21.3292 39.6852 22.1193 39.6852C22.589 39.6852 22.7646 39.848 22.8746 40.0071C23.6085 41.0731 22.9113 44.3204 22.1811 46.2857C22.0187 46.7235 22.1811 47.216 22.5709 47.469C22.9591 47.7202 23.4721 47.6654 23.8001 47.3361C24.2209 46.9133 24.6766 46.4913 25.0739 46.1487V46.6342C25.0739 47.0354 25.3133 47.3975 25.6817 47.5503C26.0501 47.7053 26.4725 47.6197 26.7552 47.3361C27.2052 46.8834 27.7273 46.4394 28.1666 46.12C28.1547 46.1449 28.1431 46.1686 28.1312 46.1914C27.9804 46.4992 27.9973 46.8646 28.1765 47.1562C28.357 47.4481 28.6731 47.6267 29.0139 47.6267H32.9539C33.4987 47.6267 33.9388 47.1819 33.9388 46.6341C33.9388 46.0863 33.4987 45.6416 32.9539 45.6416H30.3898C30.4698 45.1689 30.45 44.6884 30.2126 44.3014C29.9613 43.8915 29.524 43.656 29.0139 43.656C28.4053 43.656 27.689 44.0294 27.035 44.492C26.9848 44.0593 26.7305 43.7029 26.3444 43.5422C26.0815 43.433 25.7423 43.2901 24.9202 43.7873C25.2441 42.077 25.3389 40.1051 24.4937 38.8763C24.1245 38.3393 23.4132 37.7002 22.1188 37.7002C20.6431 37.7002 19.4522 38.3165 18.7661 39.4366C17.7849 41.0384 17.967 43.4613 19.2692 46.0852L19.2692 46.0851Z" fill="#FF5B14"/>
<path d="M45.7599 32.7367C45.7599 32.1889 45.3198 31.7441 44.775 31.7441H34.9249C34.3801 31.7441 33.94 32.1889 33.94 32.7367C33.94 33.2845 34.3801 33.7293 34.9249 33.7293H44.775C45.3194 33.7293 45.7599 33.2845 45.7599 32.7367Z" fill="#FF5B14"/>
</svg>
