<svg viewBox="0 0 60 60" fill="none" xmlns="http://www.w3.org/2000/svg">
<g clip-path="url(#clip0_25_388)">
<path d="M12.1177 23.7132H47.8824V29.4044H44.1177V44.5808H42.2353V27.5073H46V25.6103H14V27.5073H17.7647V44.5808H15.8824V29.4044H12.1177V23.7132ZM47.8824 44.5808V31.3014H46V44.5808H47.8824ZM12.1177 44.5808H14V31.3014H12.1177V44.5808ZM12.1177 48.375H47.8824V46.4779H12.1177V48.375ZM55.4118 33.1985H49.7647V27.5073H55.4118V33.1985ZM53.5294 29.4044H51.6471V31.3014H53.5294V29.4044ZM49.7647 35.0955H55.4118V40.7867H49.7647V35.0955ZM51.6471 38.8897H53.5294V36.9926H51.6471V38.8897ZM49.7647 42.6838H55.4118V48.375H49.7647V42.6838ZM51.6471 46.4779H53.5294V44.5808H51.6471V46.4779ZM9.29415 55.0147H11.1765V52.1691H48.8236V55.0147H50.7059V50.272H9.29415V55.0147ZM49.7647 25.6103H58.2353V53.1176H52.5883V55.0147H60.1177V23.7132H49.7647V25.6103ZM10.2353 33.1985H4.58827V27.5073H10.2353V33.1985ZM8.35297 29.4044H6.47062V31.3014H8.35297V29.4044ZM10.2353 40.7867H4.58827V35.0955H10.2353V40.7867ZM8.35297 36.9926H6.47062V38.8897H8.35297V36.9926ZM4.58827 42.6838H10.2353V48.375H4.58827V42.6838ZM6.47062 46.4779H8.35297V44.5808H6.47062V46.4779ZM1.76474 25.6103H10.2353V23.7132H-0.117615V55.0147H7.4118V53.1176H1.76474V25.6103ZM60.1177 9.48526V21.8161H46V18.4963L30 5.9757L14 18.4963V21.8161H-0.117615V9.48526H22.376L29.9995 3.50952L37.623 9.48526H60.1177ZM20.0236 11.3823H1.76474V19.9191H12.1177V17.5478L20.0236 11.3823ZM58.2353 11.3823H39.9765L47.8824 17.5478V19.9191H58.2353V11.3823ZM42.2353 17.5478V21.8161H17.7647V17.5478L30 8.25217L42.2353 17.5478ZM40.353 18.4963L30 10.6235L19.6471 18.4963V19.9191H40.353V18.4963ZM25.2941 18.022H27.1765V16.125H25.2941V18.022ZM29.0589 18.022H30.9412V16.125H29.0589V18.022ZM34.7059 16.125H32.8236V18.022H34.7059V16.125ZM25.2941 44.5808V30.3529C25.2941 29.5941 25.0118 28.8353 24.4471 28.361C23.4118 27.3176 21.5294 27.3176 20.4941 28.361C19.9294 28.8353 19.6471 29.5941 19.6471 30.3529V44.5808H21.5294V30.3529C21.5294 30.0683 21.6236 29.8786 21.8118 29.6889C22.1883 29.3095 22.753 29.3095 23.1294 29.6889C23.3177 29.8786 23.4118 30.0683 23.4118 30.3529V44.5808H25.2941ZM32.8236 44.5808V30.3529C32.8236 29.5941 32.5412 28.8353 31.9765 28.361C30.9412 27.3176 29.0589 27.3176 28.0236 28.361C27.4589 28.8353 27.1765 29.5941 27.1765 30.3529V44.5808H29.0589V30.3529C29.0589 30.0683 29.153 29.8786 29.3412 29.6889C29.7177 29.3095 30.2824 29.3095 30.6589 29.6889C30.8471 29.8786 30.9412 30.0683 30.9412 30.3529V44.5808H32.8236ZM40.353 44.5808V30.3529C40.353 29.5941 40.0706 28.8353 39.5059 28.361C38.4706 27.3176 36.5883 27.3176 35.553 28.361C34.9883 28.8353 34.7059 29.5941 34.7059 30.3529V44.5808H36.5883V30.3529C36.5883 30.0683 36.6824 29.8786 36.8706 29.6889C37.2471 29.3095 37.8118 29.3095 38.1883 29.6889C38.3765 29.8786 38.4706 30.0683 38.4706 30.3529V44.5808H40.353Z" fill="#FF5B14"/>
</g>
<defs>
<clipPath id="clip0_25_388">
<rect width="60" height="60" fill="white"/>
</clipPath>
</defs>
</svg>
