<svg viewBox="0 0 60 59" fill="none" xmlns="http://www.w3.org/2000/svg">
<path d="M59.4246 41.0243V21.3941C59.4782 21.214 59.5308 21.0334 59.5624 20.8444C59.6808 20.1381 59.6282 19.4337 59.4246 18.7952V12.9147C59.4246 6.20563 54.009 0.747803 47.3515 0.747803H44.824C38.1666 0.747803 32.7509 6.20576 32.7509 12.9147V18.829C32.5586 19.445 32.4938 20.1331 32.6131 20.8438C32.6448 21.0327 32.6974 21.2134 32.7509 21.3935V37.2907L29.9999 37.6877L25.6932 37.0673C24.4333 34.9735 22.5797 33.2443 20.3015 32.1714C19.9552 32.0094 19.5588 31.9883 19.1838 32.1125C18.7372 32.2607 18.2872 32.3884 17.8353 32.4983V30.0574C18.5697 29.6476 19.2608 29.1327 19.8983 28.5314H26.5509C26.9366 28.5314 27.2492 28.2163 27.2492 27.8276L27.2483 21.3945C27.3018 21.2143 27.3544 21.0337 27.3861 20.8447C27.5054 20.1335 27.4411 19.4454 27.2483 18.829V12.9151C27.2483 6.20609 21.8322 0.748261 15.1752 0.748261H12.6477C5.99062 0.748261 0.575101 6.20622 0.575101 12.9151V18.8284C0.382727 19.4454 0.317957 20.1336 0.437272 20.8447C0.468928 21.0337 0.521525 21.2148 0.575101 21.3949V27.8271C0.575101 28.2158 0.887761 28.5309 1.27348 28.5309H7.92554C8.56304 29.1327 9.25408 29.647 9.98854 30.0569V32.4978C9.53659 32.3878 9.08659 32.2607 8.64055 32.1125C8.26603 31.9873 7.86961 32.0089 7.52187 32.1719C3.13929 34.2358 0.307784 38.7149 0.307784 43.5833C0.307784 43.9721 0.620445 44.2872 1.00617 44.2872H9.61163V44.7186C9.61163 44.965 9.6803 45.1937 9.79134 45.3955C9.6803 45.5972 9.61163 45.8259 9.61163 46.0723V47.5049C9.61163 47.7513 9.6803 47.98 9.79134 48.1818C9.6803 48.3835 9.61163 48.6122 9.61163 48.8586V50.2913C9.61163 51.0673 10.2379 51.6984 11.0079 51.6984H12.6311V55.6064C12.6311 55.9568 12.8863 56.2537 13.2307 56.3033L29.8773 58.7015C29.9104 58.7064 29.9435 58.7083 29.9762 58.7083C29.9845 58.7083 29.9918 58.7044 30 58.7039C30.0083 58.7044 30.0156 58.7083 30.0239 58.7083C30.0565 58.7083 30.0896 58.7064 30.1228 58.7015L46.7694 56.3033C47.1132 56.2537 47.3689 55.9568 47.3689 55.6064V51.6984H48.9922C49.7622 51.6984 50.3884 51.0667 50.3884 50.2913L50.388 48.8581C50.388 48.6117 50.3193 48.383 50.2083 48.1813C50.3193 47.9795 50.388 47.7508 50.388 47.5044V46.0718C50.388 45.8254 50.3193 45.5967 50.2083 45.3949C50.3193 45.1932 50.388 44.9645 50.388 44.7181V44.2867H58.993C59.3788 44.2867 59.6914 43.9721 59.6914 43.5828C59.6914 42.7136 59.5974 41.8581 59.4241 41.0253L59.4246 41.0243ZM25.852 27.1225H21.1782C21.935 26.159 22.5828 25.0694 23.1033 23.9091C23.2709 23.9734 23.4418 24.0318 23.622 24.0623C23.7759 24.0888 23.9293 24.1015 24.0827 24.1015C24.7051 24.1015 25.3119 23.8758 25.852 23.4674L25.852 27.1225ZM26.0093 20.6088C25.8988 21.268 25.5954 21.8476 25.1551 22.2408C24.7572 22.5961 24.2946 22.7497 23.8547 22.6746C23.7744 22.6609 23.6984 22.6319 23.6224 22.6035C24.1543 21.0888 24.4723 19.4957 24.5312 17.9333C24.5707 17.9363 24.6101 17.9368 24.6495 17.9431C25.6187 18.109 26.2284 19.3047 26.0093 20.6088L26.0093 20.6088ZM1.97193 12.9143C1.97193 6.98127 6.76121 2.15457 12.6483 2.15457H15.1758C21.0628 2.15457 25.8526 6.98127 25.8526 12.9143V16.9429C25.557 16.7588 25.2375 16.616 24.884 16.5556C24.7593 16.5345 24.6351 16.5247 24.5114 16.5213C24.4646 15.8218 24.3643 15.1155 24.2021 14.3827C24.132 14.0647 23.8549 13.8374 23.532 13.832C19.7897 13.7707 16.4099 12.0229 14.4915 9.15748C14.232 8.76974 13.5935 8.76974 13.3339 9.15748C11.415 12.0229 8.0357 13.7707 4.29344 13.832C3.97056 13.8374 3.69344 14.0652 3.62331 14.3822C3.46358 15.1037 3.36227 15.8194 3.31454 16.5208C3.19036 16.5242 3.06616 16.534 2.941 16.5556C2.58744 16.616 2.26796 16.7588 1.97234 16.9429L1.97193 12.9143ZM3.17387 17.9432C3.21332 17.9363 3.25277 17.9363 3.29222 17.9333C3.35163 19.4962 3.66916 21.0888 4.20099 22.604C4.12501 22.632 4.04903 22.6614 3.96917 22.6747C3.52891 22.7488 3.06624 22.5956 2.6688 22.2408C2.22855 21.8476 1.92514 21.2685 1.81458 20.6089C1.59542 19.3047 2.20516 18.1091 3.17379 17.9432L3.17387 17.9432ZM1.97193 27.1225V23.4673C2.51202 23.8757 3.11933 24.1015 3.7412 24.1015C3.89412 24.1015 4.04849 24.0887 4.20191 24.0622C4.3821 24.0313 4.55256 23.9734 4.72008 23.9091C5.24022 25.0694 5.88843 26.1589 6.6452 27.1224L1.97193 27.1225ZM4.67676 17.3994C4.67676 16.6818 4.74299 15.9637 4.87838 15.2182C8.50369 15.0096 11.7876 13.3723 13.912 10.7316C16.0363 13.3718 19.3203 15.0096 22.9456 15.2182C23.0815 15.9643 23.1472 16.6823 23.1472 17.3994C23.1472 23.0914 19.1128 29.7076 13.912 29.7076C8.71118 29.7076 4.67681 23.0914 4.67681 17.3994H4.67676ZM16.4391 30.683V32.7714C14.7614 33.0311 13.0632 33.0311 11.3854 32.7714V30.683C12.19 30.9603 13.0345 31.1154 13.9121 31.1154C14.7902 31.1149 15.6341 30.9603 16.4393 30.683H16.4391ZM9.67799 42.8788H1.72657C1.98274 38.831 4.4319 35.1794 8.11281 33.4463C8.13375 33.4355 8.16882 33.4365 8.20242 33.4478C11.9388 34.689 15.887 34.6895 19.6214 33.4478H19.6219C19.6555 33.436 19.6906 33.437 19.711 33.4458C21.361 34.2228 22.7607 35.3875 23.8287 36.7981L13.428 35.2996C13.2264 35.2702 13.0248 35.332 12.8719 35.4645C12.7189 35.5985 12.6313 35.7924 12.6313 35.9966V41.8771H11.008C10.3793 41.8766 9.85184 42.3012 9.67797 42.8789L9.67799 42.8788ZM14.7356 44.6639H11.008V43.2843H14.7356L14.7361 44.6639H14.7356ZM14.7365 47.4503H14.7356H11.008V46.071H14.7356L14.7365 47.4503ZM11.0085 50.2902V48.8576H14.736L14.737 50.2902H11.0085ZM29.2784 57.1921L14.0281 54.9953V51.6975H14.7358C15.5057 51.6975 16.132 51.0658 16.132 50.2903V48.8577C16.132 48.6113 16.0633 48.3826 15.9523 48.1808C16.0633 47.9791 16.132 47.7504 16.132 47.504V46.0714C16.132 45.825 16.0633 45.5962 15.9523 45.3945C16.0633 45.1928 16.132 44.9641 16.132 44.7177V43.2845C16.132 42.5085 15.5057 41.8774 14.7358 41.8774H14.0281L14.0276 36.8082L29.2779 39.005L29.2784 57.1921ZM46.0884 29.7076C40.8876 29.7076 36.8532 23.0909 36.8532 17.3989C36.8532 16.8457 36.915 16.2616 37.0066 15.6555L55.1693 15.656C55.2614 16.2621 55.3227 16.8462 55.3227 17.3993C55.3227 23.0914 51.2892 29.7076 46.088 29.7076L46.0884 29.7076ZM48.6156 30.6828V32.7713C46.9378 33.0309 45.2391 33.0309 43.5614 32.7713V30.6823C44.3664 30.9597 45.2108 31.1147 46.0889 31.1147C46.9665 31.1147 47.8109 30.9601 48.6156 30.6828V30.6828ZM42.1646 30.0556V32.4969C41.7127 32.387 41.2627 32.2599 40.8166 32.1117C40.4421 31.987 40.0462 32.0081 39.6979 32.171C37.4201 33.244 35.5666 34.9731 34.3067 37.0665L34.148 37.0895V23.4666C34.6881 23.8755 35.2949 24.1008 35.9172 24.1008C36.0707 24.1008 36.2245 24.088 36.378 24.0615C36.5591 24.0306 36.7296 23.9722 36.8961 23.9074C38.0742 26.5342 39.9113 28.7969 42.1647 30.0554L42.1646 30.0556ZM50.0118 30.0556C52.2652 28.7976 54.1023 26.5345 55.2798 23.9076C55.4469 23.9723 55.6168 24.0307 55.798 24.0617C55.9519 24.0882 56.1053 24.1009 56.2587 24.1009C56.8806 24.1009 57.4875 23.8752 58.028 23.4668V37.3372C56.7676 35.1212 54.8531 33.2889 52.4766 32.1694C52.1303 32.0074 51.7319 31.9853 51.3589 32.1105C50.9128 32.2587 50.4628 32.3859 50.0109 32.4958L50.0118 30.0556ZM57.3316 22.2408C56.9342 22.5952 56.472 22.7498 56.0313 22.6747C55.9499 22.661 55.8754 22.6295 55.7994 22.6021C56.3303 21.0894 56.6478 19.4991 56.7077 17.9393C56.7477 17.9428 56.7866 17.9369 56.8266 17.9437C57.2678 18.0188 57.653 18.3178 57.9126 18.785C58.1994 19.3023 58.2963 19.9497 58.1853 20.6094C58.0748 21.2686 57.7713 21.8478 57.3316 22.2409L57.3316 22.2408ZM34.1482 12.9142C34.1482 6.9812 38.938 2.15451 44.8251 2.15451H47.3526C53.2396 2.15451 58.0294 6.9812 58.0294 12.9142V16.9399C57.7309 16.7564 57.4104 16.6155 57.0608 16.5556C56.9307 16.5335 56.8017 16.5242 56.6726 16.5213C56.6463 16.1566 56.601 15.7786 56.5416 15.3943C56.6414 15.2726 56.7091 15.1224 56.7091 14.9516V11.6244C56.7091 11.2357 56.397 10.9206 56.0108 10.9206C55.625 10.9206 55.3124 11.2357 55.3124 11.6244V14.2484H52.7399V12.1417C52.7399 11.9346 52.6474 11.753 52.5062 11.6244C52.3825 11.5115 52.2218 11.4384 52.0416 11.4384C51.8614 11.4384 51.7007 11.5115 51.577 11.6244C51.4357 11.753 51.3432 11.9346 51.3432 12.1417V14.2484L48.7713 14.2488V12.1422C48.7713 11.9351 48.6787 11.7535 48.5375 11.6249C48.4138 11.512 48.2531 11.4389 48.0729 11.4389C47.8927 11.4389 47.732 11.512 47.6083 11.6249C47.467 11.7535 47.3745 11.9351 47.3745 12.1422V14.2488H44.8021V12.1422C44.8021 11.9351 44.7095 11.7535 44.5683 11.6249C44.4446 11.512 44.2839 11.4389 44.1037 11.4389C43.9235 11.4389 43.7628 11.512 43.6391 11.6249C43.4978 11.7535 43.4053 11.9351 43.4053 12.1422V14.2488H40.8344V12.1422C40.8344 11.9351 40.7418 11.7535 40.6006 11.6249C40.4769 11.512 40.3162 11.4389 40.136 11.4389C39.9558 11.4389 39.7951 11.512 39.6714 11.6249C39.5301 11.7535 39.4376 11.9351 39.4376 12.1422V14.2488H36.8652V11.6249C36.8652 11.2362 36.553 10.9211 36.1668 10.9211C35.7811 10.9211 35.4684 11.2362 35.4684 11.6249V14.9521C35.4684 15.1224 35.5361 15.2726 35.636 15.3943C35.5766 15.7786 35.5313 16.1566 35.505 16.5217C35.3759 16.5247 35.2468 16.534 35.1168 16.5561C34.7632 16.6165 34.4433 16.7593 34.1481 16.9434L34.1482 12.9142ZM35.3502 17.9431C35.3896 17.9362 35.4291 17.9362 35.469 17.9333C35.5284 19.4951 35.846 21.0873 36.3773 22.6019C36.3013 22.6299 36.2268 22.6608 36.1455 22.6746C35.7062 22.7487 35.244 22.596 34.8451 22.2407C34.4049 21.8475 34.1015 21.2679 33.9909 20.6087C33.7717 19.3046 34.382 18.1089 35.3501 17.9431L35.3502 17.9431ZM45.9729 54.9946L30.7226 57.1914V39.0037L45.9729 36.8068V41.876H45.2643C44.4943 41.876 43.8681 42.5077 43.8681 43.2832V44.7163C43.8681 44.9627 43.9367 45.1914 44.0478 45.3932C43.9367 45.5949 43.8681 45.8236 43.8681 46.07V47.5027C43.8681 47.7491 43.9367 47.9778 44.0478 48.1795C43.9367 48.3812 43.8681 48.61 43.8681 48.8563V50.289C43.8681 51.065 44.4948 51.6961 45.2643 51.6961H45.9729V54.9946ZM48.9924 44.6633H45.2649V43.2837H48.9929L48.9924 44.6633ZM48.9934 47.4497H48.9929H45.2649V46.0705H48.9929L48.9934 47.4497ZM45.2648 50.2896V48.857H48.9929L48.9934 50.2896H45.2648ZM50.3229 42.8783C50.1491 42.3006 49.6216 41.8766 48.9929 41.8766H47.3696V35.9961C47.3696 35.7919 47.2815 35.598 47.129 35.464C46.9756 35.3315 46.7725 35.2696 46.5729 35.2991L36.1722 36.7976C37.2407 35.3869 38.6399 34.2228 40.2893 33.4463C40.3113 33.4355 40.3439 33.436 40.3794 33.4477C44.1153 34.688 48.0621 34.6885 51.7995 33.4477L51.7999 33.4473C51.8311 33.4365 51.8676 33.4355 51.8881 33.4458C55.5694 35.1794 58.0191 38.831 58.2748 42.8788L50.3229 42.8783ZM42.7864 18.814C42.7864 19.7711 42.2005 20.4925 41.4237 20.4925C40.6469 20.4925 40.0605 19.771 40.0605 18.814C40.0605 17.8569 40.6469 17.1359 41.4237 17.1359C42.2006 17.1359 42.7864 17.8574 42.7864 18.814ZM50.7539 20.4925C49.9771 20.4925 49.3912 19.771 49.3912 18.814C49.3912 17.8569 49.9771 17.1359 50.7539 17.1359C51.5307 17.1359 52.1171 17.8569 52.1171 18.814C52.1171 19.7711 51.5312 20.4925 50.7539 20.4925ZM48.6252 23.3923H43.5524C43.2631 23.3923 43.0289 23.6288 43.0289 23.9199C43.0289 25.3752 44.4013 26.559 46.0888 26.559C47.7763 26.559 49.1487 25.3752 49.1487 23.9199C49.1492 23.6283 48.9145 23.3923 48.6252 23.3923H48.6252ZM46.0888 25.5033C45.2141 25.5033 44.468 25.0621 44.1914 24.4476H47.9863C47.7096 25.0621 46.964 25.5033 46.0888 25.5033ZM10.61 18.814C10.61 19.7711 10.0241 20.4925 9.24726 20.4925C8.47047 20.4925 7.88406 19.771 7.88406 18.814C7.88406 17.8569 8.47042 17.1359 9.24726 17.1359C10.024 17.1359 10.61 17.8574 10.61 18.814ZM17.2149 18.814C17.2149 17.8569 17.8008 17.1359 18.5776 17.1359C19.3544 17.1359 19.9408 17.8569 19.9408 18.814C19.9408 19.7711 19.3544 20.4925 18.5776 20.4925C17.8007 20.4925 17.2149 19.771 17.2149 18.814ZM16.9724 23.92C16.9724 23.6284 16.7376 23.3924 16.4488 23.3924H11.376C11.0867 23.3924 10.8525 23.6289 10.8525 23.92C10.8525 25.3753 12.2254 26.5591 13.9124 26.5591C15.5999 26.5591 16.9723 25.3748 16.9723 23.92H16.9724ZM12.0145 24.4476H15.8103C15.5336 25.0621 14.787 25.5034 13.9123 25.5034C13.0376 25.5034 12.2915 25.0621 12.0144 24.4476H12.0145Z" fill="#FF5B14"/>
</svg>
