<svg viewBox="0 0 60 60" fill="none" xmlns="http://www.w3.org/2000/svg">
<path d="M50.5916 9.05131C44.9961 3.45526 37.5579 0.378662 29.6429 0.378662C17.8249 0.378662 7.15098 7.37817 2.45124 18.2213C1.86359 19.1674 1.09717 22.0745 1.09717 22.0745C0.380249 24.6438 0.0217896 27.3024 0.0217896 30.0004C0.0217896 37.9158 3.09851 45.3541 8.69396 50.9398C14.2895 56.5354 21.7277 59.6221 29.6427 59.6221C37.5578 59.6221 44.9964 56.5353 50.5915 50.9398C56.1775 45.3539 59.2637 37.9061 59.2637 30.0004C59.2646 22.085 56.1778 14.6468 50.592 9.05166L50.5916 9.05131ZM29.6429 1.87249C32.1021 1.87249 34.482 2.20115 36.752 2.79843C36.6722 3.74454 36.553 4.5706 36.5329 4.64019C35.9851 6.68144 34.9001 8.61297 33.4662 10.0766C32.3015 11.2616 31.6442 11.3509 30.5587 11.5004C30.0609 11.5701 29.4435 11.6599 28.6473 11.8689C26.7055 12.4167 24.834 13.5118 23.0219 14.5771C22.1954 15.0648 21.4088 15.5232 20.6622 15.9013C20.0149 16.23 19.0693 16.5885 18.3422 16.5885H18.3225C17.755 16.5688 17.4763 16.4491 17.2673 16.1007C17.1577 15.9114 17.1078 15.6923 17.1078 15.3838C17.1078 15.095 17.1577 14.7467 17.2173 14.3781C17.2274 14.2686 17.2471 14.159 17.2572 14.0495C17.3072 13.641 17.337 13.2432 17.337 12.8544C17.337 10.4149 16.3711 7.97582 14.7283 6.16328C19.1087 3.42534 24.2462 1.87237 29.6431 1.87237L29.6429 1.87249ZM29.6429 58.1274C14.1601 58.0976 1.54532 45.4821 1.51481 29.9994C1.51481 27.4406 1.85355 24.9113 2.53059 22.4722C2.76941 21.5361 3.82504 18.8179 3.82504 18.8179C5.93588 13.959 9.31101 9.92648 13.4631 6.99985C14.9566 8.55328 15.8425 10.6939 15.8425 12.8544C15.8425 13.1831 15.8228 13.5214 15.783 13.8601C15.7632 13.9596 15.7532 14.0691 15.733 14.1787C15.683 14.5371 15.6134 14.9456 15.6134 15.3834C15.6134 15.9609 15.733 16.4486 15.9819 16.8667C16.4201 17.6235 17.2763 18.0815 18.2619 18.0815H18.3215C19.2177 18.0714 20.233 17.7927 21.3386 17.2353C22.1449 16.8173 22.9916 16.3291 23.808 15.8515C25.5604 14.8261 27.3724 13.7608 29.045 13.3023C29.5928 13.1529 30.1003 13.0731 30.5985 13.0035C31.853 12.8343 33.038 12.6647 34.5416 11.1117C36.1546 9.45877 37.3492 7.34793 37.9767 5.02798C38.0459 4.75982 38.1252 4.11258 38.2049 3.22647C44.2983 5.18793 49.4859 9.1708 52.9907 14.3877C51.5866 14.7659 50.6112 15.8911 49.7348 16.9065L49.6651 16.9959C48.5897 18.2803 47.4744 19.5946 45.8614 20.0525C45.4434 20.1817 45.1046 20.2418 44.8259 20.2418C44.6568 20.2418 44.4972 20.212 44.3579 20.1721C44.1787 20.1221 43.9797 19.9929 43.7207 19.8237C43.5016 19.6844 43.2527 19.5249 42.9442 19.3759C42.5161 19.1669 42.0582 19.0674 41.5801 19.0674H41.5604C39.818 19.0871 38.1948 20.3417 37.7071 22.0345C37.5976 22.4127 37.5476 22.811 37.5476 23.2094C37.5577 24.8421 38.3938 26.4754 39.7979 27.5705C41.1721 28.6358 43.024 29.2234 45.2939 29.3128C45.8417 29.3325 46.4289 29.3724 46.6581 29.5718C46.8176 29.6915 46.9868 29.9802 47.1362 30.3983C47.3452 30.9759 47.4649 31.5631 47.4649 32.0411C47.4548 32.6586 47.2957 33.1064 46.9771 33.4053C46.6086 33.7638 45.9118 33.9132 45.0955 34.0723L45.0157 34.092C44.2392 34.2611 43.2633 34.4605 42.5666 35.3067C42.0587 35.9338 41.9491 36.6411 41.9592 37.1187C41.9693 37.8952 42.1884 38.662 42.3773 39.3391C42.5267 39.8768 42.666 40.3746 42.6958 40.8129C42.7059 40.9124 42.7059 41.0118 42.7059 41.1017C42.7559 42.5255 41.7502 43.7997 40.5754 45.2937C39.8286 46.2297 39.0522 47.2051 38.4847 48.3204C37.947 49.4155 37.6784 50.6206 37.6784 51.905C37.6784 53.5079 38.1065 55.0912 38.8831 56.5448C35.9847 57.5601 32.8782 58.1179 29.6425 58.1275L29.6429 58.1274ZM40.2765 56.007C39.5697 54.7423 39.1713 53.2887 39.1713 51.9049C39.1713 50.8497 39.3904 49.8636 39.8287 48.9777C40.227 48.1017 40.8939 47.2848 41.5912 46.4189C42.8559 44.8756 44.15 43.2726 44.1998 41.102C44.1998 40.9627 44.1998 40.8233 44.1897 40.684C44.1201 40.007 43.9308 39.34 43.7717 38.7523C43.5925 38.1152 43.443 37.5674 43.4531 37.1196C43.4531 36.7414 43.5329 36.4925 43.7318 36.2436C44.0105 35.8751 44.5982 35.6958 45.4045 35.5368C45.4842 35.5171 45.5736 35.4969 45.6635 35.4868C46.4203 35.3273 47.2664 35.1581 47.9834 34.5013C48.7998 33.7546 48.9593 32.7488 48.9593 32.042C48.9593 31.365 48.8099 30.638 48.5413 29.8812C48.3818 29.4728 48.153 28.8558 47.5755 28.3978C46.9085 27.8899 46.1815 27.8602 45.6039 27.8404C45.5145 27.8304 45.4348 27.8304 45.355 27.8207C43.3935 27.741 41.8305 27.2633 40.7152 26.3869C39.7095 25.62 39.0325 24.3356 39.0426 23.2108C39.0426 22.9518 39.0723 22.6832 39.142 22.4342C39.401 21.4386 40.5163 20.5622 41.5316 20.5622H41.5614C41.83 20.5622 42.0793 20.6218 42.3081 20.7217C42.4575 20.7914 42.6166 20.8909 42.7958 21.0105C43.0846 21.1998 43.443 21.4386 43.911 21.5982C44.6578 21.837 45.6135 21.6779 46.2708 21.4886C48.312 20.901 49.5464 19.4474 50.6419 18.163L50.8015 17.9641C51.837 16.7196 52.7331 15.7734 53.8484 15.7537C56.3278 19.9356 57.7612 24.8046 57.7713 30.0114C57.7507 41.7186 50.5123 51.7945 40.276 56.0061L40.2765 56.007Z" fill="#FF5B14"/>
<path d="M31.6143 26.8541C31.017 26.8642 30.4793 26.9536 29.9517 27.0434C29.4938 27.1232 29.0657 27.2029 28.6775 27.2029H28.6376C28.3387 27.2029 28.0701 27.1631 27.8212 27.0833C27.4128 26.9838 26.4772 25.9781 25.5412 24.6241C25.372 24.3949 25.2024 24.1561 25.0433 23.9172C24.3163 22.8918 23.5696 21.8266 22.783 21.1692C22.1257 20.6416 21.2397 20.0443 20.1446 20.0242C19.7165 20.0242 19.308 20.1438 18.9495 20.3629C18.4618 20.6714 18.1826 21.0899 17.964 21.4282L17.9044 21.5176C16.4109 23.8375 14.7081 26.476 14.6985 29.5527C14.6985 29.682 14.7086 29.7915 14.7086 29.9111C14.7485 30.5286 14.8479 31.1854 15.3659 31.7433C16.053 32.4006 16.8195 32.4602 17.4368 32.5102C17.7256 32.5299 17.9644 32.55 18.1437 32.6298C19.6174 32.9685 19.8264 35.7363 19.8562 36.5825L19.936 38.2451C20.0355 40.2963 20.1349 42.3371 20.2349 44.3884V44.498C20.2747 45.2649 20.3242 46.1308 20.6529 46.987C21.3102 48.6299 23.0126 49.7351 24.8747 49.7452C25.5018 49.7452 26.0794 49.6159 26.6171 49.367C27.8716 48.7596 28.688 47.5252 28.7077 46.201C28.7077 45.6436 28.5482 45.1256 28.2296 44.6874C27.9807 44.3688 27.7217 44.13 27.5127 43.9306C27.3138 43.7514 27.1542 43.602 27.1043 43.4727C27.0346 43.3334 26.9947 43.1642 26.9947 42.9547C26.9947 42.8452 27.0048 42.7255 27.0245 42.5963C27.2138 41.2619 28.1797 39.878 29.9118 38.5043C30.2506 38.2256 30.599 37.9565 30.9671 37.6778C32.1318 36.7917 33.3465 35.8755 34.2725 34.591C35.049 33.5055 35.4772 32.2413 35.4873 31.0064C35.4873 30.0305 35.1985 29.1247 34.6507 28.4175C33.6157 27.0139 32.311 26.8544 31.6143 26.8544L31.6143 26.8541ZM33.0679 33.7143C32.301 34.7796 31.1959 35.6258 30.0311 36.5124C29.6827 36.781 29.3242 37.0601 28.9759 37.3388C27.6718 38.394 25.8991 40.0571 25.5507 42.377C25.5209 42.586 25.5008 42.7753 25.5008 42.9546C25.5008 43.4125 25.5902 43.8108 25.7795 44.1593C26.0485 44.6369 26.3868 44.9358 26.6559 45.1746C26.8154 45.324 26.9447 45.4432 27.0245 45.5628C27.1537 45.7521 27.2138 45.9511 27.2138 46.2C27.2436 46.8573 26.6463 47.7232 25.9793 48.0119C25.6506 48.1715 25.2725 48.2508 24.8741 48.2508H24.8544C23.6396 48.2508 22.4351 47.4743 22.0468 46.4388C21.8079 45.8512 21.758 45.1347 21.7181 44.3179C21.5985 41.7192 21.4793 39.1106 21.3495 36.502C21.2203 34.3017 20.7821 31.9516 18.5717 31.1952C18.1436 31.0957 17.7255 31.0357 17.3968 30.9963C16.9091 30.9367 16.5507 30.8867 16.4507 30.7176C16.4507 30.7176 16.4406 30.7176 16.4406 30.7075C16.3114 30.5879 16.2215 30.2496 16.2018 29.8411C16.2018 29.7518 16.1917 29.6619 16.1917 29.5524C16.1816 27.1032 17.5857 24.7334 19.1588 22.3336C19.3977 21.9454 19.587 21.7162 19.7465 21.6268C19.8661 21.5471 19.9954 21.5173 20.1549 21.5173H20.1746C20.5927 21.5173 21.2697 21.8459 21.8372 22.3236C22.4249 22.7916 23.2413 23.9467 24.0177 25.0615C24.1273 25.2009 24.2268 25.3503 24.3262 25.4896L24.5353 25.7784C25.4016 26.9634 26.2281 28.0686 27.353 28.4966C27.7513 28.6259 28.1694 28.6956 28.6374 28.6956C29.2548 28.6855 29.8324 28.586 30.3398 28.4966C30.7877 28.427 31.1961 28.3472 31.5647 28.3472H31.6147C32.3417 28.377 32.8294 28.5264 33.4665 29.3231L33.4766 29.3332C33.8153 29.7911 33.9946 30.349 33.9946 31.0059C33.9937 31.9025 33.6453 32.9082 33.0677 33.7145L33.0679 33.7143Z" fill="#FF5B14"/>
</svg>
