<svg xmlns="http://www.w3.org/2000/svg" xmlns:xlink="http://www.w3.org/1999/xlink"><symbol id="book" viewBox="0 0 607.8 741.8"><g data-name="&#x421;&#x43B;&#x43E;&#x439; 2"><path d="M0 372.12v-217c0-3.67.25-7.35.61-11a11.76 11.76 0 011.48-3.7c.34-.71 1.09-1.26 1.29-2 1-3.49 3.05-6.19 5.37-8.89a45.07 45.07 0 018.59-7.86c.06 0 .16 0 .21-.11 2.87-3.28 7.28-4.15 10.62-6.73a12.64 12.64 0 013.5-1.33c1.34-.48 2.93-.65 4-1.49a12.91 12.91 0 016-2.76 13.14 13.14 0 005.32-2.5c1.48-1.06 3.57-1.25 5.36-1.9a9.13 9.13 0 003.22-1.52c1.86-1.78 4.23-2.09 6.49-2.79a31.05 31.05 0 003.25-1.42c1.79-.79 3.57-1.61 5.37-2.37 1.16-.49 2.39-.85 3.55-1.35q3-1.33 6-2.78c1.7-.83 3.36-1.75 5.06-2.57a36.24 36.24 0 013.45-1.49c1.49-.53 3.25-.63 4.47-1.51a24 24 0 017.37-3.14 24.83 24.83 0 004.19-2.16 7.52 7.52 0 011.66-.91c3-.67 5.77-1.53 8.16-3.72 1-1 3-.88 4.49-1.45 1.75-.68 3.42-1.58 5.14-2.35 1.22-.54 2.45-1 3.69-1.54 1.54-.6 3.12-1.12 4.64-1.77 1.81-.77 3.53-1.8 5.38-2.41 2-.65 3.91-1.23 5.43-2.84a4.76 4.76 0 012.75-1.13 10.62 10.62 0 006.5-2.69 9.31 9.31 0 012.74-1.26c2.33-1 4.62-2.07 7-2.92a128 128 0 0012.72-5.68 75.38 75.38 0 017.29-3c4.17-1.52 8-3.7 12.21-5.1a30.56 30.56 0 005.65-2.43c2.24-1.28 4.87-1.9 7.32-2.82a5.28 5.28 0 002.12-1c1.61-1.84 3.81-2.14 5.95-2.78a48.6 48.6 0 004.69-2.2c1.88-.78 3.83-1.43 5.75-2.14a6.68 6.68 0 002.18-.9 11.73 11.73 0 015.54-2.63 13.9 13.9 0 005.93-3 6.4 6.4 0 013.3-1.17 11.49 11.49 0 005.68-2.29 25.15 25.15 0 014.5-2l5-2.17a25.2 25.2 0 014.12-1.7A12.81 12.81 0 00268 11a7.59 7.59 0 013.39-1.49 17.37 17.37 0 007-3c1.54-1.09 3.7-1.29 5.56-1.93a6.73 6.73 0 002.59-1.14c2.16-2.19 4.93-2.42 7.69-2.77a37.69 37.69 0 015.42-.67c2.05.05 4.08.69 6.14.83 3.94.26 6.68 3 9 5.37a19.74 19.74 0 015.71 11.44 93.76 93.76 0 01.73 12.15c.06 12.16 0 24.32 0 36.48 0 1.65-.17 3.2-1.45 4.41-.9.84-1.52 2.2-3.14 1.62-1.84-.66-3.68-1.37-4-3.66a23 23 0 01-.11-3.11V26.88c0-3.47-.05-6.91-2.83-9.59a4.14 4.14 0 01-.62-1.53c-1.21-3.21-7.56-6.91-10.94-6.36a2.15 2.15 0 00-.92.27c-2 1.41-4.35 1.83-6.67 2.47-1.77.5-3.31 1.8-5 2.55s-3.45 1.16-5.16 1.79a9.13 9.13 0 00-3.2 1.47c-1.56 1.49-3.43 1.92-5.36 2.45a11.37 11.37 0 00-4.16 1.69c-1.91 1.54-4.09 2.05-6.32 2.67a19.78 19.78 0 00-3 1.35c-1.72.79-3.42 1.59-5.14 2.37s-3.5 1.52-5.21 2.28l-4.75 2.06c-1.72.76-3.45 1.52-5.15 2.32-.65.31-1.21 1-1.85 1.07-5.23.45-9 4.63-14.14 5.39a4.24 4.24 0 00-2.36 1.09c-1.89 2-4.32 2.53-6.86 3.05-1.34.27-2.53 1.24-3.82 1.84-1.49.7-3 1.35-4.53 2s-3.18 1.34-4.78 2a34 34 0 01-4.56 1.89 12.35 12.35 0 00-5.69 2.86 5.4 5.4 0 01-3.12 1.39 11.1 11.1 0 00-6.52 2.66 7.65 7.65 0 01-3 1.28 20.64 20.64 0 00-6.77 2.84 14.88 14.88 0 01-5.1 1.88 8 8 0 00-4.3 2.36 5.6 5.6 0 01-3.06 1.49 13.38 13.38 0 00-6 2.17c-1.56 1.11-3.61 1.52-5.45 2.23-1.33.52-2.91.72-3.95 1.59a13.14 13.14 0 01-5.56 2.55c-1.63.41-3.08 1.55-4.65 2.27a25.74 25.74 0 01-3.76 1.48 19.65 19.65 0 00-6.43 3c-1.57 1.15-3.84 1.35-5.78 2a5.69 5.69 0 00-2.32 1.1c-1.57 1.76-3.69 2.07-5.76 2.68a46.44 46.44 0 00-4.77 2.07c-1.9.79-3.85 1.45-5.73 2.28a16.57 16.57 0 00-3.91 2.12 6.51 6.51 0 01-4.29 1.8 8.66 8.66 0 00-5.42 2.23 14.82 14.82 0 01-3.38 1.61c-2 .87-4.06 1.7-6.1 2.54-1.46.6-2.9 1.27-4.39 1.76-2.11.68-4.33 1-5.81 3a3.75 3.75 0 01-2.1.9c-2.81.59-5.58 1.07-7.88 3.17-1 .88-2.69.87-4 1.43-1.8.77-3.5 1.78-5.3 2.55s-3.46 1.14-5.13 1.86a16.69 16.69 0 00-4.11 2.24 6.05 6.05 0 01-3.82 1.69 4.22 4.22 0 00-2.27.58c-3.15 2.28-6.05 4.92-9.34 7-3.52 2.19-5.22 5.73-7.38 8.9-1 1.43-1.18 3.39-1.68 5.13-.45 1.59-.81 3.2-1.22 4.79a17.62 17.62 0 00-.77 3.21c-.12 2.47-.07 4.95-.07 7.43v422.44c0 4 .18 8 1.67 11.77a6.75 6.75 0 01.27 2.12c.11 3 .72 5.77 3.09 8 1.34 1.28 2.11 3.13 3.21 4.67 2.48 3.5 6.28 5.56 9.28 8.41 2.56 2.43 6.12 3.13 8.3 5.89a3.83 3.83 0 001.68.86 18.34 18.34 0 015.63 3c1.25 1 3.22 1.2 4.86 1.77a9.79 9.79 0 013.07 1.16c2.47 2.08 5.43 2.58 8.43 3.12a11.87 11.87 0 014.1 1.18c3.26 2 6.82 2.39 10.5 2.81a98 98 0 019.75 2.1 48.09 48.09 0 007.7 1.52q12 .52 24 .55c5.43 0 10.88-.16 16.3-.54a40.52 40.52 0 007.19-1.62c2.38-.61 4.71-1.43 7.11-2 2.16-.51 4.39-.75 6.57-1.18a3 3 0 001.69-.8c1.64-2.08 4-2.27 6.28-2.38a12.28 12.28 0 008.69-4 6.11 6.11 0 002.08-4.86c-.1-1.27 0-2.56 0-3.84V245.63a121.1 121.1 0 011-12.87 10 10 0 011.26-3.06c.82-1.71 1.7-3.38 2.54-5.08a7 7 0 01.7-1.51c1.87-2.15 3.72-4.31 5.7-6.34s4.08-3.92 6.18-5.8a17.11 17.11 0 012.35-1.56c1.34-.85 2.65-1.75 4-2.49s3.14-1.47 4.72-2.17a8.23 8.23 0 002.37-1c1.9-1.78 4.23-2.41 6.65-3.08 1.63-.46 3.08-1.55 4.67-2.25s3.13-1.1 4.63-1.79c1.71-.79 3.33-1.76 5-2.6a8.83 8.83 0 013-1.25 11.81 11.81 0 006.32-2.55c1.21-.91 2.92-1.15 4.37-1.76 1.67-.69 3.3-1.47 4.95-2.2l4.12-1.75c1.59-.68 3.47-1 4.7-2.13a9.57 9.57 0 015.57-2.46 11.36 11.36 0 005.22-2.18c.47-.3.9-.9 1.37-.93 5.28-.31 9.05-4.6 14.16-5.36a4.71 4.71 0 002.21-.88c2.3-1.86 5.05-2.62 7.78-3.48a26.34 26.34 0 003.13-1.68c1.49-.71 3-1.32 4.55-2 1.8-.8 3.56-1.67 5.38-2.4s3.89-1.32 5.78-2.11c1.22-.51 2.3-1.37 3.52-1.9 1.81-.77 3.73-1.3 5.51-2.11s3.15-1.78 4.76-2.61a10.89 10.89 0 012.63-1c2.51-.54 4.88-1.15 7-2.94 1.17-1 3.08-1.14 4.64-1.71 1.25-.47 2.5-1 3.72-1.52a36.62 36.62 0 014.9-2.26 16.19 16.19 0 006.21-2.95 6.63 6.63 0 013.2-1.36 13 13 0 006.5-2.71c1.52-1.11 3.67-1.31 5.49-2 1.23-.5 2.33-1.32 3.55-1.83 1.81-.77 3.68-1.38 5.52-2.08 1-.39 2.37-.54 3-1.28 1.74-2 4.13-2.22 6.38-3 1.48-.49 2.84-1.32 4.28-2s3.2-1.34 4.78-2 3.43-1.55 5.16-2.3a19.09 19.09 0 013.72-1.45 11.55 11.55 0 005.72-2.8 5.59 5.59 0 013.1-1.51 10.12 10.12 0 006-2.09c2.11-1.72 4.6-2.12 7-2.73a6.45 6.45 0 003.53-2.57c2.27-2.74 2.56-5.81 2.49-9.17-.13-7.12.19-14.25-.13-21.36-.16-3.52-1.31-7-2-10.49a.6.6 0 00-.09-.22c-2.92-2.85-5.56-6.22-10.18-6.23a4.86 4.86 0 00-2.93.76c-2.38 2-5.38 2.19-8.15 3.06a3.85 3.85 0 00-1.71.78c-1.83 2.09-4.38 2.46-6.85 3.09a6.19 6.19 0 00-2.83 1.19c-1.69 1.73-3.79 2.26-6 2.65a10.21 10.21 0 00-5.11 2.74 6.58 6.58 0 01-3.6 1.49 11.25 11.25 0 00-5.67 2.28 11.32 11.32 0 01-3.84 1.74 14.21 14.21 0 00-5.85 2.59 12.89 12.89 0 01-3.7 1.54c-1.41.53-2.86 1-4.25 1.54q-3.17 1.33-6.26 2.83c-2 1-3.88 2.12-5.88 3-1.29.59-2.73.81-4 1.33-1.6.63-3.12 1.45-4.71 2.1-1.88.77-3.82 1.44-5.71 2.19-1 .41-2 .91-3.05 1.36-1.94.86-3.87 1.73-5.83 2.56-.95.41-2.13.5-2.86 1.14a13.78 13.78 0 01-7 3.21c-1.62.28-3.05 1.57-4.61 2.33-1.12.55-2.31 1-3.47 1.46-1.87.78-3.73 1.62-5.62 2.36-2.12.84-4.27 1.58-6.4 2.41a6.47 6.47 0 00-2.52 1.24 8.91 8.91 0 01-5.53 2.57 12.92 12.92 0 00-5.59 2.54c-1.34 1-3.23 1.19-4.84 1.82-1.4.55-2.75 1.2-4.12 1.8a37.88 37.88 0 01-4.76 2 11.42 11.42 0 00-5.26 2.64 5.88 5.88 0 01-3.14 1.44 14.64 14.64 0 00-7.19 3 6.57 6.57 0 01-2.83 1.11 14.79 14.79 0 00-6.28 2.66c-1.56 1.16-3.79 1.44-5.72 2.12a5.46 5.46 0 00-2 .79c-1.76 1.68-4 2.25-6.18 3-1.83.67-3.49 1.79-5.29 2.58-1.52.67-3.13 1.11-4.68 1.72-1.31.52-2.57 1.13-3.86 1.69-1.73.74-3.45 1.51-5.19 2.21-1.39.56-2.84 1-4.23 1.57-2.19.9-4.37 1.83-6.52 2.82a14.51 14.51 0 00-3.51 1.91 8.13 8.13 0 01-4.47 2 10.72 10.72 0 00-4.68 1.65 23.27 23.27 0 01-6.25 2.82 39.42 39.42 0 00-4.86 2.44 14.77 14.77 0 01-2.14 1c-1.29.41-2.92.33-3.88 1.12-3.92 3.2-9.21 3.28-13.28 6.12a9.8 9.8 0 01-4.49 1.44c-4.18.43-8.19 1.22-11.87 3.41a7.52 7.52 0 01-3.64.93q-14.64.1-29.28 0c-3.84 0-7.68-.11-11.5-.46-1.51-.14-2.9-1.27-4.42-1.6-4-.84-8-1.45-12-2.24-1.61-.32-3.41-.53-4.69-1.41-3.12-2.14-6.78-2.2-10.17-3.27a14 14 0 01-2.51-1.26c-1.17-.66-2.25-1.79-3.47-2-3.93-.54-6.5-3.57-9.91-5.06-1.62-.71-2.81-2.5-4.06-3.91a2.05 2.05 0 01-.22-1.74 7 7 0 017-4.33 4.37 4.37 0 012.52 1.13 11.15 11.15 0 004.88 2.9 6.48 6.48 0 012.47 1.36c1.74 1.78 3.94 2.25 6.23 2.73a10.56 10.56 0 013.42 1.54 13.33 13.33 0 007.38 2.5 16.13 16.13 0 017.69 1.91 26.84 26.84 0 009.94 2.26c5.49.38 11 .14 16.53.25 1.33 0 2.66.4 4 .55a8.28 8.28 0 003.08.14c4.08-1.21 8.25-.6 12.38-.82 3.9-.2 7.79-.59 11.67-1a11.13 11.13 0 002.46-.87 49.7 49.7 0 016.47-2.27 10.81 10.81 0 005.33-2.43 10.74 10.74 0 013.37-1.56c2.07-.78 4.19-1.43 6.25-2.25a43.87 43.87 0 014.49-2 20 20 0 006-2.85c1.57-1.07 3.75-1.21 5.6-1.93 1.15-.45 2.16-1.25 3.28-1.81a15.67 15.67 0 014.24-1.94 13.43 13.43 0 005.46-2.22 12.86 12.86 0 014.09-1.77 14.21 14.21 0 005.85-2.53 9.6 9.6 0 013.9-1.62 11.62 11.62 0 005.92-2.91 5.68 5.68 0 012.77-1.13 16.39 16.39 0 006.37-2.56c1.5-1 3.49-1.39 5.24-2.12 1.59-.66 3.13-1.45 4.72-2.11 1.9-.79 3.84-1.44 5.73-2.25 1.3-.56 2.5-1.35 3.8-1.92 1.66-.73 3.4-1.28 5.06-2s3.12-1.52 4.68-2.26c1.14-.54 2.27-1.07 3.43-1.56 2-.87 4.08-1.7 6.13-2.54 1.45-.6 2.9-1.22 4.36-1.78s3-.65 4-1.49a17.21 17.21 0 016.21-2.85c1.63-.47 3.05-1.63 4.6-2.39 1.21-.58 2.5-1 3.73-1.51 2.16-1 4.28-2 6.47-2.92 1.75-.71 3.6-1.19 5.4-1.8.75-.25 1.7-.36 2.16-.89 1.66-1.93 4.05-2.07 6.18-2.88a17.94 17.94 0 004-1.88 14.29 14.29 0 015.64-2.43c1.58-.32 3-1.33 4.53-2s3.17-1.35 4.78-2c1.19-.46 2.69-.5 3.56-1.28a14.15 14.15 0 016.87-3.08 8.26 8.26 0 004.7-2.62 5.57 5.57 0 012.79-1.18c2.65-.61 5.19-1.23 7.42-3.08 1.19-1 3.11-1.08 4.67-1.66 1.25-.48 2.44-1.1 3.67-1.64 1.65-.74 3.32-1.44 5-2.2a20.78 20.78 0 004.8-2.42 6.44 6.44 0 014.25-1.86 9.59 9.59 0 005.9-2.31 14.09 14.09 0 013.62-1.6c1.26-.46 2.84-.48 3.79-1.28 2.45-2 5.39-2.65 8.29-3.47a4 4 0 001.76-.7c2.12-2.26 5.05-2.59 7.76-3.48a5.65 5.65 0 002.29-1.2c1.91-2 4.43-2.37 6.94-2.81 1.73-.3 3.43-.74 5.16-.94 4.48-.51 8.7.84 12.87 2.17.95.3 1.52 1.69 2.47 2.15 3.87 1.89 4.47 6.23 7 9.12.82.93 1 2.69 1 4.09.13 7.75.05 15.52.2 23.27a40.57 40.57 0 001 7.09c.39 1.91 2.89 2.87 4.95 1.57a17.1 17.1 0 017.51-2.8 1.74 1.74 0 00.87-.4c2.82-2.39 6.34-3.17 9.73-4.27a15.25 15.25 0 003-1.88 5.91 5.91 0 012.24-1.22c2.61-.22 5.23-.25 7.85-.24a5.64 5.64 0 014 2 11.16 11.16 0 003.21 2c2.4 1.07 4.53 2.37 5.75 4.83a3.8 3.8 0 001 1.31c2.71 2 3 5.08 3.56 8.07 1.94 10.32.61 20.73.94 31.1.17 5 .12 10.08 0 15.12a42.87 42.87 0 01-.89 6.83c-.37 1.91-1.45 2.45-4 2.36-2.27-.08-3.34-.83-3.57-2.75a40.53 40.53 0 01-.17-4.55c0-13.28.06-26.56-.05-39.84 0-6.11-3.41-10.59-7.85-14.4a1.91 1.91 0 00-.41-.26c-2.71-1.45-10.65-.57-13.18 1.28a12 12 0 01-4 1.91 13.11 13.11 0 00-5.73 2.81 10.45 10.45 0 01-3.36 1.55c-1.93.7-4.07 1-5.78 2a16.74 16.74 0 01-5.14 2.35 5 5 0 00-2.38 1c-1.95 1.91-4.39 2.46-6.92 2.94a12.23 12.23 0 00-5.74 2.78 9.68 9.68 0 01-4.6 1.72 9.68 9.68 0 00-4.32 1.81 22.34 22.34 0 01-4.47 2.1c-1.66.71-3.35 1.34-5 2s-3 1.33-4.53 2c-1.86.83-3.7 1.72-5.6 2.49-2.21.89-4.46 1.67-6.69 2.52a4.75 4.75 0 00-1.92.9c-1.78 2.06-4.38 2.11-6.65 3-1.45.56-2.82 1.33-4.22 2a13.45 13.45 0 01-2.54 1.28c-2.8.67-5.51 1.3-7.82 3.33-1.09 1-3 1.06-4.46 1.53-.38.11-.91 0-1.16.28-3.81 3.6-9.53 3.21-13.53 6.52-1.08.89-2.85.9-4.26 1.44s-2.86 1.29-4.3 1.93-2.87 1.25-4.3 1.9c-1.72.78-3.64 1.31-5.07 2.45-1.9 1.51-4.13 1.61-6.22 2.29-1.05.35-2.36.48-3.07 1.18-1.7 1.7-3.77 2.2-6 2.77-1.49.39-2.79 1.43-4.23 2-1.88.8-3.85 1.41-5.73 2.22-1.36.59-2.62 1.41-3.95 2.07a18.78 18.78 0 01-4 1.75 14.5 14.5 0 00-6.13 2.47c-1.2.93-2.9 1.19-4.35 1.81-1.73.74-3.42 1.6-5.17 2.31-2.19.89-4.43 1.66-6.64 2.52a5.38 5.38 0 00-2.09 1.07c-1.42 1.64-3.31 2-5.26 2.55a54.48 54.48 0 00-5.63 2.45c-1.9.77-3.86 1.39-5.79 2.1a6.38 6.38 0 00-2.37 1c-1.79 1.87-4.22 2.09-6.44 2.9a37 37 0 00-4.34 2.32c-1 .53-2.05 1.36-3.12 1.42a11.17 11.17 0 00-6.2 2.29 9.7 9.7 0 01-5.45 2.21 5.43 5.43 0 00-3.52 1.29c-2.13 2.4-5.11 2.38-7.75 3.34-.6.22-1.36.3-1.74.71-1.75 1.9-4.17 2.28-6.42 3a2.22 2.22 0 00-.46.12q-5.27 3.15-10.5 6.32c-.33.2-.53.71-.86.8-2.88.82-4.66 3.29-6.23 5.3-2.32 3-5.39 5.64-5.88 9.89-.31 2.66-1.45 5.21-2.08 7.85a20.24 20.24 0 00-.64 4.71v213.86q.1 106.08.4 212.16c0 2.63.32 5.26.52 7.89a2.65 2.65 0 00.35 1.38c1.73 2.34 1.59 5.13 1.92 7.8a4.61 4.61 0 00.38 1.86 74.92 74.92 0 005.48 8c1.84 2.14 4.73 3.49 6.23 5.8 2.17 3.33 6.41 3.58 8.56 6.65 3.36.77 5.63 3.58 8.71 4.73a27.25 27.25 0 016.8 3.25c1.24.9 3.17.81 4.77 1.24 1.35.35 3 .44 4 1.29 2.92 2.6 6.52 2.87 10 3.38a35 35 0 016.83 1.92 44.33 44.33 0 0010 1.9c3.49.39 7 .26 10.53.56a50.49 50.49 0 015.35 1.14c1.63.32 3.28.57 4.92.79 2.13.28 4.25.56 6.39.74a34.76 34.76 0 003.82 0c.31 0 .62-.26.92-.24 6.68.32 12.82-2.84 19.53-2.75 4.8.06 9.65-.38 14.14-2.94 2.25-1.29 5.19-1.33 7.79-2a5.77 5.77 0 002.52-1.22c1.71-1.67 3.83-2.14 6-2.62a10.53 10.53 0 004.18-1.6 12.1 12.1 0 015.36-2.42c1.5-.31 2.87-1.29 4.32-1.91 1.74-.75 3.54-1.38 5.26-2.18s3.17-1.7 4.76-2.53a11.33 11.33 0 013-1.33c2.55-.45 4.95-1 6.92-2.91a5.55 5.55 0 012.81-1.11 18.37 18.37 0 007.17-3.12c1.55-1.07 3.72-1.23 5.55-1.95 1.15-.46 2.17-1.26 3.3-1.79 1.54-.74 3.13-1.39 4.71-2s3.21-1.27 4.79-2c1.43-.63 2.81-1.34 4.23-2 1.87-.84 3.74-1.67 5.63-2.47 1.45-.61 3-1.1 4.41-1.75 1.64-.75 3.21-1.63 4.83-2.41a12.48 12.48 0 013.37-1.46 13 13 0 006.78-2.71c.43-.36.89-.89 1.37-.94 5.29-.53 9.17-4.73 14.37-5.48a5.38 5.38 0 002.57-1.19c1.86-1.54 4.08-2.08 6.31-2.72a8.32 8.32 0 003.4-1.62c1.68-1.6 3.71-2 5.81-2.59a30.86 30.86 0 004.49-2c1.35-.62 2.69-1.28 4.08-1.81s2.88-.44 3.81-1.25c2.42-2.12 5.44-2.56 8.28-3.55.45-.16 1-.2 1.32-.52 2.25-2.64 5.5-3 8.54-3.78a3.45 3.45 0 001.71-.8c1.91-2.15 4.65-2.28 7.1-3.1a6.56 6.56 0 002.58-1.17c1.58-1.55 3.59-2 5.57-2.57s4.06-1.14 5.63-2.9c.68-.78 2.13-1 3.28-1.2a12.75 12.75 0 006.92-3 8.26 8.26 0 012.81-1.17c1.64-.59 3.54-.81 4.88-1.8a16.57 16.57 0 016.54-2.73c.78-.18 1.8-.27 2.22-.79 1.85-2.34 4.44-2.77 7.11-3.4 1.7-.39 3.17-1.72 4.82-2.44s3.43-1.18 5.14-1.82a8.19 8.19 0 003-1.37c1.54-1.51 3.43-1.88 5.36-2.43a42.74 42.74 0 005-2.11c1.68-.73 3.36-1.44 5-2.15.14-.06.33 0 .47-.1a81.9 81.9 0 0112.31-5.31 12.81 12.81 0 005.51-4.06c1.25-1.5 1.81-3.65 2.43-5.59 1.48-4.65 1.07-9.47 1.07-14.25v-415a54.1 54.1 0 010-6.24c.49-4.31-.89-8.32-2.4-12.08a8.48 8.48 0 00-7.42-5.64c-3.28-.21-6.55-.41-9.66.93-.86.38-1.61 1-2.46 1.43-1.5.71-3 1.32-4.56 2-1.73.76-3.43 1.57-5.18 2.27-2 .82-4.15 1.5-6.18 2.35-1.09.44-2 1.2-3.12 1.66-2 .83-4 1.48-5.92 2.34-1.44.64-2.76 1.52-4.16 2.25a12 12 0 01-2.78 1.23c-2.58.58-5 1.16-7.18 3-1.17 1-3.08 1.14-4.65 1.7-1.18.43-2.58.65-3.48 1.43-1.67 1.43-3.63 1.87-5.59 2.53a51.8 51.8 0 00-4.73 2.2 28.55 28.55 0 01-4.77 2c-2.12.53-4.13 1-5.8 2.61a6 6 0 01-2.73 1.27 17.77 17.77 0 00-6.76 2.85c-1.41 1-3.37 1.28-5.08 1.88-.82.29-2 .35-2.4.93-1.94 2.66-5 2.5-7.65 3.43-1.18.42-2.26 1.12-3.41 1.64-1.72.78-3.45 1.52-5.19 2.25-1.16.48-2.59.65-3.46 1.43a10.49 10.49 0 01-5.63 2.44 9.8 9.8 0 00-5.62 2.93 5.3 5.3 0 01-3.14 1.3 9.85 9.85 0 00-6.06 2.5 7.94 7.94 0 01-3.16 1.44c-2.24.57-4.57.83-6.26 2.68a1 1 0 01-.39.27 85.25 85.25 0 00-12.28 5.06c-2.49 1.16-5.29 1.53-7.51 3.47-.94.83-2.49.93-3.74 1.42-1.68.65-3.34 1.34-5 2.05-1.36.59-2.68 1.3-4.06 1.85-1.18.47-2.59.55-3.59 1.25-2.82 2-6.06 2.79-9.22 3.87-.45.15-1.08.18-1.33.49-2 2.58-5.17 2.57-7.91 3.5-.38.12-.88.15-1.11.41-2.14 2.36-5.08 2.85-7.94 3.54a4.21 4.21 0 00-2 .82 10.87 10.87 0 01-6.15 2.88 11.14 11.14 0 00-5.21 2.73c-1 .88-2.59 1.08-3.93 1.57-1.69.63-3.4 1.2-5.08 1.86-2 .78-3.92 1.63-5.88 2.46-1.08.46-2.16.94-3.22 1.44a49.13 49.13 0 01-5.12 2.36c-2.07.67-4.12 1.16-5.66 2.89a3.74 3.74 0 01-2.05 1c-3 .51-5.93 1.2-8.27 3.44a4.82 4.82 0 01-2.4.88c-2.89.54-5.89.73-8.14 3a3.22 3.22 0 01-1.73.73c-2.44.37-4.89.7-7.34 1-3.88.41-7.77.67-11.64 1.15-3.53.45-7.05 1.11-10.57 1.66a5.77 5.77 0 01-1.43.09c-3.16-.34-6.33-.64-9.48-1.1-3-.43-5.91-1.23-8.9-1.56-4.52-.49-9.06-.69-13.59-1.08a6.93 6.93 0 01-3.19-.78c-3.17-2.21-6.84-2.53-10.46-3.13a7.2 7.2 0 01-3.36-1.06c-2.54-2.14-5.6-2.57-8.65-3.18a3.8 3.8 0 01-1.91-.81 13.89 13.89 0 00-5.84-3.59 15.79 15.79 0 01-3.3-2.22 21.1 21.1 0 00-3-1.91c-1.7-.74-1.69-2.1-1.7-3.59s1-2.09 2.17-2.51c4.36-1.59 8.37-1.24 11.77 2.27a4.2 4.2 0 001.34 1c4.32 1.73 8.59 3.67 13 5 2.6.78 5 1.9 7.53 2.75a21.59 21.59 0 0010.06 1.33 7.63 7.63 0 014.59.77c4.53 2.59 9.5 2.79 14.41 2.86 7.83.1 15.67-.1 23.49-.51 2.19-.11 4.31-1.4 6.48-2.09a21.08 21.08 0 013.21-.76c1.41-.2 2.86-.2 4.28-.39a12 12 0 007.28-3.13c.85-.82 2.51-.79 3.79-1.18 1.5-.46 3.26-.6 4.43-1.5a17.29 17.29 0 016-2.69 38.77 38.77 0 004.67-2.2c1.44-.65 2.93-1.18 4.4-1.76 1.24-.49 2.52-.92 3.74-1.48a35.38 35.38 0 013.55-1.86c3-1 5.77-2.69 8.63-3.87 3.7-1.53 7.4-3.08 11.08-4.71 2.73-1.21 5.54-2.25 8.29-3.45 3.83-1.67 7.55-3.61 11.4-5.16 2.79-1.11 5.73-1.71 8.18-3.64.69-.55 1.82-.5 2.69-.86 1.75-.7 3.46-1.5 5.18-2.27a18.89 18.89 0 013.44-1.5 14.46 14.46 0 007.05-3.35 3.82 3.82 0 012.11-1 14.4 14.4 0 007.41-3c1.37-1 3.39-1.21 5.11-1.8a7.88 7.88 0 002.83-1.15c1.68-1.55 3.73-2 5.78-2.71a36.59 36.59 0 004.83-2.46c1.26-.63 2.54-1.67 3.84-1.71 2.59-.09 4.51-1.37 6.58-2.59a25.33 25.33 0 013.69-1.47c1.54-.6 3.1-1.16 4.62-1.81s3.28-1.53 4.92-2.3 3.39-1.65 5.12-2.41a39.73 39.73 0 014.21-1.62 18.13 18.13 0 005.58-2.54c1.61-1.15 3.79-1.51 5.72-2.22a7.25 7.25 0 002.42-.91c1.95-1.86 4.41-2.41 6.85-3.17 1.63-.51 3.06-1.63 4.64-2.32s3.3-1.1 4.9-1.79 2.93-1.52 4.41-2.26c1.12-.55 2.24-1.1 3.39-1.56 1.9-.77 3.83-1.43 5.73-2.19 1.68-.66 3.34-1.39 5-2.12s3.15-1.43 4.72-2.14a19.5 19.5 0 013.66-1.63 18.11 18.11 0 006.88-3.12c1.33-1 3.27-1.11 4.88-1.75 1.44-.58 2.8-1.35 4.21-2a17.88 17.88 0 013.19-1.46 17.48 17.48 0 007.19-3.08c1.16-.93 3-1 4.43-1.64 1.71-.76 3.31-1.76 5-2.61a9.88 9.88 0 012.76-1.21 14.47 14.47 0 006.42-2.42 7.61 7.61 0 013.7-1.45c3.33-.22 6.69-.14 10-.1a3.66 3.66 0 012 .58q4.41 3.31 8.67 6.81a7.44 7.44 0 011.29 2 8.34 8.34 0 001.06 1.85c2.1 1.95 2.69 4.52 2.8 7.15.27 6.14.48 12.29.48 18.44v415c0 5-.29 10-.54 15a6.74 6.74 0 01-.87 2.94c-1.26 2.21-2.67 4.33-4.07 6.46a3.73 3.73 0 01-1.11.87c-.47.31-1.18.44-1.42.86-1.72 2.93-4.9 3.29-7.61 4.51a8.21 8.21 0 00-2.2 1.42 7.28 7.28 0 01-5 2.09 5.25 5.25 0 00-2.91.91c-2.65 2.07-5.75 3-8.9 3.79-.46.12-1.05.17-1.34.49-2 2.22-4.8 2.7-7.48 3.47a4.16 4.16 0 00-2.14 1c-1.82 2.35-4.59 2.33-7 3.16-1.41.48-2.73 1.23-4.09 1.82-1.67.72-3.34 1.43-5 2.1-1.17.48-2.62.6-3.5 1.38-2 1.8-4.47 2.35-7 3a6.51 6.51 0 00-2.81 1.21c-1.66 1.6-3.78 1.94-5.79 2.65a46.58 46.58 0 00-4.65 2.29 60.12 60.12 0 01-3.37 1.54c-2 .85-4.09 1.65-6.13 2.5-1.38.57-2.74 1.19-4.1 1.79-2 .86-3.87 1.77-5.84 2.58s-3.73 1.35-5.56 2.1c-1.16.48-2.22 1.18-3.37 1.7-1.72.78-3.47 1.48-5.2 2.24s-3.28 1.52-4.94 2.22-3.25 1.21-4.83 1.9-2.8 1.41-4.24 2c-1.66.72-3.38 1.31-5.05 2s-3.47 1.54-5.19 2.33a21.61 21.61 0 01-3.81 1.73c-2.28.53-4.46 1-6.2 2.83a5.75 5.75 0 01-3 1.2 15.38 15.38 0 00-6.32 2.61c-1.55 1.1-3.67 1.37-5.47 2.15a15.21 15.21 0 00-3.88 2.18 8.11 8.11 0 01-4.29 1.81 24.91 24.91 0 00-5.08 1.82c-1.81.75-3.58 1.6-5.37 2.4-1.43.65-2.86 1.28-4.3 1.92s-3 1.35-4.54 2c-1.25.5-2.75.64-3.76 1.42a17.92 17.92 0 01-6.24 2.84c-1.86.55-3.51 1.77-5.29 2.62-1.05.51-2.17.9-3.27 1.31-1.85.7-4 1-5.5 2.15-2 1.52-4.16 1.9-6.33 2.61a27.86 27.86 0 00-3.28 1.4 36.72 36.72 0 01-4.25 2 16.37 16.37 0 00-6.14 3.07 8.57 8.57 0 01-4.17 1.55 11.53 11.53 0 00-5.86 2.47 12.32 12.32 0 01-3.41 1.48c-1.56.59-3.16 1.06-4.68 1.71-1.82.77-3.52 1.79-5.36 2.47-2 .74-4.09 1.22-5.69 2.9a5.13 5.13 0 01-2.78 1.11 22.53 22.53 0 00-7.55 2.71c-2.24 1.27-5.11 1.65-7.75 2a20.21 20.21 0 00-7.87 2.63 8.45 8.45 0 01-3.78 1.24c-13 .23-26.07.46-39.1.44-5.91 0-11.82-.54-17.72-.93a8.52 8.52 0 01-2.92-1 26.5 26.5 0 00-8.94-2.42c-3.84-.4-7.7-.75-11.25-2.82-2-1.15-4.52-1.43-6.86-1.79a8.29 8.29 0 01-4.28-1.82 20.92 20.92 0 00-4.46-2.16l-6.11-2.73c-.43-.2-.84-.45-1.27-.64a33.68 33.68 0 01-7.09-3.85c-1.64-1.24-3.67-2.06-5.35-3.43-2.76-2.25-5.72-4.26-8.58-6.39a7.08 7.08 0 01-1.15-1.17c-.26-.31-.34-.83-.65-1-3-1.65-4-5-6.26-7.36a13.45 13.45 0 01-2-3.44c-.83-1.6-1.7-3.2-2.39-4.86a17.33 17.33 0 01-1.39-4.44c-1.67-13.22-.67-26.52-.94-39.78a13.69 13.69 0 00-.11-2.4c-.75-3.73-2.1-4.31-5.85-3.46-2.79.63-5.56 1.29-8.29 2.1-2 .58-3.81 1.53-5.77 2.11a32.41 32.41 0 01-6.91 1.63 63.57 63.57 0 00-14.71 2.89 47.46 47.46 0 01-10.54 1.88 69.27 69.27 0 01-12.22 0c-4.65-.46-9.36-.62-13.87-2.27a34.85 34.85 0 00-7.22-1.43c-4.82-.68-9.64-1.24-14.46-1.85a2.73 2.73 0 01-1.16-.3c-3.87-2.65-8.47-2.63-12.81-3.6a16.15 16.15 0 01-2.5-.8c-2.36-.9-4.72-1.81-7-2.79-1.81-.76-3.58-1.63-5.36-2.45a2.92 2.92 0 00-.43-.22 49.61 49.61 0 01-12.67-6.28c-3-1.89-6.5-3-8.67-6.09a1.63 1.63 0 00-.55-.46c-5-2.8-8.55-7.06-11.64-11.77a12.7 12.7 0 00-1.46-1.57c-.44-.47-1.08-.86-1.27-1.42-1.93-5.55-5.44-10.6-5-16.93.3-4.06 0-8.15 0-12.24v-209.8z" data-name="&#x421;&#x43B;&#x43E;&#x439; 1"/></g></symbol><symbol id="catalog-tab-1"><path fill-rule="evenodd" fill="#19110B" d="M0 0h3v3H0V0zm7 0h3v3H7V0zm7 0h3v3h-3V0zM0 7h3v3H0V7zm7 0h3v3H7V7zm7 0h3v3h-3V7zM0 14h3v3H0v-3zm7 0h3v3H7v-3zm7 0h3v3h-3v-3z"/></symbol><symbol id="catalog-tab-2"><path fill-rule="evenodd" fill="#19110B" d="M0 0h3v3H0V0zm7 0h16v3H7V0zM0 7h3v3H0V7zm7 0h16v3H7V7zm-7 7h3v3H0v-3zm7 0h16v3H7v-3z"/></symbol><symbol id="logo"><path fill-rule="evenodd" fill="#19110B" d="M166.225 28.691l-1.16-13.293-4.467 13.293h-2.369l-4.467-13.293-1.172 13.293h-3.662l1.477-17.639h5.224l3.76 11.072 3.809-11.072h5.224l1.453 17.639h-3.65zm-23.584 0l-4.59-7.763h-1.062v7.763h-3.662V11.052h6.397c.968 0 1.822.137 2.563.409.741.273 1.333.651 1.776 1.135.444.485.777 1.04 1.001 1.667.224.626.336 1.314.336 2.063 0 1.18-.322 2.146-.964 2.899-.643.753-1.567 1.259-2.771 1.52l5.31 7.946h-4.334zm-.745-12.487c0-.66-.223-1.176-.671-1.551-.448-.374-1.139-.561-2.075-.561h-2.161v4.211h2.161c1.831 0 2.746-.7 2.746-2.099zM125.57 27.831c-1.364.736-2.904 1.105-4.621 1.105-1.725 0-3.269-.369-4.632-1.105-1.364-.737-2.436-1.797-3.217-3.18-.781-1.384-1.172-2.979-1.172-4.785 0-1.815.391-3.412 1.172-4.792.781-1.379 1.853-2.435 3.217-3.167 1.363-.733 2.907-1.099 4.632-1.099 1.725 0 3.268.366 4.627 1.099 1.359.732 2.429 1.788 3.21 3.167.781 1.38 1.172 2.977 1.172 4.792 0 1.806-.391 3.401-1.172 4.785-.781 1.383-1.853 2.443-3.216 3.18zm-.763-12.116c-1.01-1.025-2.295-1.538-3.858-1.538-1.562 0-2.848.513-3.857 1.538-1.009 1.026-1.514 2.409-1.514 4.151 0 1.75.505 3.139 1.514 4.168 1.009 1.03 2.295 1.545 3.857 1.545 1.563 0 2.848-.515 3.858-1.545 1.009-1.029 1.513-2.418 1.513-4.168 0-1.742-.504-3.125-1.513-4.151zM66.872 28.691l-5.481-7.495h-1.294v7.495h-3.662V11.052h3.662v6.934h1.245l5.53-6.934h4.468l-6.836 8.435 7.043 9.204h-4.675zm-18.195-.86c-1.363.736-2.903 1.105-4.62 1.105-1.725 0-3.269-.369-4.632-1.105-1.364-.737-2.436-1.797-3.217-3.18-.781-1.384-1.172-2.979-1.172-4.785 0-1.815.391-3.412 1.172-4.792.781-1.379 1.853-2.435 3.217-3.167 1.363-.733 2.907-1.099 4.632-1.099 1.725 0 3.267.366 4.627 1.099 1.359.732 2.429 1.788 3.21 3.167.781 1.38 1.172 2.977 1.172 4.792 0 1.806-.391 3.401-1.172 4.785-.781 1.383-1.854 2.443-3.217 3.18zm-.762-12.116c-1.01-1.025-2.295-1.538-3.858-1.538-1.562 0-2.848.513-3.857 1.538-1.009 1.026-1.514 2.409-1.514 4.151 0 1.75.505 3.139 1.514 4.168 1.009 1.03 2.295 1.545 3.857 1.545 1.563 0 2.848-.515 3.858-1.545 1.009-1.029 1.513-2.418 1.513-4.168 0-1.742-.504-3.125-1.513-4.151zM28.487 27.831c-1.363.736-2.903 1.105-4.62 1.105-1.726 0-3.27-.369-4.633-1.105-1.363-.737-2.435-1.797-3.216-3.18-.782-1.384-1.172-2.979-1.172-4.785 0-1.815.39-3.412 1.172-4.792.781-1.379 1.853-2.435 3.216-3.167 1.363-.733 2.907-1.099 4.633-1.099 1.725 0 3.267.366 4.626 1.099 1.359.732 2.429 1.788 3.211 3.167.781 1.38 1.171 2.977 1.171 4.792 0 1.806-.39 3.401-1.171 4.785-.782 1.383-1.854 2.443-3.217 3.18zm-.763-12.116c-1.009-1.025-2.295-1.538-3.857-1.538-1.563 0-2.849.513-3.858 1.538-1.009 1.026-1.513 2.409-1.513 4.151 0 1.75.504 3.139 1.513 4.168 1.009 1.03 2.295 1.545 3.858 1.545 1.562 0 2.848-.515 3.857-1.545 1.009-1.029 1.514-2.418 1.514-4.168 0-1.742-.505-3.125-1.514-4.151zM11.672 27.367c-.936.883-2.311 1.324-4.126 1.324H.283V11.052h5.713c1.879 0 3.318.426 4.315 1.276.997.85 1.495 2.037 1.495 3.558 0 .79-.173 1.488-.519 2.094-.346.606-.856 1.072-1.532 1.397 2.214.611 3.321 2.068 3.321 4.371 0 1.53-.468 2.736-1.404 3.619zm-3.845-12.72c-.407-.37-1.006-.555-1.795-.555H3.811v4.15h2.38c.749 0 1.31-.195 1.684-.586.375-.39.562-.903.562-1.538 0-.61-.204-1.1-.61-1.471zm1.049 7.062c-.431-.431-1.127-.647-2.087-.647H3.811v4.492h3.051c.92 0 1.593-.207 2.021-.622.427-.415.64-.944.64-1.587 0-.659-.215-1.205-.647-1.636z"/><path class="fill-primary" fill-rule="evenodd" d="M105.996 23.499c-.001 3.253-2.046 5.766-5.248 6.451-.035.008-.067.033-.101.05h-.176c-.004-1.415-.011-2.829-.005-4.244.001-.081.084-.191.16-.238.726-.45 1.088-1.093 1.085-1.947-.004-1.551-.001-3.102-.001-4.679h4.286v4.607zm-4.281-6.41c0-1.099-.032-2.172.009-3.242.043-1.168 1.037-2.041 2.207-2.009a2.13 2.13 0 012.062 2.102c.012 1.014.002 2.029.002 3.043 0 .028-.008.057-.015.106h-4.265zm-5.294 12.145c-2.099-1.251-3.222-3.098-3.266-5.531-.047-2.565-.01-5.132-.009-7.698 0-.048.007-.095.013-.164h4.267v.331c0 2.43.004 4.859-.003 7.289-.002.903.334 1.605 1.125 2.079.081.049.14.2.141.304.01 1.278.006 2.557.007 3.835 0 .107.007.214.011.321h-.176c-.732-.177-1.456-.376-2.11-.766zm-3.276-15.191v-.332c0-2.393-.008-4.785.004-7.177.005-.909-.331-1.606-1.126-2.074-.062-.036-.129-.128-.129-.195-.008-1.415-.006-2.829-.006-4.265 1.535.232 2.815.889 3.843 2.009 1.102 1.2 1.682 2.621 1.69 4.252.012 2.53.005 5.058.006 7.588 0 .057-.006.115-.011.194h-4.271zm-3.557-9.261c-.554.346-.722.986-.72 1.649.007 1.63.002 3.261.001 4.891 0 .821 0 1.641-.002 2.461 0 .086-.01.171-.016.268h-4.264v-.277c.001-2.48-.008-4.96.003-7.44C84.605 3.158 86.853.543 90 .018c.028-.005.058-.001.125-.001v1.831c0 .557-.016 1.114.005 1.67.019.514-.004.929-.542 1.264zm-5.003 11.055h4.283v.342c0 2.429-.019 4.86.005 7.289.035 3.539-2.515 6.025-5.284 6.487-.037.006-.071.03-.107.045h-.176c.004-1.366.013-2.732.007-4.098-.002-.211.063-.322.246-.435.709-.436 1.028-1.096 1.028-1.918l-.002-7.348v-.364zM81.366 30c-.491-.156-1.006-.26-1.469-.476-2.462-1.144-3.777-3.084-3.87-5.792-.053-1.54-.01-3.083-.011-4.625v-.221h4.287v.323c0 1.454.005 2.908-.001 4.362-.004.856.364 1.494 1.085 1.947.076.048.16.157.16.238.006 1.415-.001 2.829-.005 4.244h-.176zm-5.349-12.903v-1.644c0-.488-.005-.975 0-1.463.013-1.159.894-2.098 2.015-2.152 1.171-.057 2.185.781 2.25 1.959.059 1.088.012 2.181.012 3.3h-4.277z"/></symbol><symbol id="mastercard" viewBox="0 0 744.094 1052.362"><circle cx="229.591" cy="452.246" r="215.458" fill="red"/><circle cy="452.246" cx="519.538" r="215.458" fill="#fc0"/><path d="M374.548 293.19a215.458 215.458 0 00-70.47 159.058 215.458 215.458 0 0070.502 159.054 215.458 215.458 0 0070.47-159.054 215.458 215.458 0 00-70.502-159.058z" fill="#d45500"/><g style="line-height:125%;-inkscape-font-specification:Sans;text-align:center"><path d="M31.625 403.645v92.875h21.312v-36.571c-.132-8.551-.395-16.97-.527-25.39 1.974 6.315 3.947 12.76 5.789 18.812 1.578 4.867 3.025 9.34 4.472 13.813l9.867 29.336h17.101c1.974-5.789 3.947-11.708 5.92-17.497 2.368-6.84 4.736-13.812 6.972-20.653 2.631-8.156 5.13-16.312 7.63-24.468-.263 8.287-.526 16.707-.526 25.126v37.492h22.232v-92.875h-31.572c-1.579 4.867-3.157 9.866-4.867 14.865-2.105 6.71-4.473 13.418-6.578 20.259a959.421 959.421 0 00-7.104 23.81c-2.5-8.024-4.867-16.049-7.498-24.205a1783.717 1783.717 0 00-11.445-34.73H31.625zm157.33 26.178c-2.894-1.973-8.42-5.788-17.628-5.788-10.655 0-20.39 5.262-26.836 13.682-6.972 9.471-7.762 19.074-7.762 23.284 0 15.26 8.42 24.732 12.498 28.415 8.287 7.63 16.444 8.55 20.916 8.55 10.524 0 16.181-4.603 19.601-7.103v5.657h20.654v-71.038h-21.443v4.341zm-26.179 42.623c-3.157-3.026-4.867-7.104-4.867-11.313 0-8.814 7.235-16.181 16.05-16.181 8.945 0 16.048 7.235 16.18 16.049 0 8.945-7.104 16.05-16.05 16.18-4.209 0-8.418-1.841-11.313-4.735zm106.089-26.047c-.131-1.053-.131-3.815-1.184-6.84-1.973-6.052-8.42-15.392-24.337-15.392-9.866 0-20.127 4.341-24.863 13.55-1.052 1.841-2.368 4.998-2.368 10.129 0 2.631.263 8.814 5.525 14.076 2.894 2.762 6.578 4.867 14.734 6.972 5.657 1.447 8.814 1.842 10.787 4.21.921 1.315 1.184 2.762 1.184 3.42 0 1.579-1.184 5.525-5.92 5.657-.526 0-1.973-.132-3.288-.921-3.026-1.579-3.158-5-3.42-6.052H214.14c.263 1.58.526 5.394 2.63 9.34 1.316 2.632 3.421 5 5.658 6.841 3.42 2.894 9.471 6.71 19.995 6.71 12.366 0 19.47-5.394 22.759-9.078 5.393-5.788 5.788-11.576 5.788-14.865 0-6.446-2.236-11.708-7.63-15.523-4.736-3.552-9.209-4.604-14.734-5.92-4.21-1.184-6.972-1.973-8.55-3.025-1.448-1.053-2.368-2.631-2.368-4.605 0-2.894 2.104-5.393 5.13-5.393.92 0 1.973.263 2.763.79 2.236 1.315 2.63 3.42 2.894 5.919h20.39zm8.087-42.754v21.574h-7.893v16.576h7.63v54.725h21.575v-54.594h9.208v-16.575h-9.077v-21.706h-21.443zm50.438 49.068c.659-1.315 1.316-2.5 2.369-3.552.263-.394 1.578-1.841 3.157-2.762 3.157-2.236 6.446-3.289 10.261-3.289 10.13 0 14.207 6.446 15.918 9.603H327.39zm51.963 15.523c.264-2.5.527-4.867.527-7.367 0-10.655-5.13-21.18-13.155-27.888-9.209-7.893-19.47-8.814-23.68-8.814-10.918 0-21.574 4.999-28.546 13.418-7.63 9.209-8.55 19.075-8.55 23.548 0 10.918 5.13 21.705 13.417 28.546 9.34 7.63 19.47 8.42 23.943 8.42 13.68 0 21.705-6.71 25.389-10.393 5.393-5.262 7.235-9.866 8.55-12.892H355.28c-1.316 1.315-1.842 1.71-2.763 2.236-2.5 1.71-6.051 2.5-9.208 2.5-5.657 0-11.05-2.368-14.471-6.973-1.184-1.578-2.368-4.078-2.5-4.34h53.015zm5.126-42.622v70.906h21.443v-39.597c.131-3.552.526-4.999 1.578-6.578 3.29-4.999 11.708-5.262 12.366-5.262 1.71-.131 3.026.132 4.473.263v-19.995c-2.763 0-9.866-.526-16.18 5.788-1.711 1.71-3.29 3.815-3.684 4.341v-9.866h-19.996zm135.887 12.76c-1.579-5.393-4.868-16.312-16.313-25.652-12.234-9.998-24.6-11.05-30.65-11.05-11.84 0-20.391 4.078-24.206 6.314-7.499 4.473-24.074 17.496-24.074 42.754 0 13.287 4.999 21.837 8.025 26.179 4.735 6.84 17.233 21.31 40.78 21.31 5.394 0 9.604-.788 11.577-1.315 6.577-1.578 21.443-7.366 30.388-23.942 1.447-2.762 2.631-5.393 4.604-11.445h-25.784c-1.447 2.368-1.973 3.157-2.894 4.341-3.552 4.21-8.682 6.578-10.13 7.104-1.578.526-4.209 1.316-8.024 1.316-14.339 0-20.916-10.788-22.758-15.129-.658-1.578-1.71-4.604-1.842-9.077 0-9.734 5.525-18.548 14.602-22.363 1.71-.79 5.13-2.105 9.998-2.105 7.499 0 14.208 3.289 18.68 9.208.79 1.184 1.58 2.237 2.237 3.552h25.784zm53.274-8.551c-2.893-1.973-8.418-5.788-17.627-5.788-10.656 0-20.39 5.262-26.836 13.682-6.973 9.471-7.762 19.074-7.762 23.284 0 15.26 8.42 24.732 12.498 28.415 8.287 7.63 16.443 8.55 20.916 8.55 10.524 0 16.18-4.603 19.601-7.103v5.657h20.654v-71.038H573.64v4.341zm-26.178 42.623c-3.157-3.026-4.867-7.104-4.867-11.313 0-8.814 7.235-16.181 16.05-16.181 8.945 0 16.048 7.235 16.18 16.049 0 8.945-7.104 16.05-16.05 16.18-4.209 0-8.419-1.841-11.313-4.735zm55.31-46.832v70.906h21.443v-39.597c.132-3.552.526-4.999 1.579-6.578 3.288-4.999 11.708-5.262 12.365-5.262 1.71-.131 3.026.132 4.473.263v-19.995c-2.762 0-9.866-.526-16.18 5.788-1.71 1.71-3.29 3.815-3.684 4.341v-9.866h-19.996zm91.949 4.341c-3.026-1.973-8.42-5.788-17.628-5.788-10.655 0-20.522 5.262-26.836 13.681-7.104 9.34-7.761 19.075-7.761 23.285 0 15.26 8.419 24.731 12.365 28.415 8.288 7.63 16.444 8.55 21.048 8.55 10.393 0 16.181-4.604 19.47-7.103l.131 5.525h20.522v-92.875h-21.31v26.31zm-26.31 42.622c-3.026-3.157-4.736-7.235-4.736-11.444 0-8.814 7.104-16.05 16.05-16.05 8.813-.131 16.049 7.104 16.049 16.05 0 8.813-7.104 16.049-16.05 16.049-4.21 0-8.419-1.842-11.313-4.605z" style="-inkscape-font-specification:&apos;Avant Garde BQ Bold&apos;" font-weight="700" font-size="111.411" font-family="Avant Garde BQ" letter-spacing="-5.686" word-spacing="0" text-anchor="middle" fill="#fff"/></g></symbol><symbol id="menu"><path fill-rule="evenodd" fill="#19110B" d="M0 0h20v2H0V0zm0 8h15v2H0V8zm0 8h20v2H0v-2z"/></symbol><symbol id="school" viewBox="0 0 750.43 564.23"><path d="M668.75 533.84c-.26 2.43-.66 4.86-.75 7.3-.18 4.47 0 9-.31 13.42-.25 3.53-2.45 5.14-6.27 5.23-3.36.08-6.57-2.12-6.68-5.19-.24-6.79-.29-13.59-.11-20.38.25-9.67.79-19.33 1.17-29 .73-18.53 1.55-37.06 2.11-55.59.26-8.71-.2-17.44 0-26.16.34-17.11.61-34.22 1.48-51.31.71-13.93 2.33-27.82 3.4-41.74a103 103 0 014.52-24c1-3.16 3.29-6 5.29-8.74 1.63-2.25 3.86-4 5.56-6.24 2.91-3.77 6.19-7.41 8.24-11.63 1.69-3.48 2.15-7.68 2.59-11.62.61-5.47.87-11 1-16.51.76-35.1 1.42-70.2 2.16-105.3.11-5.59.53-11.18.62-16.78a21.85 21.85 0 00-.91-5.64c-.46-1.81-1.57-2-3-1-2.52 1.92-5.1 3.76-7.64 5.66-5 3.75-10 7.54-15.07 11.27-3 2.22-6.12 4.31-9.1 6.56-4.39 3.3-8.72 6.67-13 10-2.25 1.75-4.5 3.51-6.65 5.39a41.19 41.19 0 00-5.76 5.59 9.56 9.56 0 00-1.64 4.97c-.3 4-.35 8-.37 12-.1 19.44-.07 38.88-.27 58.32-.14 13.35-.4 26.71-1 40-.32 7.33-1.41 14.63-2.15 21.94-.18 1.83-.35 3.66-.48 5.49-.62 9-1.52 18-1.74 27s.13 18.21.37 27.32c.35 13.58 1 27.16 1.14 40.74.05 4.46-2.94 8.11-5.67 11.33-3.53 4.18-8.42 6.78-13 9.75-6.19 4-11.62 9.14-17.27 13.92-4.18 3.54-8.2 7.28-12.3 10.93-2.19 1.95-4.32 4-6.6 5.8a42.52 42.52 0 01-5.32 3.61c-4.12 2.37-8.24 4.73-12.48 6.88-4.5 2.3-9.12 4.36-13.71 6.48-1.08.5-2.26.77-3.34 1.26-5 2.32-10.05 4.69-15.07 7-.29.14-.53.36-.83.48Q513 485.54 506 488.3c-5.38 2.14-10.73 4.35-16.15 6.36a67.59 67.59 0 01-6.69 1.72c-9 2.34-18 4.81-27 7-3.48.84-7.12 1-10.67 1.62-2 .34-4 .91-6.06 1.36-3.65.81-7.28 1.72-11 2.4-4.54.84-9.11 1.52-13.69 2.19-4.25.62-8.52 1.56-12.79 1.61-15.28.2-30.56.32-45.83 0-6.58-.16-13.12-1.58-19.68-2.43a81 81 0 00-8.31-1.06 65.88 65.88 0 01-18.3-3.33c-1.81-.57-3.76-.69-5.61-1.17-2.69-.71-5.33-1.59-8-2.35-2.21-.64-4.48-1.1-6.66-1.84-3.37-1.15-6.68-2.47-10-3.71-5.06-1.88-10.2-3.55-15.16-5.66-5.89-2.51-11.68-5.27-17.42-8.14-3.67-1.83-7.13-4.1-10.74-6.07S229 473 225.38 471c-3-1.64-5.95-3.38-8.88-5.12-4.29-2.56-8.59-5.1-12.81-7.75-3.16-2-6.2-4.18-9.31-6.25-2.51-1.66-5-3.27-7.57-4.91-4.18-2.73-8.34-5.48-12.53-8.18-2.79-1.8-5.65-3.5-8.44-5.31s-5.24-3.58-7.87-5.35c-3.62-2.44-7.27-4.82-10.85-7.31-4.55-3.15-7.52-7.49-8.08-13s-.45-10.7-.5-16.06c-.24-28.79-.4-57.59-.65-86.38q-.39-42.84-.89-85.66c0-3.09-.16-6.17-2.53-8.45a14.1 14.1 0 00-4.55-3.2c-6.4-2.37-12.89-4.49-19.36-6.65-1.36-.46-2.8-.64-4.16-1.08-4-1.29-7.9-3-12-3.91-5.44-1.15-9.58-4.45-14.18-7.12-5-2.9-10.15-5.59-16.1-6.27-3.55-.41-7-1.33-10.56-1.94s-6.81-1-10.17-1.66c-3.9-.79-7.74-1.84-11.62-2.68-3.35-.72-6.74-1.23-10.08-2-7.25-1.6-14.09-4-19.33-9.67-2.22-2.39-3.12-5-1.65-8.07.27-.56.51-1.29 1-1.59a83.39 83.39 0 019-5.4c5.81-2.7 11.78-5.06 17.69-7.52 1.17-.49 2.45-.74 3.62-1.22 5.41-2.24 10.81-4.52 16.21-6.79.22-.09.42-.23.65-.32l12.93-4.88c3.18-1.2 6.33-2.47 9.55-3.54 1.88-.63 3.94-.74 5.79-1.41 6-2.17 11.88-4.52 17.83-6.72 1.56-.58 3.25-.82 4.82-1.38 3.36-1.18 6.65-2.57 10-3.7 5.64-1.9 11.38-3.51 17-5.51 5.22-1.87 10.29-4.13 15.46-6.12 1.63-.62 3.42-.81 5.05-1.44 5.84-2.26 11.63-4.65 17.46-6.93 1.41-.55 2.94-.75 4.34-1.3 3-1.2 6-2.53 9-3.78 6.07-2.51 12.14-5 18.23-7.48 5-2 10.09-3.8 15.05-5.91 4.37-1.86 8.61-4 12.91-6.08.64-.3 1.24-.72 1.9-1 4.3-1.85 8.69-3.51 12.88-5.56 3.76-1.84 7.31-4.11 10.95-6.19.35-.2.69-.41 1-.6 5.33-2.82 10.63-5.72 16-8.42 4-2 8.11-3.64 12.11-5.58 4.28-2.07 8.49-4.3 12.73-6.47.28-.14.56-.31.85-.43 4.48-1.81 9-3.5 13.43-5.44s8.89-4.23 13.35-6.3c1.44-.66 3-1.07 4.44-1.72 5-2.24 9.94-4.54 14.91-6.81.14-.07.27-.18.42-.24 4.79-1.88 9.59-3.73 14.37-5.64 1.18-.47 2.3-1.08 3.43-1.66.42-.22.75-.66 1.18-.8 7.91-2.61 15.51-6.12 24.32-5 16.57 2.06 33.21 3.5 49.93 4 6 .19 11.93 2 17.9 3 3.31.55 6.64.91 9.94 1.44 1.41.22 2.8.63 4.18 1Q469.78 11 475 12.4c2.69.73 5.33 1.66 8.06 2.23 4.05.84 8.15 1.43 12.23 2.17 4.54.83 9.06 1.78 13.61 2.53 3.39.56 6.82.82 10.21 1.32 5.67.85 11.32 1.78 17 2.68 1.27.21 2.51.54 3.78.68 6.91.78 13.78 1.64 20.33 4.24 1.88.75 4.13.55 6.07 1.19 6.4 2.13 12.73 4.48 19.11 6.66 1.8.62 3.74.85 5.56 1.44 7 2.25 14 4.59 21.05 6.85 1.06.34 2.19.46 3.28.7 6.79 1.44 13.56 2.93 20.35 4.34s13.57 2.8 20.38 4c3.29.6 6.67.69 10 1.25 8.24 1.41 16.62 2.4 24.66 4.61 6.6 1.82 13.27 2.72 20 3.76.94.15 1.83.59 2.76.81 4.25 1 8.52 1.95 12.78 2.95 1.31.31 2.61.69 3.9 1.1 3.11 1 6.26 1.85 9.3 3A20.31 20.31 0 01750 80.32c1.13 2.08-.26 5.13-1.71 7-2.78 3.49-6.77 5.21-10.28 7.57-3.21 2.16-6.87 3.64-10.34 5.42l-12.89 6.62a6 6 0 01-1.25.71c-4.21.94-4.88 3.8-5 7.69-.44 14.86-1.28 29.7-1.84 44.56q-1.05 27.56-1.86 55.12c-.44 15.11-.63 30.22-1.09 45.33-.18 6.07-.84 12.12-1.13 18.19a17.12 17.12 0 00.58 5.67 4.49 4.49 0 002.48 2.61c2.48.85 4.78 1.57 6.57 3.8 1.51 1.87 3.8 3.08 5.56 4.77 3.65 3.51 6 7.89 8.67 12.17 3.32 5.38 4 11.56 6.56 17.12a8.1 8.1 0 01.59 3c1.28 30.27 4.73 60.42 4.61 90.77a325.17 325.17 0 001.88 35.43c1.65 15.52 1.92 31.1 2.86 46.64.44 7.31 1.77 14.56 2.43 21.87.49 5.49.67 11 .76 16.53.07 4-.11 8-.42 11.92-.19 2.41-4.14 5.09-6.56 4.76-5.37-.74-6.43-2-6.44-7.49 0-5.2.28-10.42-.14-15.59s-1.58-10.2-2.39-15.3a22.91 22.91 0 01-.29-3.09c-.41-19.91-.57-39.83-1.26-59.73-.45-13.17-1.76-26.31-2.49-39.48-.53-9.58-.67-19.18-1.1-28.76s-.85-19.18-1.59-28.74c-.74-9.38-1.81-18.74-2.9-28.09a36.13 36.13 0 00-1.8-6.42c-.31-1-.93-1.89-1.14-2.88-1.53-7-5.48-12.57-10.63-17.16-3.29-2.94-6.79-6.18-11.76-6.06a7.23 7.23 0 00-2.43 1 13.29 13.29 0 001.39 2.16c2.42 2.58 5.43 4.51 6.89 8.05 1.86 4.53 4.37 8.78 6.36 13.25a28.78 28.78 0 011.66 6.2c1.33 6.8 2.79 13.58 3.77 20.43.7 5 .56 10.07 1.09 15.07.48 4.51 1.53 9 2 13.48.7 6.11 1 12.26 1.71 18.37.76 6.65 1.89 13.25 2.65 19.89.56 4.92 1 9.87 1.12 14.82a279.84 279.84 0 002.72 33.2c1 6.69.88 13.55 1.18 20.34.56 13 1 26 1.62 39.07.09 2.05.72 4.07 1 6.11.34 2.84.64 5.68.81 8.53.35 6.05.78 12.09.83 18.14 0 3.2-.71 6.24-4 8.11-4.49 2.56-8.62.82-8.87-4.31-.45-8.94-.78-17.9-.78-26.85a363.91 363.91 0 00-2.23-40.68c-1-9-1.11-18-1.64-27.05-.11-1.91-.3-3.83-.57-5.72a5.86 5.86 0 00-.91-1.7 5.43 5.43 0 00-.84 1.78c-.26 7-.67 14-.59 21.06.11 9.83.42 19.67 1 29.49.43 7.32 1.35 14.61 2.19 21.9a36.44 36.44 0 01-3.29 20.95 6.07 6.07 0 01-6.49 3c-2.22-.51-2.61-2.45-2.84-4.27-.46-3.57-.79-7.15-1.1-10.73-.12-1.39-.31-2-2-1.43-4.57 1.54-7.47.38-10-3.65-.22-.34-.72-.78-1-.73a1.38 1.38 0 00-.91.91 26.29 26.29 0 00-.87 5.15c-.07 6.24.06 12.48 0 18.72 0 3.33-1.06 4.85-3.22 5.08-3.41.35-5.24-1-6.14-4.31a29.8 29.8 0 00-1.69-5c-2.76-5.85-1.66-12.29-2.9-18.36-.17-.82-.21-1.67-.31-2.51zm-294.66-33.52v-.64c7.6 0 15.2.12 22.79-.05a119.89 119.89 0 0012.41-1.1c6.08-.79 12.12-1.81 18.19-2.68 3.16-.45 6.37-.64 9.51-1.21 5.79-1.05 11.58-2.2 17.33-3.5 4-.92 8-2.77 12-3.09 8.18-.63 15.56-4 23.3-6.08 6.86-1.81 13.35-5 20-7.75 2.56-1 5-2.42 7.5-3.57 3.82-1.74 7.7-3.36 11.49-5.15 2.93-1.38 5.8-2.91 8.65-4.45 4.16-2.26 8.32-4.54 12.43-6.92a116.24 116.24 0 0010.89-6.68c4-2.91 7.57-6.27 11.3-9.48 5.24-4.51 10.78-8.74 15.59-13.68 6.62-6.81 13.21-13.68 18.26-21.92a36.29 36.29 0 005.09-16.69c.69-9.56.61-19.17.88-28.76q.59-20.73 1.21-41.48c0-.8.13-1.59.2-2.39.82-9.46 1.79-18.91 2.4-28.38.43-6.86.44-13.75.52-20.63.25-20.38.36-40.77.7-61.15.11-6.71.49-13.42 2.94-19.84.56-1.49.29-3.32.32-5 0-.41-.3-1.13-.56-1.17a2.13 2.13 0 00-1.44.44c-2.81 2-5.58 4.13-8.38 6.19-4.34 3.21-8.75 6.34-13 9.64-6.15 4.77-12.14 9.75-18.33 14.47-6.44 4.92-13.08 9.59-19.55 14.47-4.56 3.43-9 7.09-13.5 10.56-5.48 4.2-11 8.31-16.56 12.43q-8.6 6.41-17.24 12.75-11.18 8.17-22.34 16.37c-2.17 1.6-4.33 3.22-6.51 4.8-3.09 2.24-6.22 4.42-9.3 6.69-2.64 1.95-5.6 3.33-8 5.86s-5.67 4-8.52 6c-2.07 1.47-4.05 3.05-6.09 4.57-2.86 2.15-5.66 4.39-8.63 6.37a25 25 0 01-6.52 3.42 21.75 21.75 0 01-12.52-.31c-3.81-1.15-7.64-2.23-11.4-3.53-2.54-.87-4.93-2.14-7.45-3.09-5.42-2-10.92-3.86-16.29-6-4.7-1.88-9.24-4.12-13.89-6.13-1.08-.47-2.38-.48-3.43-1-1.72-.85-3.32-1.94-5-2.92a5.1 5.1 0 00-1.81-.95c-3.38-.32-6.6-1-9.43-3.07-.9-.68-2.25-.75-3.37-1.14-1.58-.55-3.15-1.11-4.71-1.71-2.59-1-5.17-2-7.75-3-1-.41-2.06-.85-3.09-1.27-2-.84-4.1-1.69-6.16-2.51-1.33-.53-2.68-1-4-1.51l-7.31-2.87-4-1.59-5.91-2.4c-1.62-.65-3.25-1.29-4.85-2-1.24-.53-2.42-1.21-3.68-1.66-5.3-1.91-10.63-3.76-15.94-5.64-.3-.11-.55-.35-.84-.46-2.73-1.06-5.47-2.1-8.2-3.14-.67-.25-1.37-.42-2-.69-6-2.38-11.91-4.81-17.9-7.14-1.47-.58-3.12-.71-4.6-1.28-5.17-2-10.25-4.24-15.48-6-5.84-2-11.83-3.64-17.74-5.51-3.93-1.24-7.81-2.63-11.74-3.88-1.9-.61-3.86-1-5.77-1.56-3.43-1-6.85-2-10.27-3.07-1.68-.5-3.34-1.06-5-1.53-2.9-.8-5.82-1.57-8.73-2.35-2.38-.63-4.76-1.23-7.13-1.89-1.3-.37-2.55-.94-3.86-1.21-4.38-.9-8.82-1.53-13.15-2.61-3.21-.8-4.11-.45-4.31 2.9a13.21 13.21 0 00.37 3.3c.77 4 2.06 7.94 2.29 11.95.63 10.62.8 21.26 1.16 31.89.23 6.71.38 13.43.75 20.13.76 13.72 2 27.43 2.38 41.16.41 17.26.11 34.54.06 51.81 0 3.27-.34 6.54-.46 9.81-.17 4.56-.68 9.14-.32 13.65.37 4.67 1.78 9 6.89 11.14 2.52 1 4.71 2.88 7 4.45 3.13 2.16 6.19 4.43 9.32 6.58 2.29 1.57 4.64 3 7 4.54 3.28 2.1 6.58 4.16 9.83 6.3 3 2 6 4.18 9.06 6.11 5.3 3.32 10.69 6.5 16.05 9.74l13.41 8.16c.47.29.91.64 1.39.93 3.67 2.19 7.28 4.49 11 6.52 3.55 1.93 7.29 3.52 10.91 5.32 4.33 2.16 8.53 4.59 12.95 6.52 4.65 2 9.49 3.62 14.25 5.39 3.49 1.31 7 2.64 10.48 3.88 2.09.73 4.26 1.26 6.37 1.94 1.66.53 3.26 1.27 4.94 1.72 3.93 1 7.88 2 11.83 2.93 1.62.4 3.25.79 4.9 1.05 3.77.6 7.57 1.05 11.34 1.69 3.53.6 7 1.74 10.56 2 10.48.65 21.03 1.02 31.57 1.52zm298.48-396.1c5.12-.43 10.78-.77 16.39-1.45 2.09-.25 4.1-1.28 6.13-2a78.43 78.43 0 008.72-3.11c3.62-1.76 7-4 10.52-6s7-3.41 10.26-5.54c1.25-.82 1.69-2.88 2.49-4.37a24 24 0 00-3.2-1.62 21.82 21.82 0 00-3.07-.42q-7.15-1.28-14.31-2.71c-2-.37-3.88-.9-5.84-1.21-3.54-.57-7.12-.92-10.65-1.55-5.88-1.06-11.73-2.23-17.58-3.42-4.69-1-9.33-2.61-14-2.88-10.35-.62-20.12-4.05-30.27-5.63-6-.92-11.77-2.76-17.64-4.24-1.77-.45-3.48-1.13-5.24-1.67s-3.81-1.14-5.7-1.73c-3.1-1-6.18-2-9.29-3-2-.61-4-1.12-6-1.68-1.3-.36-2.62-.66-3.89-1.1-5.62-2-11.13-4.35-16.85-5.95a184.63 184.63 0 00-18.68-4c-9.59-1.63-19.2-3.4-28.87-4.3a202.22 202.22 0 01-34.61-5.79 83.78 83.78 0 01-8.61-3.36c-2.44-1-4.86-2-7.31-2.94a14.69 14.69 0 00-3.18-1c-5.54-.72-11.19-.93-16.62-2.12a127.82 127.82 0 00-24.72-2.65c-2.31-.06-4.63-.16-6.94-.35-9.14-.76-18.27-2-27.43-2.21-5.41-.12-10.88 1.27-16.3 2.13a32.42 32.42 0 00-7.17 1.77c-5.73 2.32-11.34 4.92-17 7.39-1.09.48-2.25.78-3.33 1.28-4.82 2.21-9.61 4.48-14.43 6.68-1.52.69-3.11 1.22-4.65 1.87-2 .86-4.07 1.76-6.1 2.65-.95.42-1.9.82-2.83 1.27-4.34 2.11-8.63 4.34-13 6.33s-8.77 3.68-13.16 5.52c-.28.12-.51.38-.8.52q-3.08 1.53-6.18 3c-.93.44-1.9.8-2.82 1.27-4.07 2.13-8.11 4.33-12.21 6.42-3.82 1.94-7.71 3.72-11.54 5.65-2.75 1.38-5.44 2.9-8.17 4.34-4.42 2.32-8.83 4.67-13.29 6.91-1.33.67-2.87.94-4.24 1.56-4.68 2.16-9.28 4.53-14 6.57s-9.3 3.65-14 5.46c-.15 0-.29.14-.43.2q-8.88 3.78-17.75 7.53c-1.31.55-2.68 1-4 1.51-2.07.81-4.12 1.65-6.18 2.48-1.69.67-3.39 1.33-5.07 2-1.1.46-2.15 1.07-3.27 1.45-5.71 1.95-11.45 3.79-17.14 5.79-7.11 2.5-14.17 5.13-21.26 7.69-3.8 1.37-7.62 2.7-11.43 4.05-1.35.47-2.7.94-4 1.43l-16.57 6c-.22.08-.48.07-.7.15-3 1.1-6.09 2.21-9.14 3.3-.52.19-1.06.32-1.6.48-2.83.79-5.68 1.52-8.48 2.4-2.42.76-4.78 1.71-7.19 2.53-1.43.49-2.92.81-4.34 1.35-6.22 2.36-12.44 4.74-18.63 7.2-2.81 1.11-5.5 2.48-8.3 3.6-4.05 1.63-8.16 3.1-12.2 4.74-.64.26-1.06 1.06-1.58 1.62.63.52 1.19 1.34 1.9 1.51 2.09.48 4.31.48 6.36 1.07 7.4 2.15 15 3.11 22.6 4 6 .73 11.87 2.35 17.82 3.48 3 .57 6 .82 9 1.42 2.1.43 4.09 1.41 6.2 1.78 6.82 1.19 13.81 1.47 20.32 4.15 2.19.9 4.78 1.29 6.49 2.73 2.1 1.8 3.45 4.47 5.17 6.72.77 1 1.48 2.27 2.52 2.81a59.68 59.68 0 0010.25 4.58c7.39 2.17 14.93 3.78 22.37 5.77 2.53.68 4.88 2 7.4 2.68 6.59 1.84 13.25 3.44 19.83 5.28 4.13 1.15 8.17 2.6 12.26 3.86 1.75.54 3.56.85 5.3 1.39 2.72.85 5.41 1.84 8.13 2.69 1.52.47 3.13.68 4.63 1.2 6 2.06 11.93 4.32 18 6.27 6.57 2.13 13.25 4 19.84 6 3.4 1.06 6.74 2.34 10.09 3.55 3.51 1.28 7 2.62 10.5 3.88 1.49.54 3.05.91 4.55 1.44 2.91 1 5.8 2.12 8.7 3.2 1 .38 2.07.79 3.11 1.19 2.28.89 4.55 1.78 6.84 2.66 1.18.45 2.4.83 3.56 1.32 1.83.78 3.59 1.72 5.44 2.42 5 1.89 10 3.66 14.95 5.53 3 1.15 6 2.42 9.06 3.6 4 1.56 8 3.09 12 4.63l.43.2c5.56 2.33 11.11 4.69 16.69 7 1.54.63 3.25.82 4.79 1.44 5.37 2.16 10.68 4.46 16.05 6.62 1.7.68 3.54 1 5.25 1.61 3.13 1.15 6.21 2.4 9.3 3.62.81.32 1.6.72 2.42 1 2.68 1 5.36 1.89 8.05 2.79 1.05.35 2.7.23 3.12.91 1.33 2.17 3.48 2.23 5.49 2.94 3.28 1.16 6.45 2.65 9.68 4 2.56 1.05 5.13 2.11 7.72 3.08a8.65 8.65 0 007.4-.18c6.17-3.2 10.7-8.7 16.85-11.93a3.87 3.87 0 00.55-.45c4.42-3.38 8.77-6.84 13.26-10.12 6.86-5 13.8-9.94 20.72-14.9 1.94-1.38 3.93-2.7 5.84-4.12 3.2-2.35 6.34-4.78 9.52-7.14 4.21-3.11 8.45-6.19 12.68-9.28 3.78-2.76 7.61-5.46 11.36-8.26 4.7-3.52 9.31-7.16 14-10.68 2.86-2.15 5.82-4.16 8.73-6.24 2.07-1.48 4.16-2.92 6.18-4.47 3.08-2.36 6.09-4.81 9.17-7.18 2.4-1.84 4.89-3.57 7.27-5.43 4.45-3.47 8.81-7 13.27-10.51 4.19-3.25 8.5-6.35 12.7-9.61 4.64-3.6 9.2-7.31 13.82-10.95 2.24-1.77 4.55-3.46 6.81-5.21q4.23-3.31 8.43-6.68c3.59-2.88 7.11-5.85 10.75-8.67 6.53-5.06 13.15-10 19.71-15 4.61-3.52 9.21-7 13.75-10.66a10.88 10.88 0 001.76-2.5 10.67 10.67 0 00-3-1.47c-1.81-.26-3.67 0-5.51-.12-7.51-.33-15-.49-22.52-1.12-8.89-.73-17.75-1.87-26.63-2.85-3.25-.36-6.51-.68-9.75-1.14-5.6-.79-11.16-2-16.79-2.45-16.26-1.16-32.54-2.18-48.84-2.92-19.24-.86-38.5-1.57-57.77-1.93a168.64 168.64 0 00-21.74 1.44c-6.42.71-12.74 2.39-19.17 3-4.29.38-6.17 3.21-8.31 6-1.77 2.3-3.26 4.83-4.92 7.22-2.61 3.79-6.92 5.37-10.83 6.57a30.66 30.66 0 01-18 .1c-4.4-1.38-8.4-4-9.36-9.28-1.56-8.49-1.75-16.58 3.61-24.29 3.56-5.12 7.81-8.72 13.63-10.45a10.34 10.34 0 015.86 0 58.52 58.52 0 0116.6 8.68 12.24 12.24 0 006.36 2.24c6.18.37 12.12-1.4 18.17-2.47a231.17 231.17 0 0129-3c5.85-.29 11.79.61 17.67 1.15 8.58.79 17.14 2 25.74 2.57 6.68.48 13.4.34 20.1.53 10.47.3 21 .6 31.41 1 7.67.29 15.38.36 23 1.22 12.46 1.42 24.84 3.59 37.43 3.6a9.36 9.36 0 011.66.24c4.79.8 9.56 1.84 14.38 2.36 6.47.82 13.1 1.12 20.28 1.63zm8.77 381.61a15 15 0 00.45-2.17c.5-11.08 1.23-22.17 1.41-33.27q.57-33.31.61-66.65c0-8.22-.62-16.44-1-24.66a7.85 7.85 0 00-.37-2.1 1.26 1.26 0 00-.85-.71c-.22 0-.63.46-.71.78a32 32 0 00-.95 4.91c-1.05 15.3-2.2 30.6-3 45.91a614.85 614.85 0 00.15 69.49c.22 3.25 1.86 5.77 4.26 8.47zm12.19-157.5l1.12-.2v-10.41c0-.45-.73-.89-1.11-1.33-.45.4-1.2.74-1.29 1.21a10.36 10.36 0 00-.17 3.55c.33 2.41.92 4.79 1.45 7.18zm-3.15-23l-.23-.21v5.32h.23z"/></symbol><symbol id="slider-btn" viewBox="0 0 128 128"><path d="M64 0a64 64 0 1064 64A64.07 64.07 0 0064 0zm0 122a58 58 0 1158-58 58.07 58.07 0 01-58 58z"/><path d="M58.12 35.88a3 3 0 00-4.24 4.24L77.76 64 53.88 87.88a3 3 0 104.24 4.24l26-26a3 3 0 000-4.24z"/></symbol><symbol id="stationery" viewBox="0 0 764.46 808.03"><path d="M576.14 421.69c-8.27 8.32-16.52 16.68-24.84 25q-15.36 15.31-30.8 30.55-11.24 11.16-22.43 22.33-14.26 14.18-28.53 28.35c-7.25 7.23-14.42 14.52-21.64 21.77l-32 32c-10.46 10.52-20.73 21.24-31.36 31.59-8.46 8.24-17.09 16.34-26.09 24-6.52 5.52-13.38 10.88-20.82 15s-15.84 6.85-24 9.79c-7.46 2.7-15 5.44-22.71 7.07-6 1.26-12.28 1-18.44 1.1-10 .14-20 .94-29.84-.27-7.95-1-15.6-4.42-23.34-6.9-5.56-1.78-11.17-3.48-16.53-5.75a70 70 0 01-11-6.31c-6.89-4.55-14.13-8.75-20.34-14.11-8-6.89-15.23-14.63-22.48-22.31a88.59 88.59 0 01-10.55-13.41c-3.67-5.82-6.69-12.06-9.77-18.23-2.43-4.86-5-9.74-6.64-14.88a177.43 177.43 0 01-5.92-23.1c-1.54-8.67-2.92-17.51-2.87-26.28a135.69 135.69 0 013.11-27.44c2.23-10.44 5-21 9.09-30.77a138.77 138.77 0 0115.06-26.16c5.87-8.24 12.87-15.72 19.8-23.13 8-8.57 16.47-16.68 24.72-25 14-14.18 28-28.43 42.05-42.56 16.79-16.85 33.72-33.56 50.53-50.4q30.19-30.27 60.3-60.63c13.06-13.12 26.22-26.16 39.27-39.29 10.74-10.8 21.34-21.73 32.09-32.51 5.88-5.89 11.55-12.1 18.14-17.08 2.2-1.66 8-1.3 10.3.49 4.43 3.43 4.79 9.33.93 13.48-9.68 10.43-20 20.25-30 30.39-12.84 13-25.52 26.2-38.42 39.16s-25.84 25.4-38.62 38.23c-17 17.07-33.88 34.31-50.85 51.44-9.26 9.34-18.65 18.57-27.9 27.94-7.59 7.69-15 15.59-22.61 23.25S214.67 383.25 207 391q-15.17 15.23-30.11 30.65c-6.38 6.57-13.33 12.77-18.67 20.11-5.68 7.81-10.18 16.58-14.43 25.31-3.29 6.78-6.52 14-7.79 21.29a235.94 235.94 0 00-4 39 83.71 83.71 0 004.78 28c4.35 12.23 9.72 24.41 16.7 35.3 6.24 9.76 14.95 18 23.16 26.4a115.77 115.77 0 0018 14.94c6.16 4.13 13 7.3 19.79 10.4 6.08 2.79 12.28 6.28 18.72 7.06 15.84 1.93 31.52 7.49 47.86 2.91 5.64-1.58 11.95-1.13 17.32-3.22 11.3-4.4 22.3-9.63 33.21-15 15.79-7.71 27.05-20.9 39.16-33.07 10.4-10.45 21.24-20.46 31.69-30.86s20.46-21 30.82-31.34c9.07-9.07 18.4-17.86 27.5-26.89s17.84-18.09 26.83-27c7.69-7.66 15.57-15.14 23.25-22.81 9.14-9.14 18.08-18.48 27.23-27.6 7.59-7.57 15.43-14.89 23-22.46s15.12-15.58 22.83-23.22 15.46-14.78 23-22.31c6.28-6.24 12.23-12.79 18.47-19.06 7.29-7.32 14.76-14.46 22.11-21.73q11.85-11.73 23.63-23.55c7.56-7.58 15.64-14.72 22.49-22.9a220.43 220.43 0 0019-26.78 129.5 129.5 0 0010.39-22.25 126.42 126.42 0 005.64-21.07 218.53 218.53 0 002.69-23.14 60.68 60.68 0 00-.66-10.91c-.89-8.44-.87-17.15-3.11-25.22-3.17-11.4-7-22.86-12.48-33.31s-12.64-20.17-20.19-29.28c-6.77-8.18-15.07-15.11-22.71-22.57-5-4.83-9.72-9.9-15-14.34a92.34 92.34 0 00-14-9.6A169.61 169.61 0 00623 30.73a150.22 150.22 0 00-22.91-7.28c-8.53-1.93-17.29-3.63-26-3.84a210.33 210.33 0 00-33.84 1.86 99.46 99.46 0 00-24.58 6.88c-9.49 4-19.08 8.43-27.4 14.39-31.91 22.89-56.72 53.42-84.77 80.47-27.7 26.7-54.55 54.29-81.77 81.49q-31.46 31.43-62.92 62.83-36.36 36.36-72.68 72.76c-13.32 13.28-26.88 26.33-40.21 39.6-9.07 9-17.84 18.34-26.89 27.36-11.73 11.7-23.88 23-35.35 34.91-9.13 9.49-18.28 19.14-26 29.75a189.26 189.26 0 00-18.21 31.5c-5.13 11-8.94 22.68-12.69 34.27-7.9 24.42-9.71 49.6-6.69 74.92a206.42 206.42 0 008.44 38.69 185.74 185.74 0 0015 33.19c6.5 11.63 13.43 23.33 22.07 33.36A208.54 208.54 0 0097 746.92 260.35 260.35 0 00133.63 770c8.88 4.69 18.84 7.65 28.62 10.24 12.28 3.24 24.81 5.68 37.35 7.72 5.14.84 10.6-.31 15.92-.46 11.76-.34 23.72.58 35.23-1.26 12-1.92 23.59-6.39 35.31-9.93 4.83-1.46 9.84-2.78 14.2-5.2 11.23-6.21 22.43-12.56 33.07-19.71a202 202 0 0023.24-18.69c9-8.27 17.42-17.24 26.11-25.89 9.29-9.25 18.64-18.45 27.91-27.72 8.88-8.88 17.65-17.86 26.55-26.72 9.21-9.16 18.57-18.17 27.78-27.33 6.26-6.22 12.32-12.64 18.55-18.89s12.59-12.4 18.83-18.65 12.52-12.8 18.88-19.1c6.18-6.14 12.51-12.12 18.72-18.24 6-5.91 11.85-11.91 17.81-17.84 5.23-5.2 10.54-10.32 15.76-15.53 6.12-6.12 12.14-12.34 18.26-18.46 6.34-6.34 12.77-12.57 19.09-18.92 6.12-6.13 12.12-12.38 18.25-18.5 6.39-6.38 12.93-12.61 19.3-19s12.52-12.9 18.82-19.3c3.09-3.14 6.34-6.11 9.46-9.22 6.5-6.5 12.92-13.07 19.44-19.56 4.75-4.73 9.62-9.34 14.39-14.06 6.37-6.32 12.61-12.77 19-19 7.91-7.67 15.82-15.33 24-22.69 3-2.67 11.28 2.84 10.91 7.82a18.88 18.88 0 01-4.56 10.93c-11.93 12.6-24.33 24.77-36.69 37-5.09 5-10.63 9.6-15.69 14.66-7.22 7.23-14.11 14.79-21.28 22.08-7.75 7.87-15.7 15.55-23.51 23.36-7.54 7.53-15 15.15-22.52 22.7s-15.31 15.25-22.94 22.91c-6.29 6.31-12.5 12.7-18.8 19-6.07 6.1-12.21 12.13-18.32 18.2l-23 22.89c-9.19 9.14-18.41 18.24-27.55 27.43-7.68 7.71-15.21 15.57-22.89 23.28-7.51 7.55-15.14 15-22.7 22.49s-15.28 15.3-22.95 22.94-15.6 15.4-23.33 23.18c-6.23 6.27-12.27 12.74-18.53 19-7.66 7.64-15.5 15.08-23.19 22.69-6.07 6-11.84 12.29-18.06 18.13-7.89 7.42-15.85 14.81-24.25 21.64a228.21 228.21 0 01-22.75 16.2c-6.24 3.89-13.07 6.83-19.72 10-5.65 2.74-11.28 5.62-17.15 7.81a260.61 260.61 0 01-25.92 8.48c-5.86 1.51-12.36.7-18.13 2.42-15.21 4.53-30.64 2.08-45.77 1.37s-30.28-4.26-45.08-7.94a155.12 155.12 0 01-31.26-11.69 314.2 314.2 0 01-38.73-22.29c-9.47-6.53-18-14.78-26.02-23.24a302.5 302.5 0 01-24.77-29.67c-5.46-7.45-9.67-15.86-13.92-24.11a214 214 0 01-11.07-24.47c-2.71-7.46-3.89-15.46-6.13-23.12C2 622.25.28 603.76 0 585.32c-.17-12.56 1.67-25.32 4.3-37.67 2.48-11.62 7-22.85 11-34.09 2.95-8.22 5.92-16.57 10.13-24.16a273.14 273.14 0 0118.24-27.89A284.56 284.56 0 0162 439.27c5.73-6.38 12.06-12.22 18.05-18.37 3.75-3.87 7.25-8 11.06-11.79 4.56-4.53 9.41-8.76 14-13.25 6.46-6.34 12.77-12.83 19.19-19.21 6.26-6.22 12.61-12.35 18.86-18.58s12.34-12.47 18.53-18.69c4.82-4.85 9.69-9.65 14.53-14.48 6.24-6.24 12.44-12.51 18.7-18.73 6.48-6.44 13-12.8 19.51-19.27 6-6 11.94-12.2 18-18.24 6.33-6.37 12.77-12.64 19.11-19s12.34-12.64 18.59-18.88c5-5 10.23-9.84 15.26-14.84 6.15-6.12 12.16-12.37 18.31-18.5 9-9 18.17-17.94 27.21-26.95 7.53-7.53 15-15.14 22.49-22.7s15-15 22.53-22.6c7.83-7.87 15.6-15.79 23.47-23.63 6.31-6.28 12.79-12.39 19.08-18.69s12.31-12.71 18.55-19 12.28-12.49 18.79-18.33c7-6.31 14-12.85 21.87-18a162.28 162.28 0 0128.48-15.06c12.2-4.85 25-8.19 37.65-11.88 2.66-.78 5.71-.27 8.58-.28 12.06 0 24.2-.92 36.16.19 8.59.79 17 4.08 25.36 6.54a138.91 138.91 0 0117.41 6.06A169.91 169.91 0 01649.75 23 161.64 161.64 0 01666 34.12c5.43 4.27 10.57 9 15.56 13.73 6.51 6.25 13 12.59 19.06 19.24a271.38 271.38 0 0119.09 22.45 193.74 193.74 0 0114.47 23.63c2.81 5.31 4.55 11.22 6.46 17 2.67 8 5.64 16 7.35 24.17 1.25 6 .92 12.37.86 18.58-.12 12.15.35 24.4-1.13 36.4-1.07 8.72-4.23 17.37-7.62 25.57-4.54 11-8.74 22.61-15.72 32-11.6 15.63-25 30-38.21 44.33-12.84 13.84-26.43 27-39.78 40.35-11.62 11.61-23.42 23-35 34.64-11.8 11.79-23.47 23.69-35.2 35.55zm-.04.04z"/></symbol><symbol id="toys" viewBox="0 0 674.11 528.47"><g data-name="&#x421;&#x43B;&#x43E;&#x439; 2"><path d="M594.09 310.39h-24.48c-7.54 0-9.36-3.25-6.57-10.32 3.07-7.79 5.84-15.72 8.35-23.71 2.31-7.33 4.32-14.77 6-22.26 1-4.4 1.15-9 1.68-13.52q1.49-12.49 3-25c.88-7.32-1-14.32-4-20.66-2.88-6-8.36-9.29-15.22-10.71a39.21 39.21 0 00-17.18.49c-4.76 1.08-9.47 1.88-13.74 4.42-3.32 2-7 3.48-10.17 5.63s-2.8 6.33-.16 10.56a48.71 48.71 0 013.17 7.23c.31.73.44 1.54.75 2.27 5.08 11.94 3.09 24.55 3.34 36.91.25 12.06-.28 24.13-.2 36.2.07 9.1.46 18.21.92 27.3.14 2.68 1 5.31 1.52 8 .57 3.06 1 6.15 1.62 9.19.84 4.12 1.8 8.22 2.7 12.33.38 1.71.69 3.44 1.18 5.12q1.41 4.9 3 9.74 2.6 7.88 5.31 15.71c.73 2.09 1.63 4.13 2.53 6.15 2 4.56 4 9.13 6.13 13.64 1.88 4 3.85 8 5.88 12s4 7.75 6.19 11.51 4.37 7.2 6.81 10.62a74.2 74.2 0 006.72 8.08 3.92 3.92 0 003.27.7c8-2.22 16.07-4.45 24-7 9.07-2.92 18-6.17 27-9.29a6.74 6.74 0 017.28 1.77c7 6.92 13.89 14 20.8 21 4 4 7.91 8.06 11.81 12.15 2.12 2.22-.63 6.35-4.58 7.59-5.91 1.86-11.74 4-17.54 6.19-4.86 1.86-9.53 4.23-14.43 6-6.14 2.17-12.45 3.84-18.63 5.92-5.77 1.94-11.39 4.35-17.2 6.15-7 2.19-14.23 3.9-21.31 5.93s-14.14 4.19-21.21 6.3c-1.14.35-2.26.81-3.41 1.12-4.46 1.16-8.9 2.43-13.41 3.38-4 .86-8.21 1.12-12.24 2-9.06 2.07-18 4.49-27.1 6.55-3 .69-6.19.59-9.26 1.09-8 1.31-16 2.81-24 4.14s-15.87 2.58-23.82 3.72c-2.19.32-4.47-.07-6.67.19-8.65 1-17.26 2.37-25.92 3.15-6.16.56-12.39.31-18.59.56-5.1.21-10.19.7-15.29.93-26.45 1.18-52.91 1.39-79.37.06-12.35-.62-24.74-.83-37.08-1.69-8.75-.6-17.47-1.89-26.19-3-10.87-1.41-21.72-3-32.57-4.48-9.28-1.31-18.62-2.34-27.81-4.11-9.67-1.86-19.19-4.53-28.81-6.69-4-.9-8.23-1.1-12.22-2.12-8.23-2.09-16.35-4.61-24.56-6.77-7.3-1.91-14.72-3.35-22-5.4-5.87-1.67-11.57-3.94-17.34-6-1.13-.39-2.23-.88-3.36-1.26q-12.06-4-24.13-8c-5.25-1.73-10.6-3.21-15.78-5.13s-10.06-4.19-15.1-6.26c-1.9-.78-3.89-1.38-5.82-2.09a14.38 14.38 0 01-3.52-1.4c-4.55-3.3-4.11-5.5 1.25-10.68 8.36-8.07 16.49-16.38 24.81-24.51 2.88-2.77 5.88-5.28 8.88-7.71.51-.41 1.87-.17 2.62.2 1.81.91 3.39 2.4 5.26 3.08 7 2.55 14.07 5 21.2 7.22 6.73 2.07 13.61 3.69 20.39 5.61a38.56 38.56 0 014.84 2.05c4.89 2.14 8.58.57 11.43-4 3.36-5.37 7.28-10.38 10.88-15.59 1.44-2.09 2.75-4.26 4-6.45q5.4-9.26 10.71-18.56c2.26-4 4.54-8 6.58-12.09s3.87-8.66 5.88-12.95c1-2.08 2.36-4 3.23-6.1 3-7.42 6.35-14.76 8.78-22.38 3.37-10.58 6.12-21.37 9-32.11 2.51-9.43 5-18.87 7.09-28.39 1-4.4.42-9.17 1.57-13.5 3.41-12.78 3.38-25.8 3.37-38.82 0-18.53-.16-37.06-.6-55.59-.12-4.8-1.63-9.57-2.38-14.38-.54-3.45-.86-6.94-1.32-10.4-.29-2.2-1.66-3.14-3.81-3.16a23.11 23.11 0 00-15.11 5.06 5 5 0 00-1.43 1.87c-1.68 4-3.18 8-4.95 11.87-2.21 4.91-4.63 9.72-7 14.57-.24.51-.51 1-.73 1.51-1.85 4.27-3.38 8.72-5.7 12.72-.84 1.44-3.59 2.53-5.43 2.48-7.6-.2-15.35.2-22.53-3.17a5.88 5.88 0 00-1.6-.46c-8.33-1.39-16-4.67-23.43-8.43a31.67 31.67 0 01-6.81-4.64c-.73-.66-.77-2.61-.46-3.79 1.26-4.76 2.69-9.47 4.22-14.14 2-6 4.28-12 6.11-18 2.06-6.82 3.64-13.79 5.64-20.63.82-2.8 2.43-5.38 3.25-8.18 2-6.85 3.55-13.83 5.64-20.64 2.38-7.73 5.21-15.33 7.73-23a117.84 117.84 0 003.53-12.11c1.48-7 .86-13.93-.87-20.81-1.37-5.46-2.66-10.94-4-16.4-1.09-4.38-2.64-8.7-3.21-13.15-.7-5.38 3.6-8 8.42-5.59a40.92 40.92 0 004.3 1.44c4.73 1.75 10 2.77 14.06 5.48a94 94 0 0117.12 14.32 22.54 22.54 0 0012.21 7.11c3.41.77 6.89 1.27 10.28 2.12q8.08 2 16.07 4.41c5 1.47 9.95 2.89 14.75 4.78a109.55 109.55 0 0111 5.57c4 2.1 8 4.12 11.84 6.5a155 155 0 0113.57 9.24q9.92 7.77 19.34 16.15a134.59 134.59 0 019.62 10.19c3.47 3.8 7 7.57 10.26 11.56 3.45 4.25 6.64 8.72 9.87 13.15 1.78 2.43 3.44 5 5.07 7.5 3.63 5.67 7.34 11.31 10.74 17.12 2.15 3.66 3.76 7.63 5.68 11.43 2.13 4.21 4.33 8.38 6.5 12.56.36.71.8 1.38 1.1 2.11 1.7 4.1 2.85 8.55 5.24 12.2 1.44 2.21 4.75 4.49 7.24 4.52 30.15.3 60.31.24 90.46.09 2.51 0 5-1.36 7.51-2.13 9.18-2.86 18.21-6.4 27.56-8.39 6.46-1.37 13.39-1.12 20-.66 4.82.33 9.54 2.23 14.31 3.38 2.4.58 4.82 1.05 7.23 1.59 4.95 1.1 6.55-3.46 9.46-5.7 5.13-4 9.91-8.39 15.15-12.18a52.06 52.06 0 0111-6.06A120 120 0 01544 144.5a211.74 211.74 0 0123.57-4.16c10-1.18 19.63 1.57 29.18 4.32 9.32 2.68 17.73 7.09 24.57 14 5.18 5.2 9.89 10.88 14.59 16.54a19.57 19.57 0 013.1 6.13c2 5.91 6.38 10.88 6.77 17.48.13 2.23 1.44 4.37 2.06 6.6s1.5 4.64 1.51 7c0 9.74-.82 19.53-.09 29.2.5 6.6-2.09 12.16-3.22 18.2-.36 1.88-.21 3.9-.83 5.67-2.09 5.9-4.35 11.74-6.69 17.54-1.84 4.56-3.72 9.11-5.88 13.52a64.29 64.29 0 01-6.42 11.06 8.6 8.6 0 01-6 2.73c-8.71.3-17.43.13-26.15.13zm-3.45-98.52c-.57 6.39-.51 10.78-1.44 14.95-2.47 11.11-2 22.6-5.33 33.66-2.87 9.52-4.11 19.52-8.22 28.76a31.43 31.43 0 00-1.09 4.4 16.33 16.33 0 01-1.49 4.47c-1.36 2.13-.73 3.11 1.45 3.49a37.28 37.28 0 005.67.64c12.54.23 25.09.45 37.63.44a5 5 0 003.65-2.38c2.9-5.6 5.51-11.36 8.15-17.1 2.3-5 5-9.89 6.63-15.12a226.75 226.75 0 005.21-22.08c.59-2.95.19-6.07.46-9.09 1.34-14.62.31-29-4.38-43a71.45 71.45 0 00-5.54-11.59 48.52 48.52 0 00-5.79-8.39c-3.21-3.68-6.88-7-10.22-10.52-5.07-5.44-11.94-7.93-18.46-10.56-5.66-2.28-12-3.1-18.11-4a63.1 63.1 0 00-26.55 1.88c-2.22.64-4.58.75-6.78 1.41-5.75 1.71-11.59 3.26-17.14 5.51-3.84 1.56-7.31 4.09-10.86 6.32a64.25 64.25 0 00-18.64 17.11c-2.87 4-5.65 4.78-9.25 3.08-5.06-2.4-10.25-4.93-15.66-6.15-12.63-2.83-25.11-.6-37.27 3.08-5.13 1.55-9.9 4.26-14.92 6.2a20.79 20.79 0 01-7.15 1.6q-47 .15-94.06 0c-2.4 0-5.77 0-7-1.48-2.69-3.2-4.34-7.29-6.33-11.05-.59-1.11-.85-2.38-1.38-3.51-2.21-4.75-4.43-9.5-6.72-14.21-1.2-2.49-2.58-4.9-3.85-7.36-2.1-4.08-4.08-8.23-6.3-12.24-1.82-3.3-3.91-6.46-5.91-9.67s-3.91-6.56-6.13-9.66c-3.61-5-7.29-10-11.21-14.81-4.42-5.41-9-10.7-13.76-15.8-3.58-3.82-7.51-7.34-11.41-10.85a128.87 128.87 0 00-10.59-8.82c-5-3.55-10.11-6.85-15.33-10q-7.11-4.29-14.55-8a119.51 119.51 0 00-11.82-5c-5.94-2.19-11.91-4.39-18-6.11-3.88-1.1-8-1.29-12-2-3.52-.63-7-1.29-10.5-2.18a12.45 12.45 0 01-5.17-2.28 51.36 51.36 0 01-6-7c-5.69-7.45-13.71-11.64-21.85-15.62a7.79 7.79 0 00-4.2-.21c-2.08.28-2.69 1.45-2 3.61 1.17 3.79 2 7.68 3 11.51.68 2.53 1.59 5 2.13 7.57 1.14 5.52 3.46 11.23 2.84 16.58-1 8.21-3.83 16.23-6.21 24.24-1.89 6.19-4.37 12.21-6.28 18.46-2.38 7.73-4.37 15.58-6.69 23.32-2.14 7.14-4.53 14.2-6.76 21.3-.59 1.9-1 3.86-1.53 5.77-1 3.42-2 6.83-3.06 10.25-.3 1-.52 2-.87 3-1.23 3.35-2.73 6.63-3.71 10-1.42 5 .69 9.32 5 11 3.19 1.23 6.35 2.58 9.64 3.49 6.33 1.76 12.74 3.27 19.13 4.85 5.85 1.45 11.44-1.22 12.92-5.61 1.54-4.57 3.61-9 5.52-13.4q2.06-4.8 4.31-9.5c2.21-4.64 4.83-9.13 6.65-13.92 1-2.78 2.63-3.79 5.27-4.36 4.9-1.07 9.78-2.26 14.56-3.74 1.88-.59 3.37-2.41 5.25-3.11 5-1.84 8.07-5.93 11.63-9.43a18.08 18.08 0 002.72-4.14c.81-1.44 2.06-3 2.1-4.46.24-7.75.32-15.52.06-23.27a16.82 16.82 0 00-2.24-7.23c-2-3.67-.06-8.55 4.06-9.16 1.76-.26 6.64 4.38 6.86 6.35.51 4.47.56 9.12 1.86 13.36 1.77 5.72 2.11 11-.52 16.5-1.38 2.86-2.93 5.75-1.57 9.15.2.5.08 1.55-.27 1.77-2.89 1.86-3.48 5.15-5.19 7.73S185.2 134 183 136.3c-1.69 1.82-4.12 3.7-4.47 5.83-.56 3.44.1 7.16.65 10.69.87 5.51 2.59 10.91 3 16.43.75 9.31 1.08 18.68 1.05 28 0 16-.17 32-.9 47.95-.36 7.75-2.17 15.43-3.31 23.14-.81 5.41-1.52 10.84-2.42 16.23-.54 3.3-1.38 6.54-2 9.82-.6 3-1.05 6.11-1.75 9.12-.76 3.24-1.77 6.42-2.6 9.64-.46 1.78-.58 3.65-1.16 5.38-3.7 10.91-7.49 21.78-11.23 32.68-.48 1.41-.71 2.92-1.3 4.29q-3.45 8.09-7.07 16.09-2.85 6.27-5.92 12.42t-6.47 12.43c-2.09 3.82-4.29 7.57-6.51 11.32-1.93 3.27-3.92 6.5-5.93 9.72-2.14 3.42-4.36 6.79-6.51 10.2-2.67 4.22-5.38 8.42-7.86 12.75-.32.56.39 2.19 1.08 2.71a5.42 5.42 0 003.38 1c8-.53 14.56 5.79 22.66 4.5a.84.84 0 01.44.17c5.77 3.55 12.21 3.71 18.69 3.8 2.81 0 5.17-.56 6.94-2.94 1.33-1.77 2.85-3.39 4.3-5.07 3.78-4.38 7.86-8.54 11.28-13.17 6.79-9.19 13.24-18.62 19.78-28 1.62-2.34 3.12-4.77 4.57-7.23 2.06-3.49 4-7.05 6-10.56 3.53-6.11 7.12-12.19 10.61-18.32 1.57-2.75 3-5.56 4.41-8.42 2-4.14 3.83-8.35 5.72-12.54 1.33-3 2.62-5.93 3.92-8.91 2.5-5.73 4.82-11.54 7.57-17.14a10.74 10.74 0 014.52-4.76c2.21-1.07 4.69-.33 6.33 2a6.53 6.53 0 001.93 1.77c7.75 4.65 15.49 9.33 23.32 13.83 2.45 1.41 5.42 2 7.76 3.53a58 58 0 0019.5 7.89c.92.2 1.74.8 2.65 1.09 2.94.92 5.89 1.81 8.86 2.64 1.91.54 3.85.93 5.78 1.41 3.15.8 6.27 2.14 9.46 2.34 9.64.61 19.3.86 29 1.09a77.36 77.36 0 0013.28-.34c4.77-.71 9.4-2.32 14.08-3.58 3.91-1.06 7.88-1.93 11.67-3.32a135.23 135.23 0 0013.08-5.68 131.14 131.14 0 0013.07-7.14c2.9-1.85 8.45-2.82 10.33-.93s3.52 3.88 5.23 5.87c3.19 3.74 6.43 7.45 9.51 11.28 3.53 4.39 7 8.81 10.29 13.4q5.7 8 10.93 16.41t10 17c2.61 4.73 4.88 9.64 7.25 14.49 1.91 3.93 4 7.8 5.54 11.86 2 5.16 3.61 10.49 5.41 15.73.23.67.68 1.27.93 1.93.73 1.93 1.49 3.84 2.07 5.8.52 1.76.69 3.62 1.24 5.36 1.32 4.11 4.54 5.08 8.56 3.43a56.55 56.55 0 019.9-2.52c7.7-1.6 15.42-3.1 23.13-4.65a2.13 2.13 0 00.68-.24 26.28 26.28 0 0113.71-3.54 8.63 8.63 0 003.85-1.21c3-1.55 3.77-4.15 2.21-7.07-1.2-2.24-2.56-4.38-3.86-6.56-2.43-4.09-4.94-8.12-7.29-12.25-2-3.59-4-7.22-5.78-10.93-2-4.06-3.7-8.24-5.55-12.36s-4-8.1-5.55-12.31c-2.41-6.47-4.51-13.06-6.61-19.64-2.26-7-4.77-14-6.43-21.2a182.07 182.07 0 01-3.88-23.3c-.88-9-1.11-18.14-1.3-27.22-.16-7.91.22-15.83.22-23.75 0-11.26-.21-22.53-.22-33.79A49.62 49.62 0 00510 201.46c-1.76-2.31-2.07-5.73-.3-7.18a81.94 81.94 0 016.64-5 70.76 70.76 0 018.8-5.16c5-2.34 10-5.28 15.34-6.23 9.33-1.67 18.89-2.3 28.3.29 8 2.22 14.22 7.33 17.38 14.54 2.84 6.51 3.35 14.01 4.48 19.15zM418.93 469.15v.44c2.62-.17 5.27-.18 7.86-.55 8.85-1.24 17.67-2.68 26.52-3.9 12.77-1.75 25.57-3.33 38.34-5.08 3.78-.51 6.15-3.05 5.52-5.93a90.87 90.87 0 00-3.1-11.51c-1.81-5-4-9.84-6.12-14.72-2.64-6.09-5.18-12.24-8.06-18.22a217.23 217.23 0 00-10.06-19.41c-5.24-8.6-10.94-16.93-16.73-25.17-3.92-5.59-8.23-10.92-12.57-16.19a53.41 53.41 0 00-7.57-7.54 5 5 0 00-4.42-.28c-6.8 3.32-13.28 7.34-20.21 10.32-5.5 2.37-11.48 3.62-17.27 5.29-4.36 1.27-8.69 3.14-13.14 3.48-9.86.77-19.79 1.06-29.69.94a122.51 122.51 0 01-21.21-1.95 162.39 162.39 0 01-21.28-6c-7.34-2.48-14.54-5.4-21.73-8.3-3.82-1.55-7.52-3.41-11.21-5.26-3.46-1.74-6.88-3.59-10.25-5.52a51 51 0 01-7.55-4.89c-3.9-3.26-7.89-2.09-9.53 2.73-1.58 4.64-3.67 9.11-5.62 13.62-1.33 3.06-2.71 6.1-4.24 9.05-2.14 4.14-4.5 8.15-6.66 12.28-1.86 3.57-3.35 7.36-5.38 10.82-4.91 8.35-10 16.57-15.1 24.82-1.45 2.36-3 4.7-4.51 7-3.49 5.2-6.91 10.45-10.55 15.54-3.37 4.7-6.93 9.28-10.52 13.82s-7.13 8.95-10.91 13.23c-1.87 2.11-1.94 4 .74 5a75.31 75.31 0 0011.48 3.14c4.93.9 10 1.21 14.9 2 2.82.43 5.55 1.51 8.38 1.87 6.41.82 12.86 1.33 19.29 2.05 8.79 1 17.57 2.09 26.36 3.07 9.27 1 18.52 2.38 27.81 2.87 13.41.7 26.84.92 40.26 1 18.61.14 37.22.15 55.83-.09 7.09-.09 14.17-.93 21.23-1.59 6.9-.65 13.74-1.51 20.67-2.28zm71.86 37.66l.09.48a24.81 24.81 0 004.06-.29c11.24-2.59 22.45-5.31 33.69-7.88 7.72-1.76 15.51-3.21 23.22-5 7-1.66 14-3.57 21-5.48 2.22-.61 4.3-1.69 6.5-2.35 7.36-2.23 14.79-4.25 22.12-6.59 5.95-1.91 11.75-4.28 17.69-6.25 5.25-1.75 10.68-3 15.88-4.89 6.85-2.49 13.56-5.33 20.29-8.13 1.73-.71 4.75-1.93 4.68-2.71a11.49 11.49 0 00-2.71-6.43c-4.78-5.21-10.14-9.89-14.88-15.13-5.06-5.58-8.56-6.84-15.66-4.45-4.06 1.36-8.1 2.78-12.14 4.2-9 3.2-17.8 7.28-27.42 8.65a10.69 10.69 0 00-2.21.9c-5.42 2.13-10.84 4.27-16.27 6.36-.49.19-1.13-.08-1.66 0-3.22.67-6.45 1.29-9.64 2.11-2.59.67-5.07 2-7.69 2.29-3.9.41-7.78.29-11.15 2.87a7.63 7.63 0 01-3.86 1.1c-5.18.4-10.4.47-15 3.39a6.25 6.25 0 01-2.55.6c-6.11.66-12.25 1.11-18.33 2-3.85.55-7.57 1.88-11.41 2.56-5.56 1-11.16 1.78-16.76 2.52-4.09.55-8.23.72-12.31 1.34-7 1.05-14 2.56-21 3.42-6.17.76-12.43.81-18.63 1.32-15.69 1.29-31.35 3.28-47.06 3.83-19.56.68-39.17 0-58.76.28-15.32.22-30.46-1.61-45.65-3.14-9.93-1-19.92-1.38-29.86-2.26-3.39-.3-6.7-1.45-10.09-1.86-5.86-.72-11.78-.94-17.63-1.77-6.53-.92-13-2.34-19.5-3.44-3.85-.64-7.74-1-11.6-1.62q-8.72-1.32-17.39-2.76c-2.73-.46-5.46-1-8.15-1.63-2.92-.67-5.79-1.51-8.69-2.26-3.8-1-7.6-2-11.42-2.91-2.82-.68-5.67-1.28-8.52-1.83-2-.39-4.31-.14-6-1.07-4-2.2-7.84-3.92-12.49-3a3.73 3.73 0 01-1.83-.46c-5.22-2.08-10.35-4.44-15.67-6.22-10.24-3.43-20.6-6.53-30.9-9.79-2.71-.87-5.38-1.87-8.09-2.76-5.35-1.76-10.74-3.86-15.42 1.52-1.19 1.37-2.53 2.6-3.83 3.87-5 4.9-10.1 9.66-14.91 14.71-2.82 3-1.88 6.3 1.52 7.4 5.57 1.79 11.1 3.73 16.64 5.61.3.1.57.29.87.41 5 2.05 10 4.22 15.16 6.1 3 1.12 6.24 1.72 9.34 2.68 1.95.6 3.81 1.53 5.76 2.13 1.59.49 3.32.56 4.89 1.09 7.35 2.47 14.64 5.09 22 7.52 2 .66 4.26.66 6.3 1.27 7.06 2.1 14 4.41 21.12 6.47 4.64 1.34 9.34 2.52 14.06 3.52 3.74.78 7.6 1 11.32 1.79 9.39 2.12 18.68 4.63 28.08 6.68 7 1.52 14.05 2.65 21.11 3.78 8.65 1.38 17.32 2.71 26 3.81 7.68 1 15.41 1.5 23.1 2.43 6.33.76 12.6 2.16 18.94 2.67 8.43.68 16.91.71 25.37 1.11 11.87.57 23.72 1.51 35.59 1.76 9.72.2 19.46-.35 29.19-.64 12.29-.36 24.58-.83 36.87-1.19 12-.35 24.05-.49 36-2.67 8.53-1.55 17.33-1.54 26-2.56 4.81-.56 9.53-1.92 14.32-2.72 6.18-1 12.39-1.86 18.58-2.86 2.45-.36 4.91-1.03 7.39-1.55z" data-name="&#x421;&#x43B;&#x43E;&#x439; 1"/></g></symbol><symbol id="visa" viewBox="0 0 282 92.638"><path d="M184.19.983c-22.429 0-38.184 11.924-38.323 28.974-.142 12.631 11.267 19.674 19.848 23.872 8.853 4.292 11.81 7.05 11.781 10.89-.088 5.884-7.084 8.565-13.585 8.565-9.063 0-13.895-1.323-21.322-4.59l-2.945-1.4-3.172 19.652c5.303 2.445 15.095 4.564 25.275 4.675 23.801 0 39.287-11.787 39.471-29.987.094-10.018-5.962-17.6-19.056-23.86-7.904-4.07-12.792-6.77-12.719-10.893.006-3.644 4.101-7.55 12.991-7.55 7.425-.125 12.764 1.58 16.968 3.375l2.022 1.009 3.085-19.036c-4.48-1.77-11.55-3.695-20.32-3.695zm-70.41 1.532L99.594 90.323h22.665l14.194-87.81h-22.67zM80.575 2.6L58.381 62.444l-2.366-12.16c-5.527-14.911-17.492-30.552-31.426-36.891l20.302 76.846 24-.011L104.581 2.6H80.575zm164.57.006c-5.43 0-9.5 1.547-11.897 7.288l-33.657 80.458h23.813s3.893-10.83 4.774-13.201c2.599 0 25.727.05 29.027.05.701 3.061 2.76 13.15 2.76 13.15h21.056L262.66 2.606h-17.515zm1.602 23.673l1.51 7.57s4.358 20.95 5.267 25.338h-18.822c1.883-5.038 9.032-24.544 9.032-24.544-.14.239 1.86-5.079 3.013-8.365z" fill="#0023a0"/><path d="M37.798 2.554H1.23l-.213 1.51c28.431 7.272 47.188 25.128 54.998 46.243L48.068 9.95c-1.366-5.55-5.345-7.2-10.27-7.396" fill="#ffab00"/></symbol></svg>