<svg width="31" height="34" viewBox="0 0 31 34" fill="none" xmlns="http://www.w3.org/2000/svg">
<path d="M14.0122 18.8066H19.2783C19.5102 18.8066 19.6981 18.6005 19.6981 18.3462C19.6981 18.0918 19.5102 17.8857 19.2783 17.8857H14.0122C13.7803 17.8857 13.5924 18.0918 13.5924 18.3462C13.5924 18.6005 13.7803 18.8066 14.0122 18.8066Z" fill="#FF5B14"/>
<path d="M12.944 18.3462C12.944 18.0918 12.7561 17.8857 12.5242 17.8857H9.89623C9.66435 17.8857 9.47644 18.0918 9.47644 18.3462C9.47644 18.6005 9.66435 18.8066 9.89623 18.8066H12.5244C12.7563 18.8063 12.944 18.6002 12.944 18.3462H12.944Z" fill="#FF5B14"/>
<path d="M6.68529 18.8066H8.44468C8.67656 18.8066 8.86447 18.6005 8.86447 18.3462C8.86447 18.0918 8.67656 17.8857 8.44468 17.8857H6.68529C6.45341 17.8857 6.2655 18.0918 6.2655 18.3462C6.2655 18.6005 6.45341 18.8066 6.68529 18.8066Z" fill="#FF5B14"/>
<path d="M18.2219 16.0439H19.2784C19.5103 16.0439 19.6982 15.8378 19.6982 15.5835C19.6982 15.3291 19.5103 15.123 19.2784 15.123H18.2219C17.99 15.123 17.8021 15.3291 17.8021 15.5835C17.8021 15.8378 17.99 16.0439 18.2219 16.0439Z" fill="#FF5B14"/>
<path d="M14.3961 16.0439H16.7824C17.0143 16.0439 17.2022 15.8378 17.2022 15.5835C17.2022 15.3291 17.0143 15.123 16.7824 15.123H14.3961C14.1642 15.123 13.9763 15.3291 13.9763 15.5835C13.9763 15.8378 14.1642 16.0439 14.3961 16.0439Z" fill="#FF5B14"/>
<path d="M6.68517 16.0439H12.9408C13.1727 16.0439 13.3606 15.8378 13.3606 15.5835C13.3606 15.3291 13.1727 15.123 12.9408 15.123H6.68517C6.45329 15.123 6.26538 15.3291 6.26538 15.5835C6.26538 15.8378 6.45329 16.0439 6.68517 16.0439Z" fill="#FF5B14"/>
<path d="M19.2781 20.6484H16.1829C15.951 20.6484 15.7631 20.8545 15.7631 21.1089C15.7631 21.3632 15.951 21.5693 16.1829 21.5693H19.2781C19.51 21.5693 19.6979 21.3632 19.6979 21.1089C19.6979 20.8545 19.51 20.6484 19.2781 20.6484Z" fill="#FF5B14"/>
<path d="M14.7402 20.6484H12.4123C12.1805 20.6484 11.9926 20.8545 11.9926 21.1089C11.9926 21.3632 12.1805 21.5693 12.4123 21.5693H14.7402C14.9721 21.5693 15.16 21.3632 15.16 21.1089C15.16 20.8545 14.9721 20.6484 14.7402 20.6484Z" fill="#FF5B14"/>
<path d="M11.332 21.1089C11.332 20.8545 11.1441 20.6484 10.9122 20.6484H6.68578C6.4539 20.6484 6.26599 20.8545 6.26599 21.1089C6.26599 21.3632 6.4539 21.5693 6.68578 21.5693H10.9124H10.9122C11.1441 21.5693 11.332 21.3632 11.332 21.1089H11.332Z" fill="#FF5B14"/>
<path d="M0.441348 32.7721H25.8035C25.9142 32.7737 26.0211 32.7266 26.1003 32.6416L30.8475 27.4282C30.9239 27.3416 30.9654 27.2249 30.9624 27.1045V1.30157C30.9659 1.18236 30.9247 1.0667 30.8487 0.981199C30.7725 0.89597 30.6681 0.848557 30.5591 0.849651H5.197C5.0863 0.848007 4.97936 0.895145 4.90015 0.980104L0.152743 6.19374C0.0762814 6.28034 0.0350539 6.39681 0.0380476 6.51713V32.3201C0.0345493 32.4393 0.0757785 32.555 0.151738 32.6405C0.22795 32.7257 0.332397 32.7731 0.441342 32.772L0.441348 32.7721ZM16.0598 31.8512H10.2527V26.4644L10.6038 26.8895C10.679 26.9799 10.785 27.032 10.8964 27.0331C11.0091 27.0336 11.1171 26.9837 11.1953 26.8949L12.0208 25.97L12.8367 26.8933V26.893C12.9157 26.9823 13.0241 27.0327 13.1375 27.0327C13.251 27.0327 13.3597 26.9823 13.4384 26.893L14.2548 25.9697L15.0821 26.8867V26.8869C15.1618 26.973 15.27 27.0199 15.382 27.0168H15.3855H15.3852C15.4992 27.0193 15.6091 26.9703 15.6891 26.8815L16.0599 26.4643L16.0598 31.8512ZM30.1226 26.9138L26.2046 31.2086V6.71338L30.1226 2.41862V26.9138ZM29.5511 1.77035L25.6296 6.06757H14.1255L18.0516 1.77035H29.5511ZM16.2694 6.9884V10.9019H9.97252V6.9884H16.2694ZM0.877382 6.9884H4.65547C4.88736 6.9884 5.07527 6.78231 5.07527 6.52799C5.07527 6.27366 4.88736 6.06757 4.65547 6.06757H1.44459L5.37038 1.77035H16.8642L12.9384 6.06757H7.45389C7.22201 6.06757 7.0341 6.27366 7.0341 6.52799C7.0341 6.78231 7.22201 6.9884 7.45389 6.9884H9.13306V11.3309C9.13606 11.594 9.32471 11.8091 9.5641 11.8228H16.7087C16.9406 11.8228 17.109 11.5852 17.109 11.3309V6.9884H25.3648V31.8512H16.8992V25.3106C16.8979 25.1217 16.7925 24.9526 16.6323 24.8828C16.4724 24.8131 16.2897 24.857 16.1708 24.9935L15.3775 25.9094L14.5529 24.9971C14.4731 24.9113 14.3647 24.865 14.253 24.8682H14.2518C14.1398 24.865 14.0314 24.9121 13.9517 24.9987L13.1366 25.9157L12.3212 24.9921C12.2425 24.9028 12.1343 24.8521 12.0211 24.8512C11.9082 24.8515 11.8 24.9011 11.7203 24.9885L10.8962 25.9094L10.1033 24.9932C9.99185 24.857 9.81444 24.8128 9.66026 24.8825C9.50434 24.9545 9.40589 25.1253 9.41289 25.3105V31.8512H0.876964L0.877382 6.9884Z" fill="#FF5B14"/>
<path d="M2.55688 8.99121C2.32499 8.99121 2.13708 9.1973 2.13708 9.45163V9.93506C2.13708 10.1894 2.32499 10.3955 2.55688 10.3955C2.78876 10.3955 2.97667 10.1894 2.97667 9.93506V9.45163C2.97667 9.1973 2.78876 8.99121 2.55688 8.99121Z" fill="#FF5B14"/>
<path d="M2.55675 10.9326C2.32487 10.9326 2.13696 11.139 2.13696 11.393V17.225C2.13696 17.4793 2.32487 17.6854 2.55675 17.6854C2.78864 17.6854 2.97655 17.4793 2.97655 17.225V11.393C2.97655 11.139 2.78864 10.9326 2.55675 10.9326Z" fill="#FF5B14"/>
</svg>
