<svg width="38" height="38" viewBox="0 0 38 38" fill="none" xmlns="http://www.w3.org/2000/svg">
<path d="M28.3604 21.4495C28.3604 21.5754 28.3101 21.6963 28.2205 21.7847C28.1312 21.8735 28.0101 21.9229 27.8842 21.9218H24.2306C24.0975 21.9341 23.9652 21.8897 23.8661 21.7993C23.7673 21.7091 23.7109 21.5815 23.7109 21.4476C23.7109 21.3136 23.7673 21.186 23.8661 21.0958C23.9652 21.0054 24.0975 20.961 24.2306 20.9733H27.8641C27.9939 20.968 28.1204 21.0157 28.2139 21.1056C28.3077 21.1955 28.3604 21.3197 28.3604 21.4495L28.3604 21.4495ZM27.8842 25.0149L24.2306 25.0152C23.9677 25.0152 23.7544 25.2281 23.7544 25.4914C23.7544 25.7543 23.9677 25.9673 24.2306 25.9673H27.8641C28.1273 25.9673 28.3403 25.7543 28.3403 25.4914C28.3403 25.2281 28.1273 25.0152 27.8641 25.0152L27.8842 25.0149ZM20.2368 25.0149L16.5832 25.0152C16.3203 25.0152 16.107 25.2281 16.107 25.4914C16.107 25.7543 16.3203 25.9673 16.5832 25.9673H20.2167C20.4796 25.9673 20.6929 25.7543 20.6929 25.4914C20.6929 25.2281 20.4796 25.0152 20.2167 25.0152L20.2368 25.0149ZM12.5937 25.0149L8.93617 25.0152C8.67323 25.0152 8.45997 25.2281 8.45997 25.4914C8.45997 25.7543 8.67323 25.9673 8.93617 25.9673H12.5735C12.8367 25.9673 13.0497 25.7543 13.0497 25.4914C13.0497 25.2281 12.8367 25.0152 12.5735 25.0152L12.5937 25.0149ZM12.5937 16.9316L8.93617 16.9319C8.80275 16.9196 8.67043 16.964 8.57162 17.0541C8.47281 17.1446 8.41642 17.2721 8.41642 17.4061C8.41642 17.5398 8.47281 17.6677 8.57162 17.7578C8.67043 17.848 8.80275 17.8924 8.93617 17.8801H12.5735C12.8186 17.8578 13.0062 17.652 13.0062 17.4061C13.0062 17.1599 12.8186 16.9545 12.5735 16.9319L12.5937 16.9316ZM12.5937 20.9732L8.93617 20.9734C8.80275 20.9612 8.67043 21.0055 8.57162 21.096C8.47281 21.1861 8.41642 21.3137 8.41642 21.4477C8.41642 21.5817 8.47281 21.7092 8.57162 21.7994C8.67043 21.8898 8.80275 21.9342 8.93617 21.9219H12.5735C12.8186 21.8993 13.0062 21.6939 13.0062 21.4477C13.0062 21.2015 12.8186 20.9961 12.5735 20.9734L12.5937 20.9732ZM20.2368 16.9316L16.5832 16.9319C16.4501 16.9196 16.3178 16.964 16.2187 17.0541C16.1199 17.1446 16.0635 17.2721 16.0635 17.4061C16.0635 17.5398 16.1199 17.6677 16.2187 17.7578C16.3178 17.848 16.4501 17.8924 16.5832 17.8801H20.2167C20.3501 17.8924 20.4824 17.848 20.5813 17.7578C20.6803 17.6677 20.7365 17.5398 20.7365 17.4061C20.7365 17.2721 20.6803 17.1446 20.5813 17.0541C20.4824 16.964 20.3501 16.9196 20.2167 16.9319L20.2368 16.9316ZM20.2368 20.9732L16.5832 20.9734C16.4501 20.9612 16.3178 21.0055 16.2187 21.096C16.1199 21.1861 16.0635 21.3137 16.0635 21.4477C16.0635 21.5817 16.1199 21.7092 16.2187 21.7994C16.3178 21.8898 16.4501 21.9342 16.5832 21.9219H20.2167C20.3501 21.9342 20.4824 21.8898 20.5813 21.7994C20.6803 21.7092 20.7365 21.5817 20.7365 21.4477C20.7365 21.3137 20.6803 21.1861 20.5813 21.096C20.4824 21.0055 20.3501 20.9612 20.2167 20.9734L20.2368 20.9732ZM27.8842 16.9316L24.2306 16.9319C24.0975 16.9196 23.9652 16.964 23.8661 17.0541C23.7673 17.1446 23.7109 17.2721 23.7109 17.4061C23.7109 17.5398 23.7673 17.6677 23.8661 17.7578C23.9652 17.848 24.0975 17.8924 24.2306 17.8801H27.8641C27.9975 17.8924 28.1298 17.848 28.2287 17.7578C28.3277 17.6677 28.3841 17.5398 28.3841 17.4061C28.3841 17.2721 28.3277 17.1446 28.2287 17.0541C28.1298 16.964 27.9975 16.9196 27.8641 16.9319L27.8842 16.9316ZM33.7945 28.5363V28.5366C33.5815 28.3834 33.339 28.2759 33.0822 28.2206C32.9437 28.1924 32.8092 28.1467 32.6822 28.0844C32.6127 28.0465 32.5675 27.9756 32.5622 27.8963C32.5649 27.846 32.5786 27.7969 32.6021 27.7523C32.6836 27.6515 32.8089 27.5962 32.9381 27.6043C33.033 27.6096 33.1271 27.6258 33.2184 27.6523C33.3147 27.6992 33.4194 27.7266 33.5266 27.7324C33.6681 27.7361 33.7973 27.6515 33.8506 27.5203C33.8774 27.4742 33.8914 27.4215 33.8905 27.3682C33.878 27.2283 33.7928 27.1052 33.6667 27.0441C33.5126 26.9539 33.3401 26.8992 33.1623 26.8839V26.6318C33.1659 26.5947 33.1659 26.557 33.1623 26.5199C33.1288 26.4155 33.0319 26.3446 32.9222 26.3446C32.8125 26.3446 32.7157 26.4155 32.6822 26.5199C32.6663 26.5648 32.6582 26.6123 32.6582 26.66V26.9121C32.3977 26.9643 32.1591 27.0941 31.9737 27.2841C31.8093 27.4678 31.7181 27.7059 31.7178 27.9524C31.7147 28.2527 31.8657 28.5335 32.1181 28.6968C32.2239 28.7554 32.335 28.8035 32.4499 28.8409L32.9261 28.981V28.9807C33.0562 29.0008 33.1735 29.0695 33.2544 29.173C33.2815 29.2205 33.2966 29.2741 33.2985 29.3291C33.2974 29.3988 33.2734 29.4661 33.2304 29.5211C33.1416 29.6305 33.0018 29.6852 32.8622 29.6651C32.7564 29.6657 32.6509 29.6495 32.5502 29.6171C32.3983 29.5518 32.2381 29.5085 32.074 29.489C31.9802 29.4856 31.8895 29.5211 31.8227 29.587C31.756 29.6528 31.7195 29.7436 31.7217 29.8371C31.7217 30.1212 32.0059 30.2373 32.23 30.3172V30.3175C32.3724 30.3515 32.5167 30.3769 32.6621 30.3934V30.6496C32.6554 30.6893 32.6554 30.7297 32.6621 30.7697C32.6987 30.8727 32.7897 30.9469 32.8982 30.9617C33.0077 30.9536 33.102 30.8813 33.1383 30.7775C33.1495 30.7303 33.1495 30.6809 33.1383 30.6334V30.3733C33.2767 30.3429 33.4113 30.296 33.5386 30.2334C33.8099 30.0841 34.0028 29.824 34.0667 29.5211C34.082 29.4446 34.0901 29.367 34.0907 29.2889C34.1072 28.9994 33.9908 28.718 33.7747 28.5246L33.7945 28.5363ZM37.7562 28.6684V28.6686C37.7593 30.0964 37.1318 31.4524 36.0415 32.3739C34.9512 33.2955 33.5098 33.6885 32.1027 33.4477C30.6953 33.207 29.4665 32.3574 28.7445 31.1259H5.58288C4.8923 31.1247 4.23047 30.8498 3.74198 30.3616C3.25378 29.8734 2.9791 29.2113 2.97803 28.5207V10.4291C2.97914 9.73848 3.25381 9.07636 3.74198 8.58816C4.23046 8.09968 4.89231 7.82499 5.58288 7.82392H9.41258V6.38333C9.41258 5.87587 9.68334 5.40694 10.123 5.15319C10.5623 4.89946 11.1039 4.89946 11.5435 5.15319C11.9831 5.40692 12.2539 5.87584 12.2539 6.38333V7.80806H24.5467V6.38333C24.5467 5.87587 24.8175 5.40694 25.2569 5.15319C25.6965 4.89946 26.238 4.89946 26.6776 5.15319C27.117 5.40692 27.3878 5.87584 27.3878 6.38333V7.80806H31.2213C31.9147 7.80918 32.5793 8.08607 33.0681 8.57787C33.5568 9.06942 33.8295 9.7357 33.8265 10.4291V20.8333L35.8912 17.908V17.9082C36.0355 17.7352 36.2882 17.702 36.4724 17.8315C36.6563 17.9613 36.7099 18.2105 36.5955 18.4043L33.7026 22.5022C33.6202 22.6144 33.4896 22.6811 33.3503 22.6823C33.2108 22.6825 33.0796 22.6155 32.9981 22.5022L30.1049 18.4043C29.9681 18.2111 30.0136 17.9431 30.207 17.8061C30.4005 17.669 30.6682 17.7148 30.8052 17.9082L32.8741 20.8333V14.0306H3.92589V28.5086C3.92701 28.9472 4.10202 29.3676 4.4127 29.6773C4.7231 29.9872 5.144 30.1613 5.58253 30.1613H28.2882C28.1286 29.6756 28.0476 29.1677 28.0482 28.6565C28.0105 27.3477 28.504 26.0793 29.4164 25.1403C30.3289 24.2013 31.5828 23.6715 32.8922 23.6715C34.2013 23.6715 35.4552 24.2013 36.3677 25.1403C37.2802 26.0793 37.7737 27.3477 37.736 28.6565L37.7562 28.6684ZM25.4991 10.1815C25.5214 10.4244 25.7252 10.6103 25.9691 10.6103C26.2131 10.6103 26.4169 10.4244 26.4395 10.1815V6.38391C26.435 6.12265 26.2206 5.91358 25.9591 5.91581C25.7006 5.91581 25.491 6.12544 25.491 6.38391L25.4991 10.1815ZM10.3529 10.1815C10.3752 10.4244 10.579 10.6103 10.8229 10.6103C11.0669 10.6103 11.271 10.4244 11.2933 10.1815V6.38391C11.271 6.14107 11.0669 5.95517 10.8229 5.95517C10.579 5.95517 10.3752 6.14107 10.3529 6.38391V10.1815ZM3.92613 13.0747H32.8744V10.4296C32.8744 9.9914 32.7002 9.571 32.3904 9.26094C32.0802 8.95111 31.6601 8.77693 31.2217 8.77693H27.3881V10.1974C27.3881 10.7052 27.1173 11.1741 26.678 11.4279C26.2384 11.6816 25.6969 11.6816 25.2572 11.4279C24.8178 11.1741 24.5471 10.7052 24.5471 10.1974V8.761H12.2542V10.1815C12.2542 10.689 11.9834 11.1579 11.5438 11.4116C11.1042 11.6657 10.5627 11.6657 10.1233 11.4116C9.68368 11.1579 9.41292 10.689 9.41292 10.1815V8.761H5.58322C5.14191 8.761 4.71872 8.93713 4.40752 9.25032C4.09657 9.56378 3.92351 9.98805 3.92658 10.4297L3.92613 13.0747ZM36.7881 28.6568C36.7889 27.6229 36.3792 26.6308 35.6487 25.8992C34.9182 25.1674 33.927 24.7559 32.8932 24.7553C31.8592 24.7545 30.8672 25.1645 30.1359 25.8953C29.4043 26.6261 28.9931 27.6176 28.9929 28.6514C28.9926 29.6853 29.4029 30.6771 30.134 31.4084C30.865 32.1394 31.8565 32.5503 32.8904 32.5503C33.9232 32.5492 34.9133 32.1389 35.644 31.4089C36.3745 30.6793 36.7859 29.6895 36.7882 28.6566L36.7881 28.6568Z" fill="#FF5B14"/>
</svg>
