<svg width="36" height="36" viewBox="0 0 36 36" fill="none" xmlns="http://www.w3.org/2000/svg">
<path d="M20.2594 9.03711H14.6109C14.0284 9.03711 13.5562 9.50933 13.5562 10.0918V18.0746H12.3516C11.7691 18.0746 11.2969 18.5468 11.2969 19.1293C11.2969 19.7117 11.7691 20.184 12.3516 20.184H13.5562V22.5934H12.3516C11.7691 22.5934 11.2969 23.0656 11.2969 23.648C11.2969 24.2305 11.7691 24.7027 12.3516 24.7027H13.5562V27.0371C13.5562 27.6196 14.0284 28.0918 14.6109 28.0918C15.1934 28.0918 15.6656 27.6196 15.6656 27.0371V24.7027H20.2594C20.8419 24.7027 21.3141 24.2305 21.3141 23.648C21.3141 23.0656 20.8419 22.5934 20.2594 22.5934H15.6656V20.184H20.2594C23.3326 20.184 25.8329 17.6837 25.8329 14.6105C25.8328 11.4613 23.2676 9.03711 20.2594 9.03711ZM20.2594 18.0746H15.6656V11.1465H20.2594C22.158 11.1465 23.7235 12.6779 23.7235 14.6106C23.7234 16.5207 22.1695 18.0746 20.2594 18.0746Z" fill="#FF5B14"/>
<path d="M18 0C8.07476 0 0 8.07476 0 18C0 27.9252 8.07476 36 18 36C27.9252 36 36 27.9252 36 18C36 8.07476 27.9252 0 18 0ZM18 33.8906C9.23787 33.8906 2.10938 26.7621 2.10938 18C2.10938 9.23787 9.23787 2.10938 18 2.10938C26.7621 2.10938 33.8906 9.23787 33.8906 18C33.8906 26.7621 26.7621 33.8906 18 33.8906Z" fill="#FF5B14"/>
</svg>
