<svg width="38" height="38" viewBox="0 0 38 38" fill="none" xmlns="http://www.w3.org/2000/svg">
<g clip-path="url(#clip0_149_1309)">
<path d="M27.3969 13.413H35.5324C35.8503 13.413 36.1086 13.5384 36.309 13.7372C36.4943 13.9196 36.6137 14.1673 36.6713 14.4221L38.1687 21.0237L38.1731 21.0398C38.1917 21.1091 38.1993 21.1828 38.1946 21.2585L38.1936 21.2676L38.1076 27.1635C38.1032 27.533 37.8014 27.8305 37.4328 27.8305L35.5992 27.833C35.2567 27.833 34.9735 27.5784 34.9281 27.2482C34.792 26.5164 34.4004 25.8724 33.8516 25.4131C33.3065 24.9569 32.6018 24.6821 31.8324 24.6821C31.0628 24.6821 30.3587 24.9569 29.8133 25.4131C29.2575 25.8771 28.8643 26.5303 28.7324 27.2715C28.6753 27.6008 28.389 27.8323 28.0654 27.8323L16.1247 27.833C15.7823 27.833 15.499 27.5784 15.4537 27.2482C15.3176 26.5164 14.9266 25.8724 14.3778 25.4131C13.8327 24.9569 13.128 24.6821 12.3586 24.6821C11.5889 24.6821 10.8842 24.9569 10.3395 25.4131C9.78465 25.8771 9.39082 26.5303 9.25911 27.2715C9.20209 27.6008 8.91571 27.8323 8.59215 27.8323L5.00874 27.833C4.63477 27.833 4.33138 27.5296 4.33138 27.1556V20.8804H1.32109C0.947122 20.8804 0.64373 20.577 0.64373 20.203C0.64373 19.8291 0.947122 19.5257 1.32109 19.5257H4.33138V17.3197H2.91334C2.53937 17.3197 2.23598 17.0163 2.23598 16.6423C2.23598 16.2683 2.53937 15.9649 2.91334 15.9649H4.33138V13.7596H0.48302C0.109057 13.7596 -0.194336 13.4562 -0.194336 13.0822C-0.194336 12.7082 0.109057 12.4049 0.48302 12.4049H4.33138V8.78966C4.33138 8.4157 4.63477 8.1123 5.00874 8.1123H25.8777C26.2517 8.1123 26.5551 8.4157 26.5551 8.78966V23.0709H26.7189V14.091C26.7189 13.717 27.0223 13.4136 27.3962 13.4136L27.3969 13.413ZM5.68594 19.5253H15.9023C16.2762 19.5253 16.5796 19.8287 16.5796 20.2027C16.5796 20.5766 16.2762 20.88 15.9023 20.88H5.68594V26.4775H8.06238C8.32388 25.647 8.81945 24.9202 9.47002 24.3758C10.2517 23.7211 11.2598 23.327 12.3578 23.327C13.4551 23.327 14.463 23.7211 15.2456 24.3758C15.8965 24.9205 16.3921 25.647 16.6532 26.4775H27.5357C27.7972 25.647 28.2928 24.9199 28.944 24.3758C29.7266 23.7211 30.7338 23.327 31.8318 23.327C32.9291 23.327 33.937 23.7211 34.7196 24.3758C35.3705 24.9199 35.8661 25.647 36.1279 26.4775H36.7671L36.8355 21.8434L30.4803 21.3973C30.1107 21.3926 29.8114 21.0911 29.8114 20.72V14.7677H28.0745V23.7476C28.0745 24.1216 27.7711 24.425 27.3972 24.425H25.8783C25.5044 24.425 25.201 24.1216 25.201 23.7476V9.46637H5.68696V12.4042H15.0653C15.4393 12.4042 15.7427 12.7076 15.7427 13.0816C15.7427 13.4556 15.4393 13.7589 15.0653 13.7589H5.68696V15.9643H17.4954C17.8693 15.9643 18.1727 16.2677 18.1727 16.6417C18.1727 17.0156 17.8693 17.319 17.4954 17.319H5.68696V19.5251L5.68594 19.5253ZM31.832 25.1213C32.5768 25.1213 33.2542 25.4247 33.7457 25.9152L33.7501 25.9196C34.2394 26.4105 34.5421 27.0875 34.5421 27.8317C34.5421 28.5796 34.2381 29.2576 33.7482 29.7472C33.258 30.2374 32.58 30.5411 31.8321 30.5411C31.0841 30.5411 30.4061 30.2377 29.9159 29.7472C29.4263 29.2576 29.122 28.5793 29.122 27.8317C29.122 27.0869 29.4254 26.4095 29.9159 25.918L29.9203 25.9136C30.4112 25.4243 31.0882 25.1216 31.8324 25.1216L31.832 25.1213ZM32.7911 26.8717C32.5472 26.6272 32.2076 26.4763 31.832 26.4763C31.4559 26.4763 31.1166 26.6272 30.874 26.8704C30.6279 27.1159 30.477 27.4552 30.477 27.8313C30.477 28.2053 30.6295 28.5446 30.874 28.7888C31.1188 29.0336 31.4581 29.1857 31.832 29.1857C32.206 29.1857 32.5453 29.0336 32.7901 28.7888C33.0346 28.5443 33.1871 28.2053 33.1871 27.8313C33.1871 27.4552 33.0362 27.1158 32.7914 26.8717L32.7911 26.8717ZM12.3584 25.1213C13.1032 25.1213 13.7806 25.4247 14.2721 25.9152L14.2765 25.9196C14.7658 26.4105 15.0685 27.0875 15.0685 27.8317C15.0685 28.5796 14.7645 29.2576 14.2746 29.7472C13.7844 30.2374 13.1064 30.5411 12.3585 30.5411C11.6137 30.5411 10.9363 30.2377 10.4448 29.7472L10.4404 29.7428C9.95112 29.2519 9.64836 28.5761 9.64836 27.8314C9.64836 27.0866 9.95175 26.4092 10.4423 25.9177L10.4467 25.9133C10.9375 25.424 11.6133 25.1213 12.3587 25.1213L12.3584 25.1213ZM13.3175 26.8717C13.0736 26.6272 12.7343 26.4763 12.3584 26.4763C11.9823 26.4763 11.643 26.6272 11.4004 26.8704C11.1543 27.1159 11.0034 27.4552 11.0034 27.8313C11.0034 28.2069 11.1543 28.5462 11.3975 28.7888C11.643 29.0348 11.9826 29.1857 12.3584 29.1857C12.7324 29.1857 13.0717 29.0336 13.3165 28.7888C13.561 28.5443 13.7135 28.2053 13.7135 27.8313C13.7135 27.4552 13.5626 27.1158 13.3178 26.8717L13.3175 26.8717ZM31.166 14.7681V20.0899L36.6589 20.4755L35.3643 14.768L31.166 14.7681Z" fill="#FF5B14"/>
</g>
<defs>
<clipPath id="clip0_149_1309">
<rect width="38" height="38" fill="white"/>
</clipPath>
</defs>
</svg>
