<svg viewBox="0 0 41 40" xmlns="http://www.w3.org/2000/svg">
<g clip-path="url(#clip0_188_1494)">
<path d="M21.1081 18.2271V18.1256V10.1692C21.1081 9.81429 20.804 9.56118 20.5 9.56118C20.196 9.56118 19.892 9.8652 19.892 10.1692V18.126V18.2274C19.7905 18.278 19.6385 18.3289 19.5371 18.3794L14.7227 9.1559C14.6212 8.90243 14.3172 8.85188 14.1146 8.95334C13.8612 9.05479 13.8106 9.35881 13.9121 9.56137L18.8785 19.0383C18.7265 19.2918 18.625 19.5958 18.625 19.9503C18.625 20.9638 19.4865 21.8254 20.5001 21.8254C21.5136 21.8254 22.3751 20.9639 22.3751 19.9503C22.3751 19.1903 21.8176 18.4808 21.1081 18.2273L21.1081 18.2271Z"/>
<path d="M29.5716 4.23973C29.2676 4.08772 28.9126 4.18918 28.7101 4.4932L27.4431 6.6722C27.2911 6.97622 27.3926 7.33114 27.6966 7.5337C27.798 7.58425 27.8991 7.63516 28.0006 7.63516C28.2032 7.63516 28.4061 7.5337 28.5581 7.33114L29.825 5.15213C29.9771 4.79721 29.876 4.44228 29.5716 4.23973H29.5716Z"/>
<path d="M33.5245 13.1079C33.626 13.1079 33.7271 13.0573 33.8285 13.0064L36.0075 11.7395C36.3115 11.5874 36.413 11.182 36.261 10.878C36.109 10.5739 35.7035 10.4725 35.3995 10.6245L33.2205 11.8915C32.9165 12.0435 32.815 12.4489 32.967 12.753C33.0681 13.0064 33.3216 13.1079 33.5245 13.1079H33.5245Z"/>
<path d="M38.0853 19.3926H35.5514C35.1965 19.3926 34.9434 19.6966 34.9434 20.0006C34.9434 20.3046 35.2474 20.6086 35.5514 20.6086H38.0853C38.4402 20.6086 38.6934 20.3046 38.6934 20.0006C38.6934 19.6966 38.3893 19.3926 38.0853 19.3926Z"/>
<path d="M36.0078 28.2606L33.8288 26.9936C33.5247 26.8416 33.1698 26.9431 32.9673 27.2471C32.8153 27.5511 32.9167 27.906 33.2207 28.1086L35.3997 29.3756C35.5012 29.4261 35.6023 29.477 35.7038 29.477C35.9063 29.477 36.1092 29.3756 36.2612 29.173C36.4133 28.8181 36.3118 28.4126 36.0078 28.2606H36.0078Z"/>
<path d="M28.5581 32.7217C28.4061 32.4177 28.0006 32.3162 27.6966 32.4682C27.3926 32.6203 27.2911 33.0257 27.4431 33.3297L28.7101 35.5088C28.8115 35.7113 29.0141 35.8128 29.2676 35.8128C29.369 35.8128 29.4701 35.7622 29.5716 35.7113C29.8756 35.5593 29.977 35.1538 29.825 34.8498L28.5581 32.7217Z"/>
<path d="M20.4996 34.3926C20.1447 34.3926 19.8916 34.6966 19.8916 35.0006V37.5346C19.8916 37.8895 20.1956 38.1426 20.4996 38.1426C20.8036 38.1426 21.1077 37.8386 21.1077 37.5346V35.0006C21.1077 34.6966 20.8546 34.3926 20.4996 34.3926Z"/>
<path d="M13.3037 32.4682C12.9997 32.3162 12.6448 32.4177 12.4422 32.7217L11.1753 34.9007C11.0233 35.2047 11.1247 35.5597 11.4287 35.7622C11.5302 35.8128 11.6313 35.8637 11.7328 35.8637C11.9353 35.8637 12.1382 35.7622 12.2903 35.5597L13.5572 33.3807C13.7092 33.0257 13.6078 32.6203 13.3038 32.4682H13.3037Z"/>
<path d="M7.17123 26.9943L4.99222 28.2612C4.6882 28.4132 4.58675 28.8187 4.73876 29.1227C4.84021 29.3253 5.04277 29.4267 5.29624 29.4267C5.3977 29.4267 5.4988 29.3762 5.60026 29.3253L7.77927 28.0583C8.08328 27.9063 8.18474 27.5008 8.03273 27.1968C7.88072 26.8928 7.47525 26.7913 7.17124 26.9943H7.17123Z"/>
<path d="M6.10718 20.0006C6.10718 19.6457 5.80317 19.3926 5.49915 19.3926H2.96521C2.61029 19.3926 2.35718 19.6966 2.35718 20.0006C2.35718 20.3046 2.6612 20.6086 2.96521 20.6086H5.49915C5.80317 20.6086 6.10718 20.3555 6.10718 20.0006Z"/>
<path d="M7.77974 11.9422L5.60074 10.6753C5.29672 10.5233 4.94181 10.6247 4.73924 10.9287C4.58724 11.2328 4.68869 11.5877 4.99271 11.7902L7.17171 13.0572C7.27317 13.1078 7.37427 13.1587 7.47573 13.1587C7.67829 13.1587 7.8812 13.0572 8.03321 12.8546C8.18522 12.4997 8.08376 12.0943 7.77975 11.9422H7.77974Z"/>
<path d="M12.2392 4.4932C12.0872 4.18918 11.6817 4.08772 11.3777 4.23973C11.0737 4.39174 10.9722 4.79722 11.1243 5.10123L12.3912 7.28023C12.4927 7.48279 12.6952 7.58425 12.9487 7.58425C13.0502 7.58425 13.1513 7.53369 13.2527 7.48279C13.5567 7.33078 13.6582 6.9253 13.5062 6.6213L12.2392 4.4932Z"/>
<path d="M20.4996 5.60743C20.8546 5.60743 21.1077 5.30342 21.1077 4.9994V2.46546C21.1077 2.11054 20.8036 1.85742 20.4996 1.85742C20.1956 1.85742 19.8916 2.16144 19.8916 2.46546V4.9994C19.8916 5.30342 20.1447 5.60743 20.4996 5.60743Z"/>
<path d="M20.4999 0.0332031C9.50261 0.0332031 0.532471 9.00343 0.532471 20.0006C0.532471 30.9978 9.5027 39.968 20.4999 39.968C31.4971 39.968 40.4673 30.9978 40.4673 20.0006C40.4673 9.00343 31.4971 0.0332031 20.4999 0.0332031ZM20.4999 39.0051C10.0094 39.0051 1.49537 30.4913 1.49537 20.0006C1.49537 9.50994 10.0092 0.996099 20.4999 0.996099C30.9906 0.996099 39.5044 9.50994 39.5044 20.0006C39.5044 30.4913 30.9906 39.0051 20.4999 39.0051Z"/>
</g>
<defs>
<clipPath id="clip0_188_1494">
<rect width="40" height="40" fill="white" transform="translate(0.5)"/>
</clipPath>
</defs>
</svg>
