<svg width="24" height="24" viewBox="0 0 24 24" xmlns="http://www.w3.org/2000/svg">
<g clip-path="url(#clip0_669_4319)">
<circle cx="12" cy="12" r="11" fill-opacity="0"/>
<path d="M20.456 3.48528C15.7771 -1.19356 8.16426 -1.19356 3.48542 3.48528C-1.19342 8.16412 -1.19342 15.777 3.48542 20.4558C8.16426 25.1347 15.7771 25.1347 20.456 20.4558C25.1348 15.777 25.1348 8.16412 20.456 3.48528ZM4.69759 19.2437C0.687069 15.2332 0.687069 8.70797 4.69759 4.69745C8.70811 0.686928 15.2333 0.686928 19.2438 4.69745C23.2543 8.70797 23.2543 15.2332 19.2438 19.2437C15.2333 23.2542 8.70811 23.2542 4.69759 19.2437Z"/>
<path d="M16.0119 7.93031C15.6771 7.59555 15.1344 7.59555 14.7997 7.93032L7.93063 14.7994C7.59586 15.1341 7.59585 15.6768 7.93062 16.0115C8.26539 16.3463 8.80805 16.3463 9.14282 16.0115L16.0119 9.14251C16.3466 8.80774 16.3466 8.26508 16.0119 7.93031Z"/>
<path d="M16.0122 14.7994L9.14321 7.93032C8.80844 7.59555 8.26578 7.59555 7.93101 7.93031C7.59625 8.26508 7.59625 8.80774 7.93102 9.14251L14.8001 16.0115C15.1348 16.3463 15.6775 16.3463 16.0122 16.0115C16.347 15.6768 16.347 15.1341 16.0122 14.7994Z"/>
</g>
<defs>
<clipPath id="clip0_669_4319">
<rect width="24" height="24"/>
</clipPath>
</defs>
</svg>
