<svg viewBox="0 0 39 40" xmlns="http://www.w3.org/2000/svg">
<path d="M38.9207 15.0008C38.9207 14.7096 38.7751 14.4183 38.5322 14.2239L35.3277 11.8935C35.2305 11.8451 35.1337 11.7963 35.0365 11.7479V6.26148C35.0365 5.7274 34.5996 5.29054 34.0655 5.29054H26.3944L26.2972 5.19334L20.0825 0.629387C19.7425 0.386559 19.2572 0.386559 18.9172 0.629387L13.0423 4.95049C12.8966 5.04769 12.7994 5.14455 12.751 5.29052H4.93454C4.40045 5.29052 3.96359 5.72741 3.96359 6.26147V11.6507C3.91516 11.6507 3.86639 11.6991 3.81796 11.7479L0.467803 14.224C0.224975 14.418 0.0793457 14.7096 0.0793457 15.0009V38.7912C0.0793457 39.3253 0.516234 39.7622 1.05029 39.7622H37.9496C38.4837 39.7622 38.9206 39.3253 38.9206 38.7912L38.9207 15.0008ZM36.6388 15.2437L35.0366 16.4087V14.0296L36.6388 15.2437ZM19.5 2.62022L23.1414 5.29066H15.8586L19.5 2.62022ZM33.0945 7.23255V17.8654L19.5 27.867L5.90552 17.8654V7.23255H33.0945ZM3.96345 14.0784V16.4576L2.36124 15.2922L3.96345 14.0784ZM2.02121 37.8202V17.4285L4.15757 19.0307C4.25477 19.1763 4.4004 19.2735 4.59446 19.3707L18.9172 29.9065C19.1113 30.0521 19.3057 30.1005 19.4997 30.1005C19.6938 30.1005 19.8882 30.0521 20.0822 29.9065L34.405 19.3707C34.5991 19.3223 34.745 19.1767 34.8419 19.0307L36.9789 17.4285V37.8202H2.02121Z"/>
<path d="M10.7607 13.0591H28.2394C28.7735 13.0591 29.2103 12.6222 29.2103 12.0881C29.2103 11.554 28.7734 11.1172 28.2394 11.1172H10.7607C10.2267 11.1172 9.78979 11.5541 9.78979 12.0881C9.78979 12.6222 10.2267 13.0591 10.7607 13.0591V13.0591Z"/>
<path d="M10.7607 18.3989H28.2394C28.7735 18.3989 29.2103 17.962 29.2103 17.428C29.2103 16.8939 28.7734 16.457 28.2394 16.457H10.7607C10.2267 16.457 9.78979 16.8939 9.78979 17.428C9.78979 17.9621 10.2267 18.3989 10.7607 18.3989V18.3989Z"/>
<path d="M23.3842 21.7988H15.6157C15.0816 21.7988 14.6448 22.2357 14.6448 22.7698C14.6448 23.3039 15.0817 23.7407 15.6157 23.7407H23.3842C23.9183 23.7407 24.3551 23.3038 24.3551 22.7698C24.3551 22.2357 23.9182 21.7988 23.3842 21.7988V21.7988Z"/>
</svg>
