<svg viewBox="0 0 17 16" xmlns="http://www.w3.org/2000/svg">
<path d="M5.22727 0C2.6209 0 0.5 2.1209 0.5 4.72727V11.2727C0.5 13.8791 2.6209 16 5.22727 16H11.7727C14.3791 16 16.5 13.8791 16.5 11.2727V4.72727C16.5 2.1209 14.3791 0 11.7727 0H5.22727ZM5.22727 0.727273H11.7727C13.986 0.727273 15.7727 2.51401 15.7727 4.72727V11.2727C15.7727 13.486 13.986 15.2727 11.7727 15.2727H5.22727C3.01401 15.2727 1.22727 13.486 1.22727 11.2727V4.72727C1.22727 2.51401 3.01401 0.727273 5.22727 0.727273ZM12.8636 2.90909C12.6708 2.90909 12.4858 2.98571 12.3494 3.1221C12.213 3.25849 12.1364 3.44348 12.1364 3.63636C12.1364 3.82925 12.213 4.01423 12.3494 4.15062C12.4858 4.28701 12.6708 4.36364 12.8636 4.36364C13.0565 4.36364 13.2415 4.28701 13.3779 4.15062C13.5143 4.01423 13.5909 3.82925 13.5909 3.63636C13.5909 3.44348 13.5143 3.25849 13.3779 3.1221C13.2415 2.98571 13.0565 2.90909 12.8636 2.90909ZM8.5 4C6.29517 4 4.5 5.79517 4.5 8C4.5 10.2048 6.29517 12 8.5 12C10.7048 12 12.5 10.2048 12.5 8C12.5 5.79517 10.7048 4 8.5 4ZM8.5 4.72727C10.3118 4.72727 11.7727 6.18822 11.7727 8C11.7727 9.81178 10.3118 11.2727 8.5 11.2727C6.68822 11.2727 5.22727 9.81178 5.22727 8C5.22727 6.18822 6.68822 4.72727 8.5 4.72727Z"/>
</svg>
