<svg viewBox="0 0 16 20" xmlns="http://www.w3.org/2000/svg">
<path d="M8 0C3.79988 0 0.382812 3.41707 0.382812 7.61719C0.382812 10.3286 1.20762 11.4159 5.17113 16.641C5.85914 17.548 6.63898 18.576 7.53125 19.7656C7.64191 19.9132 7.81559 20 8.00004 20C8.18449 20 8.35813 19.9131 8.46879 19.7655C9.35582 18.5823 10.1323 17.5582 10.8173 16.6547C14.7904 11.4144 15.6172 10.3239 15.6172 7.61719C15.6172 3.41707 12.2001 0 8 0ZM9.88355 15.9467C9.3209 16.6888 8.69672 17.5121 7.99988 18.4384C7.29828 17.5061 6.67055 16.6786 6.10477 15.9327C2.24937 10.8502 1.55469 9.93441 1.55469 7.61719C1.55469 4.06324 4.44605 1.17188 8 1.17188C11.5539 1.17188 14.4453 4.06324 14.4453 7.61719C14.4453 9.92988 13.7488 10.8485 9.88355 15.9467Z"/>
<path d="M8 3.51562C5.7384 3.51562 3.89844 5.35559 3.89844 7.61719C3.89844 9.87879 5.7384 11.7188 8 11.7188C10.2616 11.7188 12.1016 9.87879 12.1016 7.61719C12.1016 5.35559 10.2616 3.51562 8 3.51562ZM8 10.5469C6.38457 10.5469 5.07031 9.23262 5.07031 7.61719C5.07031 6.00176 6.38457 4.6875 8 4.6875C9.61543 4.6875 10.9297 6.00176 10.9297 7.61719C10.9297 9.23262 9.61543 10.5469 8 10.5469Z"/>
</svg>
