<svg viewBox="0 0 17 12" xmlns="http://www.w3.org/2000/svg">
<path d="M15.3384 11.387H1.5C1.10235 11.3864 0.721063 11.2283 0.439954 10.9472C0.158705 10.6659 0.000548571 10.2846 0 9.88697V1.5C0.000535714 1.10235 0.158705 0.721063 0.439954 0.439817C0.72107 0.158702 1.10235 0.000548571 1.5 0H15.3384C15.7362 0.000535714 16.1173 0.158705 16.3986 0.439817C16.6798 0.721066 16.838 1.10235 16.8384 1.5V9.88697C16.838 10.2846 16.6798 10.6659 16.3986 10.9472C16.1173 11.2283 15.736 11.3864 15.3384 11.387ZM1.5 0.6C1.26147 0.600268 1.03272 0.695222 0.863966 0.863839C0.695215 1.03259 0.60026 1.26135 0.599993 1.50001V9.88698C0.600261 10.1255 0.695215 10.3544 0.863966 10.523C1.03272 10.6918 1.26147 10.7867 1.5 10.787H15.3384C15.5771 10.7867 15.8058 10.6918 15.9746 10.523C16.1433 10.3544 16.2381 10.1255 16.2384 9.88698V1.50001C16.2381 1.26135 16.1433 1.03259 15.9746 0.863839C15.8058 0.695222 15.5771 0.600267 15.3384 0.6H1.5Z"/>
<path d="M8.42225 6.68438C8.08073 6.68398 7.74953 6.56692 7.48381 6.35251L0.758671 0.961763C0.696528 0.911942 0.656749 0.83962 0.648044 0.760602C0.639339 0.681583 0.662375 0.602298 0.712063 0.540155C0.815588 0.410915 1.00443 0.390021 1.13367 0.493547L7.85916 5.88429C8.018 6.01273 8.21607 6.08304 8.42045 6.08344C8.62469 6.08384 8.82303 6.01447 8.98243 5.8867L15.7151 0.5299C15.7774 0.480213 15.8568 0.45731 15.936 0.466149C16.0151 0.475122 16.0874 0.515167 16.1371 0.577444C16.1867 0.63972 16.2094 0.71914 16.2005 0.798292C16.1915 0.877444 16.1513 0.949766 16.0889 0.999319L9.35622 6.35578C9.09118 6.56805 8.76185 6.6839 8.42235 6.68417L8.42225 6.68438Z"/>
<path d="M0.902397 10.9198C0.775968 10.9199 0.662932 10.8407 0.619941 10.7217C0.57695 10.6028 0.61311 10.4696 0.710476 10.3889L6.7979 5.34064C6.92541 5.23484 7.11451 5.25239 7.2203 5.37988C7.3261 5.50738 7.30856 5.69663 7.18106 5.80242L1.09364 10.8507C1.04006 10.8954 0.972295 10.9199 0.902387 10.9198L0.902397 10.9198Z"/>
<path d="M15.9329 10.9236C15.863 10.9237 15.7954 10.8992 15.7417 10.8545L9.66211 5.80731C9.53461 5.70151 9.51707 5.5124 9.62287 5.38477C9.72868 5.25727 9.91779 5.23972 10.0453 5.34553L16.1248 10.3927C16.2222 10.4735 16.2583 10.6066 16.2154 10.7255C16.1724 10.8445 16.0595 10.9236 15.9329 10.9235L15.9329 10.9236Z"/>
</svg>
