<svg viewBox="0 0 16 16" xmlns="http://www.w3.org/2000/svg">
<path fill-rule="evenodd" clip-rule="evenodd" d="M5.2148 0.961619C4.92008 0.37217 4.31784 0 3.65884 0H1.73978C1.19602 0 0.683808 0.253947 0.354729 0.686696C0.0260089 1.11922 -0.0818847 1.6807 0.0631573 2.20466H0.0635068C0.668552 4.38371 2.06234 8.12479 4.96882 11.0312C7.87536 13.9377 11.6163 15.3314 13.7953 15.9365V15.9368C14.3193 16.0819 14.8808 15.974 15.3133 15.6453C15.7461 15.3162 16 14.804 16 14.2602V12.3412C16 11.6822 15.6278 11.0799 15.0384 10.7852C14.3294 10.4307 13.277 9.90431 12.5299 9.53094C11.8602 9.19593 11.0513 9.32744 10.5217 9.85701L9.50688 10.8715C9.40181 10.977 9.24117 11.0034 9.10826 10.9383C8.6197 10.6451 7.78646 10.0814 6.85967 9.15461C5.93172 8.22701 5.36255 7.38757 5.07063 6.89656C5.00109 6.76132 5.02648 6.59952 5.13225 6.4941C5.13295 6.4934 5.13365 6.4927 5.13435 6.49165C5.41054 6.21091 5.80336 5.81775 6.14291 5.4782C6.67247 4.94863 6.80399 4.13973 6.46897 3.47003L5.2148 0.961619ZM4.5924 1.27266L5.84666 3.7815C6.04772 4.18328 5.96874 4.66832 5.65107 4.98634C5.30977 5.32731 4.9152 5.72209 4.63795 6.00435C4.31645 6.32573 4.24234 6.82363 4.45809 7.22762C4.46054 7.23216 4.46333 7.23659 4.46578 7.24113C4.7733 7.75987 5.3773 8.65648 6.36749 9.647C7.35556 10.6347 8.24414 11.2321 8.75692 11.5393C8.76216 11.5424 8.76741 11.5455 8.77288 11.5483C9.17791 11.7627 9.67545 11.6879 9.99928 11.3636C10.2787 11.0846 10.6729 10.69 11.0139 10.3491C11.3318 10.0314 11.8169 9.95241 12.2186 10.1536C12.966 10.5268 14.0184 11.0532 14.7275 11.4077C15.081 11.5846 15.3043 11.946 15.3043 12.3413V14.2604C15.3043 14.5867 15.152 14.8939 14.8924 15.0915C14.6329 15.2888 14.2958 15.3535 13.9816 15.2662C11.8791 14.6824 8.26544 13.3439 5.46074 10.5396C2.65626 7.73495 1.31767 4.12111 0.734062 2.0187C0.646694 1.70453 0.711346 1.3674 0.908681 1.10787C1.10625 0.848331 1.41344 0.695977 1.73983 0.695977H3.65889C4.05415 0.695977 4.41561 0.919288 4.59245 1.27284L4.5924 1.27266Z"/>
</svg>
