<svg viewBox="0 0 32 32" xmlns="http://www.w3.org/2000/svg">
<path d="M15.3494 9.05382C15.6209 8.78219 16.0612 8.78219 16.333 9.05382C16.6047 9.32523 16.6047 9.76578 16.333 10.0374L11.0652 15.3053H25.0617C25.447 15.3053 25.7595 15.6177 25.7595 16.003C25.7595 16.3885 25.447 16.7008 25.0617 16.7008H11.0722L16.34 21.9686C16.4707 22.0988 16.5441 22.2761 16.5441 22.4605C16.5441 22.6452 16.4707 22.822 16.34 22.9524C16.2093 23.0842 16.0304 23.1572 15.8446 23.1548C15.6595 23.1539 15.4819 23.0814 15.3494 22.9524L8.89544 16.4986C8.7641 16.3671 8.69089 16.1885 8.69286 16.003C8.69417 15.8179 8.76672 15.6409 8.89544 15.5078L15.3494 9.05382Z"/>
<path d="M15.9915 1.00248C22.0589 1.00139 27.5293 4.65605 29.8512 10.2617C32.1726 15.8676 30.8885 22.3199 26.5969 26.6089C20.7394 32.4664 11.2431 32.4664 5.38589 26.6089C-0.471321 20.752 -0.471321 11.2556 5.38589 5.39818C8.19244 2.57567 12.0112 0.99287 15.9915 1.00248ZM15.9915 29.6093C23.492 29.6093 29.597 23.5041 29.597 16.0036C29.597 8.50302 23.492 2.398 15.9915 2.398C8.49095 2.398 2.38571 8.50302 2.38571 16.0036C2.38571 23.5041 8.49095 29.6093 15.9915 29.6093Z"/>
</svg>
