<svg xmlns="http://www.w3.org/2000/svg" xmlns:xlink="http://www.w3.org/1999/xlink"><defs><clipPath id="clip0_188_1494"><path fill="#fff" transform="translate(.5)" d="M0 0h40v40H0z"/></clipPath><clipPath id="clip0_669_4319"><path d="M0 0h24v24H0z"/></clipPath><clipPath id="clip0_188_1494"><path fill="#fff" transform="translate(.5)" d="M0 0h40v40H0z"/></clipPath><clipPath id="clip0_669_4319"><path d="M0 0h24v24H0z"/></clipPath><clipPath id="clip0_124_753"><path d="M0 0h36v36H0z"/></clipPath><clipPath id="clip0_124_753"><path d="M0 0h36v36H0z"/></clipPath></defs><symbol id="arrow-500" viewBox="0 0 12 8"><path d="M10.59.59L6 5.17 1.41.59 0 2l6 6 6-6L10.59.59z"/></symbol><symbol id="arrow" viewBox="0 0 14 8"><g fill="none"><path d="M7 7l-.424.424a.6.6 0 00.848 0L7 7zM.576 1.424l6 6 .848-.848-6-6-.848.848zm6.848 6l6-6-.848-.848-6 6 .848.848z" fill="#303030"/></g></symbol><symbol id="clock" viewBox="0 0 41 40"><g clip-path="url(#clip0_188_1494)"><path d="M21.108 18.227V10.17a.616.616 0 00-.608-.608c-.304 0-.608.304-.608.608v8.058c-.101.051-.253.102-.355.152l-4.814-9.223c-.102-.254-.406-.304-.608-.203-.254.102-.304.406-.203.608l4.966 9.477a1.75 1.75 0 00-.253.912c0 1.014.861 1.875 1.875 1.875s1.875-.861 1.875-1.875c0-.76-.557-1.47-1.267-1.723zM29.572 4.24c-.304-.152-.66-.05-.862.253l-1.267 2.18c-.152.303-.05.658.254.86.101.051.202.102.304.102.202 0 .405-.101.557-.304l1.267-2.179c.152-.355.051-.71-.253-.912zm3.953 8.868c.101 0 .202-.05.303-.102l2.18-1.267c.303-.152.405-.557.253-.861-.152-.304-.558-.405-.861-.254l-2.18 1.268c-.303.152-.405.557-.253.861.101.253.355.355.558.355zm4.56 6.285h-2.534a.616.616 0 00-.608.608c0 .304.304.608.608.608h2.534a.616.616 0 00.608-.608c0-.304-.304-.608-.608-.608zm-2.077 8.867l-2.18-1.266c-.303-.152-.658-.05-.86.253-.153.304-.051.659.253.862l2.179 1.267c.101.05.202.101.304.101.202 0 .405-.101.557-.304.152-.355.05-.76-.253-.912zm-7.45 4.462c-.152-.304-.557-.406-.861-.254-.304.152-.406.558-.254.862l1.267 2.179c.101.202.304.304.558.304.101 0 .202-.05.304-.102.304-.152.405-.557.253-.861l-1.267-2.128zM20.5 34.393a.616.616 0 00-.608.608v2.534c0 .355.304.608.608.608s.608-.304.608-.608V35a.616.616 0 00-.608-.608zm-7.196-1.925c-.304-.152-.66-.05-.862.254L11.175 34.9c-.152.304-.05.659.254.861.101.05.202.102.304.102.202 0 .405-.102.557-.304l1.267-2.18c.152-.354.05-.76-.253-.912zm-6.133-5.474l-2.179 1.267c-.304.152-.405.558-.253.862.101.202.304.304.557.304.102 0 .203-.05.304-.102l2.18-1.267c.303-.152.405-.557.253-.861-.152-.304-.558-.406-.862-.203zM6.107 20a.616.616 0 00-.608-.607H2.965a.616.616 0 00-.608.608c0 .304.304.608.608.608H5.5A.616.616 0 006.107 20zm1.673-8.058L5.6 10.675c-.303-.152-.658-.05-.86.254-.153.304-.051.659.253.861l2.179 1.267c.101.05.202.102.304.102.202 0 .405-.102.557-.304.152-.355.05-.76-.253-.913zm4.46-7.449c-.153-.304-.558-.405-.862-.253-.304.152-.406.557-.254.861l1.267 2.18c.102.202.304.303.558.303.101 0 .202-.05.304-.101.304-.152.405-.558.253-.862L12.24 4.493zm8.26 1.114A.616.616 0 0021.108 5V2.465a.616.616 0 00-.608-.608c-.304 0-.608.304-.608.608V5c0 .304.253.608.608.608z"/><path d="M20.5.033C9.503.033.532 9.003.532 20.001c0 10.997 8.97 19.967 19.968 19.967 10.997 0 19.967-8.97 19.967-19.967C40.467 9.003 31.497.033 20.5.033zm0 38.972c-10.49 0-19.005-8.514-19.005-19.004C1.495 9.51 10.01.996 20.5.996c10.49 0 19.004 8.514 19.004 19.005 0 10.49-8.513 19.004-19.004 19.004z"/></g></symbol><symbol id="close" viewBox="0 0 24 24"><g clip-path="url(#clip0_669_4319)"><circle cx="12" cy="12" r="11" fill="none"/><path d="M20.456 3.485c-4.679-4.679-12.292-4.679-16.97 0-4.68 4.68-4.68 12.292 0 16.97 4.678 4.68 12.291 4.68 16.97 0 4.679-4.678 4.679-12.29 0-16.97zM4.698 19.244c-4.01-4.01-4.01-10.536 0-14.547 4.01-4.01 10.535-4.01 14.546 0 4.01 4.011 4.01 10.536 0 14.547-4.01 4.01-10.536 4.01-14.546 0z"/><path d="M16.012 7.93a.857.857 0 00-1.212 0L7.93 14.8a.857.857 0 101.213 1.212l6.869-6.87a.857.857 0 000-1.212z"/><path d="M16.012 14.8L9.143 7.93a.857.857 0 10-1.212 1.213l6.87 6.869a.857.857 0 101.211-1.213z"/></g></symbol><symbol id="email" viewBox="0 0 39 40"><path d="M38.92 15c0-.29-.145-.582-.388-.776l-3.204-2.33-.292-.146V6.26a.974.974 0 00-.97-.97h-7.672l-.097-.098L20.082.63a1.023 1.023 0 00-1.165 0l-5.875 4.32c-.145.098-.243.195-.291.34H4.935a.974.974 0 00-.971.971v5.39c-.049 0-.098.048-.146.097l-3.35 2.476a1.013 1.013 0 00-.389.777v23.79c0 .534.437.971.971.971h36.9a.974.974 0 00.97-.97V15zm-2.281.244l-1.602 1.165v-2.38l1.602 1.215zM19.5 2.62l3.641 2.67H15.86l3.64-2.67zm13.594 4.613v10.632L19.5 27.867 5.906 17.865V7.233h27.188zm-29.13 6.845v2.38L2.36 15.292l1.602-1.214zM2.02 37.82V17.428l2.137 1.603c.097.145.242.242.436.34l14.323 10.536a.933.933 0 00.583.194.933.933 0 00.582-.194L34.405 19.37c.194-.049.34-.194.437-.34l2.137-1.602V37.82H2.02z"/><path d="M10.76 13.06h17.48c.534 0 .97-.438.97-.972a.974.974 0 00-.97-.97H10.76a.974.974 0 00-.97.97c0 .534.437.971.97.971zm0 5.339h17.48c.534 0 .97-.437.97-.971a.974.974 0 00-.97-.971H10.76a.974.974 0 00-.97.971c0 .534.437.97.97.97zm12.624 3.4h-7.768a.974.974 0 00-.971.97c0 .535.437.972.97.972h7.77c.533 0 .97-.437.97-.971a.974.974 0 00-.97-.971z"/></symbol><symbol id="fb-icon" viewBox="0 0 36 36"><path d="M31.5 0h-27A4.505 4.505 0 000 4.5v27C0 33.982 2.018 36 4.5 36H18V23.625h-4.5V18H18v-4.5a6.75 6.75 0 016.75-6.75h4.5v5.625H27c-1.242 0-2.25-.117-2.25 1.125V18h5.625l-2.25 5.625H24.75V36h6.75c2.482 0 4.5-2.018 4.5-4.5v-27C36 2.018 33.982 0 31.5 0z"/></symbol><symbol id="insta-icon" viewBox="0 0 36 36"><path d="M11.998 3.6C7.367 3.6 3.6 7.37 3.6 12.002v12c0 4.631 3.77 8.398 8.402 8.398h12c4.631 0 8.398-3.77 8.398-8.402v-12c0-4.631-3.77-8.398-8.402-8.398h-12zM26.4 8.4a1.2 1.2 0 110 2.401 1.2 1.2 0 010-2.4zM18 10.8c3.97 0 7.2 3.23 7.2 7.2s-3.23 7.2-7.2 7.2-7.2-3.23-7.2-7.2 3.23-7.2 7.2-7.2zm0 2.4a4.8 4.8 0 100 9.6 4.8 4.8 0 000-9.6z"/></symbol><symbol id="insta" viewBox="0 0 17 16"><path d="M5.227 0A4.733 4.733 0 00.5 4.727v6.546A4.733 4.733 0 005.227 16h6.546a4.733 4.733 0 004.727-4.727V4.727A4.733 4.733 0 0011.773 0H5.227zm0 .727h6.546c2.213 0 4 1.787 4 4v6.546c0 2.213-1.787 4-4 4H5.227c-2.213 0-4-1.787-4-4V4.727c0-2.213 1.787-4 4-4zm7.637 2.182a.727.727 0 100 1.455.727.727 0 000-1.455zM8.5 4c-2.205 0-4 1.795-4 4s1.795 4 4 4 4-1.795 4-4-1.795-4-4-4zm0 .727A3.267 3.267 0 0111.773 8 3.267 3.267 0 018.5 11.273 3.267 3.267 0 015.227 8 3.267 3.267 0 018.5 4.727z"/></symbol><symbol id="location" viewBox="0 0 16 20"><path d="M8 0C3.8 0 .383 3.417.383 7.617c0 2.712.825 3.799 4.788 9.024.688.907 1.468 1.935 2.36 3.125a.586.586 0 00.938 0 626.454 626.454 0 012.348-3.111c3.973-5.24 4.8-6.331 4.8-9.038C15.617 3.417 12.2 0 8 0zm1.884 15.947c-.563.742-1.187 1.565-1.884 2.491-.702-.932-1.33-1.76-1.895-2.505-3.856-5.083-4.55-5.999-4.55-8.316A6.453 6.453 0 018 1.172a6.453 6.453 0 016.445 6.445c0 2.313-.696 3.231-4.561 8.33z"/><path d="M8 3.516a4.106 4.106 0 00-4.102 4.101A4.106 4.106 0 008 11.72a4.106 4.106 0 004.102-4.102A4.106 4.106 0 008 3.516zm0 7.03a2.933 2.933 0 01-2.93-2.929A2.933 2.933 0 018 4.687a2.933 2.933 0 012.93 2.93A2.933 2.933 0 018 10.547z"/></symbol><symbol id="mail" viewBox="0 0 17 12"><path d="M15.338 11.387H1.5a1.502 1.502 0 01-1.5-1.5V1.5A1.502 1.502 0 011.5 0h13.838a1.502 1.502 0 011.5 1.5v8.387a1.502 1.502 0 01-1.5 1.5zM1.5.6a.901.901 0 00-.9.9v8.387a.9.9 0 00.9.9h13.838a.901.901 0 00.9-.9V1.5a.901.901 0 00-.9-.9H1.5z"/><path d="M8.422 6.684c-.341 0-.672-.117-.938-.331L.759.962a.3.3 0 11.375-.468l6.725 5.39a.896.896 0 001.123.003L15.715.53a.3.3 0 11.374.47L9.356 6.355a1.496 1.496 0 01-.934.328z"/><path d="M.902 10.92a.3.3 0 01-.192-.531L6.798 5.34a.3.3 0 11.383.461L1.094 10.85a.298.298 0 01-.192.069zm15.031.004a.298.298 0 01-.191-.07l-6.08-5.047a.3.3 0 01.383-.461l6.08 5.047a.3.3 0 01-.192.53z"/></symbol><symbol id="phone" viewBox="0 0 16 16"><path fill-rule="evenodd" clip-rule="evenodd" d="M5.215.962A1.74 1.74 0 003.659 0h-1.92A1.74 1.74 0 00.064 2.205c.606 2.179 2 5.92 4.906 8.826 2.906 2.907 6.647 4.3 8.826 4.905A1.74 1.74 0 0016 14.26v-1.919a1.74 1.74 0 00-.962-1.556L12.53 9.531a1.74 1.74 0 00-2.008.326l-1.015 1.014a.347.347 0 01-.399.067A11.847 11.847 0 016.86 9.155a11.764 11.764 0 01-1.79-2.258.344.344 0 01.064-.405c.277-.281.67-.674 1.009-1.014a1.74 1.74 0 00.326-2.008L5.215.962zm-.623.31l1.255 2.51c.2.401.122.886-.196 1.204-.341.341-.736.736-1.013 1.018a1.04 1.04 0 00-.18 1.224l.008.013c.307.519.911 1.415 1.901 2.406a12.541 12.541 0 002.406 1.901c.405.215.902.14 1.226-.184l1.015-1.015a1.043 1.043 0 011.205-.195l2.508 1.254c.354.177.577.538.577.933v1.92a1.044 1.044 0 01-1.322 1.005c-2.103-.584-5.717-1.922-8.521-4.726C2.656 7.735 1.318 4.12.734 2.019A1.043 1.043 0 011.74.696h1.919c.395 0 .757.223.933.577z"/></symbol><symbol id="play" viewBox="0 0 56 56"><path d="M28 .063C12.572.063.028 12.607.028 28.035.028 43.464 12.571 56.007 28 56.007c15.429 0 27.972-12.543 27.972-27.972C55.972 12.607 43.429.063 28 .063zm9.01 29.386l-13.19 8.774c-1.12.765-2.65-.059-2.65-1.414V19.261c0-1.355 1.53-2.18 2.65-1.414l13.19 8.775c1.001.648 1.001 2.179 0 2.827z"/></symbol><symbol id="prev" viewBox="0 0 32 32"><path d="M15.35 9.054a.695.695 0 11.983.983l-5.268 5.268h13.997a.698.698 0 010 1.396h-13.99l5.268 5.268a.695.695 0 01-.495 1.186.715.715 0 01-.496-.203L8.895 16.5a.691.691 0 01-.202-.496.72.72 0 01.202-.495l6.454-6.454z"/><path d="M15.992 1.002A14.999 14.999 0 0126.596 26.61c-5.858 5.857-15.354 5.857-21.211 0-5.857-5.857-5.857-15.353 0-21.21A14.905 14.905 0 0115.99 1.001zm0 28.607c7.5 0 13.605-6.105 13.605-13.605 0-7.501-6.105-13.606-13.606-13.606-7.5 0-13.605 6.105-13.605 13.606 0 7.5 6.105 13.605 13.605 13.605z"/></symbol><symbol id="sprite"><symbol id="arrow-500" viewBox="0 0 12 8"><path d="M10.59.59L6 5.17 1.41.59 0 2l6 6 6-6L10.59.59z"/></symbol><symbol id="arrow" viewBox="0 0 14 8"><path d="M7 7l-.424.424a.6.6 0 00.848 0L7 7zM.576 1.424l6 6 .848-.848-6-6-.848.848zm6.848 6l6-6-.848-.848-6 6 .848.848z" fill="#303030"/></symbol><symbol id="clock" viewBox="0 0 41 40"><g clip-path="url(#clip0_188_1494)"><path d="M21.108 18.227V10.17a.616.616 0 00-.608-.608c-.304 0-.608.304-.608.608v8.058c-.101.051-.253.102-.355.152l-4.814-9.223c-.102-.254-.406-.304-.608-.203-.254.102-.304.406-.203.608l4.966 9.477a1.75 1.75 0 00-.253.912c0 1.014.861 1.875 1.875 1.875s1.875-.861 1.875-1.875c0-.76-.557-1.47-1.267-1.723zM29.572 4.24c-.304-.152-.66-.05-.862.253l-1.267 2.18c-.152.303-.05.658.254.86.101.051.202.102.304.102.202 0 .405-.101.557-.304l1.267-2.179c.152-.355.051-.71-.253-.912zm3.953 8.868c.101 0 .202-.05.303-.102l2.18-1.267c.303-.152.405-.557.253-.861-.152-.304-.558-.405-.861-.254l-2.18 1.268c-.303.152-.405.557-.253.861.101.253.355.355.558.355zm4.56 6.285h-2.534a.616.616 0 00-.608.608c0 .304.304.608.608.608h2.534a.616.616 0 00.608-.608c0-.304-.304-.608-.608-.608zm-2.077 8.867l-2.18-1.266c-.303-.152-.658-.05-.86.253-.153.304-.051.659.253.862l2.179 1.267c.101.05.202.101.304.101.202 0 .405-.101.557-.304.152-.355.05-.76-.253-.912zm-7.45 4.462c-.152-.304-.557-.406-.861-.254-.304.152-.406.558-.254.862l1.267 2.179c.101.202.304.304.558.304.101 0 .202-.05.304-.102.304-.152.405-.557.253-.861l-1.267-2.128zM20.5 34.393a.616.616 0 00-.608.608v2.534c0 .355.304.608.608.608s.608-.304.608-.608V35a.616.616 0 00-.608-.608zm-7.196-1.925c-.304-.152-.66-.05-.862.254L11.175 34.9c-.152.304-.05.659.254.861.101.05.202.102.304.102.202 0 .405-.102.557-.304l1.267-2.18c.152-.354.05-.76-.253-.912zm-6.133-5.474l-2.179 1.267c-.304.152-.405.558-.253.862.101.202.304.304.557.304.102 0 .203-.05.304-.102l2.18-1.267c.303-.152.405-.557.253-.861-.152-.304-.558-.406-.862-.203zM6.107 20a.616.616 0 00-.608-.607H2.965a.616.616 0 00-.608.608c0 .304.304.608.608.608H5.5A.616.616 0 006.107 20zm1.673-8.058L5.6 10.675c-.303-.152-.658-.05-.86.254-.153.304-.051.659.253.861l2.179 1.267c.101.05.202.102.304.102.202 0 .405-.102.557-.304.152-.355.05-.76-.253-.913zm4.46-7.449c-.153-.304-.558-.405-.862-.253-.304.152-.406.557-.254.861l1.267 2.18c.102.202.304.303.558.303.101 0 .202-.05.304-.101.304-.152.405-.558.253-.862L12.24 4.493zm8.26 1.114A.616.616 0 0021.108 5V2.465a.616.616 0 00-.608-.608c-.304 0-.608.304-.608.608V5c0 .304.253.608.608.608z"/><path d="M20.5.033C9.503.033.532 9.003.532 20.001c0 10.997 8.97 19.967 19.968 19.967 10.997 0 19.967-8.97 19.967-19.967C40.467 9.003 31.497.033 20.5.033zm0 38.972c-10.49 0-19.005-8.514-19.005-19.004C1.495 9.51 10.01.996 20.5.996c10.49 0 19.004 8.514 19.004 19.005 0 10.49-8.513 19.004-19.004 19.004z"/></g></symbol><symbol id="close" viewBox="0 0 24 24"><g clip-path="url(#clip0_669_4319)"><circle cx="12" cy="12" r="11" fill="none"/><path d="M20.456 3.485c-4.679-4.679-12.292-4.679-16.97 0-4.68 4.68-4.68 12.292 0 16.97 4.678 4.68 12.291 4.68 16.97 0 4.679-4.678 4.679-12.29 0-16.97zM4.698 19.244c-4.01-4.01-4.01-10.536 0-14.547 4.01-4.01 10.535-4.01 14.546 0 4.01 4.011 4.01 10.536 0 14.547-4.01 4.01-10.536 4.01-14.546 0z"/><path d="M16.012 7.93a.857.857 0 00-1.212 0L7.93 14.8a.857.857 0 101.213 1.212l6.869-6.87a.857.857 0 000-1.212z"/><path d="M16.012 14.8L9.143 7.93a.857.857 0 10-1.212 1.213l6.87 6.869a.857.857 0 101.211-1.213z"/></g></symbol><symbol id="email" viewBox="0 0 39 40"><path d="M38.92 15c0-.29-.145-.582-.388-.776l-3.204-2.33-.292-.146V6.26a.974.974 0 00-.97-.97h-7.672l-.097-.098L20.082.63a1.023 1.023 0 00-1.165 0l-5.875 4.32c-.145.098-.243.195-.291.34H4.935a.974.974 0 00-.971.971v5.39c-.049 0-.098.048-.146.097l-3.35 2.476a1.013 1.013 0 00-.389.777v23.79c0 .534.437.971.971.971h36.9a.974.974 0 00.97-.97V15zm-2.281.244l-1.602 1.165v-2.38l1.602 1.215zM19.5 2.62l3.641 2.67H15.86l3.64-2.67zm13.594 4.613v10.632L19.5 27.867 5.906 17.865V7.233h27.188zm-29.13 6.845v2.38L2.36 15.292l1.602-1.214zM2.02 37.82V17.428l2.137 1.603c.097.145.242.242.436.34l14.323 10.536a.933.933 0 00.583.194.933.933 0 00.582-.194L34.405 19.37c.194-.049.34-.194.437-.34l2.137-1.602V37.82H2.02z"/><path d="M10.76 13.06h17.48c.534 0 .97-.438.97-.972a.974.974 0 00-.97-.97H10.76a.974.974 0 00-.97.97c0 .534.437.971.97.971zm0 5.339h17.48c.534 0 .97-.437.97-.971a.974.974 0 00-.97-.971H10.76a.974.974 0 00-.97.971c0 .534.437.97.97.97zm12.624 3.4h-7.768a.974.974 0 00-.971.97c0 .535.437.972.97.972h7.77c.533 0 .97-.437.97-.971a.974.974 0 00-.97-.971z"/></symbol><symbol id="fb-icon" viewBox="0 0 36 36"><path d="M31.5 0h-27A4.505 4.505 0 000 4.5v27C0 33.982 2.018 36 4.5 36H18V23.625h-4.5V18H18v-4.5a6.75 6.75 0 016.75-6.75h4.5v5.625H27c-1.242 0-2.25-.117-2.25 1.125V18h5.625l-2.25 5.625H24.75V36h6.75c2.482 0 4.5-2.018 4.5-4.5v-27C36 2.018 33.982 0 31.5 0z"/></symbol><symbol id="insta-icon" viewBox="0 0 36 36"><path d="M11.998 3.6C7.367 3.6 3.6 7.37 3.6 12.002v12c0 4.631 3.77 8.398 8.402 8.398h12c4.631 0 8.398-3.77 8.398-8.402v-12c0-4.631-3.77-8.398-8.402-8.398h-12zM26.4 8.4a1.2 1.2 0 110 2.401 1.2 1.2 0 010-2.4zM18 10.8c3.97 0 7.2 3.23 7.2 7.2s-3.23 7.2-7.2 7.2-7.2-3.23-7.2-7.2 3.23-7.2 7.2-7.2zm0 2.4a4.8 4.8 0 100 9.6 4.8 4.8 0 000-9.6z"/></symbol><symbol id="insta" viewBox="0 0 17 16"><path d="M5.227 0A4.733 4.733 0 00.5 4.727v6.546A4.733 4.733 0 005.227 16h6.546a4.733 4.733 0 004.727-4.727V4.727A4.733 4.733 0 0011.773 0H5.227zm0 .727h6.546c2.213 0 4 1.787 4 4v6.546c0 2.213-1.787 4-4 4H5.227c-2.213 0-4-1.787-4-4V4.727c0-2.213 1.787-4 4-4zm7.637 2.182a.727.727 0 100 1.455.727.727 0 000-1.455zM8.5 4c-2.205 0-4 1.795-4 4s1.795 4 4 4 4-1.795 4-4-1.795-4-4-4zm0 .727A3.267 3.267 0 0111.773 8 3.267 3.267 0 018.5 11.273 3.267 3.267 0 015.227 8 3.267 3.267 0 018.5 4.727z"/></symbol><symbol id="location" viewBox="0 0 16 20"><path d="M8 0C3.8 0 .383 3.417.383 7.617c0 2.712.825 3.799 4.788 9.024.688.907 1.468 1.935 2.36 3.125a.586.586 0 00.938 0 626.454 626.454 0 012.348-3.111c3.973-5.24 4.8-6.331 4.8-9.038C15.617 3.417 12.2 0 8 0zm1.884 15.947c-.563.742-1.187 1.565-1.884 2.491-.702-.932-1.33-1.76-1.895-2.505-3.856-5.083-4.55-5.999-4.55-8.316A6.453 6.453 0 018 1.172a6.453 6.453 0 016.445 6.445c0 2.313-.696 3.231-4.561 8.33z"/><path d="M8 3.516a4.106 4.106 0 00-4.102 4.101A4.106 4.106 0 008 11.72a4.106 4.106 0 004.102-4.102A4.106 4.106 0 008 3.516zm0 7.03a2.933 2.933 0 01-2.93-2.929A2.933 2.933 0 018 4.687a2.933 2.933 0 012.93 2.93A2.933 2.933 0 018 10.547z"/></symbol><symbol id="mail" viewBox="0 0 17 12"><path d="M15.338 11.387H1.5a1.502 1.502 0 01-1.5-1.5V1.5A1.502 1.502 0 011.5 0h13.838a1.502 1.502 0 011.5 1.5v8.387a1.502 1.502 0 01-1.5 1.5zM1.5.6a.901.901 0 00-.9.9v8.387a.9.9 0 00.9.9h13.838a.901.901 0 00.9-.9V1.5a.901.901 0 00-.9-.9H1.5z"/><path d="M8.422 6.684c-.341 0-.672-.117-.938-.331L.759.962a.3.3 0 11.375-.468l6.725 5.39a.896.896 0 001.123.003L15.715.53a.3.3 0 11.374.47L9.356 6.355a1.496 1.496 0 01-.934.328z"/><path d="M.902 10.92a.3.3 0 01-.192-.531L6.798 5.34a.3.3 0 11.383.461L1.094 10.85a.298.298 0 01-.192.069zm15.031.004a.298.298 0 01-.191-.07l-6.08-5.047a.3.3 0 01.383-.461l6.08 5.047a.3.3 0 01-.192.53z"/></symbol><symbol id="phone" viewBox="0 0 16 16"><path fill-rule="evenodd" clip-rule="evenodd" d="M5.215.962A1.74 1.74 0 003.659 0h-1.92A1.74 1.74 0 00.064 2.205c.606 2.179 2 5.92 4.906 8.826 2.906 2.907 6.647 4.3 8.826 4.905A1.74 1.74 0 0016 14.26v-1.919a1.74 1.74 0 00-.962-1.556L12.53 9.531a1.74 1.74 0 00-2.008.326l-1.015 1.014a.347.347 0 01-.399.067A11.847 11.847 0 016.86 9.155a11.764 11.764 0 01-1.79-2.258.344.344 0 01.064-.405c.277-.281.67-.674 1.009-1.014a1.74 1.74 0 00.326-2.008L5.215.962zm-.623.31l1.255 2.51c.2.401.122.886-.196 1.204-.341.341-.736.736-1.013 1.018a1.04 1.04 0 00-.18 1.224l.008.013c.307.519.911 1.415 1.901 2.406a12.541 12.541 0 002.406 1.901c.405.215.902.14 1.226-.184l1.015-1.015a1.043 1.043 0 011.205-.195l2.508 1.254c.354.177.577.538.577.933v1.92a1.044 1.044 0 01-1.322 1.005c-2.103-.584-5.717-1.922-8.521-4.726C2.656 7.735 1.318 4.12.734 2.019A1.043 1.043 0 011.74.696h1.919c.395 0 .757.223.933.577z"/></symbol><symbol id="play" viewBox="0 0 56 56"><path d="M28 .063C12.572.063.028 12.607.028 28.035.028 43.464 12.571 56.007 28 56.007c15.429 0 27.972-12.543 27.972-27.972C55.972 12.607 43.429.063 28 .063zm9.01 29.386l-13.19 8.774c-1.12.765-2.65-.059-2.65-1.414V19.261c0-1.355 1.53-2.18 2.65-1.414l13.19 8.775c1.001.648 1.001 2.179 0 2.827z"/></symbol><symbol id="prev" viewBox="0 0 32 32"><path d="M15.35 9.054a.695.695 0 11.983.983l-5.268 5.268h13.997a.698.698 0 010 1.396h-13.99l5.268 5.268a.695.695 0 01-.495 1.186.715.715 0 01-.496-.203L8.895 16.5a.691.691 0 01-.202-.496.72.72 0 01.202-.495l6.454-6.454z"/><path d="M15.992 1.002A14.999 14.999 0 0126.596 26.61c-5.858 5.857-15.354 5.857-21.211 0-5.857-5.857-5.857-15.353 0-21.21A14.905 14.905 0 0115.99 1.001zm0 28.607c7.5 0 13.605-6.105 13.605-13.605 0-7.501-6.105-13.606-13.606-13.606-7.5 0-13.605 6.105-13.605 13.606 0 7.5 6.105 13.605 13.605 13.605z"/></symbol><symbol id="tg-icon" viewBox="0 0 36 36"><g clip-path="url(#clip0_124_753)"><path d="M35.444 3.576c-.44-.537-1.098-.834-1.855-.834-.411 0-.846.087-1.294.258L1.822 14.632C.204 15.25-.013 16.176 0 16.673c.014.497.284 1.41 1.933 1.934l.03.01 4.273 1.222L27.051 9.206a1.054 1.054 0 011.247 1.661h.001L16.727 23.165l-.33 1.338 4.132 3.328 5.727 4.61.015.013c.63.489 1.318.747 1.99.747 1.314 0 2.36-.972 2.664-2.476L35.918 6.07c.2-.99.032-1.875-.474-2.494z"/><path d="M14.745 22.39c.043-.17.127-.333.256-.47l7.594-8.069L8.504 21.05l3.2 9.15c.181.521.453.965.788 1.313l2.253-9.123zm-.289 9.97c.76-.007 1.508-.327 2.163-.93l2.34-2.156-3.12-2.513-1.383 5.599z"/></g></symbol><symbol id="tg" viewBox="0 0 18 15"><path d="M16.497.001a1.699 1.699 0 00-.537.123c-.164.064-1.105.454-2.496 1.031L8.472 3.228c-3.584 1.49-7.107 2.957-7.107 2.957l.026-.01s-.213.069-.429.215a1.174 1.174 0 00-.318.304.787.787 0 00-.138.537c.091.722.863.927.863.927l.003.001 3.442 1.143c.087.284 1.044 3.38 1.254 4.036.116.363.225.572.338.714a.707.707 0 00.182.167.512.512 0 00.081.04h.001c.004 0 .007 0 .01.002l-.009-.002c.007.002.013.007.02.009.011.004.019.004.035.007.394.134.72-.114.72-.114l.014-.01 2.114-1.903 3.431 2.596.043.019c.6.258 1.144.114 1.445-.123.3-.238.419-.544.419-.544l.013-.032 2.521-12.75c.065-.286.074-.532.013-.755a.879.879 0 00-.394-.524 1.025 1.025 0 00-.568-.134zm.02.763a.364.364 0 01.151.015c.018.01.026.01.044.072.017.063.026.195-.02.402l-.002.005-2.508 12.676a.624.624 0 01-.177.224c-.122.096-.257.17-.616.025l-3.752-2.84-.106-.08-.002.002-1.122-.817 6.306-7.198a.37.37 0 00-.093-.563.396.396 0 00-.416.008L5.079 8.597 1.63 7.452s-.342-.185-.358-.314c-.001-.007-.005 0 .013-.026a.5.5 0 01.118-.107c.112-.076.24-.122.24-.122l.013-.004.013-.005 7.107-2.956 4.991-2.073c1.39-.577 2.395-.992 2.48-1.025a.864.864 0 01.27-.056zm-4.181 4.041l-4.783 5.459-.002.002a.36.36 0 00-.042.059.367.367 0 00-.05.144v.003l-.624 2.718c-.01-.03-.018-.04-.029-.075-.197-.617-1.1-3.537-1.224-3.941l6.753-4.369zm-4.243 6.353l.86.626L7.69 12.92l.403-1.762z"/></symbol><symbol id="vk-icon" viewBox="0 0 36 36"><path d="M31.5 0h-27A4.5 4.5 0 000 4.5v27A4.5 4.5 0 004.5 36h27a4.5 4.5 0 004.5-4.5v-27A4.5 4.5 0 0031.5 0z"/><path fill-rule="evenodd" clip-rule="evenodd" d="M17.698 25.956h1.681s.508-.056.767-.336c.24-.256.232-.738.232-.738s-.034-2.256 1.014-2.588c1.032-.327 2.357 2.18 3.762 3.144 1.062.73 1.869.57 1.869.57l3.756-.052s1.964-.122 1.033-1.667c-.076-.126-.543-1.142-2.793-3.23-2.355-2.187-2.04-1.833.798-5.614 1.727-2.303 2.418-3.708 2.202-4.31-.206-.574-1.476-.423-1.476-.423l-4.23.027s-.313-.043-.546.096c-.227.136-.373.454-.373.454s-.67 1.781-1.562 3.297c-1.883 3.197-2.636 3.367-2.944 3.168-.716-.463-.537-1.859-.537-2.851 0-3.099.47-4.391-.915-4.726-.46-.11-.798-.184-1.974-.196-1.509-.015-2.786.005-3.51.359-.48.236-.851.76-.625.791.28.037.912.17 1.248.627.433.59.418 1.914.418 1.914s.25 3.648-.582 4.1c-.57.312-1.351-.323-3.03-3.224-.86-1.486-1.51-3.129-1.51-3.129s-.125-.306-.349-.47c-.27-.2-.65-.263-.65-.263l-4.018.026s-.603.017-.824.28c-.198.233-.016.715-.016.715s3.146 7.361 6.708 11.07c3.267 3.402 6.976 3.179 6.976 3.179z" fill="#1D2B47"/></symbol><symbol id="vk" viewBox="0 0 17 16"><path d="M8.5 0c-4.414 0-8 3.586-8 8s3.586 8 8 8 8-3.586 8-8-3.586-8-8-8zm0 .696A7.299 7.299 0 0115.804 8 7.299 7.299 0 018.5 15.304 7.299 7.299 0 011.196 8 7.3 7.3 0 018.5.696zm-3.478 4.87H3.62s-.08-.005-.177.008c-.097.013-.24.019-.388.185l-.001.001a.5.5 0 00-.11.42.6.6 0 00.054.166v.001c.013.033 1.032 2.53 2.317 3.872.906.947 1.875 1.26 2.738 1.26H8.5a.851.851 0 00.425-.083.567.567 0 00.27-.446c0-.174.005-.343.027-.437.02-.088.013-.066.021-.067a.246.246 0 01.053.019c.062.028.157.09.264.173.212.165.464.404.746.589.404.268.842.251.842.251h1.446l.015-.001s.222-.005.45-.145a.64.64 0 00.295-.39c.045-.192-.013-.393-.124-.57-.041-.065-.24-.353-1.03-1.055a4.562 4.562 0 01-.399-.377c-.02-.025-.021-.022-.025-.024.004-.011.05-.108.172-.267.128-.165.321-.396.57-.713a5.08 5.08 0 00.68-1.12c.07-.165.12-.314.15-.448.03-.135.053-.247.01-.407a.52.52 0 00-.21-.282.639.639 0 00-.242-.091c-.146-.027-.275-.023-.395-.023-.252 0-1.371.009-1.463.009a.91.91 0 00-.362.091c-.199.114-.26.27-.26.27l-.02.033-.01.037s-.256.825-.518 1.25c-.309.5-.538.699-.64.755l-.012.007a.486.486 0 01-.024-.113c-.015-.133-.006-.319-.006-.5 0-.498.037-.81-.004-1.104a.783.783 0 00-.195-.437.838.838 0 00-.432-.224c-.163-.038-.337-.07-.757-.074-.535-.005-.884.012-1.193.15l-.004.002-.002.001a.991.991 0 00-.304.211c-.042.044-.093.076-.128.216a.389.389 0 00.06.31c.08.107.19.14.256.148-.013-.001.051.013.1.037.05.024.092.06.103.073v.001c-.005-.006.042.111.055.218.012.107.01.193.01.193v.021l.001.021s.022.236.01.48a1.659 1.659 0 01-.041.32l-.003.007c-.087-.061-.288-.273-.564-.73-.256-.423-.496-1.183-.496-1.183l-.005-.017-.006-.016s-.045-.17-.242-.309c-.185-.13-.36-.148-.36-.148l-.033-.006zm-.08.695l.069.026-.008-.025.01.025.002.001c-.017-.012-.002 0 0 .003.01.033.222.765.554 1.313.302.499.525.778.769.946a.78.78 0 00.737.063c.222-.116.284-.305.327-.464a2.16 2.16 0 00.065-.47c.014-.289-.009-.526-.011-.55 0-.012.003-.125-.014-.278a1.088 1.088 0 00-.187-.536c.153-.022.238-.057.546-.054.393.004.453.02.607.056.085.019.094.035.086.027-.008-.009 0-.014.009.053.019.136-.003.482-.003 1.008 0 .148-.014.357.01.576.025.219.093.499.358.662.15.094.438.126.71-.025.27-.152.55-.442.892-.998.339-.55.541-1.271.563-1.348l.006-.004c.007 0-.001.002.009.002.128 0 1.228-.01 1.463-.01.065 0 .093.004.141.006-.02.075-.045.163-.094.275a4.45 4.45 0 01-.587.966c-.242.308-.43.531-.574.718-.143.187-.256.334-.303.547-.047.213.043.453.165.605.123.152.276.28.479.46.765.68.89.886.903.905.012.021.004 0 .01.01a4.136 4.136 0 01-.1.03h-1.41s-.26-.008-.451-.135h-.001c-.204-.134-.45-.363-.703-.559a2.016 2.016 0 00-.404-.257.763.763 0 00-.537-.056c-.288.086-.448.36-.5.578-.036.157-.03.293-.032.429h-.461c-.707 0-1.442-.215-2.235-1.044-1.032-1.077-1.952-3.16-2.09-3.476l1.215-.001zm6.067.003c-.007.001.012.002.026.004h-.002c0-.005-.016-.006-.024-.004z"/></symbol><symbol id="wa-icon" viewBox="0 0 36 36"><path d="M18 3.6C10.048 3.6 3.6 10.048 3.6 18c0 2.701.759 5.22 2.053 7.38L3.73 32.4l7.17-1.882A14.323 14.323 0 0018 32.4c7.952 0 14.4-6.447 14.4-14.4 0-7.952-6.448-14.4-14.4-14.4zm-4.929 7.683c.234 0 .475-.002.682.01.257.005.536.024.804.616.318.703 1.01 2.467 1.1 2.646.088.179.151.39.027.623-.117.24-.178.385-.351.598-.179.206-.375.463-.537.619-.179.178-.363.375-.157.73.207.357.923 1.526 1.983 2.469 1.362 1.217 2.511 1.59 2.869 1.77.357.178.564.15.77-.09.213-.234.893-1.037 1.133-1.394.234-.358.473-.296.797-.178.328.117 2.082.981 2.44 1.16.357.179.591.267.681.412.093.15.093.864-.203 1.697-.297.832-1.752 1.636-2.405 1.692-.659.062-1.274.296-4.282-.888-3.629-1.43-5.917-5.146-6.096-5.386-.179-.234-1.453-1.932-1.453-3.684 0-1.758.921-2.62 1.244-2.977.329-.357.714-.445.954-.445z"/></symbol><symbol id="wa" viewBox="0 0 17 16"><path d="M8.5 0c-4.414 0-8 3.586-8 8 0 1.419.39 2.743 1.038 3.899l-1.025 3.66a.348.348 0 00.418.43l3.816-.945A7.943 7.943 0 008.5 16c4.414 0 8-3.586 8-8s-3.586-8-8-8zm0 .696A7.3 7.3 0 0115.804 8 7.3 7.3 0 018.5 15.304a7.266 7.266 0 01-3.561-.927.348.348 0 00-.254-.034l-3.341.828.896-3.197a.348.348 0 00-.035-.27A7.262 7.262 0 011.195 8 7.3 7.3 0 018.5.696zm-2.907 3.13c-.223 0-.541.083-.803.365-.157.17-.812.807-.812 1.929 0 1.169.811 2.178.91 2.307v.001a11.015 11.015 0 001.045 1.281c.627.66 1.509 1.424 2.604 1.89.504.216.901.345 1.203.44a3.205 3.205 0 001.449.092c.286-.042.6-.18.912-.376.31-.197.616-.442.75-.814a2.81 2.81 0 00.163-.716c.01-.101.01-.191.004-.274-.007-.083 0-.146-.077-.273-.162-.266-.345-.273-.537-.368-.106-.052-.409-.2-.712-.345-.304-.144-.566-.272-.728-.33-.102-.037-.227-.09-.407-.07-.18.021-.358.151-.461.305-.098.145-.493.611-.614.748-.001 0 .01.004-.038-.02-.15-.073-.331-.136-.6-.278a4.968 4.968 0 01-.976-.677v-.001c-.55-.483-.934-1.09-1.056-1.294.009-.01 0 .002.017-.015.124-.123.234-.269.327-.376.132-.151.19-.285.253-.41.125-.25.056-.523-.017-.667.005.01-.04-.089-.087-.201l-.174-.416-.362-.868v-.001c-.102-.242-.24-.416-.42-.5-.18-.084-.34-.06-.346-.06a9.115 9.115 0 00-.41-.008zm0 .696c.134 0 .266.001.377.007.114.005.107.006.085-.005-.022-.01.008-.013.073.14l.361.867.175.419c.05.115.076.18.106.24v.002h.001c.03.06.027.022.017.042-.073.146-.083.182-.158.267-.113.13-.228.276-.289.336-.053.052-.15.134-.21.294-.06.16-.032.38.065.544.128.219.552.91 1.212 1.49.415.365.801.608 1.11.77.31.163.56.259.617.287.134.066.28.117.45.097a.678.678 0 00.41-.23c.124-.14.493-.562.67-.821.008.002.005 0 .064.021v.001c.028.01.364.16.664.303.3.143.604.291.703.34.143.071.21.117.227.117a.642.642 0 01-.002.114c-.012.14-.05.334-.124.54-.037.102-.227.31-.468.463-.24.152-.534.26-.642.276a2.493 2.493 0 01-1.139-.068 11.645 11.645 0 01-1.138-.415c-.966-.412-1.786-1.113-2.373-1.73a10.336 10.336 0 01-.694-.813c-.167-.217-.24-.33-.3-.41h-.001c-.108-.143-.768-1.06-.768-1.887 0-.875.406-1.219.626-1.456a.412.412 0 01.293-.142z"/></symbol></symbol><symbol id="tg-icon" viewBox="0 0 36 36"><g clip-path="url(#clip0_124_753)"><path d="M35.444 3.576c-.44-.537-1.098-.834-1.855-.834-.411 0-.846.087-1.294.258L1.822 14.632C.204 15.25-.013 16.176 0 16.673c.014.497.284 1.41 1.933 1.934l.03.01 4.273 1.222L27.051 9.206a1.054 1.054 0 011.247 1.661h.001L16.727 23.165l-.33 1.338 4.132 3.328 5.727 4.61.015.013c.63.489 1.318.747 1.99.747 1.314 0 2.36-.972 2.664-2.476L35.918 6.07c.2-.99.032-1.875-.474-2.494z"/><path d="M14.745 22.39c.043-.17.127-.333.256-.47l7.594-8.069L8.504 21.05l3.2 9.15c.181.521.453.965.788 1.313l2.253-9.123zm-.289 9.97c.76-.007 1.508-.327 2.163-.93l2.34-2.156-3.12-2.513-1.383 5.599z"/></g></symbol><symbol id="tg" viewBox="0 0 18 15"><path d="M16.497.001a1.699 1.699 0 00-.537.123c-.164.064-1.105.454-2.496 1.031L8.472 3.228c-3.584 1.49-7.107 2.957-7.107 2.957l.026-.01s-.213.069-.429.215a1.174 1.174 0 00-.318.304.787.787 0 00-.138.537c.091.722.863.927.863.927l.003.001 3.442 1.143c.087.284 1.044 3.38 1.254 4.036.116.363.225.572.338.714a.707.707 0 00.182.167.512.512 0 00.081.04h.001c.004 0 .007 0 .01.002l-.009-.002c.007.002.013.007.02.009.011.004.019.004.035.007.394.134.72-.114.72-.114l.014-.01 2.114-1.903 3.431 2.596.043.019c.6.258 1.144.114 1.445-.123.3-.238.419-.544.419-.544l.013-.032 2.521-12.75c.065-.286.074-.532.013-.755a.879.879 0 00-.394-.524 1.025 1.025 0 00-.568-.134zm.02.763a.364.364 0 01.151.015c.018.01.026.01.044.072.017.063.026.195-.02.402l-.002.005-2.508 12.676a.624.624 0 01-.177.224c-.122.096-.257.17-.616.025l-3.752-2.84-.106-.08-.002.002-1.122-.817 6.306-7.198a.37.37 0 00-.093-.563.396.396 0 00-.416.008L5.079 8.597 1.63 7.452s-.342-.185-.358-.314c-.001-.007-.005 0 .013-.026a.5.5 0 01.118-.107c.112-.076.24-.122.24-.122l.013-.004.013-.005 7.107-2.956 4.991-2.073c1.39-.577 2.395-.992 2.48-1.025a.864.864 0 01.27-.056zm-4.181 4.041l-4.783 5.459-.002.002a.36.36 0 00-.042.059.367.367 0 00-.05.144v.003l-.624 2.718c-.01-.03-.018-.04-.029-.075-.197-.617-1.1-3.537-1.224-3.941l6.753-4.369zm-4.243 6.353l.86.626L7.69 12.92l.403-1.762z"/></symbol><symbol id="vk-icon" viewBox="0 0 36 36"><path d="M31.5 0h-27A4.5 4.5 0 000 4.5v27A4.5 4.5 0 004.5 36h27a4.5 4.5 0 004.5-4.5v-27A4.5 4.5 0 0031.5 0z"/><path fill-rule="evenodd" clip-rule="evenodd" d="M17.698 25.956h1.681s.508-.056.767-.336c.24-.256.232-.738.232-.738s-.034-2.256 1.014-2.588c1.032-.327 2.357 2.18 3.762 3.144 1.062.73 1.869.57 1.869.57l3.756-.052s1.964-.122 1.033-1.667c-.076-.126-.543-1.142-2.793-3.23-2.355-2.187-2.04-1.833.798-5.614 1.727-2.303 2.418-3.708 2.202-4.31-.206-.574-1.476-.423-1.476-.423l-4.23.027s-.313-.043-.546.096c-.227.136-.373.454-.373.454s-.67 1.781-1.562 3.297c-1.883 3.197-2.636 3.367-2.944 3.168-.716-.463-.537-1.859-.537-2.851 0-3.099.47-4.391-.915-4.726-.46-.11-.798-.184-1.974-.196-1.509-.015-2.786.005-3.51.359-.48.236-.851.76-.625.791.28.037.912.17 1.248.627.433.59.418 1.914.418 1.914s.25 3.648-.582 4.1c-.57.312-1.351-.323-3.03-3.224-.86-1.486-1.51-3.129-1.51-3.129s-.125-.306-.349-.47c-.27-.2-.65-.263-.65-.263l-4.018.026s-.603.017-.824.28c-.198.233-.016.715-.016.715s3.146 7.361 6.708 11.07c3.267 3.402 6.976 3.179 6.976 3.179z" fill="#1D2B47"/></symbol><symbol id="vk" viewBox="0 0 17 16"><path d="M8.5 0c-4.414 0-8 3.586-8 8s3.586 8 8 8 8-3.586 8-8-3.586-8-8-8zm0 .696A7.299 7.299 0 0115.804 8 7.299 7.299 0 018.5 15.304 7.299 7.299 0 011.196 8 7.3 7.3 0 018.5.696zm-3.478 4.87H3.62s-.08-.005-.177.008c-.097.013-.24.019-.388.185l-.001.001a.5.5 0 00-.11.42.6.6 0 00.054.166v.001c.013.033 1.032 2.53 2.317 3.872.906.947 1.875 1.26 2.738 1.26H8.5a.851.851 0 00.425-.083.567.567 0 00.27-.446c0-.174.005-.343.027-.437.02-.088.013-.066.021-.067a.246.246 0 01.053.019c.062.028.157.09.264.173.212.165.464.404.746.589.404.268.842.251.842.251h1.446l.015-.001s.222-.005.45-.145a.64.64 0 00.295-.39c.045-.192-.013-.393-.124-.57-.041-.065-.24-.353-1.03-1.055a4.562 4.562 0 01-.399-.377c-.02-.025-.021-.022-.025-.024.004-.011.05-.108.172-.267.128-.165.321-.396.57-.713a5.08 5.08 0 00.68-1.12c.07-.165.12-.314.15-.448.03-.135.053-.247.01-.407a.52.52 0 00-.21-.282.639.639 0 00-.242-.091c-.146-.027-.275-.023-.395-.023-.252 0-1.371.009-1.463.009a.91.91 0 00-.362.091c-.199.114-.26.27-.26.27l-.02.033-.01.037s-.256.825-.518 1.25c-.309.5-.538.699-.64.755l-.012.007a.486.486 0 01-.024-.113c-.015-.133-.006-.319-.006-.5 0-.498.037-.81-.004-1.104a.783.783 0 00-.195-.437.838.838 0 00-.432-.224c-.163-.038-.337-.07-.757-.074-.535-.005-.884.012-1.193.15l-.004.002-.002.001a.991.991 0 00-.304.211c-.042.044-.093.076-.128.216a.389.389 0 00.06.31c.08.107.19.14.256.148-.013-.001.051.013.1.037.05.024.092.06.103.073v.001c-.005-.006.042.111.055.218.012.107.01.193.01.193v.021l.001.021s.022.236.01.48a1.659 1.659 0 01-.041.32l-.003.007c-.087-.061-.288-.273-.564-.73-.256-.423-.496-1.183-.496-1.183l-.005-.017-.006-.016s-.045-.17-.242-.309c-.185-.13-.36-.148-.36-.148l-.033-.006zm-.08.695l.069.026-.008-.025.01.025.002.001c-.017-.012-.002 0 0 .003.01.033.222.765.554 1.313.302.499.525.778.769.946a.78.78 0 00.737.063c.222-.116.284-.305.327-.464a2.16 2.16 0 00.065-.47c.014-.289-.009-.526-.011-.55 0-.012.003-.125-.014-.278a1.088 1.088 0 00-.187-.536c.153-.022.238-.057.546-.054.393.004.453.02.607.056.085.019.094.035.086.027-.008-.009 0-.014.009.053.019.136-.003.482-.003 1.008 0 .148-.014.357.01.576.025.219.093.499.358.662.15.094.438.126.71-.025.27-.152.55-.442.892-.998.339-.55.541-1.271.563-1.348l.006-.004c.007 0-.001.002.009.002.128 0 1.228-.01 1.463-.01.065 0 .093.004.141.006-.02.075-.045.163-.094.275a4.45 4.45 0 01-.587.966c-.242.308-.43.531-.574.718-.143.187-.256.334-.303.547-.047.213.043.453.165.605.123.152.276.28.479.46.765.68.89.886.903.905.012.021.004 0 .01.01a4.136 4.136 0 01-.1.03h-1.41s-.26-.008-.451-.135h-.001c-.204-.134-.45-.363-.703-.559a2.016 2.016 0 00-.404-.257.763.763 0 00-.537-.056c-.288.086-.448.36-.5.578-.036.157-.03.293-.032.429h-.461c-.707 0-1.442-.215-2.235-1.044-1.032-1.077-1.952-3.16-2.09-3.476l1.215-.001zm6.067.003c-.007.001.012.002.026.004h-.002c0-.005-.016-.006-.024-.004z"/></symbol><symbol id="wa-icon" viewBox="0 0 36 36"><path d="M18 3.6C10.048 3.6 3.6 10.048 3.6 18c0 2.701.759 5.22 2.053 7.38L3.73 32.4l7.17-1.882A14.323 14.323 0 0018 32.4c7.952 0 14.4-6.447 14.4-14.4 0-7.952-6.448-14.4-14.4-14.4zm-4.929 7.683c.234 0 .475-.002.682.01.257.005.536.024.804.616.318.703 1.01 2.467 1.1 2.646.088.179.151.39.027.623-.117.24-.178.385-.351.598-.179.206-.375.463-.537.619-.179.178-.363.375-.157.73.207.357.923 1.526 1.983 2.469 1.362 1.217 2.511 1.59 2.869 1.77.357.178.564.15.77-.09.213-.234.893-1.037 1.133-1.394.234-.358.473-.296.797-.178.328.117 2.082.981 2.44 1.16.357.179.591.267.681.412.093.15.093.864-.203 1.697-.297.832-1.752 1.636-2.405 1.692-.659.062-1.274.296-4.282-.888-3.629-1.43-5.917-5.146-6.096-5.386-.179-.234-1.453-1.932-1.453-3.684 0-1.758.921-2.62 1.244-2.977.329-.357.714-.445.954-.445z"/></symbol><symbol id="wa" viewBox="0 0 17 16"><path d="M8.5 0c-4.414 0-8 3.586-8 8 0 1.419.39 2.743 1.038 3.899l-1.025 3.66a.348.348 0 00.418.43l3.816-.945A7.943 7.943 0 008.5 16c4.414 0 8-3.586 8-8s-3.586-8-8-8zm0 .696A7.3 7.3 0 0115.804 8 7.3 7.3 0 018.5 15.304a7.266 7.266 0 01-3.561-.927.348.348 0 00-.254-.034l-3.341.828.896-3.197a.348.348 0 00-.035-.27A7.262 7.262 0 011.195 8 7.3 7.3 0 018.5.696zm-2.907 3.13c-.223 0-.541.083-.803.365-.157.17-.812.807-.812 1.929 0 1.169.811 2.178.91 2.307v.001a11.015 11.015 0 001.045 1.281c.627.66 1.509 1.424 2.604 1.89.504.216.901.345 1.203.44a3.205 3.205 0 001.449.092c.286-.042.6-.18.912-.376.31-.197.616-.442.75-.814a2.81 2.81 0 00.163-.716c.01-.101.01-.191.004-.274-.007-.083 0-.146-.077-.273-.162-.266-.345-.273-.537-.368-.106-.052-.409-.2-.712-.345-.304-.144-.566-.272-.728-.33-.102-.037-.227-.09-.407-.07-.18.021-.358.151-.461.305-.098.145-.493.611-.614.748-.001 0 .01.004-.038-.02-.15-.073-.331-.136-.6-.278a4.968 4.968 0 01-.976-.677v-.001c-.55-.483-.934-1.09-1.056-1.294.009-.01 0 .002.017-.015.124-.123.234-.269.327-.376.132-.151.19-.285.253-.41.125-.25.056-.523-.017-.667.005.01-.04-.089-.087-.201l-.174-.416-.362-.868v-.001c-.102-.242-.24-.416-.42-.5-.18-.084-.34-.06-.346-.06a9.115 9.115 0 00-.41-.008zm0 .696c.134 0 .266.001.377.007.114.005.107.006.085-.005-.022-.01.008-.013.073.14l.361.867.175.419c.05.115.076.18.106.24v.002h.001c.03.06.027.022.017.042-.073.146-.083.182-.158.267-.113.13-.228.276-.289.336-.053.052-.15.134-.21.294-.06.16-.032.38.065.544.128.219.552.91 1.212 1.49.415.365.801.608 1.11.77.31.163.56.259.617.287.134.066.28.117.45.097a.678.678 0 00.41-.23c.124-.14.493-.562.67-.821.008.002.005 0 .064.021v.001c.028.01.364.16.664.303.3.143.604.291.703.34.143.071.21.117.227.117a.642.642 0 01-.002.114c-.012.14-.05.334-.124.54-.037.102-.227.31-.468.463-.24.152-.534.26-.642.276a2.493 2.493 0 01-1.139-.068 11.645 11.645 0 01-1.138-.415c-.966-.412-1.786-1.113-2.373-1.73a10.336 10.336 0 01-.694-.813c-.167-.217-.24-.33-.3-.41h-.001c-.108-.143-.768-1.06-.768-1.887 0-.875.406-1.219.626-1.456a.412.412 0 01.293-.142z"/></symbol></svg>