<svg width="36" height="36" viewBox="0 0 36 36" xmlns="http://www.w3.org/2000/svg">
<g clip-path="url(#clip0_124_753)">
<path d="M35.4442 3.57632C35.0042 3.03854 34.3456 2.74219 33.5895 2.74219C33.178 2.74219 32.7427 2.82898 32.295 2.99982L1.82152 14.6324C0.20434 15.2495 -0.0134627 16.1757 0.000544781 16.6731C0.0145523 17.1702 0.28454 18.0826 1.93413 18.6072C1.94402 18.6105 1.95391 18.6133 1.96379 18.6163L6.23746 19.8391L27.051 9.2057C27.5695 8.94038 28.2051 9.14637 28.4701 9.6652C28.6783 10.0728 28.5948 10.5518 28.2982 10.8671L28.299 10.8679L16.7266 23.1641L16.3965 24.5019L20.529 27.8297L26.2556 32.4409C26.2605 32.4447 26.2655 32.4488 26.2707 32.4527C26.9007 32.9416 27.589 33.1998 28.2611 33.2C29.5745 33.2 30.6202 32.228 30.9247 30.724L35.9177 6.06966C36.118 5.08034 35.9499 4.19457 35.4442 3.57632Z"/>
<path d="M14.7455 22.3899C14.7876 22.2194 14.8722 22.0568 15.001 21.9197L22.5945 13.8511L8.50366 21.0499L11.7032 30.2001C11.8855 30.7214 12.1569 31.1653 12.4925 31.5127L14.745 22.3896L14.7455 22.3899Z"/>
<path d="M14.4563 32.3599C15.2168 32.3535 15.9642 32.0327 16.619 31.4299L18.9599 29.2744L15.8387 26.7612L14.4563 32.3599Z"/>
</g>
<defs>
<clipPath id="clip0_124_753">
<rect width="36" height="36"/>
</clipPath>
</defs>
</svg>
