<svg viewBox="0 0 18 15" xmlns="http://www.w3.org/2000/svg">
<path d="M16.497 0.00110357C16.3087 0.00911876 16.1254 0.0599664 15.9601 0.124186C15.7965 0.187977 14.8546 0.578027 13.4636 1.15501C12.0727 1.73198 10.2646 2.48333 8.47221 3.22837C4.8875 4.71843 1.3649 6.18455 1.3649 6.18455L1.39058 6.17503C1.39058 6.17503 1.17797 6.24398 0.962419 6.38969C0.854642 6.46255 0.738692 6.55661 0.643753 6.69374C0.548814 6.83086 0.479408 7.02521 0.505564 7.23076C0.597435 7.95275 1.36868 8.15754 1.36868 8.15754L1.3717 8.15901L4.8136 9.30192C4.90135 9.58595 5.85754 12.6823 6.06787 13.338C6.18403 13.7005 6.29276 13.9097 6.40617 14.0523C6.46292 14.1237 6.5224 14.179 6.58816 14.2194C6.61429 14.2354 6.64176 14.2475 6.66896 14.2582C6.66954 14.2585 6.66989 14.258 6.67047 14.2582C6.67381 14.2596 6.67695 14.2598 6.68028 14.2611L6.67122 14.2589C6.67754 14.2614 6.68377 14.2656 6.6901 14.2677C6.70237 14.2719 6.70989 14.2718 6.72559 14.2751C7.11978 14.4086 7.44599 14.1608 7.44599 14.1608L7.45958 14.1505L9.57395 12.2479L13.0053 14.8436L13.0483 14.8626C13.6489 15.1214 14.1921 14.977 14.4929 14.7395C14.7937 14.5021 14.912 14.1959 14.912 14.1959L14.9248 14.1637L17.4462 1.41363C17.5107 1.12838 17.5199 0.881814 17.459 0.659011C17.3982 0.436208 17.2504 0.242527 17.0649 0.135176C16.8794 0.0278248 16.6853 -0.00691163 16.497 0.00110357ZM16.5174 0.763778C16.5939 0.760342 16.6506 0.768824 16.6684 0.779163C16.6863 0.789503 16.6943 0.788142 16.7115 0.850962C16.7286 0.913781 16.7379 1.0461 16.6911 1.25318L16.6896 1.25757L14.1825 13.9336C14.1766 13.9464 14.1243 14.0637 14.0051 14.1578C13.8834 14.2539 13.7481 14.3289 13.3889 14.1827L9.63663 11.3438L9.53091 11.2632L9.52864 11.2654L8.40652 10.4485L14.7126 3.25035C14.7611 3.19518 14.792 3.12757 14.8017 3.05571C14.8114 2.98384 14.7994 2.91078 14.7673 2.84538C14.7351 2.77997 14.684 2.72501 14.6203 2.68714C14.5566 2.64927 14.483 2.63012 14.4083 2.632C14.3353 2.63384 14.2644 2.65568 14.2037 2.69501L5.07865 8.59713L1.63147 7.45201C1.63147 7.45201 1.28916 7.2672 1.27278 7.13845C1.27187 7.13131 1.26783 7.13777 1.28562 7.11207C1.3034 7.08638 1.34811 7.043 1.40417 7.00511C1.51629 6.92932 1.6443 6.88349 1.6443 6.88349L1.65714 6.87909L1.66998 6.87396C1.66998 6.87396 5.19276 5.40777 8.77729 3.91778C10.5696 3.17278 12.3774 2.42198 13.768 1.84515C15.1582 1.26846 16.1628 0.853367 16.2478 0.820191C16.3446 0.782569 16.4409 0.767214 16.5174 0.763778ZM12.3355 4.805L7.55322 10.2639L7.55095 10.2661C7.54349 10.2748 7.53643 10.2838 7.52981 10.2932C7.52222 10.3033 7.51516 10.3138 7.50866 10.3247C7.4818 10.3689 7.46458 10.418 7.45807 10.469C7.45807 10.47 7.45807 10.471 7.45807 10.4719L6.83509 13.19C6.82473 13.1607 6.81748 13.1499 6.80639 13.1153V13.1146C6.60852 12.4977 5.70638 9.57757 5.58157 9.17371L12.3355 4.805ZM8.09314 11.1584L8.95248 11.7841L7.6899 12.9197L8.09314 11.1584Z"/>
</svg>
