<svg width="36" height="36" viewBox="0 0 36 36" xmlns="http://www.w3.org/2000/svg">
<path d="M31.5 0H4.5C2.01472 0 0 2.01472 0 4.5V31.5C0 33.9853 2.01472 36 4.5 36H31.5C33.9853 36 36 33.9853 36 31.5V4.5C36 2.01472 33.9853 0 31.5 0Z"/>
<path fill-rule="evenodd" clip-rule="evenodd" d="M17.6983 25.9556H19.3793C19.3793 25.9556 19.8869 25.8995 20.1464 25.6203C20.3853 25.3636 20.3776 24.8819 20.3776 24.8819C20.3776 24.8819 20.3445 22.6262 21.3916 22.2942C22.4237 21.9669 23.7489 24.4741 25.1535 25.4381C26.2157 26.1676 27.023 26.0079 27.023 26.0079L30.7789 25.9556C30.7789 25.9556 32.7433 25.8343 31.8119 24.2894C31.7356 24.1633 31.269 23.1468 29.0193 21.0586C26.6636 18.8723 26.9794 19.2261 29.8165 15.445C31.544 13.1422 32.235 11.7368 32.0189 11.1345C31.8132 10.5609 30.5425 10.7122 30.5425 10.7122L26.3134 10.7386C26.3134 10.7386 26 10.6958 25.7674 10.8348C25.5403 10.971 25.3944 11.2886 25.3944 11.2886C25.3944 11.2886 24.7245 13.0705 23.8321 14.5859C21.9493 17.7833 21.1962 17.9526 20.8884 17.7536C20.1724 17.2909 20.3514 15.895 20.3514 14.9029C20.3514 11.804 20.8214 10.5119 19.4359 10.1775C18.9761 10.0666 18.6376 9.99292 17.4619 9.98109C15.9531 9.96572 14.6759 9.98588 13.9529 10.3399C13.4719 10.5761 13.1005 11.1006 13.327 11.131C13.6064 11.1682 14.2393 11.3015 14.5748 11.7583C15.0082 12.348 14.993 13.6719 14.993 13.6719C14.993 13.6719 15.2422 17.3197 14.4115 17.7726C13.8414 18.0835 13.0595 17.449 11.3804 14.548C10.5205 13.0622 9.87096 11.4193 9.87096 11.4193C9.87096 11.4193 9.74604 11.1127 9.52246 10.9482C9.25145 10.749 8.87264 10.686 8.87264 10.686L4.85396 10.712C4.85396 10.712 4.25066 10.7291 4.02951 10.9915C3.83213 11.225 4.01373 11.7074 4.01373 11.7074C4.01373 11.7074 7.15967 19.0681 10.722 22.7773C13.9893 26.1791 17.6983 25.9556 17.6983 25.9556Z" fill="#1D2B47"/>
</svg>
