<svg viewBox="0 0 17 16" xmlns="http://www.w3.org/2000/svg">
<path d="M8.5 0C4.08584 0 0.5 3.58584 0.5 8C0.5 12.4142 4.08584 16 8.5 16C12.9142 16 16.5 12.4142 16.5 8C16.5 3.58584 12.9142 0 8.5 0ZM8.5 0.695652C12.5382 0.695652 15.8043 3.9618 15.8043 8C15.8043 12.0382 12.5382 15.3043 8.5 15.3043C4.4618 15.3043 1.19565 12.0382 1.19565 8C1.19565 3.9618 4.4618 0.695652 8.5 0.695652ZM5.02242 5.56522L3.61889 5.5659C3.61889 5.5659 3.53857 5.56137 3.44158 5.57405C3.34458 5.58673 3.20129 5.59261 3.05435 5.75883L3.05367 5.75951L3.05299 5.76019C2.92229 5.90966 2.92728 6.08362 2.94361 6.17935C2.95989 6.27472 2.99633 6.34594 2.9966 6.34647V6.34715C3.0101 6.38025 4.02918 8.87719 5.31386 10.2188C6.22003 11.1657 7.18918 11.4783 8.05231 11.4783H8.5C8.64729 11.4783 8.77884 11.4716 8.92459 11.3961C9.07035 11.3206 9.19565 11.1122 9.19565 10.9504C9.19565 10.7761 9.19993 10.6071 9.22215 10.5129C9.24289 10.4249 9.23489 10.4465 9.24321 10.4463C9.25154 10.4481 9.26672 10.4517 9.29552 10.4647C9.35757 10.4927 9.45344 10.5554 9.55978 10.6379C9.77213 10.8028 10.0237 11.0419 10.3057 11.2269C10.7097 11.4947 11.1481 11.4783 11.1481 11.4783H12.5938L12.6094 11.4769C12.6094 11.4769 12.8312 11.4719 13.0591 11.3322C13.1731 11.2624 13.3085 11.1343 13.3539 10.9423C13.3994 10.7502 13.3414 10.5488 13.2296 10.3716C13.1888 10.3066 12.9907 10.0194 12.1997 9.31726C11.9954 9.13603 11.856 9.00775 11.801 8.93954C11.7814 8.91532 11.7797 8.91766 11.7758 8.91644C11.7804 8.90455 11.8261 8.80832 11.9484 8.64946C12.0758 8.48389 12.2694 8.2532 12.5183 7.93614C12.8356 7.5319 13.0583 7.1432 13.1984 6.81522C13.2684 6.65123 13.3181 6.50242 13.3478 6.36753C13.3776 6.23264 13.4013 6.12051 13.3573 5.9606C13.3245 5.84156 13.2354 5.73495 13.1481 5.67867C13.0608 5.62239 12.9793 5.60119 12.9062 5.58764C12.7601 5.56052 12.6311 5.56522 12.5109 5.56522C12.2591 5.56522 11.1399 5.57405 11.0476 5.57405C10.9391 5.57405 10.7662 5.6192 10.6861 5.66508C10.4874 5.77887 10.4253 5.93478 10.4253 5.93478L10.4062 5.96807L10.3954 6.00543C10.3954 6.00543 10.1405 6.82985 9.8784 7.25476H9.87772C9.56948 7.75532 9.33955 7.95387 9.23845 8.01019C9.22771 8.01617 9.23366 8.01299 9.22622 8.01698C9.21832 7.99395 9.20834 7.96224 9.20177 7.90353C9.18698 7.77128 9.19565 7.58503 9.19565 7.40489C9.19565 6.90596 9.23312 6.59485 9.19158 6.30027C9.1708 6.15298 9.11792 5.98896 8.99728 5.86277C8.87665 5.73658 8.72082 5.67447 8.56522 5.63859H8.56454C8.40237 5.60124 8.22761 5.56917 7.80774 5.56522C7.27279 5.56023 6.92439 5.57681 6.61481 5.71467L6.61141 5.71671L6.6087 5.71807C6.48637 5.77553 6.38995 5.84139 6.30503 5.92935C6.26257 5.97333 6.21219 6.00535 6.17731 6.14538C6.15987 6.21539 6.15795 6.34786 6.23709 6.45516C6.31623 6.56247 6.42714 6.59483 6.49253 6.60326C6.48046 6.6017 6.54397 6.61567 6.59307 6.63995C6.64217 6.66422 6.6848 6.69917 6.69565 6.71332V6.71399C6.69111 6.7081 6.73826 6.82527 6.75068 6.93207C6.7631 7.03886 6.76087 7.125 6.76087 7.125L6.76019 7.14606L6.76223 7.16712C6.76223 7.16712 6.78358 7.40345 6.77242 7.64742C6.76684 7.7694 6.75142 7.89218 6.73098 7.96739C6.7299 7.97137 6.7294 7.96997 6.72826 7.97351C6.64117 7.91268 6.44037 7.70076 6.16372 7.24389C5.90799 6.82126 5.66848 6.06114 5.66848 6.06114L5.66304 6.04416L5.65693 6.02785C5.65693 6.02785 5.61227 5.85805 5.41508 5.71943C5.23025 5.58932 5.05435 5.57133 5.05435 5.57133L5.02242 5.56522ZM4.94158 6.26087C4.96147 6.26814 5.00306 6.28313 5.01087 6.28668L5.00272 6.26223C5.00272 6.26223 5.01343 6.28682 5.01359 6.28736C5.01368 6.28741 5.01491 6.28801 5.01495 6.28804V6.28872H5.01562C4.99814 6.27649 5.01296 6.28863 5.01495 6.29144C5.02455 6.32422 5.23694 7.0558 5.56861 7.60394C5.87076 8.10294 6.09399 8.38249 6.33764 8.54959C6.58105 8.71653 6.90836 8.69933 7.07473 8.61277C7.29707 8.4973 7.35922 8.30753 7.40217 8.14946C7.44513 7.99139 7.46045 7.83102 7.46739 7.67935C7.48063 7.38996 7.45798 7.15323 7.45584 7.12976C7.45619 7.11668 7.45929 7.00362 7.44158 6.85122C7.42372 6.69767 7.39172 6.50684 7.25543 6.31522C7.40809 6.29254 7.49285 6.258 7.80095 6.26087C8.19387 6.26457 8.25364 6.28096 8.40829 6.31658C8.49251 6.336 8.50186 6.35209 8.49389 6.34375C8.48591 6.33541 8.49319 6.32984 8.50272 6.39742C8.52178 6.53255 8.5 6.87912 8.5 7.40489C8.5 7.5531 8.48569 7.7621 8.51019 7.98098C8.53467 8.19972 8.60304 8.4796 8.86753 8.64334C9.01823 8.73661 9.30611 8.76868 9.57745 8.61753C9.84878 8.46637 10.1272 8.1764 10.4701 7.61957C10.8088 7.07054 11.0114 6.34872 11.0333 6.27242C11.0333 6.27242 11.0372 6.26991 11.0394 6.26834C11.0455 6.26864 11.0377 6.2697 11.0476 6.2697C11.1764 6.2697 12.2757 6.26087 12.5109 6.26087C12.5756 6.26087 12.604 6.26435 12.6522 6.2663C12.6327 6.3414 12.6065 6.42885 12.5584 6.54144C12.4454 6.80607 12.2514 7.1493 11.9708 7.50679C11.729 7.81478 11.5411 8.03817 11.3974 8.22486C11.2538 8.41156 11.1409 8.55882 11.0938 8.77174C11.0466 8.98466 11.1366 9.22481 11.2595 9.37704C11.3825 9.52926 11.5346 9.65747 11.7378 9.83764C12.503 10.517 12.6286 10.7227 12.6406 10.7418V10.7425C12.6535 10.763 12.6452 10.7424 12.6501 10.7527C12.6067 10.7662 12.5551 10.7815 12.5503 10.7826H11.1427H11.1406C11.1406 10.7826 10.8817 10.7741 10.6895 10.6467L10.6889 10.6461H10.6882C10.4849 10.5129 10.2391 10.2845 9.98641 10.0883C9.86006 9.99022 9.73141 9.8983 9.5822 9.83084C9.43299 9.76338 9.24388 9.71556 9.04484 9.77514C8.75675 9.86136 8.59687 10.1355 8.54552 10.3533C8.50865 10.5096 8.5141 10.6455 8.51291 10.7819C8.50299 10.7825 8.51157 10.7826 8.5 10.7826H8.05231C7.34535 10.7826 6.60988 10.5668 5.81658 9.73777C4.78521 8.66075 3.86503 6.57795 3.7269 6.26155L4.94158 6.26087ZM11.0088 6.26359C11.0025 6.26499 11.0206 6.26636 11.0353 6.26766C11.0333 6.26874 11.0355 6.26671 11.0326 6.26834C11.0323 6.26253 11.0173 6.2617 11.0088 6.26359Z"/>
</svg>
