<svg width="36" height="36" viewBox="0 0 36 36" xmlns="http://www.w3.org/2000/svg">
<path d="M18 3.6001C10.0476 3.6001 3.60001 10.0477 3.60001 18.0001C3.60001 20.7015 4.35882 23.2202 5.65313 25.3806L3.72891 32.4001L10.8984 30.5181C12.9952 31.7102 15.4158 32.4001 18 32.4001C25.9524 32.4001 32.4 25.9525 32.4 18.0001C32.4 10.0477 25.9524 3.6001 18 3.6001ZM13.0711 11.2829C13.3051 11.2829 13.5455 11.2815 13.7531 11.2923C14.0099 11.2983 14.2894 11.3171 14.557 11.9087C14.875 12.6119 15.5675 14.376 15.6563 14.5548C15.7451 14.7336 15.808 14.9442 15.6844 15.1782C15.5668 15.4182 15.5056 15.5635 15.3328 15.7759C15.154 15.9823 14.9581 16.2386 14.7961 16.3946C14.6173 16.5734 14.4327 16.7695 14.6391 17.1259C14.8455 17.4823 15.5623 18.6507 16.6219 19.5939C17.9839 20.8106 19.133 21.1846 19.4906 21.3634C19.8482 21.5422 20.0553 21.5143 20.2617 21.2743C20.4741 21.0403 21.1538 20.2374 21.3938 19.8798C21.6278 19.5222 21.8666 19.5841 22.1906 19.7017C22.5194 19.8193 24.2729 20.683 24.6305 20.8618C24.9881 21.0406 25.2225 21.1291 25.3125 21.2743C25.4049 21.4243 25.405 22.1384 25.1086 22.9712C24.8122 23.8028 23.3567 24.607 22.7039 24.6634C22.0451 24.7246 21.4303 24.9595 18.4219 23.7751C14.7931 22.3459 12.5046 18.6292 12.3258 18.3892C12.147 18.1552 10.8727 16.4568 10.8727 14.7048C10.8727 12.9468 11.7944 12.0858 12.1172 11.7282C12.446 11.3706 12.8311 11.2829 13.0711 11.2829Z"/>
</svg>
