<svg viewBox="0 0 17 16" xmlns="http://www.w3.org/2000/svg">
<path d="M8.5 0C4.08592 0 0.5 3.58592 0.5 8C0.5 9.41882 0.889109 10.7429 1.53804 11.8988L0.512908 15.5584C0.49653 15.617 0.49579 15.6788 0.510761 15.7378C0.525733 15.7967 0.555892 15.8507 0.598233 15.8943C0.640574 15.938 0.693616 15.9698 0.752072 15.9865C0.810527 16.0033 0.872353 16.0044 0.931386 15.9898L4.74728 15.0442C5.86857 15.6428 7.1409 16 8.5 16C12.9141 16 16.5 12.4141 16.5 8C16.5 3.58592 12.9141 0 8.5 0ZM8.5 0.695652C12.5381 0.695652 15.8043 3.9619 15.8043 8C15.8043 12.0381 12.5381 15.3043 8.5 15.3043C7.2054 15.3043 5.99291 14.9668 4.93886 14.377C4.86177 14.334 4.77118 14.3218 4.68546 14.3431L1.34375 15.1712L2.23981 11.9742C2.25263 11.929 2.25617 11.8817 2.25022 11.8351C2.24426 11.7885 2.22894 11.7436 2.20516 11.7031C1.56459 10.6169 1.19565 9.35308 1.19565 8C1.19565 3.9619 4.4619 0.695652 8.5 0.695652ZM5.59307 3.82609C5.3701 3.82609 5.05167 3.90904 4.79008 4.1909C4.63296 4.36019 3.97826 4.99809 3.97826 6.11957C3.97826 7.28879 4.78918 8.29769 4.88723 8.42731H4.88791V8.42799C4.87861 8.41577 5.01236 8.60946 5.1909 8.84171C5.36944 9.07397 5.6191 9.37901 5.93274 9.70924C6.56004 10.3697 7.44201 11.133 8.53668 11.5999C9.0408 11.8145 9.4385 11.9441 9.73981 12.0387C10.2982 12.2141 10.8068 12.1874 11.1889 12.1311C11.4748 12.089 11.7893 11.9517 12.1005 11.7548C12.4117 11.5578 12.7167 11.3129 12.8512 10.9409C12.9476 10.6742 12.9966 10.4277 13.0143 10.2249C13.0231 10.1235 13.0242 10.0339 13.0177 9.95109C13.0111 9.86823 13.0181 9.80475 12.9409 9.67799C12.779 9.41211 12.5956 9.40517 12.4042 9.31046C12.2979 9.25784 11.9952 9.11003 11.6916 8.96535C11.3883 8.82084 11.1257 8.69285 10.964 8.63519C10.8618 8.59843 10.7371 8.54551 10.5571 8.5659C10.3771 8.58628 10.1993 8.71615 10.0958 8.86957C9.99768 9.01498 9.60274 9.48116 9.48234 9.61821C9.48074 9.61723 9.49119 9.62205 9.44361 9.59851C9.2947 9.52481 9.11258 9.46214 8.84307 9.31997C8.57357 9.17781 8.23644 8.96787 7.86753 8.64266V8.64198C7.31844 8.15859 6.93383 7.55169 6.8125 7.34783C6.82067 7.3381 6.81153 7.34988 6.8288 7.33288L6.82948 7.3322C6.95349 7.21006 7.06339 7.06418 7.15625 6.9572C7.28792 6.80552 7.34602 6.6718 7.40897 6.54688C7.53442 6.29789 7.46457 6.02391 7.39198 5.87976V5.87908C7.397 5.88905 7.35272 5.79136 7.30503 5.67867C7.2572 5.56566 7.19623 5.41914 7.13111 5.26291C7.00088 4.95044 6.85549 4.59997 6.76902 4.3947V4.39402C6.66716 4.15224 6.52936 3.97805 6.34918 3.89402C6.16901 3.80999 6.00984 3.83388 6.0034 3.83356H6.00272C5.87415 3.82763 5.73306 3.82609 5.59307 3.82609ZM5.59307 4.52174C5.72717 4.52174 5.85938 4.52337 5.97011 4.52853C6.08402 4.53421 6.07693 4.53468 6.05503 4.52446C6.03277 4.51408 6.06297 4.51071 6.12772 4.6644C6.21238 4.8654 6.35849 5.21713 6.48913 5.53057C6.55445 5.68729 6.61558 5.83437 6.6644 5.94973C6.71322 6.06509 6.73968 6.12949 6.77038 6.1909V6.19158L6.77106 6.19226C6.80116 6.25165 6.7985 6.21362 6.78804 6.23438C6.71464 6.38005 6.70468 6.41582 6.63043 6.50136C6.51738 6.6316 6.40207 6.77684 6.34103 6.83696C6.28763 6.88942 6.19128 6.97114 6.13111 7.13111C6.07086 7.29133 6.09898 7.51116 6.19565 7.67527C6.32436 7.89377 6.74849 8.58411 7.40761 9.1644C7.8227 9.53032 8.20941 9.7725 8.51834 9.93546C8.82727 10.0984 9.07889 10.1936 9.13519 10.2215C9.26889 10.2876 9.41501 10.339 9.58492 10.3186C9.75483 10.2982 9.90131 10.1951 9.99457 10.0897L9.99524 10.089C10.1193 9.94829 10.4881 9.52721 10.6651 9.26766C10.6726 9.27031 10.6701 9.26825 10.7289 9.2894V9.29008H10.7296C10.7565 9.29964 11.0928 9.45018 11.3927 9.59307C11.6925 9.73596 11.9969 9.88448 12.0958 9.93342C12.2385 10.0041 12.306 10.05 12.3234 10.0503C12.3245 10.0809 12.3257 10.114 12.3213 10.1644C12.3091 10.3041 12.2718 10.4975 12.197 10.7045C12.1604 10.8058 11.9696 11.0148 11.7289 11.1671C11.4883 11.3194 11.1954 11.427 11.087 11.4429C10.7608 11.491 10.3736 11.5085 9.94837 11.375C9.65351 11.2824 9.28585 11.1626 8.80978 10.9599C7.84428 10.5482 7.02368 9.84748 6.4375 9.2303C6.14441 8.92171 5.90959 8.63444 5.74253 8.41712C5.57578 8.2002 5.50297 8.08732 5.44226 8.00747L5.44158 8.00679C5.33381 7.86428 4.67391 6.94638 4.67391 6.11957C4.67391 5.24452 5.08035 4.90137 5.30027 4.6644C5.41573 4.54 5.54195 4.52174 5.59307 4.52174Z"/>
</svg>
