<svg width="60" height="59" viewBox="0 0 60 59" fill="none" xmlns="http://www.w3.org/2000/svg">
<path d="M59.4244 41.0244V21.3942C59.478 21.2141 59.5306 21.0335 59.5623 20.8445C59.6806 20.1382 59.628 19.4339 59.4244 18.7953V12.9148C59.4244 6.20576 54.0088 0.747925 47.3514 0.747925H44.8238C38.1664 0.747925 32.7508 6.20588 32.7508 12.9148V18.8291C32.5584 19.4451 32.4936 20.1332 32.6129 20.8439C32.6446 21.0329 32.6972 21.2135 32.7508 21.3936V37.2908L29.9997 37.6879L25.693 37.0675C24.4332 34.9736 22.5795 33.2445 20.3013 32.1715C19.9551 32.0096 19.5586 31.9885 19.1836 32.1126C18.737 32.2609 18.287 32.3885 17.8351 32.4984V30.0575C18.5696 29.6477 19.2607 29.1328 19.8981 28.5315H26.5507C26.9364 28.5315 27.2491 28.2164 27.2491 27.8277L27.2481 21.3946C27.3017 21.2144 27.3543 21.0338 27.3859 20.8449C27.5052 20.1337 27.441 19.4455 27.2481 18.8291V12.9153C27.2481 6.20621 21.8321 0.748384 15.175 0.748384H12.6475C5.99046 0.748384 0.574934 6.20634 0.574934 12.9153V18.8286C0.38256 19.4455 0.31779 20.1337 0.437105 20.8449C0.468761 21.0338 0.521359 21.2149 0.574934 21.3951V27.8272C0.574934 28.2159 0.887594 28.531 1.27331 28.531H7.92537C8.56287 29.1328 9.25391 29.6471 9.98837 30.057V32.4979C9.53642 32.388 9.08642 32.2608 8.64038 32.1126C8.26587 31.9875 7.86944 32.009 7.52171 32.172C3.13912 34.2359 0.307617 38.7151 0.307617 43.5835C0.307617 43.9722 0.620278 44.2873 1.006 44.2873H9.61146V44.7187C9.61146 44.9651 9.68013 45.1938 9.79117 45.3956C9.68013 45.5973 9.61146 45.826 9.61146 46.0724V47.5051C9.61146 47.7514 9.68013 47.9802 9.79117 48.1819C9.68013 48.3836 9.61146 48.6123 9.61146 48.8587V50.2914C9.61146 51.0674 10.2378 51.6985 11.0077 51.6985H12.631V55.6065C12.631 55.9569 12.8862 56.2539 13.2305 56.3034L29.8771 58.7016C29.9103 58.7065 29.9434 58.7085 29.976 58.7085C29.9843 58.7085 29.9916 58.7045 29.9999 58.704C30.0081 58.7045 30.0155 58.7085 30.0237 58.7085C30.0564 58.7085 30.0895 58.7065 30.1226 58.7016L46.7692 56.3034C47.1131 56.2539 47.3688 55.9569 47.3688 55.6065V51.6985H48.992C49.762 51.6985 50.3883 51.0669 50.3883 50.2914L50.3878 48.8582C50.3878 48.6118 50.3191 48.3831 50.2081 48.1814C50.3191 47.9797 50.3878 47.7509 50.3878 47.5046V46.0719C50.3878 45.8255 50.3191 45.5968 50.2081 45.3951C50.3191 45.1933 50.3878 44.9646 50.3878 44.7182V44.2868H58.9929C59.3786 44.2868 59.6913 43.9722 59.6913 43.583C59.6913 42.7137 59.5973 41.8582 59.4239 41.0254L59.4244 41.0244ZM25.8519 27.1226H21.178C21.9348 26.1591 22.5826 25.0695 23.1031 23.9092C23.2707 23.9735 23.4416 24.0319 23.6218 24.0624C23.7757 24.0889 23.9291 24.1017 24.0825 24.1017C24.7049 24.1017 25.3118 23.8759 25.8518 23.4675L25.8519 27.1226ZM26.0092 20.6089C25.8986 21.2681 25.5952 21.8478 25.1549 22.2409C24.7571 22.5962 24.2944 22.7499 23.8546 22.6748C23.7742 22.661 23.6982 22.6321 23.6223 22.6036C24.1541 21.0889 24.4721 19.4958 24.531 17.9334C24.5705 17.9364 24.6099 17.9369 24.6494 17.9433C25.6185 18.1092 26.2283 19.3048 26.0091 20.6089L26.0092 20.6089ZM1.97176 12.9144C1.97176 6.98139 6.76104 2.15469 12.6481 2.15469H15.1756C21.0627 2.15469 25.8524 6.98139 25.8524 12.9144V16.943C25.5568 16.7589 25.2374 16.6161 24.8838 16.5557C24.7591 16.5346 24.6349 16.5248 24.5112 16.5214C24.4645 15.822 24.3641 15.1156 24.202 14.3828C24.1318 14.0648 23.8547 13.8375 23.5318 13.8321C19.7896 13.7708 16.4098 12.023 14.4914 9.15761C14.2318 8.76986 13.5933 8.76986 13.3337 9.15761C11.4149 12.023 8.03553 13.7708 4.29328 13.8321C3.97039 13.8375 3.69328 14.0653 3.62315 14.3823C3.46341 15.1038 3.3621 15.8195 3.31438 16.5209C3.19019 16.5243 3.066 16.5341 2.94084 16.5557C2.58727 16.6161 2.26779 16.7589 1.97217 16.943L1.97176 12.9144ZM3.17371 17.9433C3.21315 17.9364 3.2526 17.9364 3.29205 17.9335C3.35147 19.4963 3.66899 21.0889 4.20082 22.6041C4.12485 22.6321 4.04887 22.6615 3.969 22.6748C3.52875 22.7489 3.06608 22.5958 2.66864 22.2409C2.22838 21.8478 1.92497 21.2686 1.81441 20.609C1.59526 19.3049 2.20499 18.1092 3.17362 17.9433L3.17371 17.9433ZM1.97176 27.1226V23.4675C2.51185 23.8758 3.11916 24.1016 3.74103 24.1016C3.89396 24.1016 4.04833 24.0888 4.20174 24.0623C4.38193 24.0314 4.55239 23.9735 4.71992 23.9092C5.24005 25.0695 5.88826 26.1591 6.64503 27.1226L1.97176 27.1226ZM4.67659 17.3995C4.67659 16.6819 4.74283 15.9638 4.87822 15.2183C8.50353 15.0097 11.7875 13.3724 13.9118 10.7318C16.0362 13.3719 19.3201 15.0098 22.9454 15.2183C23.0813 15.9644 23.147 16.6824 23.147 17.3995C23.147 23.0915 19.1127 29.7077 13.9118 29.7077C8.71101 29.7077 4.67664 23.0915 4.67664 17.3995H4.67659ZM16.439 30.6831V32.7715C14.7612 33.0312 13.063 33.0312 11.3852 32.7715V30.6831C12.1898 30.9604 13.0343 31.1155 13.9119 31.1155C14.79 31.115 15.6339 30.9604 16.4391 30.6831H16.439ZM9.67782 42.8789H1.7264C1.98257 38.8311 4.43173 35.1795 8.11264 33.4464C8.13359 33.4356 8.16865 33.4366 8.20225 33.4479C11.9386 34.6892 15.8869 34.6896 19.6213 33.4479H19.6218C19.6554 33.4361 19.6904 33.4371 19.7109 33.4459C21.3608 34.2229 22.7606 35.3876 23.8285 36.7982L13.4279 35.2997C13.2262 35.2703 13.0246 35.3321 12.8717 35.4647C12.7188 35.5987 12.6311 35.7925 12.6311 35.9967V41.8772H11.0078C10.3791 41.8767 9.85168 42.3013 9.6778 42.879L9.67782 42.8789ZM14.7354 44.664H11.0079V43.2844H14.7354L14.7359 44.664H14.7354ZM14.7364 47.4504H14.7354H11.0079V46.0712H14.7354L14.7364 47.4504ZM11.0083 50.2903V48.8577H14.7359L14.7368 50.2903H11.0083ZM29.2783 57.1923L14.028 54.9954V51.6976H14.7356C15.5056 51.6976 16.1318 51.0659 16.1318 50.2905V48.8578C16.1318 48.6114 16.0632 48.3827 15.9521 48.181C16.0632 47.9792 16.1318 47.7505 16.1318 47.5041V46.0715C16.1318 45.8251 16.0632 45.5964 15.9521 45.3946C16.0632 45.1929 16.1318 44.9642 16.1318 44.7178V43.2847C16.1318 42.5087 15.5055 41.8775 14.7356 41.8775H14.028L14.0275 36.8083L29.2778 39.0052L29.2783 57.1923ZM46.0882 29.7077C40.8874 29.7077 36.853 23.091 36.853 17.399C36.853 16.8458 36.9149 16.2617 37.0064 15.6556L55.1691 15.6561C55.2612 16.2622 55.3226 16.8463 55.3226 17.3995C55.3226 23.0915 51.2891 29.7077 46.0879 29.7077L46.0882 29.7077ZM48.6154 30.683V32.7714C46.9376 33.031 45.2389 33.031 43.5612 32.7714V30.6825C44.3662 30.9598 45.2106 31.1149 46.0887 31.1149C46.9663 31.1149 47.8107 30.9603 48.6154 30.683V30.683ZM42.1644 30.0557V32.4971C41.7125 32.3871 41.2625 32.26 40.8165 32.1118C40.4419 31.9871 40.046 32.0082 39.6978 32.1712C37.42 33.2441 35.5664 34.9733 34.3066 37.0666L34.1478 37.0897V23.4668C34.6879 23.8756 35.2947 24.1009 35.9171 24.1009C36.0705 24.1009 36.2244 24.0881 36.3778 24.0616C36.559 24.0307 36.7294 23.9723 36.896 23.9075C38.0741 26.5343 39.9111 28.797 42.1645 30.0555L42.1644 30.0557ZM50.0116 30.0557C52.265 28.7977 54.1021 26.5346 55.2797 23.9077C55.4467 23.9725 55.6167 24.0309 55.7978 24.0618C55.9517 24.0883 56.1051 24.1011 56.2586 24.1011C56.8805 24.1011 57.4873 23.8753 58.0278 23.4669V37.3374C56.7675 35.1213 54.853 33.2891 52.4764 32.1695C52.1301 32.0075 51.7318 31.9855 51.3587 32.1106C50.9126 32.2589 50.4626 32.386 50.0107 32.4959L50.0116 30.0557ZM57.3315 22.2409C56.9341 22.5953 56.4719 22.7499 56.0311 22.6748C55.9498 22.6611 55.8752 22.6297 55.7993 22.6022C56.3301 21.0895 56.6476 19.4993 56.7076 17.9395C56.7475 17.9429 56.7864 17.937 56.8264 17.9439C57.2676 18.019 57.6528 18.3179 57.9124 18.7851C58.1993 19.3025 58.2962 19.9498 58.1851 20.6096C58.0746 21.2687 57.7712 21.8479 57.3314 22.241L57.3315 22.2409ZM34.1481 12.9144C34.1481 6.98133 38.9378 2.15463 44.8249 2.15463H47.3524C53.2395 2.15463 58.0293 6.98133 58.0293 12.9144V16.94C57.7307 16.7565 57.4103 16.6156 57.0606 16.5557C56.9306 16.5336 56.8015 16.5243 56.6724 16.5214C56.6461 16.1567 56.6009 15.7788 56.5414 15.3944C56.6413 15.2727 56.709 15.1225 56.709 14.9517V11.6245C56.709 11.2358 56.3968 10.9207 56.0106 10.9207C55.6249 10.9207 55.3122 11.2358 55.3122 11.6245V14.2485H52.7398V12.1418C52.7398 11.9347 52.6472 11.7531 52.506 11.6245C52.3823 11.5116 52.2216 11.4385 52.0414 11.4385C51.8612 11.4385 51.7005 11.5116 51.5768 11.6245C51.4356 11.7531 51.343 11.9347 51.343 12.1418V14.2485L48.7711 14.249V12.1423C48.7711 11.9352 48.6786 11.7536 48.5373 11.625C48.4136 11.5121 48.2529 11.439 48.0727 11.439C47.8925 11.439 47.7318 11.5121 47.6081 11.625C47.4669 11.7536 47.3743 11.9352 47.3743 12.1423V14.249H44.8019V12.1423C44.8019 11.9352 44.7094 11.7536 44.5681 11.625C44.4444 11.5121 44.2837 11.439 44.1035 11.439C43.9233 11.439 43.7626 11.5121 43.6389 11.625C43.4977 11.7536 43.4051 11.9352 43.4051 12.1423V14.249H40.8342V12.1423C40.8342 11.9352 40.7417 11.7536 40.6004 11.625C40.4767 11.5121 40.316 11.439 40.1358 11.439C39.9556 11.439 39.7949 11.5121 39.6712 11.625C39.53 11.7536 39.4374 11.9352 39.4374 12.1423V14.249H36.865V11.625C36.865 11.2363 36.5528 10.9212 36.1666 10.9212C35.7809 10.9212 35.4683 11.2363 35.4683 11.625V14.9522C35.4683 15.1225 35.536 15.2727 35.6358 15.3945C35.5764 15.7788 35.5311 16.1567 35.5048 16.5219C35.3757 16.5248 35.2467 16.5341 35.1166 16.5562C34.7631 16.6166 34.4431 16.7594 34.148 16.9435L34.1481 12.9144ZM35.35 17.9432C35.3895 17.9364 35.4289 17.9364 35.4688 17.9334C35.5283 19.4952 35.8458 21.0875 36.3771 22.602C36.3012 22.63 36.2266 22.6609 36.1453 22.6747C35.706 22.7488 35.2438 22.5961 34.8449 22.2408C34.4047 21.8477 34.1013 21.268 33.9907 20.6089C33.7716 19.3048 34.3818 18.1091 35.3499 17.9432L35.35 17.9432ZM45.9727 54.9947L30.7224 57.1916V39.0038L45.9727 36.807V41.8762H45.2641C44.4942 41.8762 43.8679 42.5078 43.8679 43.2833V44.7165C43.8679 44.9628 43.9366 45.1916 44.0476 45.3933C43.9366 45.595 43.8679 45.8237 43.8679 46.0701V47.5028C43.8679 47.7492 43.9366 47.9779 44.0476 48.1796C43.9366 48.3814 43.8679 48.6101 43.8679 48.8565V50.2891C43.8679 51.0651 44.4947 51.6963 45.2641 51.6963H45.9727V54.9947ZM48.9922 44.6634H45.2647V43.2838H48.9927L48.9922 44.6634ZM48.9932 47.4498H48.9927H45.2647V46.0706H48.9927L48.9932 47.4498ZM45.2647 50.2898V48.8571H48.9927L48.9932 50.2898H45.2647ZM50.3228 42.8785C50.1489 42.3008 49.6215 41.8767 48.9927 41.8767H47.3694V35.9962C47.3694 35.792 47.2813 35.5981 47.1289 35.4641C46.9754 35.3316 46.7724 35.2698 46.5727 35.2992L36.172 36.7977C37.2405 35.387 38.6397 34.2229 40.2892 33.4464C40.3111 33.4356 40.3437 33.4361 40.3793 33.4479C44.1152 34.6882 48.0619 34.6887 51.7993 33.4479L51.7998 33.4474C51.8309 33.4366 51.8675 33.4356 51.8879 33.4459C55.5692 35.1795 58.019 38.8311 58.2747 42.8789L50.3228 42.8785ZM42.7863 18.8141C42.7863 19.7712 42.2004 20.4927 41.4236 20.4927C40.6467 20.4927 40.0604 19.7711 40.0604 18.8141C40.0604 17.857 40.6467 17.1361 41.4236 17.1361C42.2004 17.1361 42.7863 17.8576 42.7863 18.8141ZM50.7538 20.4927C49.977 20.4927 49.3911 19.7711 49.3911 18.8141C49.3911 17.857 49.9769 17.1361 50.7538 17.1361C51.5305 17.1361 52.117 17.8571 52.117 18.8141C52.117 19.7712 51.5311 20.4927 50.7538 20.4927ZM48.625 23.3924H43.5523C43.263 23.3924 43.0287 23.629 43.0287 23.92C43.0287 25.3753 44.4011 26.5592 46.0886 26.5592C47.7761 26.5592 49.1485 25.3753 49.1485 23.92C49.149 23.6285 48.9143 23.3924 48.625 23.3924H48.625ZM46.0887 25.5034C45.214 25.5034 44.4679 25.0622 44.1912 24.4477H47.9861C47.7095 25.0622 46.9638 25.5034 46.0887 25.5034ZM10.6098 18.8141C10.6098 19.7712 10.0239 20.4927 9.24709 20.4927C8.4703 20.4927 7.88389 19.7711 7.88389 18.8141C7.88389 17.857 8.47025 17.1361 9.24709 17.1361C10.0239 17.1361 10.6098 17.8576 10.6098 18.8141ZM17.2147 18.8141C17.2147 17.857 17.8006 17.1361 18.5774 17.1361C19.3542 17.1361 19.9406 17.8571 19.9406 18.8141C19.9406 19.7712 19.3543 20.4927 18.5774 20.4927C17.8006 20.4927 17.2147 19.7711 17.2147 18.8141V18.8141ZM16.9722 23.9201C16.9722 23.6286 16.7374 23.3925 16.4487 23.3925H11.3759C11.0866 23.3925 10.8523 23.6291 10.8523 23.9201C10.8523 25.3754 12.2252 26.5593 13.9122 26.5593C15.5997 26.5593 16.9721 25.3749 16.9721 23.9201H16.9722ZM12.0143 24.4477H15.8101C15.5335 25.0622 14.7869 25.5035 13.9122 25.5035C13.0374 25.5035 12.2914 25.0622 12.0142 24.4477H12.0143Z" fill="#FF5B14"/>
</svg>
