<svg width="60" height="53" viewBox="0 0 60 53" fill="none" xmlns="http://www.w3.org/2000/svg">
<path d="M12.1176 20.7132H47.8823V26.4044H44.1176V41.5808H42.2353V24.5073H46V22.6103H14V24.5073H17.7647V41.5808H15.8823V26.4044H12.1176V20.7132ZM47.8823 41.5808V28.3014H46V41.5808H47.8823ZM12.1176 41.5808H14V28.3014H12.1176V41.5808ZM12.1176 45.375H47.8823V43.4779H12.1176V45.375ZM55.4117 30.1985H49.7647V24.5073H55.4117V30.1985ZM53.5294 26.4044H51.647V28.3014H53.5294V26.4044ZM49.7647 32.0955H55.4117V37.7867H49.7647V32.0955ZM51.647 35.8897H53.5294V33.9926H51.647V35.8897ZM49.7647 39.6838H55.4117V45.375H49.7647V39.6838ZM51.647 43.4779H53.5294V41.5808H51.647V43.4779ZM9.29409 52.0147H11.1764V49.1691H48.8235V52.0147H50.7058V47.272H9.29409V52.0147ZM49.7647 22.6103H58.2353V50.1176H52.5882V52.0147H60.1176V20.7132H49.7647V22.6103ZM10.2353 30.1985H4.58821V24.5073H10.2353V30.1985ZM8.35291 26.4044H6.47056V28.3014H8.35291V26.4044ZM10.2353 37.7867H4.58821V32.0955H10.2353V37.7867ZM8.35291 33.9926H6.47056V35.8897H8.35291V33.9926ZM4.58821 39.6838H10.2353V45.375H4.58821V39.6838ZM6.47056 43.4779H8.35291V41.5808H6.47056V43.4779ZM1.76468 22.6103H10.2353V20.7132H-0.117676V52.0147H7.41174V50.1176H1.76468V22.6103ZM60.1176 6.48526V18.8161H46V15.4963L30 2.9757L14 15.4963V18.8161H-0.117676V6.48526H22.3759L29.9994 0.509521L37.623 6.48526H60.1176ZM20.0235 8.38231H1.76468V16.9191H12.1176V14.5478L20.0235 8.38231ZM58.2353 8.38231H39.9764L47.8823 14.5478V16.9191H58.2353V8.38231ZM42.2353 14.5478V18.8161H17.7647V14.5478L30 5.25217L42.2353 14.5478ZM40.3529 15.4963L30 7.62349L19.647 15.4963V16.9191H40.3529V15.4963ZM25.2941 15.022H27.1764V13.125H25.2941V15.022ZM29.0588 15.022H30.9411V13.125H29.0588V15.022ZM34.7059 13.125H32.8235V15.022H34.7059V13.125ZM25.2941 41.5808V27.3529C25.2941 26.5941 25.0117 25.8353 24.447 25.361C23.4117 24.3176 21.5294 24.3176 20.4941 25.361C19.9294 25.8353 19.647 26.5941 19.647 27.3529V41.5808H21.5294V27.3529C21.5294 27.0683 21.6235 26.8786 21.8117 26.6889C22.1882 26.3095 22.7529 26.3095 23.1294 26.6889C23.3176 26.8786 23.4117 27.0683 23.4117 27.3529V41.5808H25.2941ZM32.8235 41.5808V27.3529C32.8235 26.5941 32.5411 25.8353 31.9764 25.361C30.9411 24.3176 29.0588 24.3176 28.0235 25.361C27.4588 25.8353 27.1764 26.5941 27.1764 27.3529V41.5808H29.0588V27.3529C29.0588 27.0683 29.1529 26.8786 29.3411 26.6889C29.7176 26.3095 30.2823 26.3095 30.6588 26.6889C30.847 26.8786 30.9411 27.0683 30.9411 27.3529V41.5808H32.8235ZM40.3529 41.5808V27.3529C40.3529 26.5941 40.0706 25.8353 39.5059 25.361C38.4706 24.3176 36.5882 24.3176 35.5529 25.361C34.9882 25.8353 34.7059 26.5941 34.7059 27.3529V41.5808H36.5882V27.3529C36.5882 27.0683 36.6823 26.8786 36.8706 26.6889C37.247 26.3095 37.8117 26.3095 38.1882 26.6889C38.3764 26.8786 38.4706 27.0683 38.4706 27.3529V41.5808H40.3529Z" fill="#FF5B14"/>
</svg>
