<svg width="60" height="60" viewBox="0 0 60 60" fill="none" xmlns="http://www.w3.org/2000/svg">
<path d="M29.8956 0.234887C27.7916 0.242363 25.6628 0.469922 23.5416 0.933941C9.96683 3.90443 0.282722 15.7397 0.231689 29.4294C0.193718 30.856 2.38467 30.8644 2.35806 29.4373C2.40505 16.7142 11.388 5.73399 24.0033 2.97309C36.6194 0.212422 49.4785 6.41931 54.9961 17.926C60.5138 29.4327 57.2051 43.1438 47.0222 50.9791C37.0928 58.6195 23.236 58.648 13.2724 51.1814L13.3451 51.1959C14.7068 51.4309 15.1159 49.4478 13.7684 49.1413L10.1346 48.4235C10.0212 48.3857 9.90159 48.367 9.78152 48.3684C9.66096 48.3698 9.54182 48.3913 9.4284 48.4319C8.84317 48.6291 8.55175 49.2744 8.79523 49.8343L9.50767 53.336C9.7597 54.7504 11.9226 54.3182 11.5947 52.9192L11.5097 52.5061C22.2611 60.8984 37.4928 60.9741 48.3324 52.6327C59.289 44.2025 62.8549 29.4091 56.9186 17.0281C52.4665 7.74329 43.5553 1.66248 33.6488 0.454289C32.4109 0.30336 31.1569 0.229062 29.8945 0.233727L29.8956 0.234887ZM33.7995 3.66939C32.8981 3.70397 32.4472 4.75815 33.0519 5.41744L33.3115 5.70996C31.7044 5.49081 30.0973 5.41323 28.5087 5.50903C20.9686 5.96509 13.8902 9.85793 9.57915 16.3031C3.83126 24.8973 4.26942 36.1474 10.6694 44.2818C17.0694 52.4166 28.0218 55.645 37.9113 52.3157C47.8009 48.9863 54.4545 39.8282 54.4545 29.5382C54.4867 28.1116 52.2958 28.1116 52.3281 29.5382C52.3281 38.9408 46.256 47.2975 37.2199 50.3395C28.1838 53.3815 18.198 50.432 12.3498 42.9981C6.50183 35.5646 6.10073 25.307 11.3531 17.4538C16.0391 10.4474 24.2948 6.76567 32.5877 7.72086L32.4111 7.7802C30.9269 8.14935 31.6764 10.3465 33.0861 9.75913L36.4479 8.64281C37.0488 8.62225 37.513 8.11525 37.4717 7.52461C37.4627 7.19611 37.297 6.89097 37.0251 6.7008L34.6472 4.03308C34.436 3.79057 34.1241 3.65692 33.7999 3.66906L33.7995 3.66939ZM40.1017 16.7203C37.8149 16.7203 35.7498 16.9609 34.1754 17.3848C33.388 17.5964 32.7249 17.8446 32.1738 18.1964C31.6228 18.5483 31.0589 19.1006 31.0589 19.9118V20.2043C28.8001 18.2085 25.8261 16.9838 22.5591 16.9838C15.5259 16.9838 9.79845 22.6135 9.79845 29.5383C9.79845 36.463 15.5254 42.1035 22.5591 42.1035C25.8256 42.1035 28.7996 40.8759 31.0584 38.8798V39.1742C31.0584 39.9854 31.6223 40.5376 32.1733 40.8896C32.7244 41.2414 33.3879 41.4891 34.1749 41.7012C35.7493 42.1251 37.8144 42.3657 40.1012 42.3657C42.388 42.3657 44.4513 42.1251 46.0256 41.7012C46.8131 41.4896 47.4762 41.2414 48.0272 40.8896C48.5783 40.5377 49.1341 39.9854 49.1341 39.1742L49.135 19.9124C49.135 19.1013 48.5797 18.549 48.0282 18.197C47.4771 17.8452 46.8136 17.5975 46.0266 17.3854C44.4522 16.9616 42.3889 16.7209 40.1021 16.7209L40.1017 16.7203ZM40.1017 18.8137C42.2323 18.8137 44.1532 19.0506 45.4612 19.4025C46.0678 19.5655 46.5239 19.7553 46.7921 19.9113C46.5235 20.0674 46.0678 20.2571 45.4612 20.4202C44.1531 20.7721 42.2323 21.009 40.1017 21.009C37.9711 21.009 36.0483 20.7721 34.7402 20.4202C34.1336 20.2571 33.6775 20.0674 33.4093 19.9113C33.678 19.7553 34.1336 19.5655 34.7402 19.4025C36.0483 19.0506 37.9711 18.8137 40.1017 18.8137ZM22.5585 19.0772C28.4426 19.0772 33.1861 23.7449 33.1861 29.5382C33.1861 35.331 28.4426 40.0094 22.5585 40.0094C16.6744 40.0094 11.9247 35.331 11.9247 29.5382C11.9247 23.7453 16.6744 19.0772 22.5585 19.0772ZM22.5585 20.3674C17.4248 20.3674 13.2348 24.4841 13.2348 29.5382C13.2348 34.5922 17.4243 38.7173 22.5585 38.7173C27.6922 38.7173 31.8761 34.5927 31.8761 29.5382C31.8761 24.4841 27.6927 20.3674 22.5585 20.3674ZM33.1861 22.1173C33.4932 22.2346 33.8178 22.3421 34.1743 22.4384C35.7487 22.8622 37.8138 23.1028 40.1006 23.1028C42.3873 23.1028 44.4506 22.8622 46.025 22.4384C46.3791 22.343 46.7004 22.2356 47.0051 22.1192V24.378C46.9928 24.3893 46.9762 24.4122 46.8722 24.478C46.6188 24.6397 46.1142 24.85 45.4602 25.0257C44.1525 25.3785 42.2322 25.6131 40.1011 25.6131C37.7531 25.6131 35.6885 25.3084 34.403 24.9098C34.0751 24.0996 33.6702 23.3272 33.186 22.6098L33.1861 22.1173ZM22.5585 22.4608C26.5431 22.4608 29.7473 25.6154 29.7473 29.5382C29.7473 33.461 26.5431 36.6239 22.5585 36.6239C18.5739 36.6239 15.3611 33.461 15.3611 29.5382C15.3611 25.6154 18.5739 22.4608 22.5585 22.4608ZM21.491 23.2561V24.7977C20.9798 24.9262 20.5038 25.1341 20.1017 25.4355C19.4311 25.9383 18.9327 26.7215 18.9327 27.6228C18.9327 28.5513 19.5573 29.3059 20.2033 29.7162C20.8497 30.1265 21.5683 30.3545 22.2674 30.5503C22.9035 30.7284 23.474 30.934 23.7749 31.1227C24.0763 31.3115 24.0525 31.2989 24.0492 31.4316C24.0402 31.7816 23.5342 32.3293 22.5583 32.3293C22.0704 32.3293 21.6451 32.1736 21.3893 31.9816C21.1334 31.79 21.0589 31.6209 21.0589 31.4625H18.9326C18.9326 32.3638 19.4309 33.147 20.1016 33.6498C20.5036 33.9512 20.9792 34.1572 21.4909 34.2834V35.8208H23.6173V34.2792C25.0156 33.9283 26.1405 32.9082 26.1774 31.4867C26.2021 30.5433 25.5661 29.7634 24.913 29.3546C24.2599 28.9457 23.5423 28.7289 22.8489 28.535C22.2185 28.3588 21.6589 28.1537 21.358 27.9625C21.057 27.7714 21.0589 27.7546 21.0589 27.6233C21.0589 27.4649 21.1335 27.2897 21.3893 27.0981C21.6451 26.9065 22.0704 26.7504 22.5583 26.7504C23.0463 26.7504 23.4654 26.906 23.7212 27.0981C23.977 27.2897 24.0492 27.4649 24.0492 27.6233H26.1775C26.1775 26.7219 25.6767 25.9388 25.0066 25.436C24.6031 25.1332 24.1289 24.9243 23.6172 24.7963V23.2571L21.491 23.2561ZM47.0051 26.7252V29.3993C46.9927 29.4106 46.9761 29.4335 46.8722 29.4993C46.6187 29.661 46.1142 29.8732 45.4601 30.0493C44.152 30.4012 42.2312 30.6362 40.1006 30.6362C38.2362 30.6362 36.5512 30.4484 35.2787 30.168C35.2891 29.9577 35.3119 29.7507 35.3119 29.5386C35.3119 28.7545 35.2279 27.9914 35.0874 27.2471C36.5199 27.5419 38.2177 27.7092 40.1001 27.7092C42.3868 27.7092 44.4501 27.4667 46.0245 27.0429C46.3786 26.9476 46.6999 26.842 47.0046 26.7261L47.0051 26.7252ZM47.0051 31.7461V34.2138C46.9927 34.225 46.9761 34.2479 46.8722 34.3138C46.6187 34.4755 46.1142 34.6858 45.4601 34.8619C44.152 35.2138 42.2312 35.4568 40.1006 35.4568C37.6538 35.4568 35.435 35.0731 34.1847 34.676C34.5368 33.9064 34.8131 33.0993 35.0029 32.2573C36.4473 32.5601 38.1915 32.7297 40.101 32.7297C42.3878 32.7297 44.4511 32.4891 46.0254 32.0652C46.3795 31.9699 46.7009 31.8624 47.0056 31.7466L47.0051 31.7461ZM47.0051 36.5666V39.0301C46.9927 39.0399 46.9766 39.0614 46.8722 39.1282C46.6187 39.2899 46.1142 39.5002 45.4601 39.6763C44.152 40.0282 42.2312 40.2712 40.1006 40.2712C37.97 40.2712 36.0472 40.0282 34.7391 39.6763C34.085 39.5002 33.5805 39.2904 33.3271 39.1282C33.2193 39.0595 33.1984 39.0362 33.1861 39.0282V36.5708C34.8787 37.2577 37.2869 37.5521 40.101 37.5521C42.3878 37.5521 44.4511 37.3114 46.0255 36.8876C46.3791 36.7923 46.7009 36.6843 47.0056 36.5666L47.0051 36.5666Z" fill="#FF5B14"/>
</svg>
