<svg width="56" height="46" viewBox="0 0 56 46" fill="none" xmlns="http://www.w3.org/2000/svg">
<path d="M40.7796 26.8673C40.7796 27.0661 40.7002 27.2569 40.5588 27.3966C40.4177 27.5368 40.2264 27.6148 40.0277 27.613H34.2589C34.0487 27.6324 33.8398 27.5624 33.6833 27.4196C33.5273 27.2772 33.4382 27.0758 33.4382 26.8642C33.4382 26.6527 33.5273 26.4513 33.6833 26.3089C33.8398 26.1661 34.0487 26.096 34.2589 26.1154H39.996C40.2009 26.1071 40.4006 26.1824 40.5482 26.3243C40.6963 26.4663 40.7796 26.6624 40.7796 26.8673L40.7796 26.8673ZM40.0277 32.4969L34.2589 32.4973C33.8437 32.4973 33.507 32.8336 33.507 33.2492C33.507 33.6644 33.8437 34.0007 34.2589 34.0007H39.996C40.4116 34.0007 40.7479 33.6644 40.7479 33.2492C40.7479 32.8336 40.4116 32.4973 39.996 32.4973L40.0277 32.4969ZM27.9528 32.4969L22.184 32.4973C21.7689 32.4973 21.4321 32.8336 21.4321 33.2492C21.4321 33.6644 21.7689 34.0007 22.184 34.0007H27.9211C28.3363 34.0007 28.673 33.6644 28.673 33.2492C28.673 32.8336 28.3363 32.4973 27.9211 32.4973L27.9528 32.4969ZM15.8847 32.4969L10.1097 32.4973C9.69457 32.4973 9.35785 32.8336 9.35785 33.2492C9.35785 33.6644 9.69457 34.0007 10.1097 34.0007H15.8529C16.2685 34.0007 16.6048 33.6644 16.6048 33.2492C16.6048 32.8336 16.2685 32.4973 15.8529 32.4973L15.8847 32.4969ZM15.8847 19.7338L10.1097 19.7342C9.89907 19.7148 9.69016 19.7849 9.53414 19.9272C9.37812 20.07 9.28909 20.2715 9.28909 20.483C9.28909 20.6941 9.37812 20.896 9.53414 21.0383C9.69016 21.1807 9.89907 21.2508 10.1097 21.2314H15.8529C16.2399 21.1961 16.5361 20.8713 16.5361 20.483C16.5361 20.0943 16.2399 19.7699 15.8529 19.7342L15.8847 19.7338ZM15.8847 26.1152L10.1097 26.1156C9.89907 26.0963 9.69016 26.1663 9.53414 26.3091C9.37812 26.4515 9.28909 26.6529 9.28909 26.8645C9.28909 27.076 9.37812 27.2774 9.53414 27.4198C9.69016 27.5626 9.89907 27.6327 10.1097 27.6133H15.8529C16.2399 27.5776 16.5361 27.2532 16.5361 26.8645C16.5361 26.4757 16.2399 26.1513 15.8529 26.1156L15.8847 26.1152ZM27.9528 19.7338L22.184 19.7342C21.9738 19.7148 21.7649 19.7849 21.6084 19.9272C21.4524 20.07 21.3634 20.2715 21.3634 20.483C21.3634 20.6941 21.4524 20.896 21.6084 21.0383C21.7649 21.1807 21.9738 21.2508 22.184 21.2314H27.9211C28.1318 21.2508 28.3407 21.1807 28.4967 21.0383C28.6532 20.896 28.7418 20.6941 28.7418 20.483C28.7418 20.2715 28.6532 20.07 28.4967 19.9272C28.3407 19.7849 28.1318 19.7148 27.9211 19.7342L27.9528 19.7338ZM27.9528 26.1152L22.184 26.1156C21.9738 26.0963 21.7649 26.1663 21.6084 26.3091C21.4524 26.4515 21.3634 26.6529 21.3634 26.8645C21.3634 27.076 21.4524 27.2774 21.6084 27.4198C21.7649 27.5626 21.9738 27.6327 22.184 27.6133H27.9211C28.1318 27.6327 28.3407 27.5626 28.4967 27.4198C28.6532 27.2774 28.7418 27.076 28.7418 26.8645C28.7418 26.6529 28.6532 26.4515 28.4967 26.3091C28.3407 26.1663 28.1318 26.0963 27.9211 26.1156L27.9528 26.1152ZM40.0277 19.7338L34.2589 19.7342C34.0487 19.7148 33.8398 19.7849 33.6833 19.9272C33.5273 20.07 33.4382 20.2715 33.4382 20.483C33.4382 20.6941 33.5273 20.896 33.6833 21.0383C33.8397 21.1807 34.0487 21.2508 34.2589 21.2314H39.996C40.2066 21.2508 40.4155 21.1807 40.5716 21.0383C40.728 20.896 40.8171 20.6941 40.8171 20.483C40.8171 20.2715 40.728 20.07 40.5716 19.9272C40.4155 19.7849 40.2066 19.7148 39.996 19.7342L40.0277 19.7338ZM49.3598 38.057V38.0575C49.0235 37.8155 48.6405 37.6458 48.235 37.5586C48.0164 37.514 47.804 37.4418 47.6034 37.3435C47.4937 37.2836 47.4223 37.1716 47.4139 37.0464C47.4183 36.9671 47.4399 36.8895 47.477 36.819C47.6056 36.6599 47.8035 36.5726 48.0076 36.5854C48.1574 36.5938 48.306 36.6194 48.4501 36.6612C48.6022 36.7353 48.7674 36.7785 48.9367 36.7877C49.1601 36.7935 49.3642 36.6599 49.4484 36.4528C49.4907 36.38 49.5127 36.2967 49.5114 36.2126C49.4916 35.9918 49.3571 35.7974 49.1579 35.7009C48.9146 35.5585 48.6423 35.4721 48.3615 35.4479V35.0499C48.3672 34.9913 48.3672 34.9318 48.3615 34.8732C48.3086 34.7083 48.1557 34.5964 47.9825 34.5964C47.8093 34.5964 47.6563 34.7083 47.6034 34.8732C47.5783 34.9441 47.5655 35.0191 47.5655 35.0944V35.4924C47.1543 35.5748 46.7775 35.7798 46.4849 36.0799C46.2253 36.3699 46.0812 36.7458 46.0807 37.135C46.0759 37.6092 46.3143 38.0526 46.7127 38.3105C46.8798 38.403 47.0552 38.4788 47.2368 38.5379L47.9887 38.7591V38.7587C48.194 38.7904 48.3791 38.8988 48.507 39.0623C48.5497 39.1373 48.5735 39.2219 48.5766 39.3087C48.5748 39.4189 48.5369 39.5251 48.4691 39.6119C48.3289 39.7847 48.1081 39.8711 47.8877 39.8394C47.7207 39.8402 47.5541 39.8147 47.395 39.7635C47.1552 39.6604 46.9023 39.5921 46.6431 39.5612C46.495 39.556 46.3518 39.6119 46.2464 39.7159C46.1411 39.82 46.0834 39.9632 46.0869 40.1108C46.0869 40.5595 46.5356 40.7429 46.8895 40.8689V40.8694C47.1142 40.9231 47.3421 40.9632 47.5717 40.9892V41.3938C47.5612 41.4564 47.5612 41.5203 47.5717 41.5833C47.6295 41.746 47.7732 41.8632 47.9446 41.8866C48.1174 41.8738 48.2663 41.7596 48.3236 41.5957C48.3413 41.5212 48.3413 41.4432 48.3236 41.3683V40.9575C48.5422 40.9095 48.7547 40.8354 48.9556 40.7367C49.384 40.5009 49.6886 40.0901 49.7895 39.6119C49.8138 39.4912 49.8265 39.3687 49.8274 39.2452C49.8534 38.7882 49.6696 38.3439 49.3285 38.0386L49.3598 38.057ZM55.6151 38.2655V38.2659C55.6199 40.5203 54.6292 42.6614 52.9077 44.1163C51.1861 45.5716 48.9102 46.1921 46.6885 45.8118C44.4663 45.4319 42.5261 44.0902 41.386 42.1458H4.81507C3.72469 42.144 2.67968 41.7099 1.90839 40.9391C1.13755 40.1682 0.703841 39.1228 0.702148 38.0324V9.4666C0.703911 8.37622 1.1376 7.33077 1.90839 6.55993C2.67967 5.78865 3.7247 5.35493 4.81507 5.35323H10.862V3.07862C10.862 2.27736 11.2895 1.53694 11.9836 1.13629C12.6774 0.735658 13.5324 0.735658 14.2265 1.13629C14.9207 1.53692 15.3482 2.27732 15.3482 3.07862V5.32819H34.758V3.07862C34.758 2.27736 35.1855 1.53694 35.8792 1.13629C36.5734 0.735658 37.4284 0.735658 38.1226 1.13629C38.8163 1.53692 39.2438 2.27732 39.2438 3.07862V5.32819H45.2968C46.3916 5.32995 47.441 5.76716 48.2128 6.54368C48.9845 7.31982 49.415 8.37183 49.4102 9.4666V25.8944L52.6704 21.2754V21.2758C52.8982 21.0026 53.2971 20.9501 53.588 21.1546C53.8784 21.3596 53.963 21.7532 53.7823 22.059L49.2146 28.5295C49.0846 28.7067 48.8783 28.812 48.6584 28.8138C48.438 28.8142 48.2309 28.7084 48.1022 28.5295L43.534 22.059C43.3181 21.754 43.3899 21.3309 43.6953 21.1145C44.0007 20.8981 44.4234 20.9704 44.6398 21.2758L47.9065 25.8943V15.1532H2.19878V38.0133C2.20054 38.7057 2.47688 39.3695 2.96742 39.8586C3.45752 40.3478 4.1221 40.6228 4.81453 40.6228H40.6656C40.4135 39.856 40.2857 39.0539 40.2866 38.2468C40.2271 36.1802 41.0063 34.1775 42.447 32.6949C43.8877 31.2122 45.8675 30.3757 47.9351 30.3757C50.0021 30.3757 51.9819 31.2122 53.4227 32.6949C54.8635 34.1775 55.6427 36.1802 55.5831 38.2468L55.6151 38.2655ZM36.2617 9.07578C36.297 9.45921 36.6187 9.75275 37.0039 9.75275C37.3891 9.75275 37.7108 9.45921 37.7465 9.07578V3.07953C37.7395 2.66701 37.401 2.3369 36.988 2.34042C36.5799 2.34042 36.2489 2.67141 36.2489 3.07953L36.2617 9.07578ZM12.3467 9.07578C12.3819 9.45921 12.7037 9.75275 13.0889 9.75275C13.4741 9.75275 13.7962 9.45921 13.8315 9.07578V3.07953C13.7962 2.6961 13.4741 2.40257 13.0889 2.40257C12.7037 2.40257 12.3819 2.6961 12.3467 3.07953V9.07578ZM2.19915 13.644H47.9069V9.46752C47.9069 8.77557 47.6319 8.11178 47.1427 7.62222C46.653 7.13301 45.9897 6.85799 45.2974 6.85799H39.2444V9.10089C39.2444 9.90259 38.8169 10.643 38.1231 11.0437C37.429 11.4443 36.574 11.4443 35.8798 11.0437C35.1861 10.6431 34.7586 9.90265 34.7586 9.10089V6.83282H15.3488V9.07573C15.3488 9.87699 14.9212 10.6174 14.2271 11.0181C13.5329 11.4191 12.678 11.4191 11.9842 11.0181C11.29 10.6174 10.8625 9.87704 10.8625 9.07573V6.83282H4.81561C4.11881 6.83282 3.45062 7.11092 2.95925 7.60544C2.46827 8.10038 2.19502 8.77027 2.19986 9.46755L2.19915 13.644ZM54.0865 38.2472C54.0878 36.6147 53.4408 35.0483 52.2874 33.8932C51.134 32.7376 49.569 32.088 47.9366 32.087C46.3041 32.0857 44.7377 32.7332 43.583 33.887C42.4279 35.0409 41.7786 36.6064 41.7782 38.2388C41.7777 39.8712 42.4256 41.4372 43.5799 42.5919C44.7342 43.7461 46.2997 44.3949 47.9322 44.3949C49.5629 44.3931 51.1262 43.7452 52.28 42.5927C53.4334 41.4406 54.083 39.8778 54.0866 38.247L54.0865 38.2472Z" fill="#FF5B14"/>
</svg>
