<svg width="60" height="60" viewBox="0 0 60 60" fill="none" xmlns="http://www.w3.org/2000/svg">
<path d="M35.9099 20.8236C35.9099 21.3714 36.35 21.8162 36.8948 21.8162H46.7449C47.2897 21.8162 47.7298 21.3714 47.7298 20.8236C47.7298 20.2759 47.2897 19.8311 46.7449 19.8311H36.8948C36.35 19.8311 35.9099 20.2759 35.9099 20.8236Z" fill="#FF5B14"/>
<path d="M41.8208 26.7807C41.8208 27.3285 42.2609 27.7732 42.8057 27.7732H48.7158C49.2606 27.7732 49.7007 27.3285 49.7007 26.7807C49.7007 26.2329 49.2606 25.7881 48.7158 25.7881H42.8057C42.2609 25.7877 41.8208 26.2325 41.8208 26.7807Z" fill="#FF5B14"/>
<path d="M40.8355 15.8606C41.3803 15.8606 41.8204 15.4159 41.8204 14.8681C41.8204 14.3203 41.3802 13.8755 40.8355 13.8755H38.8653C38.3205 13.8755 37.8804 14.3203 37.8804 14.8681C37.8804 15.4159 38.3205 15.8606 38.8653 15.8606H40.8355Z" fill="#FF5B14"/>
<path d="M29.0149 25.7876C28.4701 25.7876 28.03 26.2324 28.03 26.7802C28.03 27.328 28.4701 27.7728 29.0149 27.7728H38.865C39.4098 27.7728 39.8499 27.328 39.8499 26.7802C39.8499 26.2324 39.4098 25.7876 38.865 25.7876H29.0149Z" fill="#FF5B14"/>
<path d="M33.9404 53.5836H15.2257C13.5963 53.5836 12.2706 52.2476 12.2706 50.6054V4.94046C12.2706 4.39267 11.8305 3.94788 11.2857 3.94788C8.57004 3.94788 6.36035 6.1743 6.36035 8.91168C6.36035 9.45947 6.80046 9.90426 7.34524 9.90426C7.89002 9.90426 8.33012 9.45947 8.33012 8.91168C8.33012 7.61715 9.15348 6.51324 10.3003 6.10338V50.6052C10.3003 53.342 12.5095 55.569 15.2257 55.569H33.9404C34.4852 55.569 34.9253 55.1242 34.9253 54.5764C34.9253 54.0282 34.4852 53.5834 33.9404 53.5834L33.9404 53.5836Z" fill="#FF5B14"/>
<path d="M19.1648 21.8166H32.9551C33.4998 21.8166 33.9399 21.3718 33.9399 20.824C33.9399 20.2762 33.4998 19.8314 32.9551 19.8314H19.1648C18.62 19.8314 18.1799 20.2762 18.1799 20.824C18.1799 21.3722 18.62 21.8166 19.1648 21.8166Z" fill="#FF5B14"/>
<path d="M19.1648 15.8606H23.1048C23.6496 15.8606 24.0897 15.4159 24.0897 14.8681C24.0897 14.3203 23.6496 13.8755 23.1048 13.8755H19.1648C18.62 13.8755 18.1799 14.3203 18.1799 14.8681C18.1799 15.4159 18.62 15.8606 19.1648 15.8606Z" fill="#FF5B14"/>
<path d="M34.9246 13.8746H27.0447C26.4999 13.8746 26.0598 14.3194 26.0598 14.8672C26.0598 15.415 26.4999 15.8598 27.0447 15.8598H34.9246C35.4694 15.8598 35.9095 15.415 35.9095 14.8672C35.9099 14.3194 35.4694 13.8746 34.9246 13.8746Z" fill="#FF5B14"/>
<path d="M48.7159 0H11.2854C6.4087 0 2.43916 3.9894 2.42017 8.89962V8.92246L2.42058 8.9345V8.94655C2.43335 12.1124 4.12864 15.0616 6.85219 16.6501C7.3232 16.9242 7.92486 16.7622 8.19767 16.2888C8.4713 15.8141 8.30893 15.2069 7.83916 14.9328C5.71523 13.6923 4.39455 11.3914 4.39043 8.92248C4.39744 5.0967 7.48723 1.98561 11.2854 1.98561H48.716C52.517 1.98561 55.611 5.10287 55.611 8.93449V50.6284C55.611 51.1318 55.4713 51.6372 55.2079 52.0879C54.9331 52.5605 55.0889 53.1689 55.5574 53.4467C55.7148 53.5402 55.8862 53.5838 56.056 53.5838C56.3939 53.5838 56.7228 53.4089 56.9062 53.0945C57.3475 52.3391 57.5807 51.4865 57.5807 50.6285L57.5812 8.93454C57.5812 4.00774 53.605 5.31593e-05 48.7164 5.31593e-05L48.7159 0Z" fill="#FF5B14"/>
<path d="M51.6698 45.6416C51.6698 42.3566 49.0193 39.6853 45.7597 39.6853C42.5002 39.6853 39.8496 42.3566 39.8496 45.6416C39.8496 48.9266 42.5002 51.5979 45.7597 51.5979C49.0193 51.5979 51.6698 48.9266 51.6698 45.6416ZM45.76 49.6124C43.5871 49.6124 41.82 47.8315 41.82 45.6416C41.82 43.4516 43.5871 41.6708 45.76 41.6708C47.933 41.6708 49.7 43.4516 49.7 45.6416C49.7 47.8315 47.933 49.6124 45.76 49.6124Z" fill="#FF5B14"/>
<path d="M43.9824 52.5916C43.5126 52.3175 42.9097 52.4803 42.6369 52.955L40.5163 56.6587L40.1796 56.1467C40.0094 55.8854 39.7267 55.721 39.4172 55.7031L38.8086 55.6661L40.9647 51.9038C41.2366 51.4291 41.0751 50.8219 40.6041 50.5479C40.1331 50.2729 39.5306 50.4357 39.2573 50.9112L36.3052 56.0644C36.135 56.3622 36.13 56.7285 36.2912 57.0313C36.4527 57.334 36.7581 57.5317 37.0997 57.5512L38.8066 57.6542L39.749 59.0928C39.9312 59.3719 40.2407 59.5384 40.5707 59.5384H40.6012C40.9412 59.5276 41.2532 59.3399 41.4246 59.0421L44.343 53.9476C44.6158 53.4733 44.4543 52.8652 43.9824 52.5916L43.9824 52.5916Z" fill="#FF5B14"/>
<path d="M52.289 50.9575C52.0162 50.482 51.4125 50.3192 50.9436 50.5941C50.4717 50.8682 50.3102 51.4758 50.5822 51.9501L52.7126 55.6658L52.104 55.7028C51.7949 55.7215 51.5122 55.8864 51.3408 56.1463L51.0058 56.6584L48.8959 52.9734C48.6222 52.4987 48.0194 52.3363 47.5491 52.61C47.0781 52.8841 46.917 53.4917 47.1885 53.966L50.0962 59.0419C50.2676 59.3397 50.58 59.5274 50.9195 59.5382H50.95C51.2789 59.5382 51.5892 59.3712 51.7726 59.0925L52.7142 57.6551L54.4202 57.5509C54.7619 57.5309 55.0672 57.3333 55.2288 57.0309C55.3903 56.7281 55.3845 56.3618 55.2152 56.0641L52.289 50.9575Z" fill="#FF5B14"/>
<path d="M19.1648 27.7725H25.0749C25.6197 27.7725 26.0598 27.3277 26.0598 26.7799C26.0598 26.2321 25.6197 25.7874 25.0749 25.7874H19.1648C18.62 25.7874 18.1799 26.2321 18.1799 26.7799C18.1799 27.3277 18.62 27.7725 19.1648 27.7725Z" fill="#FF5B14"/>
<path d="M19.1648 33.7295H30.9844C31.5292 33.7295 31.9693 33.2848 31.9693 32.737C31.9693 32.1892 31.5292 31.7444 30.9844 31.7444H19.1648C18.62 31.7444 18.1799 32.1892 18.1799 32.737C18.1799 33.2848 18.62 33.7295 19.1648 33.7295Z" fill="#FF5B14"/>
<path d="M19.2691 46.0849C19.5114 46.5753 20.1036 46.7738 20.5899 46.5296C21.0766 46.2846 21.2744 45.6878 21.03 45.1974C20.055 43.2317 19.8363 41.4688 20.4428 40.4791C20.7659 39.952 21.3292 39.685 22.1192 39.685C22.589 39.685 22.7646 39.8478 22.8746 40.0068C23.6085 41.0729 22.9113 44.3202 22.181 46.2855C22.0187 46.7232 22.181 47.2158 22.5709 47.4687C22.9591 47.72 23.4721 47.6652 23.8001 47.3358C24.2208 46.913 24.6766 46.4911 25.0738 46.1484V46.6339C25.0738 47.0351 25.3133 47.3973 25.6817 47.5501C26.0501 47.705 26.4725 47.6195 26.7552 47.3358C27.2052 46.8831 27.7273 46.4392 28.1666 46.1197C28.1546 46.1447 28.1431 46.1683 28.1311 46.1912C27.9803 46.4989 27.9972 46.8644 28.1765 47.1559C28.357 47.4479 28.673 47.6265 29.0138 47.6265H32.9539C33.4986 47.6265 33.9387 47.1817 33.9387 46.6339C33.9387 46.0861 33.4986 45.6413 32.9539 45.6413H30.3898C30.4698 45.1687 30.45 44.6882 30.2126 44.3012C29.9612 43.8912 29.524 43.6558 29.0139 43.6558C28.4052 43.6558 27.689 44.0291 27.035 44.4918C26.9847 44.059 26.7305 43.7027 26.3443 43.542C26.0814 43.4328 25.7423 43.2899 24.9202 43.787C25.2441 42.0768 25.3389 40.1049 24.4937 38.876C24.1244 38.3391 23.4132 37.7 22.1188 37.7C20.6431 37.7 19.4522 38.3163 18.766 39.4363C17.7849 41.0381 17.967 43.461 19.2692 46.085L19.2691 46.0849Z" fill="#FF5B14"/>
<path d="M45.7598 32.7366C45.7598 32.1888 45.3197 31.744 44.775 31.744H34.9248C34.38 31.744 33.9399 32.1888 33.9399 32.7366C33.9399 33.2844 34.3801 33.7292 34.9248 33.7292H44.775C45.3193 33.7292 45.7598 33.2844 45.7598 32.7366Z" fill="#FF5B14"/>
</svg>
