<svg width="60" height="60" viewBox="0 0 60 60" fill="none" xmlns="http://www.w3.org/2000/svg">
<path d="M50.5916 9.05118C44.996 3.45514 37.5579 0.37854 29.6428 0.37854C17.8248 0.37854 7.15092 7.37805 2.45117 18.2211C1.86352 19.1672 1.09711 22.0743 1.09711 22.0743C0.380188 24.6437 0.0217285 27.3023 0.0217285 30.0003C0.0217285 37.9157 3.09845 45.354 8.6939 50.9397C14.2895 56.5353 21.7276 59.622 29.6427 59.622C37.5577 59.622 44.9964 56.5351 50.5915 50.9397C56.1774 45.3537 59.2636 37.906 59.2636 30.0003C59.2645 22.0849 56.1778 14.6466 50.5919 9.05154L50.5916 9.05118ZM29.6428 1.87237C32.102 1.87237 34.482 2.20103 36.7519 2.7983C36.6722 3.74441 36.553 4.57048 36.5328 4.64006C35.985 6.68131 34.9 8.61285 33.4662 10.0765C32.3014 11.2615 31.6441 11.3508 30.5587 11.5003C30.0609 11.57 29.4434 11.6598 28.6472 11.8688C26.7055 12.4166 24.8339 13.5117 23.0218 14.577C22.1954 15.0647 21.4088 15.5231 20.6621 15.9012C20.0149 16.2299 19.0692 16.5883 18.3422 16.5883H18.3224C17.755 16.5686 17.4763 16.449 17.2672 16.1006C17.1577 15.9113 17.1077 15.6922 17.1077 15.3837C17.1077 15.0949 17.1577 14.7465 17.2173 14.378C17.2274 14.2685 17.2471 14.1589 17.2572 14.0493C17.3071 13.6409 17.3369 13.243 17.3369 12.8543C17.3369 10.4148 16.3711 7.9757 14.7283 6.16316C19.1086 3.42522 24.2462 1.87225 29.6431 1.87225L29.6428 1.87237ZM29.6428 58.1273C14.1601 58.0975 1.54526 45.482 1.51475 29.9993C1.51475 27.4405 1.85349 24.9112 2.53052 22.472C2.76935 21.536 3.82498 18.8177 3.82498 18.8177C5.93582 13.9589 9.31095 9.92636 13.463 6.99972C14.9565 8.55316 15.8425 10.6938 15.8425 12.8543C15.8425 13.1829 15.8228 13.5212 15.7829 13.86C15.7632 13.9594 15.7531 14.069 15.7329 14.1786C15.683 14.537 15.6133 14.9454 15.6133 15.3832C15.6133 15.9608 15.7329 16.4485 15.9818 16.8666C16.42 17.6234 17.2763 18.0814 18.2619 18.0814H18.3215C19.2176 18.0713 20.2329 17.7926 21.3386 17.2352C22.1449 16.8172 22.9915 16.329 23.8079 15.8513C25.5604 14.8259 27.3723 13.7607 29.045 13.3022C29.5928 13.1528 30.1002 13.073 30.5984 13.0033C31.853 12.8342 33.0379 12.6646 34.5415 11.1116C36.1546 9.45865 37.3492 7.34781 37.9766 5.02786C38.0458 4.7597 38.1251 4.11246 38.2049 3.22635C44.2982 5.1878 49.4858 9.17068 52.9906 14.3876C51.5865 14.7657 50.6112 15.891 49.7347 16.9064L49.665 16.9958C48.5896 18.2802 47.4744 19.5945 45.8613 20.0523C45.4433 20.1816 45.1045 20.2417 44.8258 20.2417C44.6567 20.2417 44.4972 20.2119 44.3578 20.172C44.1786 20.122 43.9797 19.9928 43.7207 19.8236C43.5016 19.6843 43.2527 19.5247 42.9442 19.3758C42.516 19.1667 42.0581 19.0673 41.58 19.0673H41.5603C39.8179 19.087 38.1948 20.3415 37.7071 22.0344C37.5975 22.4126 37.5476 22.8109 37.5476 23.2093C37.5577 24.842 38.3937 26.4753 39.7978 27.5703C41.1721 28.6356 43.0239 29.2233 45.2939 29.3127C45.8416 29.3324 46.4288 29.3723 46.658 29.5717C46.8176 29.6913 46.9867 29.9801 47.1361 30.3982C47.3451 30.9757 47.4648 31.5629 47.4648 32.041C47.4547 32.6585 47.2957 33.1063 46.9771 33.4052C46.6085 33.7636 45.9118 33.9131 45.0954 34.0721L45.0157 34.0918C44.2392 34.261 43.2632 34.4604 42.5665 35.3066C42.0586 35.9337 41.9491 36.641 41.9591 37.1186C41.9692 37.8951 42.1883 38.6619 42.3772 39.339C42.5266 39.8767 42.666 40.3745 42.6958 40.8128C42.7059 40.9122 42.7059 41.0117 42.7059 41.1016C42.7558 42.5253 41.7501 43.7996 40.5753 45.2935C39.8286 46.2296 39.0521 47.205 38.4846 48.3203C37.947 49.4154 37.6783 50.6205 37.6783 51.9049C37.6783 53.5078 38.1065 55.0911 38.883 56.5446C35.9847 57.56 32.8781 58.1178 29.6424 58.1274L29.6428 58.1273ZM40.2764 56.0069C39.5696 54.7422 39.1713 53.2886 39.1713 51.9048C39.1713 50.8495 39.3904 49.8635 39.8286 48.9775C40.2269 48.1016 40.8939 47.2847 41.5911 46.4188C42.8558 44.8754 44.1499 43.2725 44.1998 41.1019C44.1998 40.9626 44.1998 40.8232 44.1897 40.6839C44.12 40.0068 43.9307 39.3399 43.7716 38.7522C43.5924 38.1151 43.443 37.5672 43.4531 37.1195C43.4531 36.7413 43.5328 36.4924 43.7318 36.2435C44.0105 35.8749 44.5981 35.6957 45.4044 35.5367C45.4842 35.5169 45.5736 35.4968 45.6634 35.4867C46.4202 35.3272 47.2664 35.158 47.9834 34.5012C48.7997 33.7545 48.9593 32.7487 48.9593 32.0419C48.9593 31.3649 48.8098 30.6379 48.5412 29.8811C48.3817 29.4727 48.153 28.8557 47.5754 28.3977C46.9084 27.8898 46.1814 27.86 45.6038 27.8403C45.5145 27.8302 45.4347 27.8302 45.3549 27.8206C43.3935 27.7408 41.8304 27.2632 40.7152 26.3867C39.7095 25.6199 39.0324 24.3355 39.0425 23.2106C39.0425 22.9516 39.0723 22.683 39.142 22.4341C39.4009 21.4385 40.5162 20.5621 41.5315 20.5621H41.5613C41.8299 20.5621 42.0793 20.6217 42.308 20.7216C42.4574 20.7913 42.6165 20.8908 42.7957 21.0104C43.0845 21.1997 43.443 21.4385 43.911 21.598C44.6577 21.8369 45.6134 21.6778 46.2707 21.4885C48.312 20.9008 49.5463 19.4472 50.6419 18.1629L50.8014 17.9639C51.8369 16.7195 52.733 15.7733 53.8483 15.7536C56.3277 19.9355 57.7611 24.8044 57.7712 30.0112C57.7506 41.7185 50.5123 51.7943 40.276 56.0059L40.2764 56.0069Z" fill="#FF5B14"/>
<path d="M31.6143 26.8539C31.017 26.864 30.4793 26.9533 29.9517 27.0432C29.4938 27.1229 29.0657 27.2027 28.6775 27.2027H28.6376C28.3387 27.2027 28.0701 27.1628 27.8212 27.0831C27.4128 26.9836 26.4772 25.9779 25.5412 24.6238C25.372 24.3946 25.2024 24.1558 25.0433 23.917C24.3163 22.8916 23.5696 21.8264 22.783 21.169C22.1257 20.6414 21.2397 20.0441 20.1446 20.0239C19.7165 20.0239 19.308 20.1436 18.9495 20.3627C18.4618 20.6712 18.1826 21.0897 17.964 21.428L17.9044 21.5173C16.4109 23.8373 14.7081 26.4757 14.6985 29.5524C14.6985 29.6817 14.7086 29.7913 14.7086 29.9109C14.7485 30.5283 14.8479 31.1852 15.3659 31.743C16.053 32.4004 16.8195 32.46 17.4368 32.5099C17.7256 32.5296 17.9644 32.5498 18.1437 32.6296C19.6174 32.9683 19.8264 35.7361 19.8562 36.5823L19.936 38.2448C20.0355 40.2961 20.1349 42.3368 20.2349 44.3882V44.4977C20.2747 45.2646 20.3242 46.1305 20.6529 46.9868C21.3102 48.6296 23.0126 49.7348 24.8747 49.7449C25.5018 49.7449 26.0794 49.6156 26.6171 49.3667C27.8716 48.7594 28.688 47.525 28.7077 46.2007C28.7077 45.6433 28.5482 45.1253 28.2296 44.6872C27.9807 44.3686 27.7217 44.1298 27.5127 43.9304C27.3138 43.7512 27.1542 43.6017 27.1043 43.4725C27.0346 43.3331 26.9947 43.164 26.9947 42.9545C26.9947 42.8449 27.0048 42.7253 27.0245 42.596C27.2138 41.2617 28.1797 39.8778 29.9118 38.504C30.2506 38.2253 30.599 37.9562 30.9671 37.6775C32.1318 36.7915 33.3465 35.8752 34.2725 34.5907C35.049 33.5053 35.4772 32.2411 35.4873 31.0061C35.4873 30.0302 35.1985 29.1245 34.6507 28.4172C33.6157 27.0136 32.311 26.8542 31.6143 26.8542L31.6143 26.8539ZM33.0679 33.7141C32.301 34.7794 31.1959 35.6256 30.0311 36.5121C29.6827 36.7807 29.3242 37.0599 28.9759 37.3386C27.6718 38.3938 25.8991 40.0568 25.5507 42.3768C25.5209 42.5858 25.5008 42.7751 25.5008 42.9543C25.5008 43.4122 25.5902 43.8106 25.7795 44.159C26.0485 44.6366 26.3868 44.9355 26.6559 45.1743C26.8154 45.3238 26.9447 45.4429 27.0245 45.5626C27.1537 45.7519 27.2138 45.9508 27.2138 46.1997C27.2436 46.8571 26.6463 47.7229 25.9793 48.0117C25.6506 48.1712 25.2725 48.2505 24.8741 48.2505H24.8544C23.6396 48.2505 22.4351 47.474 22.0468 46.4386C21.8079 45.8509 21.758 45.1345 21.7181 44.3176C21.5985 41.719 21.4793 39.1104 21.3495 36.5017C21.2203 34.3015 20.7821 31.9514 18.5717 31.195C18.1436 31.0955 17.7255 31.0354 17.3968 30.996C16.9091 30.9364 16.5507 30.8865 16.4507 30.7173C16.4507 30.7173 16.4406 30.7173 16.4406 30.7072C16.3114 30.5876 16.2215 30.2493 16.2018 29.8409C16.2018 29.7515 16.1917 29.6617 16.1917 29.5521C16.1816 27.103 17.5857 24.7331 19.1588 22.3334C19.3977 21.9451 19.587 21.716 19.7465 21.6266C19.8661 21.5468 19.9954 21.517 20.1549 21.517H20.1746C20.5927 21.517 21.2697 21.8457 21.8372 22.3233C22.4249 22.7913 23.2413 23.9465 24.0177 25.0613C24.1273 25.2006 24.2268 25.35 24.3262 25.4894L24.5353 25.7782C25.4016 26.9631 26.2281 28.0683 27.353 28.4964C27.7513 28.6257 28.1694 28.6953 28.6374 28.6953C29.2548 28.6852 29.8324 28.5858 30.3398 28.4964C30.7877 28.4267 31.1961 28.347 31.5647 28.347H31.6147C32.3417 28.3768 32.8294 28.5262 33.4665 29.3229L33.4766 29.333C33.8153 29.7909 33.9946 30.3487 33.9946 31.0056C33.9937 31.9022 33.6453 32.9079 33.0677 33.7142L33.0679 33.7141Z" fill="#FF5B14"/>
</svg>
